<svg xmlns="http://www.w3.org/2000/svg" xmlns:xlink="http://www.w3.org/1999/xlink" width="216.036" height="260.859" viewBox="0 0 216.036 260.859">
  <defs>
    <clipPath id="clip-path">
      <path id="Path_12459" data-name="Path 12459" d="M530.332,95.62c.175.428-43.362-7.175-99.345,44.974l35.189,43.32S529.806,140.827,530.332,95.62Z" transform="translate(-430.987 -95.455)" fill="#2baafc"/>
    </clipPath>
  </defs>
  <g id="Group_1372" data-name="Group 1372" transform="translate(-363.581 -95.455)">
    <g id="Group_92" data-name="Group 92" transform="translate(403.252 227.138)">
      <path id="Path_12404" data-name="Path 12404" d="M416.025,339.294c-7.63-12.045-.755-28.667,10.238-37.746s25.138-13.206,37.762-19.835c15.124-7.94,28.835-19.812,45.717-22.406,13.624-2.092,27.967,2.514,38.341,11.59s16.777,22.347,18.207,36.056c2.834,27.187-15.348,55.127-41.355,63.544s-57.112-3.57-70.744-27.262" transform="translate(-412.792 -258.808)" fill="#ededeb"/>
    </g>
    <g id="Group_114" data-name="Group 114" transform="translate(417.153 199.638)">
      <path id="Path_12405" data-name="Path 12405" d="M436.553,341.622s11.944-47.773,61.013-41.282S544.256,349,544.256,349l-26.438,1.968.818,29.794c-14.71,1.657-37.109-3.087-63.84-7.15l.97-21.6Z" transform="translate(-431.3 -239.242)" fill="#007dcd"/>
      <path id="Path_12406" data-name="Path 12406" d="M563.836,359.748s-.013.314-.044.888c-.307,5.734-2.389,37.259-11,36.555-9.477-.773-15.977-5.161-15.434-34.588l26.469-2.541" transform="translate(-450.837 -250.877)" fill="#f5ac8e"/>
      <path id="Path_12407" data-name="Path 12407" d="M543.5,385.558s18.04-40.671,27.574-51.485l11.039,9.694s-16.777,49.988-27.79,48.423S543.5,385.558,543.5,385.558Z" transform="translate(-452.035 -245.899)" fill="#f5ac8e"/>
      <path id="Path_12408" data-name="Path 12408" d="M436.571,352.554l-6.534,19.427,21.59,13.033,2.876-22.768Z" transform="translate(-430.037 -249.482)" fill="#f5ac8e"/>
      <path id="Path_12409" data-name="Path 12409" d="M493.961,281.107l-1.737,12.684s15.9,9.446,25.32-2.83l7.064-47.487c-9.5-9.915-19.693-11.513-30.647-4.134C493.961,239.34,478.137,276.118,493.961,281.107Z" transform="translate(-441.066 -226.642)" fill="#f5ad8c"/>
      <g id="Group_93" data-name="Group 93" transform="translate(52.062 21.864)">
        <path id="Path_12410" data-name="Path 12410" d="M495.022,255.036a5.155,5.155,0,0,1,2.009-2.277,1.957,1.957,0,0,1,2.983,1.388c.043.2.374.208.407,0a2.214,2.214,0,0,0-2.475-2.326c-1.7.124-2.77,1.578-3.314,3.05-.085.229.273.372.39.164Z" transform="translate(-494.619 -251.816)" fill="#222221"/>
      </g>
      <g id="Group_94" data-name="Group 94" transform="translate(56.523 21.876)">
        <path id="Path_12411" data-name="Path 12411" d="M504.956,262.933c.066.057-.023.306-.281.7A3.445,3.445,0,0,1,503.066,265a2.457,2.457,0,0,1-1.637.018,1.952,1.952,0,0,1-.842-.588,2.027,2.027,0,0,1-.415-1.014,4.734,4.734,0,0,1,.284-1.9c.165-.569.359-1.152.564-1.745,1.67-4.767,4.073-8.123,4.362-7.934.322.19-1.516,3.747-3.133,8.368-.2.578-.4,1.141-.574,1.691a4.087,4.087,0,0,0-.308,1.4.784.784,0,0,0,.465.72,1.608,1.608,0,0,0,.972.1,4.049,4.049,0,0,0,1.5-.829C504.66,263.016,504.887,262.873,504.956,262.933Z" transform="translate(-500.153 -251.832)" fill="#f18474"/>
      </g>
      <g id="Group_95" data-name="Group 95" transform="translate(57.705 36.417)">
        <path id="Path_12412" data-name="Path 12412" d="M501.8,272.522c2.1.38,5-.219,6.1-2.281a.255.255,0,0,0-.4-.307,9.513,9.513,0,0,1-2.39,1.718,5.947,5.947,0,0,1-3.181.391c-.31-.05-.449.422-.132.48Z" transform="translate(-501.62 -269.869)" fill="#f18474"/>
      </g>
      <g id="Group_96" data-name="Group 96" transform="translate(62.743 35.607)">
        <path id="Path_12413" data-name="Path 12413" d="M508.119,269.4a1.306,1.306,0,0,1,1.085.435,2.873,2.873,0,0,1,.481,1.049.215.215,0,0,0,.386.051,1.331,1.331,0,0,0-.4-1.563,1.788,1.788,0,0,0-1.616-.474.257.257,0,0,0,.068.5Z" transform="translate(-507.87 -268.864)" fill="#f18474"/>
      </g>
      <g id="Group_97" data-name="Group 97" transform="translate(69.049 24.688)">
        <path id="Path_12414" data-name="Path 12414" d="M516.118,257.535a2.761,2.761,0,0,1,2.93-1.516A2.886,2.886,0,0,1,521.2,258.5c.06.288.488.21.5-.068a3.132,3.132,0,0,0-2.522-3.06,3.2,3.2,0,0,0-3.464,1.927c-.129.268.272.5.4.235Z" transform="translate(-515.692 -255.319)" fill="#222221"/>
      </g>
      <path id="Path_12415" data-name="Path 12415" d="M495.265,237.71a45.969,45.969,0,0,1,7.68-3.282,15.386,15.386,0,0,1,8.252-.324c3.065.83,5.639,2.884,7.968,5.042a10.839,10.839,0,0,1,3.474,4.838c.618,2.306-.215,4.718-.9,7.007a57,57,0,0,0-1.666,7.32,6.687,6.687,0,0,0-.067,2.44,2.452,2.452,0,0,0,1.454,1.847l1.606-.5a51.238,51.238,0,0,0,8.18-14.36,14.156,14.156,0,0,0,1.137-7.248c-.424-2.439-2.267-4.785-4.728-5.048-1.589-.169-3.212.521-4.77.165-1.721-.393-2.89-1.931-4.072-3.245A23.437,23.437,0,0,0,502.5,224.71a14.188,14.188,0,0,0-7.021,1.3,8.052,8.052,0,0,0-4.364,5.437,5.673,5.673,0,0,0,2.823,6.091Z" transform="translate(-441.859 -224.694)"/>
      <path id="Path_12416" data-name="Path 12416" d="M529.831,265.405a2.842,2.842,0,0,1,3.653-.755,3.5,3.5,0,0,1,1.594,3.515,4.592,4.592,0,0,1-2.334,3.2,3.844,3.844,0,0,1-4.127-.045" transform="translate(-449.149 -232.371)" fill="#f5ad8c"/>
      <g id="Group_98" data-name="Group 98" transform="translate(52.639 15.647)">
        <path id="Path_12417" data-name="Path 12417" d="M495.818,246.547a13.891,13.891,0,0,0,3-.455,18.349,18.349,0,0,1,3.314,0,.9.9,0,0,0,.238-1.757c-1.979-.443-5.51-.366-6.906,1.368a.5.5,0,0,0,.351.846Z" transform="translate(-495.336 -244.104)" fill="#2a2a8c"/>
      </g>
      <g id="Group_99" data-name="Group 99" transform="translate(71.587 18.044)">
        <path id="Path_12418" data-name="Path 12418" d="M519.17,248a7.959,7.959,0,0,1,2.464,1.282,24.132,24.132,0,0,1,2.024,1.817.948.948,0,0,0,1.482-1.142,6.115,6.115,0,0,0-2.608-2.212,7.875,7.875,0,0,0-1.523-.548,13.24,13.24,0,0,0-1.715-.11c-.518-.064-.636.812-.124.914Z" transform="translate(-518.84 -247.078)" fill="#2a2a8c"/>
      </g>
      <g id="Group_100" data-name="Group 100" transform="translate(80.822 33.316)">
        <path id="Path_12419" data-name="Path 12419" d="M533.979,267.637a1.421,1.421,0,0,0-1.63-1.609,2.543,2.543,0,0,0-2.046,2.26.338.338,0,0,0,.491.376,1.259,1.259,0,0,1,1.9.429c.358.847-.369,1.438-1.181,1.3-.326-.055-.6.414-.246.584a1.593,1.593,0,0,0,2.2-1.7,1.926,1.926,0,0,0-3.014-1.192l.489.376a2.3,2.3,0,0,1,.915-1.561,1.1,1.1,0,0,1,1.674.733c.057.208.4.23.444,0Z" transform="translate(-530.296 -266.022)" fill="#f18474"/>
      </g>
      <path id="Path_12420" data-name="Path 12420" d="M497.678,251.976a2.45,2.45,0,0,0-.684,1.335,1.726,1.726,0,0,0,.419,1.413,1.342,1.342,0,0,0,1.395.359,1.448,1.448,0,0,0,.795-.806,1.682,1.682,0,0,0-.226-1.7,1.419,1.419,0,0,0-1.636-.387" transform="translate(-443.015 -229.983)" fill="#222221"/>
      <path id="Path_12421" data-name="Path 12421" d="M518.391,255.481a2.451,2.451,0,0,0-.684,1.334,1.73,1.73,0,0,0,.419,1.414,1.34,1.34,0,0,0,1.395.358,1.442,1.442,0,0,0,.8-.806,1.679,1.679,0,0,0-.227-1.7,1.417,1.417,0,0,0-1.635-.388" transform="translate(-447.03 -230.663)" fill="#222221"/>
      <g id="Group_101" data-name="Group 101" transform="translate(93.485 102.986)">
        <path id="Path_12422" data-name="Path 12422" d="M562.455,352.452c.319.212-3.956,6.987-8.468,15.745-4.542,8.748-7.6,16.152-7.955,16.013-.161-.062.4-2,1.561-5.036a121.175,121.175,0,0,1,11.654-22.538C561.054,353.932,562.311,352.356,562.455,352.452Z" transform="translate(-546.005 -352.448)" fill="#f18474"/>
      </g>
      <g id="Group_102" data-name="Group 102" transform="translate(92.875 123.836)">
        <path id="Path_12423" data-name="Path 12423" d="M550.114,378.5c.1.354-.986.962-2.243,1.74s-2.3,1.457-2.569,1.207c-.264-.233.452-1.444,1.889-2.319S550.026,378.157,550.114,378.5Z" transform="translate(-545.248 -378.313)" fill="#f18474"/>
      </g>
      <g id="Group_107" data-name="Group 107" transform="translate(114.673 72.791)">
        <path id="Path_12424" data-name="Path 12424" d="M591.125,334.093c-1.16,1.733-3.429,5.975-3.429,5.975l-15.408-3.176,5.676-11.14-1.329-10.63c2.131-1.258,4.526,7.017,4.526,7.017s9.345-4.329,10.226-1.434a2.378,2.378,0,0,1-.68,2.367s2.165-.8,2.631.377c.392.987-1.05,2.183-1.05,2.183a2.094,2.094,0,0,1,2.443,1.424C595.242,328.672,591.125,334.093,591.125,334.093Z" transform="translate(-572.288 -314.991)" fill="#f5ac8e"/>
        <g id="Group_103" data-name="Group 103" transform="translate(10.325 7.189)">
          <path id="Path_12425" data-name="Path 12425" d="M592.711,324.833c.054.09-.481.547-1.432,1.177a12.232,12.232,0,0,1-4.136,1.823,1.937,1.937,0,0,1-1.494-.282,1.388,1.388,0,0,1-.489-.647,1.131,1.131,0,0,1,.031-.82,2.617,2.617,0,0,1,.79-.917,7.254,7.254,0,0,1,.776-.561c1-.619,1.717-.762,1.751-.672.047.108-.577.43-1.429,1.121-.212.173-.437.37-.664.594a2.238,2.238,0,0,0-.554.7.408.408,0,0,0,0,.3.671.671,0,0,0,.236.282,1.233,1.233,0,0,0,.92.128A17.347,17.347,0,0,0,591,325.529C592.009,325.03,592.654,324.738,592.711,324.833Z" transform="translate(-585.096 -323.909)" fill="#f18474"/>
        </g>
        <g id="Group_104" data-name="Group 104" transform="translate(12.177 10.427)">
          <path id="Path_12426" data-name="Path 12426" d="M594.518,328.188c.058.089-.367.5-1.131,1.066a12.071,12.071,0,0,1-3.314,1.771,3.521,3.521,0,0,1-1.147.207,1.608,1.608,0,0,1-1.151-.435,1.362,1.362,0,0,1-.376-1.071,1.773,1.773,0,0,1,.3-.863,2.615,2.615,0,0,1,.9-.791c.239-.13.388-.172.42-.13s-.056.171-.23.368a3.766,3.766,0,0,0-.612.832.992.992,0,0,0,.1,1.136c.28.268.929.226,1.554,0a21.158,21.158,0,0,0,3.262-1.5C593.92,328.345,594.458,328.1,594.518,328.188Z" transform="translate(-587.394 -327.926)" fill="#f18474"/>
        </g>
        <g id="Group_105" data-name="Group 105" transform="translate(15.381 12.759)">
          <path id="Path_12427" data-name="Path 12427" d="M597.112,331.743c.073.065-.172.518-.8,1.05a5.756,5.756,0,0,1-2.935,1.274,2.489,2.489,0,0,1-1.016-.094,1.444,1.444,0,0,1-.825-.664,1.636,1.636,0,0,1,.113-1.625,2.55,2.55,0,0,1,.692-.714c.187-.128.31-.175.347-.138s-.011.16-.126.347a5.177,5.177,0,0,0-.422.759,1.147,1.147,0,0,0,.018,1.008,1.179,1.179,0,0,0,1.144.342,7.467,7.467,0,0,0,2.693-.947C596.646,331.966,597.027,331.663,597.112,331.743Z" transform="translate(-591.368 -330.819)" fill="#f18474"/>
        </g>
        <g id="Group_106" data-name="Group 106" transform="translate(8.108 10.344)">
          <path id="Path_12428" data-name="Path 12428" d="M582.589,328.331a5.29,5.29,0,0,1,3.443,1.686,7.474,7.474,0,0,1,1.414,3.285c.078.272.56.322.6,0,.413-3.053-2.713-5.383-5.459-5.478-.331-.012-.318.475,0,.507Z" transform="translate(-582.346 -327.824)" fill="#f18474"/>
        </g>
      </g>
      <g id="Group_108" data-name="Group 108" transform="translate(55.882 23.386)">
        <path id="Path_12429" data-name="Path 12429" d="M499.515,254.065a3.476,3.476,0,0,0,.92-.007.168.168,0,0,0,0-.321,3.514,3.514,0,0,0-.92,0,.163.163,0,0,0,0,.326Z" transform="translate(-499.358 -253.704)" fill="#f2e7e2"/>
      </g>
      <g id="Group_109" data-name="Group 109" transform="translate(72.584 26.228)">
        <path id="Path_12430" data-name="Path 12430" d="M520.217,257.558a5.45,5.45,0,0,0,.875.078c.2-.023.293-.346.053-.388a5.853,5.853,0,0,0-.928.021.144.144,0,0,0,0,.289Z" transform="translate(-520.077 -257.23)" fill="#f2e7e2"/>
      </g>
      <g id="Group_110" data-name="Group 110" transform="translate(79.313 21.265)">
        <path id="Path_12431" data-name="Path 12431" d="M528.851,267.284a17.248,17.248,0,0,1,4.81-9.608c1.916-1.9,4.076-3.442,4.979-6.091.178-.52-.624-.725-.815-.225-1.252,3.3-4.561,5.048-6.55,7.848a16.166,16.166,0,0,0-2.849,8.02c-.022.239.387.3.425.056Z" transform="translate(-528.425 -251.074)" fill="#4444ad"/>
      </g>
      <g id="Group_111" data-name="Group 111" transform="translate(55.034 0.967)">
        <path id="Path_12432" data-name="Path 12432" d="M498.884,225.93c-2.573,5.094,4.056,7.749,7.9,8.39.379.064.55-.493.162-.588-3.6-.883-9.642-2.649-7.924-7.744a.075.075,0,0,0-.137-.058Z" transform="translate(-498.306 -225.894)" fill="#4444ad"/>
      </g>
      <g id="Group_112" data-name="Group 112" transform="translate(78.282 11.276)">
        <path id="Path_12433" data-name="Path 12433" d="M528.338,264.535c-1.316-5.765,1.7-10.265,3.846-15.352,1.37-3.253,2.2-6.854.867-10.253-.168-.429-.852-.264-.706.194,2.934,9.158-7.926,16.543-4.536,25.557a.275.275,0,0,0,.53-.146Z" transform="translate(-527.146 -238.681)" fill="#4444ad"/>
      </g>
      <g id="Group_113" data-name="Group 113" transform="translate(63.513 0.64)">
        <path id="Path_12434" data-name="Path 12434" d="M522.906,239.149a12.5,12.5,0,0,0-4.3-8.156c-2.713-2.385-7.023-2.576-9.227-5.4-.228-.293-.7.083-.509.392,1.506,2.485,4.608,2.684,6.971,3.969,3.615,1.965,5.653,5.379,6.713,9.243.052.19.374.16.355-.048Z" transform="translate(-508.824 -225.488)" fill="#4444ad"/>
      </g>
      <path id="Path_12435" data-name="Path 12435" d="M520.227,266.152a4.307,4.307,0,0,1-2.3,2.362,4.537,4.537,0,0,1-3.354.169c-2.611-.661-4.265-3.02-3.7-5.268s3.147-3.532,5.758-2.871a5.961,5.961,0,0,1,3.19,2.345A3.594,3.594,0,0,1,520.227,266.152Z" transform="translate(-445.687 -231.611)" fill="#f18474" opacity="0.39"/>
    </g>
    <g id="Group_115" data-name="Group 115" transform="translate(377.01 180.724)">
      <path id="Path_12436" data-name="Path 12436" d="M416.155,201.231c-12.276,12.938-23.156,27.516-29.7,44.108s-8.495,35.385-3.062,52.373c6.435,20.125,22.684,36.043,41.351,45.944s39.7,14.409,60.6,17.514c1.935.288,4.054.53,5.721-.495,3.453-2.121,1.927-7.93-1.572-9.973s-7.819-1.7-11.858-2.032a34.367,34.367,0,0,1-25.524-15.107c-2.78-4.216-4.979-9.395-9.638-11.346-5.437-2.278-11.575.935-17.465.668-9.86-.447-16.4-10.062-21.312-18.626-4.521-7.886-9.128-16.015-10.437-25.01-1.021-7.012.029-14.141,1.079-21.149,2.884-19.273,9.534-41.376,21.821-56.87" transform="translate(-380.24 -201.231)" fill="#ededeb"/>
    </g>
    <g id="Group_116" data-name="Group 116" transform="translate(458.125 346.533)">
      <path id="Path_12437" data-name="Path 12437" d="M484.823,416.62a4.9,4.9,0,1,0-.092-.019" transform="translate(-480.862 -406.918)" fill="#ededeb"/>
    </g>
    <g id="Group_117" data-name="Group 117" transform="translate(384.131 302.662)">
      <path id="Path_12438" data-name="Path 12438" d="M472.322,387.9c-11.184-1.368-22.746,3.849-32.416-1.457-3.175-1.742-5.489-4.821-8.75-6.4-5.223-2.528-11.386-.652-17.188-.659a26.515,26.515,0,0,1-23.707-15.564c-1.167-2.686-1.826-5.946-.286-8.438,1.725-2.789,5.68-3.487,8.777-2.409s5.507,3.508,7.707,5.94,4.378,5.007,7.278,6.538c6.626,3.495,15.379.75,21.762,4.669,4.615,2.833,6.888,8.543,11.547,11.306,5.671,3.362,25.205-.461,25.276,6.472" transform="translate(-389.073 -352.495)" fill="#f08299"/>
    </g>
    <g id="Group_118" data-name="Group 118" transform="translate(372.791 193.087)">
      <path id="Path_12439" data-name="Path 12439" d="M399.177,216.568c-.439,3.627-4.244,5.74-7.656,7.046s-7.316,2.79-8.606,6.208c-.813,2.15-.374,4.667-1.423,6.713-1.445,2.821-5.312,3.956-6.291,6.971-.909,2.8,1.493,5.919,4.39,6.414s5.842-1.129,7.664-3.436a20.754,20.754,0,0,0,3.414-8.053c.684-2.778,1.245-5.645,2.694-8.112,1.057-1.8,2.549-3.319,3.607-5.121s3.141-6.762,2.207-8.63" transform="translate(-375.006 -216.568)" fill="#fde17e"/>
    </g>
    <g id="Group_119" data-name="Group 119" transform="translate(363.581 245.624)">
      <path id="Path_12440" data-name="Path 12440" d="M364.958,282.993c-.3.285-2.2,3.22-.967,5.524a4.717,4.717,0,1,0,7.894-5.1,4.854,4.854,0,0,0-6.927-.426" transform="translate(-363.581 -281.739)" fill="#fde17e"/>
    </g>
    <g id="Group_120" data-name="Group 120" transform="translate(386.608 239.622)">
      <path id="Path_12441" data-name="Path 12441" d="M395.967,274.7c1.927-1.123,4.124.223,5.025,2.264s.51,4.411-.119,6.551-1.49,4.264-1.5,6.5c-.022,5.826,5.511,10,7.833,15.348.81,1.865,1.241,3.91,2.339,5.62,1.482,2.31,3.982,3.719,6.078,5.491s3.944,4.4,3.324,7.074c-.709,3.067-4.506,4.584-7.564,3.837s-5.442-3.1-7.462-5.514A50.311,50.311,0,0,1,392.9,299.38a39.094,39.094,0,0,1,3.066-24.679" transform="translate(-392.146 -274.294)" fill="#59d2e5"/>
    </g>
    <g id="Group_121" data-name="Group 121" transform="translate(421.302 304.445)">
      <path id="Path_12442" data-name="Path 12442" d="M437.14,355.408a4.977,4.977,0,0,0-1.957,3.959,4.062,4.062,0,0,0,1.641,3.117,6.275,6.275,0,0,0,3.393,1.189,5.224,5.224,0,0,0,4.627-1.765,4.275,4.275,0,0,0-.1-4.849,5.917,5.917,0,0,0-4.431-2.334,5.487,5.487,0,0,0-2.906.529,3.68,3.68,0,0,0-1.884,2.214" transform="translate(-435.184 -354.708)" fill="#f08299"/>
    </g>
    <g id="Group_122" data-name="Group 122" transform="translate(526.999 246.4)">
      <path id="Path_12443" data-name="Path 12443" d="M566.3,354.339c3.977,2.82,21.463-10.3,28.287-20.454s8.8-24.174,2.517-34.664c-1.424-2.376-3.236-4.547-4.236-7.13s-.995-5.824.95-7.8c2.127-2.158,5.827-1.957,8.41-.374s4.313,4.214,5.957,6.759c3.6,5.572,7.24,11.229,9.249,17.552s2.226,13.5-.894,19.354c-2.951,5.536-8.41,9.189-12.83,13.641-3.787,3.816-6.857,8.288-10.58,12.164s-8.346,7.246-13.674,7.957-11.358-1.94-13.155-7.007" transform="translate(-566.301 -282.703)" fill="#007dce"/>
    </g>
    <g id="Group_123" data-name="Group 123" transform="translate(515.559 216.304)">
      <path id="Path_12444" data-name="Path 12444" d="M552.489,253.927c2.25-1.277,5.113-.55,7.407.647s4.4,2.845,6.916,3.461,5.686-.244,6.538-2.687a5.061,5.061,0,0,0-1.536-5.066A14.879,14.879,0,0,0,567,247.508c-2.842-1.195-5.84-2.414-8.906-2.085s-6.139,2.8-5.982,5.878" transform="translate(-552.109 -245.368)" fill="#007dce"/>
    </g>
    <g id="Group_124" data-name="Group 124" transform="translate(552.95 223.397)">
      <path id="Path_12445" data-name="Path 12445" d="M598.8,257.582a6.324,6.324,0,0,0,3.346,7.624,6.122,6.122,0,0,0,7.7-3,5.93,5.93,0,0,0-3.06-7.615c-2.836-1.133-7.116.067-7.99,2.993" transform="translate(-598.493 -254.167)" fill="#007dce"/>
    </g>
    <g id="Group_128" data-name="Group 128" transform="translate(422.411 228.998)">
      <path id="Path_12448" data-name="Path 12448" d="M438.605,309.816c1.855-4.376,3.9-8.457,5.358-13,1.506-4.712,2.628-9.53,4.458-14.139,3.126-7.872,8.062-14.532,15.782-18.291,1.753-.854.522-3.831-1.338-3.175-7.981,2.817-13.562,10.106-17.046,17.53A94.074,94.074,0,0,0,441,292.2c-.776,2.63-1.432,5.3-2.1,7.961-.724,2.867-1.077,5.777-2.239,8.521-.559,1.319,1.381,2.468,1.945,1.137Z" transform="translate(-436.56 -261.115)" fill="#007dce"/>
    </g>
    <g id="Group_137" data-name="Group 137" transform="translate(394.665 95.455)">
      <g id="Group_136" data-name="Group 136">
        <g id="Group_135" data-name="Group 135">
          <path id="Path_12449" data-name="Path 12449" d="M448.437,177.09a24.561,24.561,0,0,0-36.041,5.948l6.5-.575c-1.807,1.841-3.665,3.766-4.51,6.2s-.36,5.539,1.8,6.949c1.74,1.136,4.022.9,6.043.42s4.09-1.162,6.133-.783,3.983,2.331,3.457,4.341c-.872,3.325-6.912,3.191-7.362,6.6-.26,1.966,1.726,3.505,3.62,4.091,6.775,2.093,14.2-2.526,17.531-8.786s3.487-13.683,3.2-20.767" transform="translate(-404.129 -110.24)" fill="#fcbc00"/>
          <g id="Group_129" data-name="Group 129" transform="translate(10.045 95.625)">
            <path id="Path_12450" data-name="Path 12450" d="M420.159,217.192c.8-1.349-.9-2.844-2.089-3.066a2.95,2.95,0,0,0-3.45,2.5,2.786,2.786,0,0,0,3.058,2.971,2.915,2.915,0,0,0,2.472-3.68,1.37,1.37,0,0,0-1.1-.866,1.469,1.469,0,0,0-1.622,1.531c0,.015-.123.25-.023.13a.075.075,0,0,1,.075.018c.069.045.025.029-.134-.05.015-.01.077.047.071.055a.494.494,0,0,1,.484-.127c.555.135.9.7,1.418.917a.661.661,0,0,0,.843-.329Z" transform="translate(-414.601 -214.078)" fill="#fcbc00"/>
          </g>
          <g id="Group_130" data-name="Group 130" transform="translate(21.972 105.137)">
            <path id="Path_12451" data-name="Path 12451" d="M429.4,226.3a.515.515,0,0,0,1.018.148.515.515,0,0,0-1.018-.148Z" transform="translate(-429.397 -225.878)" fill="#fcbc00"/>
          </g>
          <path id="Path_12452" data-name="Path 12452" d="M486.519,186.1s6.9,38.785-34.3,36.047c0,0,19.74-8.713,17.072-21.428Z" transform="translate(-411.849 -113.028)" fill="#2baafc"/>
          <path id="Path_12453" data-name="Path 12453" d="M530.514,95.855s-42.683-6.8-98.48,45.8l34.345,42.281S529.987,141.062,530.514,95.855Z" transform="translate(-407.936 -95.477)" fill="#ededeb"/>
          <path id="Path_12454" data-name="Path 12454" d="M465.506,194.77,430.316,151.45l-2.788,1.689,36.055,44.11Z" transform="translate(-407.063 -106.311)" fill="#007dcd"/>
          <path id="Path_12455" data-name="Path 12455" d="M462.732,160.681,446.6,170.145,423.73,193.332S442.181,184.2,450.7,176.8C453.351,174.492,460.423,166.788,462.732,160.681Z" transform="translate(-406.327 -108.1)" fill="#2baafc"/>
          <path id="Path_12456" data-name="Path 12456" d="M441.866,135.58s-38.568-11.542-39.725,29.732c0,0,10.534-18.83,22.941-14.975Z" transform="translate(-402.141 -102.946)" fill="#2baafc"/>
          <g id="Group_131" data-name="Group 131" transform="translate(30.987 52.581)" opacity="0.1">
            <path id="Path_12457" data-name="Path 12457" d="M466,160.681s-22.655.422-25.419,2.078l8.784,10.814Z" transform="translate(-440.58 -160.681)" fill="#007dce"/>
          </g>
          <g id="Group_133" data-name="Group 133" transform="translate(23.254)">
            <g id="Group_132" data-name="Group 132" clip-path="url(#clip-path)">
              <path id="Path_12458" data-name="Path 12458" d="M516.47,96.205s9.923,20.228,21.339,27.67l18.008-17.141-13.13-25.357L516.559,95.6" transform="translate(-447.56 -92.726)" fill="#2baafc"/>
            </g>
          </g>
          <path id="Path_12460" data-name="Path 12460" d="M502.67,121.1c-7.316-.884-11.616,6.012-11.352,12.648A11.221,11.221,0,0,0,504,144.069a11.759,11.759,0,0,0,9.935-13.536c-1.118-6.822-8.256-12.556-15.266-10.148a1.718,1.718,0,0,0,.454,3.359c4.4.144,8.148.933,10.532,5.025,2.546,4.372-.173,9.918-4.547,11.617-12.094,4.7-15.175-17.684-2.44-17.946a.671.671,0,0,0,0-1.341Z" transform="translate(-419.428 -100.18)" fill="#007dce"/>
          <g id="Group_134" data-name="Group 134" transform="translate(73.285 21.532)" opacity="0.32">
            <path id="Path_12461" data-name="Path 12461" d="M503.008,122.224c-3.668-.489-7.2,2.169-8.794,5.51a11.638,11.638,0,0,0-.837,7.772,10.167,10.167,0,0,0,4.61,6.25,10.034,10.034,0,0,0,12.166-2.024,10.648,10.648,0,0,0,.909-12.418,11.349,11.349,0,0,0-11.6-4.825" transform="translate(-493.051 -122.166)" fill="#2baafc"/>
          </g>
        </g>
      </g>
    </g>
  </g>
</svg>
