<svg xmlns="http://www.w3.org/2000/svg" width="20.342" height="18.986" viewBox="0 0 20.342 18.986">
  <path id="bank" d="M10.171,0,20.342,4.068V5.425H18.986a.63.63,0,0,1-.217.477.727.727,0,0,1-.514.2H2.087a.73.73,0,0,1-.514-.2.631.631,0,0,1-.218-.477H0V4.068ZM2.712,6.781H5.425v8.137H6.781V6.781H9.493v8.137h1.356V6.781h2.712v8.137h1.356V6.781H17.63v8.137h.625a.73.73,0,0,1,.514.2.629.629,0,0,1,.217.477v.678H1.356V15.6a.63.63,0,0,1,.217-.477.727.727,0,0,1,.514-.2h.625V6.781Zm16.9,10.171a.73.73,0,0,1,.514.2.629.629,0,0,1,.217.477v1.356H0V17.63a.63.63,0,0,1,.217-.477.727.727,0,0,1,.514-.2h18.88Z" fill="#fff"/>
</svg>
