<svg id="calendar2-date" xmlns="http://www.w3.org/2000/svg" width="25.173" height="25.173" viewBox="0 0 25.173 25.173">
  <path id="Path_1706" data-name="Path 1706" d="M22.026,3.823H3.147A1.573,1.573,0,0,0,1.573,5.4V22.7a1.573,1.573,0,0,0,1.573,1.573h18.88A1.573,1.573,0,0,0,23.6,22.7V5.4A1.573,1.573,0,0,0,22.026,3.823ZM3.147,2.25A3.147,3.147,0,0,0,0,5.4V22.7A3.147,3.147,0,0,0,3.147,25.85h18.88A3.147,3.147,0,0,0,25.173,22.7V5.4A3.147,3.147,0,0,0,22.026,2.25Z" transform="translate(0 -0.677)" fill-rule="evenodd"/>
  <path id="Path_1707" data-name="Path 1707" d="M7.537,0a.787.787,0,0,1,.787.787v.787a.787.787,0,1,1-1.573,0V.787A.787.787,0,0,1,7.537,0ZM21.7,0a.787.787,0,0,1,.787.787v.787a.787.787,0,1,1-1.573,0V.787A.787.787,0,0,1,21.7,0Z" transform="translate(-2.03 0)" fill-rule="evenodd"/>
  <path id="Path_1708" data-name="Path 1708" d="M5.625,8.662a.787.787,0,0,1,.787-.787H22.145a.787.787,0,0,1,.787.787v1.573a.787.787,0,0,1-.787.787H6.412a.787.787,0,0,1-.787-.787Z" transform="translate(-1.692 -2.368)"/>
</svg>
