<svg xmlns="http://www.w3.org/2000/svg" xmlns:xlink="http://www.w3.org/1999/xlink" width="32" height="32" viewBox="0 0 32 32">
  <defs>
    <clipPath id="clip-path">
      <rect id="Rectangle_3258" data-name="Rectangle 3258" width="32" height="32" transform="translate(21 883)" fill="#fff" stroke="#707070" stroke-width="1"/>
    </clipPath>
  </defs>
  <g id="Mask_Group_1" data-name="Mask Group 1" transform="translate(-21 -883)" clip-path="url(#clip-path)">
    <g id="plus-circle-line" transform="translate(37 873.545) rotate(45)">
      <path id="Path_1981" data-name="Path 1981" d="M26.17,17H19V9.83a1,1,0,0,0-2,0V17H9.83a1,1,0,0,0,0,2H17v7.17a1,1,0,0,0,2,0V19h7.17a1,1,0,0,0,0-2Z" fill="#e31919"/>
      <path id="Path_1982" data-name="Path 1982" d="M18,2A16,16,0,1,0,34,18,16,16,0,0,0,18,2Zm0,30A14,14,0,1,1,32,18,14,14,0,0,1,18,32Z" fill="#e31919"/>
    </g>
  </g>
</svg>
