<svg xmlns="http://www.w3.org/2000/svg" width="22.317" height="17.854" viewBox="0 0 22.317 17.854">
  <g id="cash" transform="translate(-1.125 -4.5)">
    <path id="Path_1723" data-name="Path 1723" d="M21.972,27.363H4.119a.744.744,0,0,1,0-1.488H21.972a.744.744,0,0,1,0,1.488Z" transform="translate(-0.762 -7.241)" fill="#39424e"/>
    <path id="Path_1724" data-name="Path 1724" d="M21.247,30.738H6.369a.744.744,0,0,1,0-1.488H21.247a.744.744,0,0,1,0,1.488Z" transform="translate(-1.524 -8.384)" fill="#39424e"/>
    <path id="Path_1725" data-name="Path 1725" d="M1.869,19.125H1.125v2.232a1.488,1.488,0,0,0,1.488,1.488H4.844V22.1a2.979,2.979,0,0,0-2.976-2.976Z" transform="translate(0 -4.954)" fill="#39424e"/>
    <path id="Path_1726" data-name="Path 1726" d="M22.7,12.683h.744V9.707H22.7a4.469,4.469,0,0,1-4.463-4.463V4.5H6.332v.744A4.469,4.469,0,0,1,1.869,9.707H1.125v2.976h.744a4.469,4.469,0,0,1,4.463,4.463v.744h11.9v-.744A4.469,4.469,0,0,1,22.7,12.683ZM12.283,15.658A4.463,4.463,0,1,1,16.747,11.2,4.463,4.463,0,0,1,12.283,15.658Z" transform="translate(0 0)" fill="#39424e"/>
    <path id="Path_1727" data-name="Path 1727" d="M19.451,13.1a2.976,2.976,0,1,1-2.976-2.976A2.976,2.976,0,0,1,19.451,13.1Z" transform="translate(-4.192 -1.906)" fill="#39424e"/>
    <path id="Path_1728" data-name="Path 1728" d="M29.25,22.1v.744h2.232a1.488,1.488,0,0,0,1.488-1.488V19.125h-.744A2.979,2.979,0,0,0,29.25,22.1Z" transform="translate(-9.528 -4.954)" fill="#39424e"/>
    <path id="Path_1729" data-name="Path 1729" d="M32.226,8.219h.744V5.988A1.488,1.488,0,0,0,31.482,4.5H29.25v.744a2.979,2.979,0,0,0,2.976,2.976Z" transform="translate(-9.528 0)" fill="#39424e"/>
    <path id="Path_1730" data-name="Path 1730" d="M4.844,5.244V4.5H2.613A1.488,1.488,0,0,0,1.125,5.988V8.219h.744A2.979,2.979,0,0,0,4.844,5.244Z" transform="translate(0 0)" fill="#39424e"/>
  </g>
</svg>
