<svg id="Group_1098" data-name="Group 1098" xmlns="http://www.w3.org/2000/svg" width="38.327" height="38.326" viewBox="0 0 38.327 38.326">
  <rect id="Rectangle_2795" data-name="Rectangle 2795" width="38.327" height="38.327" rx="19.163" transform="translate(0 0)" fill="#3a00c2" opacity="0.7"/>
  <path id="contact" d="M17.186,3.375H1.971a.846.846,0,0,0-.846.846V17.182a.846.846,0,0,0,.846.846h3.1V15.956a.7.7,0,0,1,.362-.616l3.239-1.8L7.606,10.874V8.729a1.973,1.973,0,1,1,3.945,0v2.145l-1.066,2.664,3.239,1.8a.7.7,0,0,1,.362.616v2.072h3.1a.846.846,0,0,0,.846-.846V4.221a.846.846,0,0,0-.846-.846ZM16.9,16.9H15.213v-.945a1.832,1.832,0,0,0-.941-1.6L11.9,13.036l.778-1.945V8.729a3.1,3.1,0,1,0-6.2,0v2.363l.778,1.945L4.885,14.355a1.832,1.832,0,0,0-.942,1.6V16.9H2.252V4.5H16.9Z" transform="translate(9.489 8.418)" fill="#fff"/>
</svg>
