<svg xmlns="http://www.w3.org/2000/svg" width="255.501" height="263.649" viewBox="0 0 255.501 263.649">
  <g id="Group_1330" data-name="Group 1330" transform="translate(-332.158 -413.027)">
    <g id="Group_1172" data-name="Group 1172" transform="translate(332.158 413.027)">
      <g id="Group_1171" data-name="Group 1171" transform="translate(0 0)">
        <path id="Path_1896" data-name="Path 1896" d="M565.865,580.693c-34.064,55.849-93.544,74.393-154.722,66.531-72.434-9.307-77.175-84.734-77.272-85.443-9.766-71.467,24.6-115.9,43.124-132.361,25.432-22.6,68.345-22,87.578,2.848,12.506,16.155,23.666,13.546,34.047,12.3s66.062-1.613,82.175,37.9C595.767,519.184,584.182,550.662,565.865,580.693Z" transform="translate(-332.158 -413.027)" fill="#edf2fe"/>
      </g>
    </g>
    <g id="Group_1173" data-name="Group 1173" transform="translate(374.374 475.078)">
      <path id="Path_1897" data-name="Path 1897" d="M650.36,905.467a24.443,24.443,0,0,0,7.461,2.689l1.476,6.331,4.44-.208,4.44-.208.877-6.441a24.445,24.445,0,0,0,7.177-3.375l5.521,3.434,2.993-3.287,2.992-3.287-3.935-5.176a24.441,24.441,0,0,0,2.689-7.461L692.823,887l-.208-4.44-.208-4.44-6.441-.877a24.441,24.441,0,0,0-3.375-7.177l3.434-5.521-3.287-2.992-3.287-2.992-5.176,3.935a24.443,24.443,0,0,0-7.461-2.69l-1.476-6.331-4.44.208-4.44.208-.877,6.441a24.442,24.442,0,0,0-7.177,3.376l-5.521-3.434-2.993,3.287-2.993,3.287,3.935,5.176a24.441,24.441,0,0,0-2.69,7.461l-6.331,1.476.208,4.44.208,4.44,6.441.877a24.438,24.438,0,0,0,3.375,7.177l-3.434,5.521,3.287,2.992,3.287,2.993Zm-.374-32.712a16.676,16.676,0,1,1,1.1,23.558A16.676,16.676,0,0,1,649.986,872.755Z" transform="translate(-631.811 -853.476)" fill="#7d93c6" opacity="0.5" style="mix-blend-mode: multiply;isolation: isolate"/>
    </g>
    <g id="Group_1179" data-name="Group 1179" transform="translate(493.641 485.433)" opacity="0.5" style="mix-blend-mode: multiply;isolation: isolate">
      <g id="Group_1178" data-name="Group 1178" transform="translate(0 0)">
        <g id="Group_1177" data-name="Group 1177">
          <g id="Group_1176" data-name="Group 1176">
            <g id="Group_1175" data-name="Group 1175">
              <g id="Group_1174" data-name="Group 1174">
                <path id="Path_1898" data-name="Path 1898" d="M1503.423,931.717a15.893,15.893,0,0,0-5.087-.857l-1.678-3.881-2.818.648-2.818.648.185,4.224a15.9,15.9,0,0,0-4.2,2.992l-3.932-1.558-1.535,2.45-1.534,2.45,3.118,2.857a15.9,15.9,0,0,0-.857,5.087l-3.881,1.678.648,2.818.648,2.818,4.224-.185a15.894,15.894,0,0,0,2.992,4.2l-1.558,3.932,2.45,1.534,2.45,1.534,2.857-3.118a15.9,15.9,0,0,0,5.087.857l1.678,3.881,2.818-.648,2.818-.648-.185-4.224a15.9,15.9,0,0,0,4.2-2.992l3.932,1.558,1.534-2.45,1.535-2.451-3.118-2.857a15.9,15.9,0,0,0,.857-5.087l3.881-1.678-.648-2.818-.648-2.818-4.224.185a15.9,15.9,0,0,0-2.992-4.2l1.558-3.931-2.45-1.535-2.45-1.534Zm4.03,20.893a10.847,10.847,0,1,1-3.436-14.95A10.846,10.846,0,0,1,1507.453,952.61Z" transform="translate(-1478.385 -926.979)" fill="#7d93c6"/>
              </g>
            </g>
          </g>
        </g>
      </g>
    </g>
    <g id="Group_1184" data-name="Group 1184" transform="translate(348.1 523.221)" opacity="0.5">
      <g id="Group_1183" data-name="Group 1183" transform="translate(0)">
        <g id="Group_1182" data-name="Group 1182">
          <g id="Group_1181" data-name="Group 1181">
            <g id="Group_1180" data-name="Group 1180">
              <path id="Path_1899" data-name="Path 1899" d="M462.707,1201.184a8.266,8.266,0,0,0-1.726-2.055l.644-2.1-1.335-.694-1.335-.694-1.351,1.736a8.27,8.27,0,0,0-2.674-.232L453.9,1195.2l-1.434.453-1.434.453.272,2.183a8.271,8.271,0,0,0-2.055,1.726l-2.1-.644-.694,1.335-.694,1.335,1.736,1.351a8.271,8.271,0,0,0-.232,2.673l-1.943,1.032.453,1.434.453,1.434,2.183-.272a8.272,8.272,0,0,0,1.726,2.055l-.644,2.1,1.335.694,1.335.694,1.351-1.736a8.263,8.263,0,0,0,2.674.232l1.032,1.943,1.434-.453,1.434-.453-.272-2.183a8.272,8.272,0,0,0,2.055-1.726l2.1.644.694-1.335.694-1.334-1.736-1.351a8.27,8.27,0,0,0,.232-2.674l1.943-1.032-.453-1.434-.453-1.434Zm-5.45,9.635a5.643,5.643,0,1,1,3.681-7.081A5.643,5.643,0,0,1,457.257,1210.82Z" transform="translate(-445.317 -1195.199)" fill="#7d93c6" style="mix-blend-mode: multiply;isolation: isolate"/>
            </g>
          </g>
        </g>
      </g>
    </g>
    <g id="Group_1189" data-name="Group 1189" transform="translate(520.312 543.175)" opacity="0.5">
      <g id="Group_1188" data-name="Group 1188" transform="translate(0 0)">
        <g id="Group_1187" data-name="Group 1187">
          <g id="Group_1186" data-name="Group 1186">
            <g id="Group_1185" data-name="Group 1185">
              <path id="Path_1900" data-name="Path 1900" d="M1683.8,1340.331a13.854,13.854,0,0,0-4.353,1.129l-2.717-2.491-2.012,1.518-2.012,1.519,1.651,3.3a13.859,13.859,0,0,0-2.279,3.877l-3.683.16-.349,2.5-.349,2.5,3.5,1.163a13.852,13.852,0,0,0,1.129,4.353l-2.491,2.717,1.518,2.011,1.519,2.012,3.3-1.651a13.85,13.85,0,0,0,3.877,2.279l.16,3.683,2.5.349,2.5.349,1.163-3.5a13.86,13.86,0,0,0,4.353-1.129l2.717,2.491,2.012-1.519,2.011-1.518-1.651-3.3a13.851,13.851,0,0,0,2.279-3.877l3.683-.16.349-2.5.349-2.5-3.5-1.163a13.861,13.861,0,0,0-1.129-4.353l2.491-2.717-1.518-2.011-1.519-2.012-3.3,1.651a13.861,13.861,0,0,0-3.877-2.279l-.16-3.683-2.5-.349-2.5-.349Zm10.645,15.191a9.455,9.455,0,1,1-8.056-10.672A9.455,9.455,0,0,1,1694.443,1355.522Z" transform="translate(-1667.698 -1336.833)" fill="#7d93c6" style="mix-blend-mode: multiply;isolation: isolate"/>
            </g>
          </g>
        </g>
      </g>
    </g>
    <g id="Group_1194" data-name="Group 1194" transform="translate(547.263 469.138)" opacity="0.5">
      <g id="Group_1193" data-name="Group 1193" transform="translate(0 0)">
        <g id="Group_1192" data-name="Group 1192">
          <g id="Group_1191" data-name="Group 1191">
            <g id="Group_1190" data-name="Group 1190">
              <path id="Path_1901" data-name="Path 1901" d="M1866.231,812.887a6.23,6.23,0,0,0-1.956.508l-1.221-1.119-.9.682-.9.682.742,1.481a6.22,6.22,0,0,0-1.024,1.742l-1.656.072-.157,1.122-.157,1.122,1.572.523a6.226,6.226,0,0,0,.507,1.956l-1.119,1.221.682.9.682.9,1.481-.742a6.228,6.228,0,0,0,1.743,1.024l.072,1.655,1.122.157,1.122.157.523-1.572a6.232,6.232,0,0,0,1.956-.508l1.221,1.12.9-.682.9-.683-.742-1.481a6.225,6.225,0,0,0,1.024-1.742l1.655-.072.157-1.122.157-1.122-1.572-.523a6.233,6.233,0,0,0-.508-1.956l1.12-1.221-.683-.9-.682-.9-1.481.742a6.229,6.229,0,0,0-1.742-1.024l-.072-1.655-1.122-.157-1.122-.157Zm4.784,6.827a4.25,4.25,0,1,1-3.621-4.8A4.249,4.249,0,0,1,1871.015,819.714Z" transform="translate(-1858.995 -811.315)" fill="#7d93c6" style="mix-blend-mode: multiply;isolation: isolate"/>
            </g>
          </g>
        </g>
      </g>
    </g>
    <g id="Group_1199" data-name="Group 1199" transform="translate(411.394 433.675)">
      <g id="Group_1198" data-name="Group 1198">
        <g id="Group_1197" data-name="Group 1197">
          <g id="Group_1196" data-name="Group 1196">
            <g id="Group_1195" data-name="Group 1195">
              <path id="Path_1902" data-name="Path 1902" d="M895.419,567.34a95.047,95.047,0,0,1,12.233.033,3.25,3.25,0,0,0,3.528-3.292,4.968,4.968,0,0,0-1.03-2.74c-2.812-3.994-7.7-.18-7.654,1.848,0,0-.988-3.053-3.99-2.519s-1.94,4.975-1.94,4.975a2.414,2.414,0,0,0-1.64.254A.791.791,0,0,0,895.419,567.34Z" transform="translate(-894.58 -559.592)" fill="#fff"/>
            </g>
          </g>
        </g>
      </g>
    </g>
    <path id="Path_1903" data-name="Path 1903" d="M1465,777.033c-2.354-4.153-6.882-1.966-6.882-1.966-2.548-5.067-6.862-1.538-6.862-1.538s.637-10.065-8.289-9.944c-7.783.106-7.971,10.385-7.971,10.385a4.662,4.662,0,0,0-3.3.991,1.51,1.51,0,0,0-.151,2.072Z" transform="translate(-944.211 -301.17)" fill="#fff"/>
    <path id="Path_1904" data-name="Path 1904" d="M564.584,755.176c-1.889-3.333-5.523-1.578-5.523-1.578-2.045-4.066-5.507-1.235-5.507-1.235s.511-8.077-6.652-7.98c-6.246.085-6.4,8.334-6.4,8.334a3.742,3.742,0,0,0-2.647.8,1.211,1.211,0,0,0-.121,1.663Z" transform="translate(-176.38 -284.674)" fill="#fff"/>
    <g id="Group_1329" data-name="Group 1329" transform="translate(368.58 448.613)">
      <path id="Path_1905" data-name="Path 1905" d="M608.206,1664.945c-.146,2.066-17.524,87.276-17.524,87.276H648.69s3.412-55.43,13.22-71.272S608.206,1664.945,608.206,1664.945Z" transform="translate(-590.682 -1524.158)" fill="#ffb294"/>
      <g id="Group_1200" data-name="Group 1200" transform="translate(16.516 102.939)">
        <path id="Path_1906" data-name="Path 1906" d="M762.109,1396.413c-4.569-1.315-20.91,8.6-25.131,10.708-2.685,1.337-12.918,6.2-20.012,9.568l-.568-.5-5.351,3.31-1.172.555.133.088-.105.065-1.957,27.783a13.506,13.506,0,0,0,9.575,13.879c5.076,1.532,20.076,3.84,26.277,4.638a13.521,13.521,0,0,0,14.436-8.875s17.2-28.454,19.113-30.454c3.415-3.563,7.076-18.467,7.076-18.467S766.678,1397.728,762.109,1396.413Z" transform="translate(-707.913 -1396.294)" fill="#ffb294"/>
      </g>
      <g id="Group_1201" data-name="Group 1201" transform="translate(67.979 134.29)">
        <path id="Path_1907" data-name="Path 1907" d="M1073.548,1647.208a.291.291,0,0,1-.3-.44l17.049-27.8a.291.291,0,0,1,.5.307l-17.049,27.8A.29.29,0,0,1,1073.548,1647.208Z" transform="translate(-1073.205 -1618.829)" fill="#010103"/>
      </g>
      <g id="Group_1203" data-name="Group 1203" transform="translate(92.851 40.794)">
        <g id="Group_1202" data-name="Group 1202">
          <path id="Path_1908" data-name="Path 1908" d="M1249.749,956.363s7.569-3.711,10.828,2-3.21,11.377-5.346,12.385S1249.749,956.363,1249.749,956.363Z" transform="translate(-1249.749 -955.179)" fill="#ffb294"/>
        </g>
      </g>
      <g id="Group_1205" data-name="Group 1205" transform="translate(95.317 54.416)">
        <g id="Group_1204" data-name="Group 1204">
          <path id="Path_1909" data-name="Path 1909" d="M1267.254,1053.057s7.569-3.711,10.828,2-3.21,11.377-5.346,12.385S1267.254,1053.057,1267.254,1053.057Z" transform="translate(-1267.254 -1051.872)" fill="#ffb294"/>
        </g>
      </g>
      <g id="Group_1207" data-name="Group 1207" transform="translate(95.13 66.9)">
        <g id="Group_1206" data-name="Group 1206">
          <path id="Path_1910" data-name="Path 1910" d="M1265.928,1141.672s7.57-3.711,10.828,2-3.21,11.377-5.346,12.384S1265.928,1141.672,1265.928,1141.672Z" transform="translate(-1265.928 -1140.487)" fill="#ffb294"/>
        </g>
      </g>
      <g id="Group_1208" data-name="Group 1208" transform="translate(39.7 55.152)">
        <path id="Path_1911" data-name="Path 1911" d="M872.823,1088.838a.291.291,0,0,1-.308-.425l2.963-5.465c6.515-10.069,5.158-15.6,5.143-15.655-1.12-4.632-3.163-7-4.68-8.171a6.975,6.975,0,0,0-3.046-1.448.291.291,0,0,1,.068-.578,7.374,7.374,0,0,1,3.3,1.539c1.6,1.227,3.759,3.7,4.923,8.514.061.225,1.457,5.793-5.213,16.105l-2.946,5.436A.291.291,0,0,1,872.823,1088.838Z" transform="translate(-872.48 -1057.094)" fill="#010103"/>
      </g>
      <g id="Group_1209" data-name="Group 1209" transform="translate(37.573 56.384)">
        <path id="Path_1912" data-name="Path 1912" d="M861.021,1067.59a2.124,2.124,0,0,1,1.183,1.742l.063-.193a2.043,2.043,0,0,0-1.091-2.257,17.447,17.447,0,0,0-3.358-1.041,3.386,3.386,0,0,0-.441.652A17.517,17.517,0,0,1,861.021,1067.59Z" transform="translate(-857.377 -1065.841)" fill="#fcb6a9"/>
      </g>
      <g id="Group_1214" data-name="Group 1214" transform="translate(24.266 128.009)">
        <g id="Group_1211" data-name="Group 1211">
          <g id="Group_1210" data-name="Group 1210">
            <path id="Path_1913" data-name="Path 1913" d="M766.014,1582.544a.267.267,0,0,1-.25-.088c-2.156-2.487-2.81-7.69-2.837-7.91a.267.267,0,0,1,.53-.065c.006.052.662,5.261,2.71,7.625a.267.267,0,0,1-.027.377A.263.263,0,0,1,766.014,1582.544Z" transform="translate(-762.926 -1574.247)" fill="#010103"/>
          </g>
        </g>
        <g id="Group_1213" data-name="Group 1213" transform="translate(1.924 1.838)">
          <g id="Group_1212" data-name="Group 1212">
            <path id="Path_1914" data-name="Path 1914" d="M781.283,1594.806a.266.266,0,0,1-.207-.048c-2.641-1.964-4.4-6.9-4.476-7.112a.267.267,0,0,1,.5-.177c.017.05,1.781,4.994,4.291,6.86a.267.267,0,0,1,.055.374A.264.264,0,0,1,781.283,1594.806Z" transform="translate(-776.585 -1587.29)" fill="#010103"/>
          </g>
        </g>
      </g>
      <g id="Group_1304" data-name="Group 1304" transform="translate(30.653 0)">
        <g id="Group_1216" data-name="Group 1216" transform="translate(2.477 2.435)">
          <g id="Group_1215" data-name="Group 1215">
            <path id="Path_1915" data-name="Path 1915" d="M887.16,685.123c-.005-.038-.011-.076-.018-.113a2.537,2.537,0,0,0-2.631-2.1l-.114.007-.038,0-56.253,6.274-.037.006-.113.018a2.537,2.537,0,0,0-2.1,2.63c0,.038,0,.076.007.114,0,.013,0,.025,0,.038l13.046,116.964a2.216,2.216,0,0,0,2.448,1.956l56.9-6.347a2.216,2.216,0,0,0,1.956-2.448L887.166,685.16C887.164,685.147,887.161,685.135,887.16,685.123Z" transform="translate(-825.849 -682.905)" fill="#fff"/>
          </g>
        </g>
        <g id="Group_1217" data-name="Group 1217" transform="translate(1.439 1.277)">
          <path id="Path_1916" data-name="Path 1916" d="M818.475,684.322l4.249-3.663,54.827-5.972,5.279,3.692s.081,4.944-.212,5.053-63.833,7.944-63.94,6.965S818.475,684.322,818.475,684.322Z" transform="translate(-818.475 -674.686)" fill="#083971"/>
        </g>
        <g id="Group_1218" data-name="Group 1218" transform="translate(12.598 95.911)">
          <path id="Path_1917" data-name="Path 1917" d="M897.684,1353.092l2.939,25.9a2.215,2.215,0,0,0,2.448,1.956l56.9-6.347a2.216,2.216,0,0,0,1.956-2.448l-2.921-25.743Z" transform="translate(-897.684 -1346.412)" fill="#083971"/>
        </g>
        <g id="Group_1231" data-name="Group 1231" transform="translate(5.909 11.514)" opacity="0.5">
          <g id="Group_1222" data-name="Group 1222" transform="translate(0 0.584)">
            <g id="Group_1221" data-name="Group 1221">
              <g id="Group_1220" data-name="Group 1220">
                <g id="Group_1219" data-name="Group 1219">
                  <path id="Path_1918" data-name="Path 1918" d="M851.9,752.254a.85.85,0,0,1-.413.827.852.852,0,0,1-1.279-.638.851.851,0,0,1,1.692-.189Z" transform="translate(-850.206 -751.497)" fill="#fff"/>
                </g>
              </g>
            </g>
          </g>
          <g id="Group_1226" data-name="Group 1226" transform="translate(2.618 0.292)">
            <g id="Group_1225" data-name="Group 1225">
              <g id="Group_1224" data-name="Group 1224">
                <g id="Group_1223" data-name="Group 1223">
                  <path id="Path_1919" data-name="Path 1919" d="M870.487,750.181a.851.851,0,1,1-.941-.752A.85.85,0,0,1,870.487,750.181Z" transform="translate(-868.789 -749.424)" fill="#fff"/>
                </g>
              </g>
            </g>
          </g>
          <g id="Group_1230" data-name="Group 1230" transform="translate(5.236)">
            <g id="Group_1229" data-name="Group 1229">
              <g id="Group_1228" data-name="Group 1228">
                <g id="Group_1227" data-name="Group 1227">
                  <path id="Path_1920" data-name="Path 1920" d="M889.07,748.108a.85.85,0,0,1-.413.827.851.851,0,0,1-1.279-.638.851.851,0,1,1,1.692-.189Z" transform="translate(-887.372 -747.351)" fill="#fff"/>
                </g>
              </g>
            </g>
          </g>
        </g>
        <g id="Group_1236" data-name="Group 1236">
          <g id="Group_1235" data-name="Group 1235">
            <g id="Group_1234" data-name="Group 1234">
              <g id="Group_1233" data-name="Group 1233">
                <g id="Group_1232" data-name="Group 1232">
                  <path id="Path_1921" data-name="Path 1921" d="M884.969,786.065a3.434,3.434,0,0,1-3.032,3.793l-54.478,6.077a3.434,3.434,0,0,1-3.794-3.032L810.9,678.433a3.831,3.831,0,0,1,3.383-4.232l53.689-5.989a3.831,3.831,0,0,1,4.232,3.383ZM867.8,665.661l-53.913,6.013a6.321,6.321,0,0,0-5.581,6.983l12.9,115.648a6.321,6.321,0,0,0,6.983,5.581l53.913-6.013a6.32,6.32,0,0,0,5.581-6.983l-12.9-115.648A6.32,6.32,0,0,0,867.8,665.661Z" transform="translate(-808.264 -665.621)" fill="#20111d"/>
                </g>
              </g>
            </g>
          </g>
        </g>
        <g id="Group_1237" data-name="Group 1237" transform="translate(14.37 78.996)" opacity="0.5">
          <rect id="Rectangle_3123" data-name="Rectangle 3123" width="54.114" height="1.534" transform="translate(0 5.86) rotate(-6.217)" fill="#5ab3bf"/>
        </g>
        <g id="Group_1238" data-name="Group 1238" transform="translate(14.929 84.132)" opacity="0.5">
          <rect id="Rectangle_3124" data-name="Rectangle 3124" width="54.114" height="1.534" transform="translate(0 5.86) rotate(-6.217)" fill="#5ab3bf"/>
        </g>
        <g id="Group_1239" data-name="Group 1239" transform="translate(15.489 89.268)" opacity="0.5">
          <rect id="Rectangle_3125" data-name="Rectangle 3125" width="54.114" height="1.534" transform="translate(0 5.86) rotate(-6.217)" fill="#5ab3bf"/>
        </g>
        <g id="Group_1302" data-name="Group 1302" transform="translate(12.354 24.731)">
          <g id="Group_1240" data-name="Group 1240">
            <path id="Path_1922" data-name="Path 1922" d="M944.449,860.865a24.416,24.416,0,0,1,.028,9.466c-.015.071-.029.142-.043.213,0,.015-.006.031-.009.045a24.5,24.5,0,0,1-3.121,7.872l-.133.212c-.047.076-.094.15-.144.226a24.5,24.5,0,0,1-26.609,10.485q-.963-.245-1.9-.568c-.106-.036-.212-.072-.317-.111q-.427-.153-.848-.321l-.288-.118a24.639,24.639,0,0,1-5.487-3.164q-.916-.7-1.764-1.482a24.481,24.481,0,1,1,40.634-22.756Z" transform="translate(-895.956 -841.165)" fill="#69d55a"/>
          </g>
          <g id="Group_1301" data-name="Group 1301" transform="translate(4.539 4.945)">
            <g id="Group_1292" data-name="Group 1292" transform="translate(3.477)">
              <g id="Group_1243" data-name="Group 1243">
                <g id="Group_1242" data-name="Group 1242">
                  <g id="Group_1241" data-name="Group 1241">
                    <path id="Path_1923" data-name="Path 1923" d="M959.507,886.26s-2.678-3.861,1.462-8.322,6.081,1.388,8.057,1.587,5.223-1.123,7.142,2.13,1.7,5.951,3.773,6.124,9.479,3.95,9.045,10.821a8.141,8.141,0,0,1-6.886,7.712s-24.866,5.762-27.78-.44-1.019-9.477,1.749-12.274C957.77,891.879,961.488,890.02,959.507,886.26Z" transform="translate(-952.858 -876.265)" fill="#010103"/>
                  </g>
                </g>
              </g>
              <g id="Group_1280" data-name="Group 1280" transform="translate(9.577 9.686)">
                <g id="Group_1247" data-name="Group 1247">
                  <g id="Group_1246" data-name="Group 1246">
                    <g id="Group_1245" data-name="Group 1245">
                      <g id="Group_1244" data-name="Group 1244">
                        <path id="Path_1924" data-name="Path 1924" d="M1020.889,946.883s-.442,9.314,1.3,11.192a3.212,3.212,0,0,0,2.671.858l.578,5.741,8.1-.817-1.9-18.837Z" transform="translate(-1020.839 -945.021)" fill="#ffb294"/>
                      </g>
                    </g>
                  </g>
                </g>
                <g id="Group_1251" data-name="Group 1251" transform="translate(2.279 4.568)">
                  <g id="Group_1250" data-name="Group 1250">
                    <g id="Group_1249" data-name="Group 1249">
                      <g id="Group_1248" data-name="Group 1248">
                        <path id="Path_1925" data-name="Path 1925" d="M1038.161,981.679a.074.074,0,0,0,0-.148c-.485-.054-.844-.609-.95-.792a2.23,2.23,0,0,0,1.084-1.518,2.418,2.418,0,0,0-.565-1.75.074.074,0,1,0-.111.1,2.31,2.31,0,0,1,.529,1.632,2.126,2.126,0,0,1-1.076,1.451l-.056.036.03.059c.018.035.44.857,1.1.93Z" transform="translate(-1037.017 -977.447)" fill="#ed7163"/>
                      </g>
                    </g>
                  </g>
                </g>
                <g id="Group_1255" data-name="Group 1255" transform="translate(4.026 11.538)">
                  <g id="Group_1254" data-name="Group 1254">
                    <g id="Group_1253" data-name="Group 1253">
                      <g id="Group_1252" data-name="Group 1252">
                        <path id="Path_1926" data-name="Path 1926" d="M1049.651,1031.6l-.233-2.31s3.881-.623,6.124-2.374C1055.542,1026.92,1052.606,1030.373,1049.651,1031.6Z" transform="translate(-1049.418 -1026.92)" fill="#ed7163"/>
                      </g>
                    </g>
                  </g>
                </g>
                <g id="Group_1259" data-name="Group 1259" transform="translate(3.893 3.344)">
                  <g id="Group_1258" data-name="Group 1258">
                    <g id="Group_1257" data-name="Group 1257">
                      <g id="Group_1256" data-name="Group 1256">
                        <path id="Path_1927" data-name="Path 1927" d="M1052.136,969.866a.149.149,0,0,0,.081-.261c-.021-.017-2.108-1.762-3.7-.194a.148.148,0,1,0,.208.211c1.4-1.376,3.22.143,3.3.209A.149.149,0,0,0,1052.136,969.866Z" transform="translate(-1048.475 -968.758)" fill="#2f0e1b"/>
                      </g>
                    </g>
                  </g>
                </g>
                <g id="Group_1263" data-name="Group 1263" transform="translate(0.171 3.832)">
                  <g id="Group_1262" data-name="Group 1262">
                    <g id="Group_1261" data-name="Group 1261">
                      <g id="Group_1260" data-name="Group 1260">
                        <path id="Path_1928" data-name="Path 1928" d="M1024.27,973.039a.149.149,0,0,0,.071-.269c-.06-.042-1.488-1.034-2.249-.235a.148.148,0,0,0,.215.2c.585-.613,1.851.264,1.864.273A.148.148,0,0,0,1024.27,973.039Z" transform="translate(-1022.05 -972.224)" fill="#2f0e1b"/>
                      </g>
                    </g>
                  </g>
                </g>
                <g id="Group_1267" data-name="Group 1267" transform="translate(0.814 5.507)">
                  <g id="Group_1266" data-name="Group 1266">
                    <g id="Group_1265" data-name="Group 1265">
                      <g id="Group_1264" data-name="Group 1264">
                        <path id="Path_1929" data-name="Path 1929" d="M1026.62,984.567a.413.413,0,1,0,.37-.453A.413.413,0,0,0,1026.62,984.567Z" transform="translate(-1026.618 -984.112)" fill="#010103"/>
                      </g>
                    </g>
                  </g>
                </g>
                <g id="Group_1271" data-name="Group 1271" transform="translate(4.896 5.032)">
                  <g id="Group_1270" data-name="Group 1270">
                    <g id="Group_1269" data-name="Group 1269">
                      <g id="Group_1268" data-name="Group 1268">
                        <path id="Path_1930" data-name="Path 1930" d="M1055.6,981.2a.413.413,0,1,0,.37-.453A.414.414,0,0,0,1055.6,981.2Z" transform="translate(-1055.594 -980.741)" fill="#010103"/>
                      </g>
                    </g>
                  </g>
                </g>
                <g id="Group_1275" data-name="Group 1275" transform="translate(9.854 4.278)">
                  <g id="Group_1274" data-name="Group 1274">
                    <g id="Group_1273" data-name="Group 1273">
                      <g id="Group_1272" data-name="Group 1272">
                        <path id="Path_1931" data-name="Path 1931" d="M1090.795,977.936a2.317,2.317,0,1,0,2.073-2.538A2.317,2.317,0,0,0,1090.795,977.936Z" transform="translate(-1090.783 -975.386)" fill="#ffb294"/>
                      </g>
                    </g>
                  </g>
                </g>
                <g id="Group_1279" data-name="Group 1279" transform="translate(11.424 5.377)">
                  <g id="Group_1278" data-name="Group 1278">
                    <g id="Group_1277" data-name="Group 1277">
                      <g id="Group_1276" data-name="Group 1276">
                        <path id="Path_1932" data-name="Path 1932" d="M1102.989,985.809a.976.976,0,0,0,.84-.819.916.916,0,0,0-.475-1.027,1.092,1.092,0,0,0-1.193.147,1.025,1.025,0,0,1,.4-.58,1.44,1.44,0,0,1,1.008-.167.074.074,0,0,0,.032-.145,1.568,1.568,0,0,0-1.125.19,1.262,1.262,0,0,0-.508.906l-.038.263.169-.206a1,1,0,0,1,1.192-.274.778.778,0,0,1,.395.867.82.82,0,0,1-.721.7.074.074,0,1,0,.013.148Z" transform="translate(-1101.928 -983.185)" fill="#ed7163"/>
                      </g>
                    </g>
                  </g>
                </g>
              </g>
              <g id="Group_1283" data-name="Group 1283" transform="translate(9.627 6.921)">
                <g id="Group_1282" data-name="Group 1282">
                  <g id="Group_1281" data-name="Group 1281">
                    <path id="Path_1933" data-name="Path 1933" d="M1021.194,930.021s.344-3.619,5.052-4.488,5.707,2.626,5.707,2.626l-5.308,1.645-5.1.157Z" transform="translate(-1021.194 -925.394)" fill="#ffb294"/>
                  </g>
                </g>
              </g>
              <g id="Group_1286" data-name="Group 1286" transform="translate(9.324 5.767)">
                <g id="Group_1285" data-name="Group 1285">
                  <g id="Group_1284" data-name="Group 1284">
                    <path id="Path_1934" data-name="Path 1934" d="M1019.043,919.974s3.244,2.594,7.01,1.552c0,0,1.75,4.552,4.5,4.056s.588-6.828.588-6.828-5.4-1.589-5.725-1.556-5.86.259-5.86.259Z" transform="translate(-1019.043 -917.198)" fill="#010103"/>
                  </g>
                </g>
              </g>
              <g id="Group_1291" data-name="Group 1291" transform="translate(12.374 18.739)">
                <g id="Group_1290" data-name="Group 1290">
                  <g id="Group_1289" data-name="Group 1289">
                    <g id="Group_1288" data-name="Group 1288">
                      <g id="Group_1287" data-name="Group 1287">
                        <path id="Path_1935" data-name="Path 1935" d="M1040.693,1010.122c.04-.02,2.7-.842,2.7-.842a1.447,1.447,0,0,1-2.7.842Z" transform="translate(-1040.693 -1009.28)" fill="#fbfdfa"/>
                      </g>
                    </g>
                  </g>
                </g>
              </g>
            </g>
            <g id="Group_1295" data-name="Group 1295" transform="translate(0 23.778)">
              <g id="Group_1294" data-name="Group 1294">
                <g id="Group_1293" data-name="Group 1293">
                  <path id="Path_1936" data-name="Path 1936" d="M968.211,1045.048a12.6,12.6,0,0,1,3.9.655c0,.015-.006.031-.009.045a24.5,24.5,0,0,1-3.121,7.872l-.133.212c-.047.076-.094.151-.144.226a24.5,24.5,0,0,1-26.609,10.485q-.963-.245-1.9-.567c-.106-.036-.212-.072-.317-.111q-.427-.153-.848-.321l-.288-.118a24.638,24.638,0,0,1-5.487-3.164q-.916-.7-1.764-1.482a24.468,24.468,0,0,1-3.319-3.768c1.029-1.028,3.24-2.08,5.808-3.044,1.994-.748,4.2-1.444,6.244-2.034,2.126-.616,4.069-1.117,5.393-1.445,1.1-.271,1.768-.423,1.768-.423s2.716-.528,6.259-1.141c1.6-.277,3.367-.571,5.13-.845h.013c1.351-.208,2.7-.4,3.962-.565,1.873-.24,3.567-.412,4.831-.454.1,0,.2-.006.291-.008h.032c.076,0,.151,0,.223,0Z" transform="translate(-928.176 -1045.047)" fill="#474ae5"/>
                </g>
              </g>
            </g>
            <g id="Group_1298" data-name="Group 1298" transform="translate(34.578 23.78)">
              <g id="Group_1297" data-name="Group 1297">
                <g id="Group_1296" data-name="Group 1296">
                  <path id="Path_1937" data-name="Path 1937" d="M1183.018,1045.5c-.015.071-.029.142-.043.213,0,.015-.006.031-.009.045a9.237,9.237,0,0,0-1.487-.312,22.364,22.364,0,0,0-3.092-.119q-2.006.043-4.626.327a.133.133,0,0,1-.145-.117.072.072,0,0,1,0-.015.131.131,0,0,1,.118-.131c1.779-.192,3.354-.3,4.714-.327l.291,0h.031c.1,0,.2,0,.3,0a20.478,20.478,0,0,1,2.439.127A9.392,9.392,0,0,1,1183.018,1045.5Z" transform="translate(-1173.615 -1045.055)" fill="#010103"/>
                </g>
              </g>
            </g>
            <g id="Group_1300" data-name="Group 1300" transform="translate(12.051 24.81)">
              <g id="Group_1299" data-name="Group 1299">
                <path id="Path_1938" data-name="Path 1938" d="M1013.714,1056.221s10.949,7.286,18.566-3.855C1032.28,1052.366,1021.226,1053.3,1013.714,1056.221Z" transform="translate(-1013.714 -1052.366)" fill="#ffb294"/>
              </g>
            </g>
          </g>
        </g>
        <path id="Path_1939" data-name="Path 1939" d="M1025.161,1409.468c-.077.008-24.218,2.713-24.281,2.722h-.008a5.8,5.8,0,0,0,1.453,11.514c.08-.009.158-.02.237-.032l23.661-2.648h0c.065,0,.13-.009.195-.016a5.8,5.8,0,0,0-1.257-11.54Z" transform="translate(-969.459 -1304.643)" fill="#5ab3bf" style="mix-blend-mode: multiply;isolation: isolate"/>
        <g id="Group_1303" data-name="Group 1303" transform="translate(30.903 107.474)">
          <path id="Path_1940" data-name="Path 1940" d="M1028.271,1454.568l-.651-5.813,1.381-.155a4.53,4.53,0,0,1,1.1-.013,2.117,2.117,0,0,1,.787.267,2.35,2.35,0,0,1,.858.916,3.8,3.8,0,0,1,.421,1.417,2.933,2.933,0,0,1-.5,2.262,3.1,3.1,0,0,1-2.154.98Zm.646-5.41-.6.067.526,4.7.518-.058a4.564,4.564,0,0,0,1.028-.21,1.648,1.648,0,0,0,.615-.383,1.818,1.818,0,0,0,.472-.844,3.14,3.14,0,0,0,.066-1.168,3.389,3.389,0,0,0-.327-1.178,1.784,1.784,0,0,0-.658-.731,1.631,1.631,0,0,0-.637-.223A4.317,4.317,0,0,0,1028.917,1449.158Z" transform="translate(-1027.62 -1445.73)" fill="#fff"/>
          <path id="Path_1941" data-name="Path 1941" d="M1066.969,1449.087l-.651-5.813,3.43-.384.062.549-2.791.312.217,1.943,1.978-.221.06.538-1.978.221.25,2.229,2.928-.328.062.554Z" transform="translate(-1060.866 -1440.86)" fill="#fff"/>
          <path id="Path_1942" data-name="Path 1942" d="M1099.817,1447.3l-.65-5.813.659-.074.589,5.26,2.594-.29.062.553Z" transform="translate(-1089.087 -1439.593)" fill="#fff"/>
          <path id="Path_1943" data-name="Path 1943" d="M1129.265,1442.115l-.651-5.813,3.431-.384.061.549-2.791.312.218,1.943,1.978-.221.06.538-1.978.222.249,2.229,2.928-.328.062.553Z" transform="translate(-1114.386 -1434.87)" fill="#fff"/>
          <path id="Path_1944" data-name="Path 1944" d="M1161.8,1438.051l-.588-5.256-1.7.19-.062-.557,4.051-.453.063.557-1.7.19.588,5.256Z" transform="translate(-1140.882 -1431.482)" fill="#fff"/>
          <path id="Path_1945" data-name="Path 1945" d="M1195.711,1434.679l-.65-5.813,3.43-.384.062.55-2.791.312.218,1.943,1.978-.221.06.538-1.978.221.25,2.229,2.928-.328.062.554Z" transform="translate(-1171.471 -1428.482)" fill="#fff"/>
        </g>
      </g>
      <g id="Group_1305" data-name="Group 1305" transform="translate(14.772 55.577)">
        <path id="Path_1946" data-name="Path 1946" d="M719.641,1091.858l4.03,35.245-25.085,12.335s-4.457-28.283-2.6-33.27,6.3-14.577,7.28-19.96,6.765-9.359,11.064-14.367,1.985-12.4,7-11.678,10.3,10.174,6.458,17.7A159.3,159.3,0,0,1,719.641,1091.858Z" transform="translate(-695.533 -1060.114)" fill="#ffb294"/>
      </g>
      <g id="Group_1306" data-name="Group 1306" transform="translate(14.461 68.099)">
        <path id="Path_1947" data-name="Path 1947" d="M696.978,1217.386h-.009a.292.292,0,0,1-.331-.245c-.018-.12-1.827-12.157-2.932-23.042-.974-9.6.044-11.934,1.732-15.808.26-.6.529-1.215.811-1.906,1.075-2.637,2.033-5.7,2.96-8.659.862-2.752,1.676-5.352,2.478-7.243,1.649-3.886,9.46-11.1,9.792-11.411a.291.291,0,1,1,.395.428c-.08.074-8.05,7.438-9.65,11.21-.791,1.865-1.6,4.452-2.459,7.19-.931,2.972-1.893,6.045-2.977,8.7-.284.7-.555,1.318-.816,1.918-1.649,3.787-2.645,6.073-1.686,15.516,1.1,10.872,2.911,22.895,2.929,23.015A.291.291,0,0,1,696.978,1217.386Z" transform="translate(-693.326 -1148.998)" fill="#010103"/>
      </g>
      <g id="Group_1307" data-name="Group 1307" transform="translate(34.515 56.431)">
        <path id="Path_1948" data-name="Path 1948" d="M842.542,1067.286a20.645,20.645,0,0,0-3.411-1.111c-1.49,1.778-1.26,6.009-3.457,9.571h0a9.035,9.035,0,0,0,3.813.307,3.389,3.389,0,0,0,2.329-1.139h0l1.7-5.166A1.977,1.977,0,0,0,842.542,1067.286Z" transform="translate(-835.673 -1066.175)" fill="#f78a5e"/>
      </g>
      <g id="Group_1308" data-name="Group 1308" transform="translate(25.259 78.81)">
        <path id="Path_1949" data-name="Path 1949" d="M776.481,1226.971a.293.293,0,0,1-.167-.019,21.063,21.063,0,0,0-6.069-1.346.291.291,0,0,1,.034-.582,21.287,21.287,0,0,1,6.267,1.393.291.291,0,0,1-.064.554Z" transform="translate(-769.971 -1225.023)" fill="#010103"/>
      </g>
      <g id="Group_1309" data-name="Group 1309" transform="translate(23.892 81.07)">
        <path id="Path_1950" data-name="Path 1950" d="M766.78,1243.014a.292.292,0,0,1-.167-.019,21.065,21.065,0,0,0-6.069-1.346.291.291,0,0,1,.034-.582,21.282,21.282,0,0,1,6.267,1.393.291.291,0,0,1-.064.554Z" transform="translate(-760.269 -1241.067)" fill="#010103"/>
      </g>
      <g id="Group_1326" data-name="Group 1326" transform="translate(75.92 100.66)">
        <g id="Group_1310" data-name="Group 1310" transform="translate(0 0.304)">
          <path id="Path_1951" data-name="Path 1951" d="M1249.008,1509.374h-54.453l-.114-.163c-1.935-2.758-3.763-4.2-5.339-4.729a26.47,26.47,0,0,1-2.562-1.019h0a53.134,53.134,0,0,1-7.161-4.09c-2.726-1.808-5.508-3.882-8.22-6-3.97-3.1-7.787-6.306-11.044-8.915-8.269-6.623-7.935-5.255-14.636-10.344-1.659-1.26-4.142-2.85-6.652-4.376l-.006,0-.034-.019c-3.4-2.066-6.846-4.009-8.351-4.849-.245-.137-.438-.245-.572-.318l-.044-.025-.018-.01-.041-.023-.005,0a.288.288,0,0,1-.141-.175c-.421-1.649,2.592-4.919,2.592-4.919,6.24-5.507,23.7,3.932,23.7,3.932s13.591,8.916,16.745,4.176h0c.03-.044.06-.091.087-.137,2.981-5.048-6.742-26-6.742-26s-22.766-46.234-23.609-47.528c-2.417-3.716-2.6-8.987,1.207-11.013a5.629,5.629,0,0,1,5.4.356,9.431,9.431,0,0,1,3.363,3.1l23.553,35.4c.069-.036.139-.071.209-.1,5.744-2.77,16.048,1.912,16.048,1.912h0c.075-.027.151-.052.229-.075,4.173-1.267,12.157,1.261,12.157,1.261a1.7,1.7,0,0,1,.227-.078c.78-.224,3.6-.687,8.837,2.025,3.955,2.048,10.588,22.607,15.562,38.974,2.9,9.524,5.228,17.628,6.149,19.841C1236.49,1488.225,1242.686,1498.809,1249.008,1509.374Z" transform="translate(-1129.571 -1382.275)" fill="#ffb294"/>
        </g>
        <g id="Group_1317" data-name="Group 1317" transform="translate(0.186 79.816)">
          <g id="Group_1313" data-name="Group 1313" transform="translate(0 0.087)">
            <g id="Group_1312" data-name="Group 1312">
              <g id="Group_1311" data-name="Group 1311">
                <path id="Path_1952" data-name="Path 1952" d="M1140.068,1951.611a10.291,10.291,0,0,1-.107,3.522s-8.892-5.156-9.067-5.249c.154-.5.42-.945.623-1.465a1.943,1.943,0,0,1,2.376-1.066,1.5,1.5,0,0,1,.144.044l4.807,1.715A3.78,3.78,0,0,1,1140.068,1951.611Z" transform="translate(-1130.895 -1947.271)" fill="#f78a5e"/>
              </g>
            </g>
          </g>
          <g id="Group_1316" data-name="Group 1316">
            <g id="Group_1315" data-name="Group 1315">
              <g id="Group_1314" data-name="Group 1314">
                <path id="Path_1953" data-name="Path 1953" d="M1133.907,1946.8h-.009a2.118,2.118,0,0,0-1.762,1.25c-.221.566-.414,1.149-.569,1.692,0,0-.643-.371-.673-.386.143-.483.311-.976.508-1.476a2.027,2.027,0,0,1,2.3-1.148Z" transform="translate(-1130.895 -1946.657)" fill="#fdc9bc"/>
              </g>
            </g>
          </g>
        </g>
        <g id="Group_1320" data-name="Group 1320" transform="translate(11.824 1.665)" opacity="0.5">
          <g id="Group_1318" data-name="Group 1318">
            <path id="Path_1954" data-name="Path 1954" d="M1221.126,1392.615s4.128,5.735,4.151,7.039-6.281,4.675-7.483,4.349-4.167-7.665-4.291-8.255S1216.586,1390.15,1221.126,1392.615Z" transform="translate(-1213.5 -1391.937)" fill="#f78a5e"/>
          </g>
          <g id="Group_1319" data-name="Group 1319">
            <path id="Path_1955" data-name="Path 1955" d="M1221.126,1392.615l.207.291c-4.3-1.489-7.466,2.936-7.518,3.724a9.285,9.285,0,0,1-.312-.882C1213.379,1395.157,1216.586,1390.15,1221.126,1392.615Z" transform="translate(-1213.5 -1391.937)" fill="#fdc9bc"/>
          </g>
        </g>
        <g id="Group_1321" data-name="Group 1321" transform="translate(10.746)">
          <path id="Path_1956" data-name="Path 1956" d="M1237.365,1469.383c.059-.075,1.449-1.882,1.677-7.447.277-6.763-8.427-24.791-8.8-25.554-.213-.43-21.232-42.816-23.165-46.555a7.307,7.307,0,0,1,.261-6.932,5.706,5.706,0,0,1,4.5-2.311c2.988.124,5.29,3.206,5.313,3.237l24.093,36.138,4.971,7.423.385-.258-4.971-7.423-24.1-36.146c-.1-.143-2.459-3.3-5.67-3.435a6.151,6.151,0,0,0-4.887,2.482l-.019.025a7.791,7.791,0,0,0-.292,7.412c1.931,3.735,22.948,46.118,23.16,46.546.089.184,9.023,18.685,8.751,25.332-.22,5.381-1.563,7.161-1.577,7.178Z" transform="translate(-1205.847 -1380.117)" fill="#1d1d1b"/>
        </g>
        <g id="Group_1322" data-name="Group 1322" transform="translate(46.247 38.639)">
          <path id="Path_1957" data-name="Path 1957" d="M1479.807,1665.84l.382-.262-5.841-8.5-.058-.027c-9.989-4.563-16.189-1.922-16.448-1.808l.187.424c.062-.027,6.26-2.652,16.01,1.779Z" transform="translate(-1457.841 -1654.382)" fill="#1d1d1b"/>
        </g>
        <g id="Group_1323" data-name="Group 1323" transform="translate(62.554 40.959)">
          <path id="Path_1958" data-name="Path 1958" d="M1591.063,1680.559l.385-.258-5.273-7.888-.063-.027c-5.822-2.478-12.457-1.213-12.523-1.2l.089.455c.065-.013,6.517-1.239,12.189,1.145Z" transform="translate(-1573.588 -1670.852)" fill="#1d1d1b"/>
        </g>
        <g id="Group_1324" data-name="Group 1324" transform="translate(74.938 42.329)">
          <path id="Path_1959" data-name="Path 1959" d="M1685.945,1721.939l.445-.13c-.424-1.443-10.434-35.375-15.13-38.735a13.433,13.433,0,0,0-9.767-2.348l.1.453a12.952,12.952,0,0,1,9.4,2.272C1675.558,1686.719,1685.842,1721.588,1685.945,1721.939Z" transform="translate(-1661.493 -1680.574)" fill="#1d1d1b"/>
        </g>
        <g id="Group_1325" data-name="Group 1325" transform="translate(41.439 111.217)">
          <path id="Path_1960" data-name="Path 1960" d="M1447.7,2185.735h-.54a12.716,12.716,0,0,0-4.967-4.506c-.9-.39-1.9-.866-2.953-1.406h0c-2.225-1.139-4.717-2.566-7.161-4.091a91.49,91.49,0,0,1-8.365-5.821l.145-.182.144-.18a106.762,106.762,0,0,0,18.355,11.247A14.12,14.12,0,0,1,1447.7,2185.735Z" transform="translate(-1423.713 -2169.549)" fill="#1d1d1b"/>
        </g>
      </g>
      <g id="Group_1328" data-name="Group 1328" transform="translate(89.941 60.367)">
        <path id="Path_1961" data-name="Path 1961" d="M1288.7,1094.124l-57.72,6.287a2.12,2.12,0,0,0-1.877,2.337l2.494,22.892a2.119,2.119,0,0,0,2.336,1.877l7.444-.811-2.063,8.2,11.1-9.18,41.234-4.492a2.119,2.119,0,0,0,1.877-2.336L1291.039,1096A2.119,2.119,0,0,0,1288.7,1094.124Z" transform="translate(-1229.092 -1094.111)" fill="#d24e57"/>
        <g id="Group_1327" data-name="Group 1327" transform="translate(6.963 5.703)">
          <path id="Path_1962" data-name="Path 1962" d="M1279.819,1169.58l.377-.041a5.044,5.044,0,0,1,1.037-.034,1.7,1.7,0,0,1,.619.186,2.2,2.2,0,0,1,.895.955,5.23,5.23,0,0,1,.343,3.377,2.122,2.122,0,0,1-.756,1.137,1.784,1.784,0,0,1-.57.263,7.043,7.043,0,0,1-1.063.176l-1.526.166-.658-6.043Zm-.19,5.633,1.073-.117a5.9,5.9,0,0,0,.914-.151,1.318,1.318,0,0,0,.463-.227,1.642,1.642,0,0,0,.538-.907,5.184,5.184,0,0,0-.3-2.869,1.709,1.709,0,0,0-.687-.782,1.293,1.293,0,0,0-.522-.155,5.6,5.6,0,0,0-1.007.047l-.121.013-.9.1Z" transform="translate(-1278.516 -1164.574)" fill="#fff"/>
          <path id="Path_1963" data-name="Path 1963" d="M1317.324,1170.609l-.658-6.043,3.631-.4.054.5-3.122.34.24,2.2,2.855-.311.052.48-2.855.311.258,2.367,3.216-.351.054.5Z" transform="translate(-1311.291 -1160.003)" fill="#fff"/>
          <path id="Path_1964" data-name="Path 1964" d="M1350.449,1169.064l-.658-6.043.524-.057.6,5.547,2.832-.309.054.5Z" transform="translate(-1339.75 -1158.967)" fill="#fff"/>
          <path id="Path_1965" data-name="Path 1965" d="M1378.921,1163.9l-.658-6.043,3.631-.4.054.5-3.122.34.24,2.2,2.855-.311.052.48-2.855.311.258,2.367,3.217-.35.054.5Z" transform="translate(-1364.21 -1154.238)" fill="#fff"/>
          <path id="Path_1966" data-name="Path 1966" d="M1409.863,1160.3l-.6-5.547-1.721.187-.054-.5,3.966-.432.054.5-1.721.188.6,5.547Z" transform="translate(-1389.314 -1151.28)" fill="#fff"/>
          <path id="Path_1967" data-name="Path 1967" d="M1441.186,1157.116l-.658-6.043,3.631-.4.054.5-3.122.34.24,2.2,2.855-.311.052.48-2.855.311.258,2.367,3.216-.35.054.5Z" transform="translate(-1417.703 -1148.411)" fill="#fff"/>
          <path id="Path_1968" data-name="Path 1968" d="M1486.081,1151.7l-.289-2.654-2.328-3.175.583-.063,1.939,2.685,1.32-3.04.583-.063-1.589,3.6.289,2.655Z" transform="translate(-1454.59 -1143.865)" fill="#fff"/>
          <path id="Path_1969" data-name="Path 1969" d="M1518.348,1145.522a3.644,3.644,0,0,1,.432-2.4,2.452,2.452,0,0,1,3.712-.4,4.3,4.3,0,0,1,.507,4.652,2.452,2.452,0,0,1-3.712.4A3.645,3.645,0,0,1,1518.348,1145.522Zm.527-.057a3.223,3.223,0,0,0,.756,1.9,1.872,1.872,0,0,0,2.946-.319,3.846,3.846,0,0,0-.429-3.938,1.857,1.857,0,0,0-2.939.326A3.229,3.229,0,0,0,1518.875,1145.464Z" transform="translate(-1484.53 -1140.994)" fill="#fff"/>
          <path id="Path_1970" data-name="Path 1970" d="M1559.1,1137.766l.509-.055.415,3.807a2.269,2.269,0,0,0,.537,1.415,1.887,1.887,0,0,0,2.441-.266,2.254,2.254,0,0,0,.224-1.5l-.415-3.807.508-.055.423,3.885a2.531,2.531,0,0,1-.341,1.8,2.436,2.436,0,0,1-3.158.346,2.534,2.534,0,0,1-.719-1.684Z" transform="translate(-1519.567 -1136.924)" fill="#fff"/>
          <path id="Path_1971" data-name="Path 1971" d="M1598.173,1140.886l-.658-6.043,1.849-.2a5.35,5.35,0,0,1,.939-.044,1.535,1.535,0,0,1,.523.134,1.344,1.344,0,0,1,.565.5,1.993,1.993,0,0,1,.137,1.751,1.284,1.284,0,0,1-.607.618.883.883,0,0,1,.527.324,2.8,2.8,0,0,1,.319,1l.17.9a1.513,1.513,0,0,0,.1.346.473.473,0,0,0,.139.192l.009.082-.565.062a1.04,1.04,0,0,1-.1-.238,2.981,2.981,0,0,1-.086-.368l-.151-.793a1.9,1.9,0,0,0-.386-1.027,1.207,1.207,0,0,0-.887-.134l-1.62.176.294,2.7Zm.16-3.255,1.473-.16a1.744,1.744,0,0,0,1.085-.409,1.161,1.161,0,0,0,.24-.968,1.294,1.294,0,0,0-.165-.522.938.938,0,0,0-.349-.348.982.982,0,0,0-.387-.124,3.522,3.522,0,0,0-.71.027l-.215.023-1.228.134Z" transform="translate(-1552.573 -1134.591)" fill="#fff"/>
          <path id="Path_1972" data-name="Path 1972" d="M1314.2,1244.41l1.447-6.272.61-.067,2.764,5.814-.536.058-.83-1.79-2.487.271-.437,1.928Zm1.077-2.488,2.153-.235-1.417-2.99Z" transform="translate(-1309.176 -1223.493)" fill="#fff"/>
          <path id="Path_1973" data-name="Path 1973" d="M1352.564,1237.117l.5-.055a2.321,2.321,0,0,1-.478,1.644,2.165,2.165,0,0,1-1.5.739,2.109,2.109,0,0,1-1.86-.663,3.822,3.822,0,0,1-.9-2.274,3.73,3.73,0,0,1,.4-2.393,2.138,2.138,0,0,1,1.684-1.039,2.2,2.2,0,0,1,1.58.357,1.931,1.931,0,0,1,.776,1.333l-.5.054a1.533,1.533,0,0,0-.619-.993,1.686,1.686,0,0,0-1.183-.259,1.635,1.635,0,0,0-1.325.852,3.354,3.354,0,0,0-.286,2.022,3.434,3.434,0,0,0,.728,1.942,1.644,1.644,0,0,0,1.489.568,1.619,1.619,0,0,0,1.133-.568A1.819,1.819,0,0,0,1352.564,1237.117Z" transform="translate(-1338.456 -1219.186)" fill="#fff"/>
          <path id="Path_1974" data-name="Path 1974" d="M1390.661,1232.968l.5-.055a2.319,2.319,0,0,1-.478,1.644,2.164,2.164,0,0,1-1.5.739,2.109,2.109,0,0,1-1.86-.663,3.82,3.82,0,0,1-.9-2.274,3.729,3.729,0,0,1,.4-2.393,2.138,2.138,0,0,1,1.684-1.039,2.2,2.2,0,0,1,1.581.357,1.932,1.932,0,0,1,.776,1.333l-.5.054a1.533,1.533,0,0,0-.619-.993,1.686,1.686,0,0,0-1.183-.259,1.635,1.635,0,0,0-1.325.852,3.356,3.356,0,0,0-.287,2.022,3.434,3.434,0,0,0,.728,1.943,1.642,1.642,0,0,0,1.489.568,1.62,1.62,0,0,0,1.133-.568A1.819,1.819,0,0,0,1390.661,1232.968Z" transform="translate(-1371.185 -1215.62)" fill="#fff"/>
          <path id="Path_1975" data-name="Path 1975" d="M1424.538,1228.157a3.643,3.643,0,0,1,.432-2.4,2.452,2.452,0,0,1,3.712-.4,4.305,4.305,0,0,1,.507,4.653,2.452,2.452,0,0,1-3.712.4A3.645,3.645,0,0,1,1424.538,1228.157Zm.527-.058a3.22,3.22,0,0,0,.756,1.9,1.872,1.872,0,0,0,2.946-.319,3.847,3.847,0,0,0-.429-3.938,1.857,1.857,0,0,0-2.939.326A3.228,3.228,0,0,0,1425.066,1228.1Z" transform="translate(-1403.937 -1211.988)" fill="#fff"/>
          <path id="Path_1976" data-name="Path 1976" d="M1465.287,1220.4l.508-.055.415,3.807a2.271,2.271,0,0,0,.537,1.415,1.887,1.887,0,0,0,2.441-.266,2.256,2.256,0,0,0,.224-1.5L1469,1220l.508-.055.423,3.885a2.53,2.53,0,0,1-.342,1.8,2.436,2.436,0,0,1-3.158.346,2.533,2.533,0,0,1-.719-1.684Z" transform="translate(-1438.974 -1207.918)" fill="#fff"/>
          <path id="Path_1977" data-name="Path 1977" d="M1504.363,1222.281l-.658-6.043.561-.061,3.7,4.841-.564-5.182.493-.054.658,6.043-.565.061-3.687-4.848.565,5.188Z" transform="translate(-1471.98 -1204.343)" fill="#fff"/>
          <path id="Path_1978" data-name="Path 1978" d="M1540.733,1218.467l-.6-5.547-1.721.188-.054-.5,3.966-.432.054.5-1.721.188.6,5.547Z" transform="translate(-1501.747 -1201.248)" fill="#fff"/>
          <path id="Path_1979" data-name="Path 1979" d="M1571.42,1214.194l-.056-.513a1.6,1.6,0,0,1,.037-.608,2.264,2.264,0,0,1,.363-.66q.079-.112.233-.312a1.8,1.8,0,0,0,.494-1.2,1.118,1.118,0,0,0-.375-.779,1.067,1.067,0,0,0-.827-.207,1.132,1.132,0,0,0-.857.444,1.607,1.607,0,0,0-.205,1.075l-.5.055a2.056,2.056,0,0,1,.314-1.437,1.649,1.649,0,0,1,1.212-.614,1.618,1.618,0,0,1,1.209.29,1.486,1.486,0,0,1,.555,1.071,1.718,1.718,0,0,1-.058.706,2.041,2.041,0,0,1-.365.652q-.06.077-.178.223a1.949,1.949,0,0,0-.588,1.322l.049.447Zm.138,1.479-.082-.747.509-.055.081.747Z" transform="translate(-1528.689 -1198.878)" fill="#fff"/>
        </g>
      </g>
    </g>
  </g>
</svg>
