<svg xmlns="http://www.w3.org/2000/svg" width="38.327" height="38.327" viewBox="0 0 38.327 38.327">
  <g id="Group_1404" data-name="Group 1404" transform="translate(2169.327 -15183.31)">
    <rect id="Rectangle_8" data-name="Rectangle 8" width="38.327" height="38.327" rx="19.163" transform="translate(-2169.327 15183.31)" fill="#3a00c2" opacity="0.7"/>
    <path id="microsoftexcel" d="M16.167,2.25a.659.659,0,0,1,.492.211.659.659,0,0,1,.211.492V16.308a.721.721,0,0,1-.7.7H4.92a.721.721,0,0,1-.7-.7v-2.46H.7a.659.659,0,0,1-.492-.211A.659.659,0,0,1,0,13.145V6.116a.659.659,0,0,1,.211-.492A.645.645,0,0,1,.7,5.413H4.218V2.953a.659.659,0,0,1,.211-.492A.659.659,0,0,1,4.92,2.25ZM4.218,10.53l1,1.87h1.5L5.047,9.68,6.692,7.009H5.244L4.33,8.7l-.035.056-.028.063-.45-.9-.464-.907H1.821l1.6,2.685L1.673,12.4H3.191Zm5.8,5.427V13.848H5.272v2.109Zm0-3.163V10.158H8.435v2.636Zm0-3.69V6.468H8.435V9.1Zm0-3.69V3.3H5.272V5.413Zm5.8,10.544V13.848H11.071v2.109Zm0-3.163V10.158H11.071v2.636Zm0-3.69V6.468H11.071V9.1Zm0-3.69V3.3H11.071V5.413Z" transform="translate(-2159.435 15192.843)" fill="#fff"/>
  </g>
</svg>
