<svg id="Group_1099" data-name="Group 1099" xmlns="http://www.w3.org/2000/svg" width="38.327" height="38.327" viewBox="0 0 38.327 38.327">
  <rect id="Rectangle_8" data-name="Rectangle 8" width="38.327" height="38.327" rx="19.163" transform="translate(0 0)" fill="#3a00c2" opacity="0.7"/>
  <g id="cash-outline" transform="translate(10.614 12.382)">
    <path id="Path_13" data-name="Path 13" d="M2.623,4.875H17.284A1.124,1.124,0,0,1,18.407,6v7.895a1.124,1.124,0,0,1-1.123,1.123H2.623A1.124,1.124,0,0,1,1.5,13.892V6A1.124,1.124,0,0,1,2.623,4.875ZM17.284,13.9a.005.005,0,0,0,.005-.005V6a.005.005,0,0,0-.005-.005H2.623A.005.005,0,0,0,2.617,6v7.895a.005.005,0,0,0,.005.005Z" transform="translate(-1.5 -4.875)" fill="#fff"/>
    <path id="Path_14" data-name="Path 14" d="M17.842,27.367H4.309a.559.559,0,0,1,0-1.117H17.842a.559.559,0,0,1,0,1.117Z" transform="translate(-2.622 -15.536)" fill="#fff"/>
    <path id="Path_15" data-name="Path 15" d="M17.837,30.742H6.559a.559.559,0,1,1,0-1.117H17.837a.559.559,0,1,1,0,1.117Z" transform="translate(-3.744 -17.219)" fill="#fff"/>
    <path id="Path_16" data-name="Path 16" d="M15,8.25a3.378,3.378,0,1,1-3.378,3.378A3.382,3.382,0,0,1,15,8.25Zm0,5.639a2.261,2.261,0,1,0-2.261-2.261A2.263,2.263,0,0,0,15,13.889Z" transform="translate(-6.55 -6.558)" fill="#fff"/>
    <path id="Path_17" data-name="Path 17" d="M30.753,8.812a3.382,3.382,0,0,1-3.378-3.378.559.559,0,1,1,1.117,0,2.263,2.263,0,0,0,2.261,2.261.559.559,0,1,1,0,1.117Z" transform="translate(-14.405 -4.875)" fill="#fff"/>
    <path id="Path_18" data-name="Path 18" d="M2.059,8.812a.559.559,0,1,1,0-1.117A2.263,2.263,0,0,0,4.32,5.434a.559.559,0,1,1,1.117,0A3.382,3.382,0,0,1,2.059,8.812Z" transform="translate(-1.5 -4.875)" fill="#fff"/>
    <path id="Path_19" data-name="Path 19" d="M27.934,21.187a.559.559,0,0,1-.559-.559,3.382,3.382,0,0,1,3.378-3.378.559.559,0,1,1,0,1.117,2.263,2.263,0,0,0-2.261,2.261A.559.559,0,0,1,27.934,21.187Z" transform="translate(-14.405 -11.047)" fill="#fff"/>
    <path id="Path_20" data-name="Path 20" d="M4.878,21.187a.559.559,0,0,1-.559-.559,2.263,2.263,0,0,0-2.261-2.261.559.559,0,1,1,0-1.117,3.382,3.382,0,0,1,3.378,3.378A.559.559,0,0,1,4.878,21.187Z" transform="translate(-1.5 -11.047)" fill="#fff"/>
  </g>
</svg>
