<svg xmlns="http://www.w3.org/2000/svg" width="45.255" height="45.255" viewBox="0 0 45.255 45.255">
  <g id="Group_1361" data-name="Group 1361" transform="translate(11719.627 14213.255)">
    <path id="arrow-ios-forward-fill" d="M14.456,20.877a.956.956,0,0,1-.737-1.569L18,14.18,13.872,9.043a.978.978,0,1,1,1.54-1.205l4.62,5.74a.957.957,0,0,1,0,1.215l-4.783,5.74a.957.957,0,0,1-.794.344Z" transform="translate(-11712.873 -14204.795)" fill="#3633a8"/>
    <g id="plus-circle-line" transform="translate(-11697 -14216.083) rotate(45)">
      <path id="Path_1982" data-name="Path 1982" d="M18,2A16,16,0,1,0,34,18,16,16,0,0,0,18,2Zm0,30A14,14,0,1,1,32,18,14,14,0,0,1,18,32Z" fill="#3633a8"/>
    </g>
  </g>
</svg>
