<svg id="Group_1100" data-name="Group 1100" xmlns="http://www.w3.org/2000/svg" width="38.327" height="38.326" viewBox="0 0 38.327 38.326">
  <rect id="Rectangle_2881" data-name="Rectangle 2881" width="38.327" height="38.327" rx="19.163" transform="translate(0 0)" fill="#3a00c2" opacity="0.7"/>
  <g id="cash-outline" transform="translate(27.521 25.906) rotate(180)">
    <path id="Path_13" data-name="Path 13" d="M1.123,0H15.784a1.124,1.124,0,0,1,1.123,1.123V9.017a1.124,1.124,0,0,1-1.123,1.123H1.123A1.124,1.124,0,0,1,0,9.017V1.123A1.124,1.124,0,0,1,1.123,0ZM15.784,9.022a.005.005,0,0,0,.005-.005V1.123a.005.005,0,0,0-.005-.005H1.123a.005.005,0,0,0-.005.005V9.017a.005.005,0,0,0,.005.005Z" fill="#fff"/>
    <path id="Path_14" data-name="Path 14" d="M14.092,1.117H.559A.559.559,0,0,1,.559,0H14.092a.559.559,0,0,1,0,1.117Z" transform="translate(1.128 10.714)" fill="#fff"/>
    <path id="Path_15" data-name="Path 15" d="M11.837,1.117H.559A.559.559,0,0,1,.559,0H11.837a.559.559,0,0,1,0,1.117Z" transform="translate(2.256 12.406)" fill="#fff"/>
    <path id="Path_16" data-name="Path 16" d="M3.378,0A3.378,3.378,0,1,1,0,3.378,3.382,3.382,0,0,1,3.378,0Zm0,5.639A2.261,2.261,0,1,0,1.117,3.378,2.263,2.263,0,0,0,3.378,5.639Z" transform="translate(5.075 1.692)" fill="#fff"/>
    <path id="Path_17" data-name="Path 17" d="M3.378,3.937A3.382,3.382,0,0,1,0,.559a.559.559,0,1,1,1.117,0A2.263,2.263,0,0,0,3.378,2.82a.559.559,0,1,1,0,1.117Z" transform="translate(12.97 0)" fill="#fff"/>
    <path id="Path_18" data-name="Path 18" d="M.559,3.937a.559.559,0,1,1,0-1.117A2.263,2.263,0,0,0,2.82.559a.559.559,0,1,1,1.117,0A3.382,3.382,0,0,1,.559,3.937Z" transform="translate(0 0)" fill="#fff"/>
    <path id="Path_19" data-name="Path 19" d="M.559,3.937A.559.559,0,0,1,0,3.378,3.382,3.382,0,0,1,3.378,0a.559.559,0,1,1,0,1.117A2.263,2.263,0,0,0,1.117,3.378.559.559,0,0,1,.559,3.937Z" transform="translate(12.97 6.203)" fill="#fff"/>
    <path id="Path_20" data-name="Path 20" d="M3.378,3.937a.559.559,0,0,1-.559-.559A2.263,2.263,0,0,0,.559,1.117.559.559,0,1,1,.559,0,3.382,3.382,0,0,1,3.937,3.378.559.559,0,0,1,3.378,3.937Z" transform="translate(0 6.203)" fill="#fff"/>
  </g>
</svg>
