<svg xmlns="http://www.w3.org/2000/svg" xmlns:xlink="http://www.w3.org/1999/xlink" width="313.934" height="258.098" viewBox="0 0 313.934 258.098">
  <defs>
    <linearGradient id="linear-gradient" x1="1.124" y1="1.3" x2="0.239" y2="0.188" gradientUnits="objectBoundingBox">
      <stop offset="0" stop-color="#fff"/>
      <stop offset="1" stop-color="#e9effd"/>
    </linearGradient>
  </defs>
  <g id="Group_1167" data-name="Group 1167" transform="translate(-53.033 -101.348)">
    <path id="Path_1764" data-name="Path 1764" d="M698.779,698.377a94.018,94.018,0,0,1-14.437,11.964c-47.1,33.261-102.823,23.565-114.667,21.2-17.489-3.5-51.3-10.254-75.737-38.545-36.978-42.8-31.22-110.234-2.537-154.747,5.246-8.142,32.96-53.333,89.287-60.58,34.089-4.386,73.825,4.46,102.6,28.189C743.693,555.667,739.393,656.293,698.779,698.377Z" transform="translate(-388.247 -375.236)" fill="url(#linear-gradient)"/>
    <g id="Plant" transform="translate(240.482 185.898)">
      <g id="Group_792" data-name="Group 792" transform="translate(0 0)">
        <g id="Group_752" data-name="Group 752" transform="translate(65.357 20.147)">
          <g id="Group_751" data-name="Group 751">
            <path id="Path_178" data-name="Path 178" d="M655.948,296.653a1.483,1.483,0,0,1-.073.262l-.248.757c-.224.664-.549,1.645-1,2.9-.882,2.511-2.2,6.129-3.959,10.553a241.69,241.69,0,0,1-16.134,33.472,74.68,74.68,0,0,0-4.616,9.5,42.877,42.877,0,0,0-2.463,9.495,67.855,67.855,0,0,0-.03,16.63c.51,4.725,1.192,8.517,1.632,11.139.224,1.295.4,2.308.522,3.018.054.331.1.591.129.786a.136.136,0,1,1-.036.007c-.04-.193-.095-.451-.165-.78l-.59-3.006c-.482-2.616-1.2-6.4-1.747-11.136a67.084,67.084,0,0,1-.046-16.705,42.934,42.934,0,0,1,2.463-9.576,74.232,74.232,0,0,1,4.63-9.551,252.1,252.1,0,0,0,16.213-33.391c1.783-4.409,3.141-8.011,4.063-10.505l1.061-2.874.282-.745A1.6,1.6,0,0,1,655.948,296.653Z" transform="translate(-626.62 -296.653)" fill="#263238"/>
          </g>
        </g>
        <g id="Group_754" data-name="Group 754" transform="translate(66.225 61.959)">
          <g id="Group_753" data-name="Group 753">
            <path id="Path_179" data-name="Path 179" d="M649.6,356.621a2.2,2.2,0,0,1-.224.405l-.7,1.124c-.614.973-1.526,2.365-2.659,4.081-2.258,3.437-5.481,8.119-8.718,13.485-1.609,2.69-3.033,5.314-4.237,7.746s-2.159,4.684-2.921,6.59c-.743,1.913-1.314,3.476-1.666,4.569-.177.515-.32.93-.432,1.252a2.264,2.264,0,0,1-.174.429,2.138,2.138,0,0,1,.1-.45l.367-1.274c.312-1.108.847-2.687,1.561-4.618.733-1.924,1.664-4.2,2.86-6.645s2.613-5.088,4.226-7.785c3.247-5.381,6.505-10.042,8.817-13.441l2.754-4.016.759-1.086A2.23,2.23,0,0,1,649.6,356.621Z" transform="translate(-627.866 -356.621)" fill="#263238"/>
          </g>
        </g>
        <g id="Group_755" data-name="Group 755" transform="translate(66.847 15.771)">
          <path id="Path_180" data-name="Path 180" d="M656.525,294.753c.171-1.7-1.668-3.4-3.272-3.994a9.017,9.017,0,0,0-5.064-.033,25.926,25.926,0,0,0-19.43,20.286,125.33,125.33,0,0,1,13.787-5.828l-.8.226a16.087,16.087,0,0,0,10.872-7.941,8.532,8.532,0,0,1,1.456-2.231,2.149,2.149,0,0,1,2.448-.485" transform="translate(-628.758 -290.377)" fill="#69d55a"/>
        </g>
        <g id="Group_756" data-name="Group 756" transform="translate(94.625 16.408)">
          <path id="Path_181" data-name="Path 181" d="M668.6,295.012a20.9,20.9,0,0,1,15.259-3.426,18.234,18.234,0,0,1,12.678,8.938,16.187,16.187,0,0,1,.079,15.366c-2.468-5.126-5.108-10.463-9.7-13.82a8.61,8.61,0,0,1-2.9-2.69c-.7-1.376-.415-3.076-1.015-4.5-.74-1.754-2.778-2.263-4.678-2.362s-7.409,1.65-9.724,2.493" transform="translate(-668.598 -291.29)" fill="#69d55a"/>
        </g>
        <g id="Group_757" data-name="Group 757" transform="translate(94.506 19.645)">
          <path id="Path_182" data-name="Path 182" d="M668.427,296.334c4.563-1.353,9.722.878,12.828,4.295a22.472,22.472,0,0,1,5.218,12.592,63.989,63.989,0,0,1-.36,13.821,57.474,57.474,0,0,1-7.858-17.422c-.734-2.8-1.268-5.693-2.587-8.27a10.236,10.236,0,0,0-7.24-5.016" transform="translate(-668.427 -295.933)" fill="#69d55a"/>
        </g>
        <g id="Group_758" data-name="Group 758" transform="translate(92.03)">
          <path id="Path_183" data-name="Path 183" d="M667.2,287.9c3.646-1.689,5.7-5.5,6.17-9.489a12.047,12.047,0,0,0-4.42-10.658,12.908,12.908,0,0,0-3.4,13.486c.771,2.195,2.174,4.395,1.651,6.661" transform="translate(-664.876 -267.757)" fill="#69d55a"/>
        </g>
        <g id="Group_760" data-name="Group 760" transform="translate(32.707 46.452)">
          <g id="Group_759" data-name="Group 759">
            <path id="Path_184" data-name="Path 184" d="M612.3,382.031a3.66,3.66,0,0,1-.23-.548c-.144-.361-.324-.9-.6-1.588-.531-1.376-1.362-3.343-2.495-5.724a147.382,147.382,0,0,0-10.292-17.837,143.783,143.783,0,0,0-12.5-16.363,39.7,39.7,0,0,0-4.474-4.336,12.574,12.574,0,0,0-1.388-.964,3.591,3.591,0,0,1-.517-.289,3.567,3.567,0,0,1,.552.224,10.534,10.534,0,0,1,1.44.917,36.282,36.282,0,0,1,4.577,4.275,133.12,133.12,0,0,1,12.618,16.336A136.3,136.3,0,0,1,609.2,374.061c1.106,2.4,1.9,4.39,2.4,5.784.26.692.418,1.245.541,1.614A3.7,3.7,0,0,1,612.3,382.031Z" transform="translate(-579.792 -334.38)" fill="#263238"/>
          </g>
        </g>
        <g id="Group_761" data-name="Group 761" transform="translate(49.527 106.906)">
          <path id="Path_185" data-name="Path 185" d="M632.719,449.933H607.8l-3.886-28.847h33.439Z" transform="translate(-603.917 -421.086)" fill="#ff6f35"/>
        </g>
        <g id="Group_767" data-name="Group 767" transform="translate(59.987 49.506)">
          <g id="Group_762" data-name="Group 762" transform="translate(26.771 14.287)">
            <path id="Path_186" data-name="Path 186" d="M672.236,367.74c-2.516-5.4-8.983-8.928-14.922-8.445a4.563,4.563,0,0,1,2.469,3.291,27.531,27.531,0,0,1,.382,4.253c.536,6.822,4.926,12.644,9.141,18.035a87.731,87.731,0,0,0,9.484,10.846C678.366,386.015,677.755,375.734,672.236,367.74Z" transform="translate(-657.314 -359.251)" fill="#455a64"/>
          </g>
          <g id="Group_763" data-name="Group 763" transform="translate(26.771 10.248)">
            <path id="Path_187" data-name="Path 187" d="M657.314,357.617a22.276,22.276,0,0,1,13.4-4.157,55.389,55.389,0,0,1,14.073,2.145,24.868,24.868,0,0,1,7.954,3.08c2.369,1.6,4.255,4.178,4.3,7.036-3.912-4.3-10.216-5.131-15.8-6.752-3.784-1.1-7.434-2.67-11.291-3.474a19.994,19.994,0,0,0-12.638,2.122" transform="translate(-657.314 -353.459)" fill="#455a64"/>
          </g>
          <g id="Group_764" data-name="Group 764" transform="translate(26.531)">
            <path id="Path_188" data-name="Path 188" d="M657.856,352.4c-1.655-1.733-.741-5.791.7-7.707a12.416,12.416,0,0,1,5.984-3.792,41.813,41.813,0,0,1,9.2-2.138,9.393,9.393,0,0,1-2.907,5.111,27.978,27.978,0,0,1-4.841,3.5l-8.133,5.031" transform="translate(-656.97 -338.76)" fill="#455a64"/>
          </g>
          <g id="Group_765" data-name="Group 765" transform="translate(0 10.082)">
            <path id="Path_189" data-name="Path 189" d="M630.825,354.445c-4.724,2.069-8.384,5.936-11.907,9.7a52.62,52.62,0,0,0,14.857-6.153,19.7,19.7,0,0,1,5.731-2.825,7.592,7.592,0,0,1,6.183,1.908C642.732,352.722,635.548,352.375,630.825,354.445Z" transform="translate(-618.918 -353.219)" fill="#455a64"/>
          </g>
          <g id="Group_766" data-name="Group 766" transform="translate(9.678 14.287)">
            <path id="Path_190" data-name="Path 190" d="M632.808,387.164c2.64-6.063,1.528-13.418,4.881-19.117,2.567-4.364,7.312-6.955,12.029-8.8a14.313,14.313,0,0,1-.814,10.127,32.271,32.271,0,0,1-5.915,8.49c-3.211,3.55-6.7,6.834-10.192,10.113" transform="translate(-632.798 -359.251)" fill="#455a64"/>
          </g>
        </g>
        <g id="Group_768" data-name="Group 768" transform="translate(47.238 106.906)">
          <rect id="Rectangle_26" data-name="Rectangle 26" width="37.266" height="6.492" fill="#ff6f35"/>
        </g>
        <g id="Group_770" data-name="Group 770" transform="translate(47.238 113.424)">
          <g id="Group_769" data-name="Group 769">
            <path id="Path_191" data-name="Path 191" d="M636.657,430.615c0,.1-8.065.181-18.011.181s-18.012-.081-18.012-.181,8.063-.181,18.012-.181S636.657,430.515,636.657,430.615Z" transform="translate(-600.634 -430.434)" fill="#263238"/>
          </g>
        </g>
        <g id="Group_771" data-name="Group 771" transform="translate(63.856 9.047)">
          <path id="Path_192" data-name="Path 192" d="M656.942,292.088a41.141,41.141,0,0,0-4.332-6.516,13.808,13.808,0,0,0-6.367-4.385c-3.359-.985-6.965-.2-10.32.794a82.166,82.166,0,0,0-11.455,4.363,22.664,22.664,0,0,0,15.228.27,17.161,17.161,0,0,1,7.745-.453c3.276.373,7.377,3.4,9.5,5.927" transform="translate(-624.468 -280.733)" fill="#69d55a"/>
        </g>
        <g id="Group_778" data-name="Group 778" transform="translate(0 28.205)">
          <g id="Group_772" data-name="Group 772" transform="translate(0 19.413)">
            <path id="Path_193" data-name="Path 193" d="M540.174,347.284c-5.874,7.474-7.826,17.456-7.17,26.94a64.576,64.576,0,0,1,20.838-32.356c3.829-3.184,8.726-5.7,13.472-5.7C557.548,335.294,546.233,339.575,540.174,347.284Z" transform="translate(-532.883 -336.052)" fill="#455a64"/>
          </g>
          <g id="Group_773" data-name="Group 773" transform="translate(2.109 15.597)">
            <path id="Path_194" data-name="Path 194" d="M554.725,330.617c-3.274.24-6.27,1.9-8.976,3.758-4.146,2.846-8.033,6.435-9.841,11.127a34.46,34.46,0,0,1,30.214-11.928C562.552,331.8,558.7,330.326,554.725,330.617Z" transform="translate(-535.907 -330.58)" fill="#455a64"/>
          </g>
          <g id="Group_774" data-name="Group 774" transform="translate(26.85 2.029)">
            <path id="Path_195" data-name="Path 195" d="M574.647,313.5a7.016,7.016,0,0,0-3.25,5.786,7.132,7.132,0,0,0,1.883,4.262,28.466,28.466,0,0,0,3.969,3.792c1.2-5.327,2.649-10.892,3.851-16.219A17.146,17.146,0,0,0,574.647,313.5Z" transform="translate(-571.392 -311.12)" fill="#455a64"/>
          </g>
          <g id="Group_775" data-name="Group 775" transform="translate(33.933)">
            <path id="Path_196" data-name="Path 196" d="M588.815,312.107a15.892,15.892,0,0,0-6.094,6.628c-1.246,2.777-1.767,6.282-.194,8.888a226.8,226.8,0,0,1,14.53-19.412A47.416,47.416,0,0,0,588.815,312.107Z" transform="translate(-581.551 -308.21)" fill="#455a64"/>
          </g>
          <g id="Group_776" data-name="Group 776" transform="translate(35.056 12.995)">
            <path id="Path_197" data-name="Path 197" d="M598.717,326.9a18.262,18.262,0,0,0-15.555,6.815,15.151,15.151,0,0,1,8.352-1.581,200.216,200.216,0,0,1,21.468,3.981A18.26,18.26,0,0,0,598.717,326.9Z" transform="translate(-583.162 -326.847)" fill="#455a64"/>
          </g>
          <g id="Group_777" data-name="Group 777" transform="translate(22.282 19.412)">
            <path id="Path_198" data-name="Path 198" d="M578.294,336.052c-5.532.3-10.373,4.563-12.3,9.755s-1.271,11.087.818,16.218,5.5,9.607,9.125,13.8c1.817-6.246,3.642-12.524,4.441-18.979S580.566,342.147,578.294,336.052Z" transform="translate(-564.841 -336.052)" fill="#455a64"/>
          </g>
        </g>
        <g id="Group_785" data-name="Group 785" transform="translate(0 28.205)" opacity="0.3">
          <g id="Group_779" data-name="Group 779" transform="translate(0 19.413)">
            <path id="Path_199" data-name="Path 199" d="M540.174,347.284c-5.874,7.474-7.826,17.456-7.17,26.94a64.576,64.576,0,0,1,20.838-32.356c3.829-3.184,8.726-5.7,13.472-5.7C557.548,335.294,546.233,339.575,540.174,347.284Z" transform="translate(-532.883 -336.052)" fill="#69d55a"/>
          </g>
          <g id="Group_780" data-name="Group 780" transform="translate(2.109 15.597)">
            <path id="Path_200" data-name="Path 200" d="M554.725,330.617c-3.274.24-6.27,1.9-8.976,3.758-4.146,2.846-8.033,6.435-9.841,11.127a34.46,34.46,0,0,1,30.214-11.928C562.552,331.8,558.7,330.326,554.725,330.617Z" transform="translate(-535.907 -330.58)" fill="#69d55a"/>
          </g>
          <g id="Group_781" data-name="Group 781" transform="translate(26.85 2.029)">
            <path id="Path_201" data-name="Path 201" d="M574.647,313.5a7.016,7.016,0,0,0-3.25,5.786,7.132,7.132,0,0,0,1.883,4.262,28.466,28.466,0,0,0,3.969,3.792c1.2-5.327,2.649-10.892,3.851-16.219A17.146,17.146,0,0,0,574.647,313.5Z" transform="translate(-571.392 -311.12)" fill="#69d55a"/>
          </g>
          <g id="Group_782" data-name="Group 782" transform="translate(33.933)">
            <path id="Path_202" data-name="Path 202" d="M588.815,312.107a15.892,15.892,0,0,0-6.094,6.628c-1.246,2.777-1.767,6.282-.194,8.888a226.8,226.8,0,0,1,14.53-19.412A47.416,47.416,0,0,0,588.815,312.107Z" transform="translate(-581.551 -308.21)" fill="#69d55a"/>
          </g>
          <g id="Group_783" data-name="Group 783" transform="translate(35.056 12.995)">
            <path id="Path_203" data-name="Path 203" d="M598.717,326.9a18.262,18.262,0,0,0-15.555,6.815,15.151,15.151,0,0,1,8.352-1.581,200.216,200.216,0,0,1,21.468,3.981A18.26,18.26,0,0,0,598.717,326.9Z" transform="translate(-583.162 -326.847)" fill="#69d55a"/>
          </g>
          <g id="Group_784" data-name="Group 784" transform="translate(22.282 19.412)">
            <path id="Path_204" data-name="Path 204" d="M578.294,336.052c-5.532.3-10.373,4.563-12.3,9.755s-1.271,11.087.818,16.218,5.5,9.607,9.125,13.8c1.817-6.246,3.642-12.524,4.441-18.979S580.566,342.147,578.294,336.052Z" transform="translate(-564.841 -336.052)" fill="#69d55a"/>
          </g>
        </g>
        <g id="Group_791" data-name="Group 791" transform="translate(59.987 49.506)" opacity="0.2">
          <g id="Group_786" data-name="Group 786" transform="translate(26.771 14.287)">
            <path id="Path_205" data-name="Path 205" d="M672.236,367.74c-2.516-5.4-8.983-8.928-14.922-8.445a4.563,4.563,0,0,1,2.469,3.291,27.531,27.531,0,0,1,.382,4.253c.536,6.822,4.926,12.644,9.141,18.035a87.731,87.731,0,0,0,9.484,10.846C678.366,386.015,677.755,375.734,672.236,367.74Z" transform="translate(-657.314 -359.251)" fill="#69d55a"/>
          </g>
          <g id="Group_787" data-name="Group 787" transform="translate(26.771 10.248)">
            <path id="Path_206" data-name="Path 206" d="M657.314,357.617a22.276,22.276,0,0,1,13.4-4.157,55.389,55.389,0,0,1,14.073,2.145,24.868,24.868,0,0,1,7.954,3.08c2.369,1.6,4.255,4.178,4.3,7.036-3.912-4.3-10.216-5.131-15.8-6.752-3.784-1.1-7.434-2.67-11.291-3.474a19.994,19.994,0,0,0-12.638,2.122" transform="translate(-657.314 -353.459)" fill="#69d55a"/>
          </g>
          <g id="Group_788" data-name="Group 788" transform="translate(26.531)">
            <path id="Path_207" data-name="Path 207" d="M657.856,352.4c-1.655-1.733-.741-5.791.7-7.707a12.416,12.416,0,0,1,5.984-3.792,41.813,41.813,0,0,1,9.2-2.138,9.393,9.393,0,0,1-2.907,5.111,27.978,27.978,0,0,1-4.841,3.5l-8.133,5.031" transform="translate(-656.97 -338.76)" fill="#69d55a"/>
          </g>
          <g id="Group_789" data-name="Group 789" transform="translate(0 10.082)">
            <path id="Path_208" data-name="Path 208" d="M630.825,354.445c-4.724,2.069-8.384,5.936-11.907,9.7a52.62,52.62,0,0,0,14.857-6.153,19.7,19.7,0,0,1,5.731-2.825,7.592,7.592,0,0,1,6.183,1.908C642.732,352.722,635.548,352.375,630.825,354.445Z" transform="translate(-618.918 -353.219)" fill="#69d55a"/>
          </g>
          <g id="Group_790" data-name="Group 790" transform="translate(9.678 14.287)">
            <path id="Path_209" data-name="Path 209" d="M632.808,387.164c2.64-6.063,1.528-13.418,4.881-19.117,2.567-4.364,7.312-6.955,12.029-8.8a14.313,14.313,0,0,1-.814,10.127,32.271,32.271,0,0,1-5.915,8.49c-3.211,3.55-6.7,6.834-10.192,10.113" transform="translate(-632.798 -359.251)" fill="#69d55a"/>
          </g>
        </g>
      </g>
    </g>
    <g id="Floor" transform="translate(54.896 320.521)">
      <g id="Group_449" data-name="Group 449" transform="translate(0 0)">
        <g id="Group_448" data-name="Group 448">
          <path id="Path_84" data-name="Path 84" d="M359.948,461.019c0,.1-68.336.182-152.613.182-84.306,0-152.628-.082-152.628-.182s68.321-.181,152.628-.181C291.612,460.838,359.948,460.919,359.948,461.019Z" transform="translate(-54.707 -460.838)" fill="#263238"/>
        </g>
      </g>
    </g>
    <g id="Character" transform="translate(53.033 131.092)">
      <g id="Group_750" data-name="Group 750" transform="translate(0 0)">
        <g id="Group_749" data-name="Group 749">
          <g id="Group_516" data-name="Group 516" transform="translate(50.139)">
            <path id="Path_114" data-name="Path 114" d="M157.917,197.974a5.856,5.856,0,0,0-5.295-3.988,3.772,3.772,0,0,0-2.24-4.43,6.53,6.53,0,0,0-5.288.381,17.694,17.694,0,0,1-3.5,1.607c-1.651.373-3.359-.145-5.051-.2a9.452,9.452,0,0,0-8.487,4.938c-.563,1.071-.913,2.248-1.534,3.286-.5.83-1.157,1.556-1.648,2.389a7.142,7.142,0,0,0,.57,7.886l23.791-5.469a5.7,5.7,0,0,0,8.685-6.4Z" transform="translate(-123.946 -189.153)" fill="#263238"/>
          </g>
          <g id="Group_537" data-name="Group 537" transform="translate(114.621 90.187)">
            <g id="Group_517" data-name="Group 517" transform="translate(0 3.881)">
              <path id="Path_115" data-name="Path 115" d="M240.672,326.34l-22.917-2.272-1.326,11.9,25.879-.9Z" transform="translate(-216.429 -324.068)" fill="#ffbf9d"/>
            </g>
            <g id="Group_527" data-name="Group 527" transform="translate(23.476)">
              <g id="Group_521" data-name="Group 521" transform="translate(0 0.16)">
                <g id="Group_520" data-name="Group 520">
                  <g id="Group_519" data-name="Group 519">
                    <g id="Group_518" data-name="Group 518">
                      <path id="Path_116" data-name="Path 116" d="M268.273,331.7a1.271,1.271,0,0,1-1.322.515,1.5,1.5,0,0,1-.305-.114c-.683-.344-.383-1.8-.383-1.8l-3.358-1.107s-4.939,2.182-6.836,3.845-5.72-.531-5.72-.531l-.249-7.569,7.251-4.734s-.443.28.164-.724,2.537-.284,2.537-.284c.394-.481,1.726-.466,1.726-.466l5.463,1.521a3.863,3.863,0,0,1,2.511,2.193l1.765,4.1s.819,2.878.52,3.47a1.127,1.127,0,0,1-1.412.526s-.552,1.72-1.025,1.708a3.862,3.862,0,0,1-1.325-.548Z" transform="translate(-250.099 -318.731)" fill="#ffbf9d"/>
                    </g>
                  </g>
                </g>
              </g>
              <g id="Group_526" data-name="Group 526" transform="translate(0.379)">
                <g id="Group_525" data-name="Group 525">
                  <g id="Group_524" data-name="Group 524">
                    <g id="Group_523" data-name="Group 523">
                      <g id="Group_522" data-name="Group 522">
                        <path id="Path_117" data-name="Path 117" d="M257.638,331.975a1.979,1.979,0,0,0,.37-.2l1.05-.6a39.321,39.321,0,0,1,4.055-1.941l-.081,0,3.35,1.13-.1-.164a3.839,3.839,0,0,0-.068.852,1.584,1.584,0,0,0,.259.89.87.87,0,0,0,.424.282,1.236,1.236,0,0,0,.48.105,1.425,1.425,0,0,0,.932-.34,1.477,1.477,0,0,0,.182-.18l.04-.05.02-.025.01-.013h0l-.214.042,0,0,.007,0,.1.062q.2.12.42.228a3.9,3.9,0,0,0,.453.192,1.7,1.7,0,0,0,.252.068.586.586,0,0,0,.328-.011,1.038,1.038,0,0,0,.41-.4,3.877,3.877,0,0,0,.246-.446,8.39,8.39,0,0,0,.375-.941l-.223.107a1.324,1.324,0,0,0,1.353-.235,1.071,1.071,0,0,0,.347-.656,3.109,3.109,0,0,0-.017-.686,18.681,18.681,0,0,0-.558-2.628l0-.01,0-.011-.941-2.186-.6-1.385a6.922,6.922,0,0,0-.68-1.358,3.762,3.762,0,0,0-1.118-1.027,4.886,4.886,0,0,0-1.373-.519l-5.153-1.418-.022-.006h-.02a4.937,4.937,0,0,0-.958.1,1.587,1.587,0,0,0-.888.432l.2-.029a1.945,1.945,0,0,0-1.8-.183,2.278,2.278,0,0,0-1.107,1.269l.054-.066-4.994,3.24-1.349.9a3.161,3.161,0,0,0-.457.335,3.117,3.117,0,0,0,.5-.271l1.387-.839,5.057-3.141.034-.021.02-.045a2.016,2.016,0,0,1,.973-1.1,1.661,1.661,0,0,1,1.517.173l.114.07.089-.1a1.335,1.335,0,0,1,.715-.319,4.7,4.7,0,0,1,.892-.083l-.04-.006,5.144,1.448a4.537,4.537,0,0,1,1.284.486,3.4,3.4,0,0,1,1.01.932,6.563,6.563,0,0,1,.641,1.292l.6,1.385.942,2.185-.008-.022a18.708,18.708,0,0,1,.553,2.569,2.839,2.839,0,0,1,.02.605.729.729,0,0,1-.238.446.983.983,0,0,1-.993.167l-.169-.056-.054.164a8.223,8.223,0,0,1-.354.9,1.7,1.7,0,0,1-.478.688.328.328,0,0,1-.142-.007,1.4,1.4,0,0,1-.207-.055,3.5,3.5,0,0,1-.416-.174c-.136-.066-.27-.137-.4-.213l-.1-.058-.006,0,0,0-.217.042h0l-.008.01-.015.02-.031.04a1.15,1.15,0,0,1-.142.143,1.113,1.113,0,0,1-.724.271.918.918,0,0,1-.375-.082.567.567,0,0,1-.294-.181,2.189,2.189,0,0,1-.15-1.5l.02-.127-.114-.037-3.366-1.085-.043-.014-.038.017a33.68,33.68,0,0,0-4.031,2.049c-.453.275-.795.5-1.021.657A2.016,2.016,0,0,0,257.638,331.975Z" transform="translate(-250.643 -318.502)" fill="#ff9a6c"/>
                      </g>
                    </g>
                  </g>
                </g>
              </g>
            </g>
            <g id="Group_530" data-name="Group 530" transform="translate(34.061 2.73)">
              <g id="Group_529" data-name="Group 529">
                <g id="Group_528" data-name="Group 528">
                  <path id="Path_118" data-name="Path 118" d="M265.281,322.423a6.749,6.749,0,0,0,1.7.815,18.071,18.071,0,0,0,4.537,1.058l-.164-.153c.051.289.105.593.177.9a13.9,13.9,0,0,0,2.134,4.822,11.621,11.621,0,0,0,1.005,1.246c.262.272.42.409.438.393.046-.04-.511-.66-1.224-1.784a15.5,15.5,0,0,1-1.991-4.759c-.07-.3-.124-.595-.175-.876l-.025-.141-.139-.013a21.755,21.755,0,0,1-4.492-.925C265.956,322.653,265.3,322.374,265.281,322.423Z" transform="translate(-265.28 -322.417)" fill="#ff9a6c"/>
                </g>
              </g>
            </g>
            <g id="Group_533" data-name="Group 533" transform="translate(38.804 6.812)">
              <g id="Group_532" data-name="Group 532">
                <g id="Group_531" data-name="Group 531">
                  <path id="Path_119" data-name="Path 119" d="M272.109,328.273a8.983,8.983,0,0,0,2.96,6.1c.085-.075-.933-1.231-1.743-2.921C272.5,329.768,272.22,328.252,272.109,328.273Z" transform="translate(-272.083 -328.273)" fill="#ff9a6c"/>
                </g>
              </g>
            </g>
            <g id="Group_536" data-name="Group 536" transform="translate(22.98 4.559)">
              <g id="Group_535" data-name="Group 535">
                <g id="Group_534" data-name="Group 534">
                  <path id="Path_120" data-name="Path 120" d="M249.389,332.007c-.006.009.049.054.161.131a4,4,0,0,0,.516.3,6.043,6.043,0,0,0,2.151.6,6.13,6.13,0,0,0,3.335-.644,6.4,6.4,0,0,0,2.935-3.124l-.224.1a14.436,14.436,0,0,0,4,.827,14.2,14.2,0,0,0,1.52.012,4.589,4.589,0,0,0,1.493-.242,1.133,1.133,0,0,0,.632-.523,1.033,1.033,0,0,0,.036-.819,1.046,1.046,0,0,0-.547-.584l-.617-.261c-1.626-.677-3.119-1.213-4.386-1.622s-2.305-.7-3.027-.876a6.255,6.255,0,0,0-1.132-.234,7.517,7.517,0,0,0,1.093.373c.708.222,1.731.547,2.981.986s2.727,1,4.337,1.689l.608.264a.691.691,0,0,1,.357.389.68.68,0,0,1-.024.533.774.774,0,0,1-.448.347,4.3,4.3,0,0,1-1.372.211,14.21,14.21,0,0,1-1.481-.014,14.452,14.452,0,0,1-3.9-.792l-.159-.056-.066.154a6.153,6.153,0,0,1-2.749,2.993,6.024,6.024,0,0,1-3.176.69,6.512,6.512,0,0,1-2.117-.485C249.644,332.13,249.4,331.985,249.389,332.007Z" transform="translate(-249.388 -325.04)" fill="#ff9a6c"/>
                </g>
              </g>
            </g>
          </g>
          <g id="Group_643" data-name="Group 643" transform="translate(48.44 3.497)">
            <g id="Group_640" data-name="Group 640">
              <g id="Group_542" data-name="Group 542" transform="translate(5.461 1.072)">
                <g id="Group_541" data-name="Group 541">
                  <g id="Group_540" data-name="Group 540">
                    <g id="Group_539" data-name="Group 539">
                      <g id="Group_538" data-name="Group 538">
                        <path id="Path_121" data-name="Path 121" d="M139.964,258.03A10.4,10.4,0,0,1,129.8,247.619l-.433-34.517c-.4-9.27,4.506-17.237,13.526-17.4l.835.036a16.364,16.364,0,0,1,15.452,15.921c.306,8.036.633,15.8.409,20.1-.464,8.891-9.259,9.77-9.259,9.77-.02,0-.024,3.317-.019,5.931a10.405,10.405,0,0,1-10.346,10.571Z" transform="translate(-129.343 -195.706)" fill="#ffbf9d"/>
                      </g>
                    </g>
                  </g>
                </g>
              </g>
              <g id="Group_548" data-name="Group 548" transform="translate(15.323 43.049)">
                <g id="Group_547" data-name="Group 547">
                  <g id="Group_546" data-name="Group 546">
                    <g id="Group_545" data-name="Group 545">
                      <g id="Group_544" data-name="Group 544">
                        <g id="Group_543" data-name="Group 543">
                          <path id="Path_122" data-name="Path 122" d="M154.611,259.813a20.494,20.494,0,0,1-11.124-3.9s2.44,6.8,11.1,6.369Z" transform="translate(-143.487 -255.911)" fill="#ff9a6c"/>
                        </g>
                      </g>
                    </g>
                  </g>
                </g>
              </g>
              <g id="Group_560" data-name="Group 560" transform="translate(29.636 23.734)">
                <g id="Group_559" data-name="Group 559">
                  <g id="Group_558" data-name="Group 558">
                    <g id="Group_557" data-name="Group 557">
                      <g id="Group_556" data-name="Group 556">
                        <g id="Group_555" data-name="Group 555">
                          <g id="Group_554" data-name="Group 554">
                            <g id="Group_553" data-name="Group 553">
                              <g id="Group_552" data-name="Group 552">
                                <g id="Group_551" data-name="Group 551">
                                  <g id="Group_550" data-name="Group 550">
                                    <g id="Group_549" data-name="Group 549">
                                      <path id="Path_123" data-name="Path 123" d="M166.486,229.41a1.253,1.253,0,0,1-1.242,1.231,1.2,1.2,0,0,1-1.227-1.2,1.254,1.254,0,0,1,1.241-1.232A1.2,1.2,0,0,1,166.486,229.41Z" transform="translate(-164.016 -228.209)" fill="#263238"/>
                                    </g>
                                  </g>
                                </g>
                              </g>
                            </g>
                          </g>
                        </g>
                      </g>
                    </g>
                  </g>
                </g>
              </g>
              <g id="Group_573" data-name="Group 573" transform="translate(28.421 19.437)">
                <g id="Group_572" data-name="Group 572">
                  <g id="Group_571" data-name="Group 571">
                    <g id="Group_570" data-name="Group 570">
                      <g id="Group_569" data-name="Group 569">
                        <g id="Group_568" data-name="Group 568">
                          <g id="Group_567" data-name="Group 567">
                            <g id="Group_566" data-name="Group 566">
                              <g id="Group_565" data-name="Group 565">
                                <g id="Group_564" data-name="Group 564">
                                  <g id="Group_563" data-name="Group 563">
                                    <g id="Group_562" data-name="Group 562">
                                      <g id="Group_561" data-name="Group 561">
                                        <path id="Path_124" data-name="Path 124" d="M167.152,223.487c-.16.159-1.067-.593-2.4-.646-1.327-.073-2.331.589-2.467.416-.068-.077.1-.37.538-.669a3.321,3.321,0,0,1,1.984-.538,3.209,3.209,0,0,1,1.9.721C167.1,223.111,167.23,223.416,167.152,223.487Z" transform="translate(-162.273 -222.046)" fill="#263238"/>
                                      </g>
                                    </g>
                                  </g>
                                </g>
                              </g>
                            </g>
                          </g>
                        </g>
                      </g>
                    </g>
                  </g>
                </g>
              </g>
              <g id="Group_585" data-name="Group 585" transform="translate(17.571 23.734)">
                <g id="Group_584" data-name="Group 584">
                  <g id="Group_583" data-name="Group 583">
                    <g id="Group_582" data-name="Group 582">
                      <g id="Group_581" data-name="Group 581">
                        <g id="Group_580" data-name="Group 580">
                          <g id="Group_579" data-name="Group 579">
                            <g id="Group_578" data-name="Group 578">
                              <g id="Group_577" data-name="Group 577">
                                <g id="Group_576" data-name="Group 576">
                                  <g id="Group_575" data-name="Group 575">
                                    <g id="Group_574" data-name="Group 574">
                                      <path id="Path_125" data-name="Path 125" d="M149.182,229.41a1.253,1.253,0,0,1-1.242,1.231,1.2,1.2,0,0,1-1.227-1.2,1.255,1.255,0,0,1,1.242-1.232A1.2,1.2,0,0,1,149.182,229.41Z" transform="translate(-146.712 -228.209)" fill="#263238"/>
                                    </g>
                                  </g>
                                </g>
                              </g>
                            </g>
                          </g>
                        </g>
                      </g>
                    </g>
                  </g>
                </g>
              </g>
              <g id="Group_598" data-name="Group 598" transform="translate(15.379 19.2)">
                <g id="Group_597" data-name="Group 597">
                  <g id="Group_596" data-name="Group 596">
                    <g id="Group_595" data-name="Group 595">
                      <g id="Group_594" data-name="Group 594">
                        <g id="Group_593" data-name="Group 593">
                          <g id="Group_592" data-name="Group 592">
                            <g id="Group_591" data-name="Group 591">
                              <g id="Group_590" data-name="Group 590">
                                <g id="Group_589" data-name="Group 589">
                                  <g id="Group_588" data-name="Group 588">
                                    <g id="Group_587" data-name="Group 587">
                                      <g id="Group_586" data-name="Group 586">
                                        <path id="Path_126" data-name="Path 126" d="M148.447,223.147c-.16.159-1.069-.593-2.4-.646-1.327-.072-2.331.59-2.468.416-.068-.077.1-.37.538-.669a3.321,3.321,0,0,1,1.984-.538,3.209,3.209,0,0,1,1.9.721C148.4,222.771,148.524,223.077,148.447,223.147Z" transform="translate(-143.567 -221.707)" fill="#263238"/>
                                      </g>
                                    </g>
                                  </g>
                                </g>
                              </g>
                            </g>
                          </g>
                        </g>
                      </g>
                    </g>
                  </g>
                </g>
              </g>
              <g id="Group_610" data-name="Group 610" transform="translate(24.437 19.932)">
                <g id="Group_609" data-name="Group 609">
                  <g id="Group_608" data-name="Group 608">
                    <g id="Group_607" data-name="Group 607">
                      <g id="Group_606" data-name="Group 606">
                        <g id="Group_605" data-name="Group 605">
                          <g id="Group_604" data-name="Group 604">
                            <g id="Group_603" data-name="Group 603">
                              <g id="Group_602" data-name="Group 602">
                                <g id="Group_601" data-name="Group 601">
                                  <g id="Group_600" data-name="Group 600">
                                    <g id="Group_599" data-name="Group 599">
                                      <path id="Path_127" data-name="Path 127" d="M156.726,234.172a8.571,8.571,0,0,1,2.175-.309c.341-.022.665-.077.731-.313a1.828,1.828,0,0,0-.185-1.044l-.9-2.7a46.825,46.825,0,0,1-1.975-7.048,46.542,46.542,0,0,1,2.522,6.868q.447,1.421.854,2.714a2.076,2.076,0,0,1,.121,1.378.858.858,0,0,1-.578.487,2.246,2.246,0,0,1-.58.058A8.4,8.4,0,0,1,156.726,234.172Z" transform="translate(-156.559 -222.756)" fill="#263238"/>
                                    </g>
                                  </g>
                                </g>
                              </g>
                            </g>
                          </g>
                        </g>
                      </g>
                    </g>
                  </g>
                </g>
              </g>
              <g id="Group_618" data-name="Group 618" transform="translate(14.781 14.801)">
                <g id="Group_617" data-name="Group 617">
                  <g id="Group_616" data-name="Group 616">
                    <g id="Group_615" data-name="Group 615">
                      <g id="Group_614" data-name="Group 614">
                        <g id="Group_613" data-name="Group 613">
                          <g id="Group_612" data-name="Group 612">
                            <g id="Group_611" data-name="Group 611">
                              <path id="Path_128" data-name="Path 128" d="M148.789,216.98c-.195.341-1.47-.081-3.039-.182-1.567-.134-2.887.093-3.032-.273-.063-.175.215-.478.779-.737a5.163,5.163,0,0,1,4.625.347C148.644,216.475,148.876,216.817,148.789,216.98Z" transform="translate(-142.709 -215.398)" fill="#263238"/>
                            </g>
                          </g>
                        </g>
                      </g>
                    </g>
                  </g>
                </g>
              </g>
              <g id="Group_626" data-name="Group 626" transform="translate(28.177 15.369)">
                <g id="Group_625" data-name="Group 625">
                  <g id="Group_624" data-name="Group 624">
                    <g id="Group_623" data-name="Group 623">
                      <g id="Group_622" data-name="Group 622">
                        <g id="Group_621" data-name="Group 621">
                          <g id="Group_620" data-name="Group 620">
                            <g id="Group_619" data-name="Group 619">
                              <path id="Path_129" data-name="Path 129" d="M167.268,217.7c-.284.3-1.359-.049-2.661-.1-1.3-.09-2.41.144-2.655-.188-.107-.16.075-.467.563-.748a4.1,4.1,0,0,1,2.177-.45,4.049,4.049,0,0,1,2.107.682C167.251,217.231,167.394,217.555,167.268,217.7Z" transform="translate(-161.923 -216.211)" fill="#263238"/>
                            </g>
                          </g>
                        </g>
                      </g>
                    </g>
                  </g>
                </g>
              </g>
              <g id="Group_630" data-name="Group 630" transform="translate(0 24.717)">
                <g id="Group_629" data-name="Group 629">
                  <g id="Group_628" data-name="Group 628">
                    <g id="Group_627" data-name="Group 627">
                      <path id="Path_130" data-name="Path 130" d="M127.437,229.986c-.145-.072-5.871-2.06-5.926,4.029s5.9,4.89,5.913,4.716S127.437,229.986,127.437,229.986Z" transform="translate(-121.51 -229.619)" fill="#ffbf9d"/>
                    </g>
                  </g>
                </g>
              </g>
              <g id="Group_635" data-name="Group 635" transform="translate(1.502 26.676)">
                <g id="Group_634" data-name="Group 634">
                  <g id="Group_633" data-name="Group 633">
                    <g id="Group_632" data-name="Group 632">
                      <g id="Group_631" data-name="Group 631">
                        <path id="Path_131" data-name="Path 131" d="M126.288,237.257c-.026-.02-.1.073-.279.153a1,1,0,0,1-.771.009,2.645,2.645,0,0,1-1.16-2.366,3.587,3.587,0,0,1,.3-1.516,1.21,1.21,0,0,1,.784-.807.522.522,0,0,1,.606.3c.078.171.039.292.07.3s.128-.1.083-.353a.681.681,0,0,0-.23-.384.764.764,0,0,0-.569-.16,1.459,1.459,0,0,0-1.086.934,3.692,3.692,0,0,0-.373,1.694,2.764,2.764,0,0,0,1.48,2.644,1.079,1.079,0,0,0,.945-.152C126.275,237.4,126.308,237.268,126.288,237.257Z" transform="translate(-123.665 -232.429)" fill="#ff9a6c"/>
                      </g>
                    </g>
                  </g>
                </g>
              </g>
              <g id="Group_639" data-name="Group 639" transform="translate(3.074)">
                <g id="Group_638" data-name="Group 638">
                  <g id="Group_637" data-name="Group 637">
                    <g id="Group_636" data-name="Group 636">
                      <path id="Path_132" data-name="Path 132" d="M133.014,204.051a4.355,4.355,0,0,1,2.958-3.376,6.038,6.038,0,0,1,4,.049c3.333,1.215,9.026,3.03,10.514,1.867a9.287,9.287,0,0,0,2.653-2.765l1.177,1.279c.959-.543-1.916-3.736-4.271-4.837-3.558-1.662-8.992-2.689-12.275-1.733-3.951,1.15-7.235,3.17-9.22,6.867a24.52,24.52,0,0,0-2.621,12.229c.035,1.288-.2,4.981,1.045,5.266a2.276,2.276,0,0,1,2.129,2.507,2.6,2.6,0,0,0,.614,1.86c1.083,1.186,2.408.073,3.018-1.043,1.3-2.385,1.45-5.232,1.565-7.965a18.305,18.305,0,0,0-.372-5.792,18.156,18.156,0,0,1-.954-3.743A3.2,3.2,0,0,1,133.014,204.051Z" transform="translate(-125.919 -194.169)" fill="#263238"/>
                    </g>
                  </g>
                </g>
              </g>
            </g>
            <g id="Group_642" data-name="Group 642" transform="translate(20.303 32.234)">
              <g id="Group_641" data-name="Group 641">
                <path id="Path_133" data-name="Path 133" d="M155.162,242.806c.036.092-.238.321-.787.441a3.164,3.164,0,0,1-2.144-.337,3.255,3.255,0,0,1-1.448-1.61c-.2-.521-.174-.875-.078-.9.206-.069.648,1.154,1.9,1.832S155.1,242.6,155.162,242.806Z" transform="translate(-150.63 -240.4)" fill="#263238"/>
              </g>
            </g>
          </g>
          <g id="Group_644" data-name="Group 644" transform="translate(0 68.028)">
            <path id="Path_134" data-name="Path 134" d="M131.465,338.055l-28.32-6.228-18.176-45.1s-24.324,5.395-28.339,18.985c-3.472,11.751-10.638,63.676,5.652,95.688a24.6,24.6,0,0,0,21.962,13.342H208.159a30.721,30.721,0,0,0,30.533-27.3,134.864,134.864,0,0,0,1.088-16.1l-19.9-15.274Z" transform="translate(-52.035 -286.722)" fill="#455a64"/>
          </g>
          <g id="Group_646" data-name="Group 646" transform="translate(155.181 131.227)" opacity="0.3">
            <g id="Group_645" data-name="Group 645">
              <path id="Path_135" data-name="Path 135" d="M274.6,381.192c8.718,11.392,19.333,21.633,32.026,28.318l.6-15.465-23.437-16.681Z" transform="translate(-274.602 -377.364)"/>
            </g>
          </g>
          <g id="Group_673" data-name="Group 673" transform="translate(29.412 46.644)">
            <g id="Group_647" data-name="Group 647" transform="translate(30.808 9.678)">
              <path id="Path_136" data-name="Path 136" d="M139.816,272.869c0,.819,6.44,3.474,9.353,2.311,4.431-1.769,3.884-5.247,3.884-5.247l2.455,2.6L180.173,310.1l18.332,12.1L169.161,331.5,138.4,296.16Z" transform="translate(-138.405 -269.932)" fill="#f5f5f5"/>
            </g>
            <g id="Group_648" data-name="Group 648" transform="translate(8.687)">
              <path id="Path_137" data-name="Path 137" d="M122.437,256.052l-.648,1.21-2.926,5.461-12.184,7.769,25.05,29.774,11.437,27.028,27.4,8.578s-13.038-20.051-17.088-30.3-4.466-9.771-8.16-17.277a169.833,169.833,0,0,1-6.7-16.283Z" transform="translate(-106.679 -256.052)" fill="#007dce"/>
            </g>
            <g id="Group_649" data-name="Group 649" transform="translate(45.455 6.641)">
              <path id="Path_138" data-name="Path 138" d="M197.1,312.562l5.373,5.015,1.521,3.1-19.98-9.3-14.424-20.2s-5.141-11.4-6.907-15.485c-1.858-4.3-3.246-6.728-3.246-6.728l-.02-3.393,7.29,6.567,6.077,1.811L182.93,290Z" transform="translate(-159.412 -265.577)" fill="#007dce"/>
            </g>
            <g id="Group_650" data-name="Group 650" transform="translate(57.592 14.652)">
              <path id="Path_139" data-name="Path 139" d="M196.209,297.159s-2.425-5.177-4.405-9.477c-4.463-9.693-14.984-10.614-14.984-10.614l11.628,32.253,14.25,10.1s4.052,1.415,4.56,0c0,0,2.968-10.693,2.878-10.736S200,305.641,200,305.641l-4.047-9.036" transform="translate(-176.82 -277.067)" fill="#007dce"/>
            </g>
            <g id="Group_663" data-name="Group 663" transform="translate(45.175 24.076)">
              <g id="Group_651" data-name="Group 651" transform="translate(39.393)">
                <path id="Path_140" data-name="Path 140" d="M229.351,291.181,215.51,314.242l14.494-.43,12.781-21.365a1.231,1.231,0,0,0-1.056-1.864H230.406A1.231,1.231,0,0,0,229.351,291.181Z" transform="translate(-215.51 -290.583)" fill="#263238"/>
              </g>
              <g id="Group_652" data-name="Group 652" transform="translate(0 9.566)">
                <path id="Path_141" data-name="Path 141" d="M159.011,321.412l34.641-4.123,5.827-10.2,4.559-2.507a2.272,2.272,0,0,1,2.435.155l.43.313,3.383-.426a2.691,2.691,0,0,1,1.665.331l2.4,1.365a1.148,1.148,0,0,1,.57.992h0a1.149,1.149,0,0,1-1.357,1.13l-2.332-.429-3.566,1.163s2.3.244,2.593,1.992-.874,1.783-.874,1.783,2.421,1.409.729,3.46c0,0,2.018,1.344-.243,3.9-1.531,1.729-12.563,7.358-12.563,7.358L159.011,341.9Z" transform="translate(-159.011 -304.303)" fill="#ffbf9d"/>
              </g>
              <g id="Group_654" data-name="Group 654" transform="translate(40.832 21.71)">
                <g id="Group_653" data-name="Group 653">
                  <path id="Path_142" data-name="Path 142" d="M227.752,321.724c0-.015.26,0,.563.315a1.83,1.83,0,0,1,.369,1.71,5.038,5.038,0,0,1-1.491,2.131,18.2,18.2,0,0,1-2.433,2.009,32.565,32.565,0,0,1-5,2.758,13.8,13.8,0,0,1-2.189.885,16.957,16.957,0,0,1,2.077-1.116,42.7,42.7,0,0,0,4.9-2.825,19.952,19.952,0,0,0,2.407-1.95,5.022,5.022,0,0,0,1.477-1.962,1.732,1.732,0,0,0-.229-1.548C227.969,321.821,227.736,321.756,227.752,321.724Z" transform="translate(-217.574 -321.721)" fill="#ff9a6c"/>
                </g>
              </g>
              <g id="Group_656" data-name="Group 656" transform="translate(44.202 10.375)">
                <g id="Group_655" data-name="Group 655">
                  <path id="Path_143" data-name="Path 143" d="M225.963,305.494a9.422,9.422,0,0,1-3.555.963,9.466,9.466,0,0,1,3.555-.963Z" transform="translate(-222.407 -305.463)" fill="#ff9a6c"/>
                </g>
              </g>
              <g id="Group_658" data-name="Group 658" transform="translate(47.293 13.261)">
                <g id="Group_657" data-name="Group 657">
                  <path id="Path_144" data-name="Path 144" d="M231.767,309.62a18.624,18.624,0,0,1-4.925,1.637,18.647,18.647,0,0,1,4.925-1.637Z" transform="translate(-226.841 -309.602)" fill="#ff9a6c"/>
                </g>
              </g>
              <g id="Group_660" data-name="Group 660" transform="translate(47.591 16.557)">
                <g id="Group_659" data-name="Group 659">
                  <path id="Path_145" data-name="Path 145" d="M227.743,315.675c-.1-.011-.151-.314-.27-.651s-.259-.609-.185-.68.385.139.529.563S227.839,315.691,227.743,315.675Z" transform="translate(-227.268 -314.329)" fill="#ff9a6c"/>
                </g>
              </g>
              <g id="Group_662" data-name="Group 662" transform="translate(48.709 19.745)">
                <g id="Group_661" data-name="Group 661">
                  <path id="Path_146" data-name="Path 146" d="M229.414,321.059c-.1-.023-.063-.517-.209-1.088s-.4-.994-.319-1.061.51.306.671.975S229.505,321.091,229.414,321.059Z" transform="translate(-228.872 -318.902)" fill="#ff9a6c"/>
                </g>
              </g>
            </g>
            <g id="Group_664" data-name="Group 664" transform="translate(0 13.82)">
              <path id="Path_147" data-name="Path 147" d="M103.88,275.873c-1.152.7-10.948,7.386-9.519,18.346S117.473,329.96,122,330.437l17.394,2.859V312.8l-8.34-.476-10.961-21.444Z" transform="translate(-94.219 -275.873)" fill="#007dce"/>
            </g>
            <g id="Group_666" data-name="Group 666" transform="translate(22.666 31.055)">
              <g id="Group_665" data-name="Group 665">
                <path id="Path_148" data-name="Path 148" d="M149.236,319.3a2.72,2.72,0,0,1-.623.061l-1.756.067-6.23.137h-.088l-.054-.072-4.406-5.922c-2.626-3.552-4.986-6.779-6.678-9.128l-1.988-2.793a7.627,7.627,0,0,1-.685-1.056,7.778,7.778,0,0,1,.808.965l2.088,2.719c1.749,2.306,4.144,5.508,6.771,9.06l4.37,5.947-.141-.07,6.231,0,1.758.03A2.771,2.771,0,0,1,149.236,319.3Z" transform="translate(-126.727 -300.592)" fill="#263238"/>
              </g>
            </g>
            <g id="Group_668" data-name="Group 668" transform="translate(20.67 6.948)">
              <g id="Group_667" data-name="Group 667">
                <path id="Path_149" data-name="Path 149" d="M144.139,277.745a3.318,3.318,0,0,1-.34-.621l-.86-1.8.185.019a22.292,22.292,0,0,0-1.678,2.892,25.852,25.852,0,0,1-2.18,3.84l-.14.194-.151-.186c-1.125-1.387-2.414-2.868-3.8-4.379-3.037-3.3-5.937-6.156-8.008-8.248l-2.444-2.488a7.99,7.99,0,0,1-.857-.952,8.026,8.026,0,0,1,.964.844l2.532,2.4c2.12,2.041,5.054,4.867,8.1,8.181,1.392,1.516,2.679,3.01,3.8,4.415l-.291.008a27.045,27.045,0,0,0,2.205-3.764,20.231,20.231,0,0,1,1.776-2.879l.114-.152.071.171.767,1.838A3.293,3.293,0,0,1,144.139,277.745Z" transform="translate(-123.865 -266.017)" fill="#263238"/>
              </g>
            </g>
            <g id="Group_670" data-name="Group 670" transform="translate(48.942 12.26)">
              <g id="Group_669" data-name="Group 669">
                <path id="Path_150" data-name="Path 150" d="M168.281,274.81a3.629,3.629,0,0,1,.526,1.031,27.961,27.961,0,0,1,.911,2.883l.235.845-.54-.7a23.312,23.312,0,0,0-2.557-2.694c-.8-.743-1.6-1.427-2.313-2.051l.3-.114a31.4,31.4,0,0,0-.109,3.442,3.864,3.864,0,0,1-.169,1.344c-.044-.006-.007-.5-.05-1.343a21.865,21.865,0,0,1-.03-3.49l.036-.331.26.217c.731.609,1.534,1.288,2.346,2.038a20.3,20.3,0,0,1,2.567,2.775l-.3.148c-.3-1.21-.545-2.214-.769-2.9A7.257,7.257,0,0,1,168.281,274.81Z" transform="translate(-164.413 -273.636)" fill="#263238"/>
              </g>
            </g>
            <g id="Group_672" data-name="Group 672" transform="translate(63.643 22.643)">
              <g id="Group_671" data-name="Group 671">
                <path id="Path_151" data-name="Path 151" d="M199.853,312.728a6.162,6.162,0,0,1-.825-.762l-2.143-2.178c-.9-.941-1.968-2-3.137-3.3-.537-.685-1.01-1.44-1.57-2.174a14.5,14.5,0,0,1-1.447-2.523c-.832-1.8-1.457-3.58-2.023-5.19s-1.058-3.066-1.516-4.268-.869-2.159-1.192-2.8a8.568,8.568,0,0,1-.5-1c.011-.008.074.07.183.227a7.635,7.635,0,0,1,.449.7,23.715,23.715,0,0,1,1.315,2.771c.5,1.2,1.019,2.645,1.6,4.25s1.217,3.368,2.037,5.144a14.543,14.543,0,0,0,1.4,2.46c.562.746,1.037,1.517,1.546,2.181,1.094,1.249,2.192,2.377,3.05,3.329l2.055,2.267A6.147,6.147,0,0,1,199.853,312.728Z" transform="translate(-185.498 -288.527)" fill="#263238"/>
              </g>
            </g>
          </g>
          <g id="Group_721" data-name="Group 721" transform="translate(81.461 103.209)">
            <g id="Group_674" data-name="Group 674" transform="translate(17.552)">
              <path id="Path_152" data-name="Path 152" d="M212.5,339.031l65.763-1.849a7.286,7.286,0,0,1,3.037.563c2.391,1.019,6.693,3.632,9.641,9.9,4.278,9.091,24.214,47.393,24.214,47.393l-20.164,10.333-24.729-45.873-76.218-6.473.881-6.092Z" transform="translate(-194.044 -337.18)" fill="#263238"/>
            </g>
            <g id="Group_696" data-name="Group 696" transform="translate(112.511 51.93)">
              <g id="Group_695" data-name="Group 695">
                <g id="Group_680" data-name="Group 680">
                  <g id="Group_679" data-name="Group 679">
                    <g id="Group_678" data-name="Group 678">
                      <g id="Group_677" data-name="Group 677">
                        <g id="Group_676" data-name="Group 676">
                          <g id="Group_675" data-name="Group 675">
                            <path id="Path_153" data-name="Path 153" d="M330.238,419.855l10.51,18.035.7,4.559a5.108,5.108,0,0,0,5.825,4.275l31.982-4.909a2.5,2.5,0,0,0,1.975-3.419,2.175,2.175,0,0,0-1.523-1.24c-2.675-.683-23.313-8.259-23.313-8.259l-8.608-17.238Z" transform="translate(-330.238 -411.66)" fill="#e0e0e0"/>
                          </g>
                        </g>
                      </g>
                    </g>
                  </g>
                </g>
                <g id="Group_682" data-name="Group 682" transform="translate(4.372 6.353)">
                  <g id="Group_681" data-name="Group 681">
                    <path id="Path_154" data-name="Path 154" d="M340.943,426.784a38.379,38.379,0,0,1-4.429-6.01,38.582,38.582,0,0,1,4.429,6.01Z" transform="translate(-336.509 -420.772)" fill="#263238"/>
                  </g>
                </g>
                <g id="Group_684" data-name="Group 684" transform="translate(11.312 3.385)">
                  <g id="Group_683" data-name="Group 683">
                    <path id="Path_155" data-name="Path 155" d="M350.231,422.973a18.761,18.761,0,0,1-3.761-6.458c.1-.043.832,1.459,1.869,3.235S350.316,422.911,350.231,422.973Z" transform="translate(-346.462 -416.515)" fill="#263238"/>
                  </g>
                </g>
                <g id="Group_689" data-name="Group 689" transform="translate(10.836 27.643)">
                  <g id="Group_688" data-name="Group 688">
                    <g id="Group_687" data-name="Group 687">
                      <g id="Group_686" data-name="Group 686">
                        <g id="Group_685" data-name="Group 685">
                          <path id="Path_156" data-name="Path 156" d="M354.41,458.15c-.068.017-.238-.625-.717-1.563a9.282,9.282,0,0,0-6.226-4.886c-1.025-.243-1.69-.255-1.688-.326a4.02,4.02,0,0,1,1.747.031,8.554,8.554,0,0,1,6.439,5.054A4.02,4.02,0,0,1,354.41,458.15Z" transform="translate(-345.779 -451.306)" fill="#263238"/>
                        </g>
                      </g>
                    </g>
                  </g>
                </g>
                <g id="Group_694" data-name="Group 694" transform="translate(40.351 23.552)">
                  <g id="Group_693" data-name="Group 693">
                    <g id="Group_692" data-name="Group 692">
                      <g id="Group_691" data-name="Group 691">
                        <g id="Group_690" data-name="Group 690">
                          <path id="Path_157" data-name="Path 157" d="M388.777,453.27a2.705,2.705,0,0,1-.509-1.2,5.54,5.54,0,0,1,.155-3.141,7.659,7.659,0,0,1,1.665-2.66c.554-.579.956-.869.992-.832s-.281.413-.763,1.027a9.409,9.409,0,0,0-1.491,2.6,6.147,6.147,0,0,0-.261,2.943A7.3,7.3,0,0,1,388.777,453.27Z" transform="translate(-388.111 -445.439)" fill="#263238"/>
                        </g>
                      </g>
                    </g>
                  </g>
                </g>
              </g>
            </g>
            <g id="Group_697" data-name="Group 697" transform="translate(0 4.282)">
              <path id="Path_158" data-name="Path 158" d="M184.736,349.857s67.867-6.8,71.164-6.529c6.087.5,17.31,10.1,37.227,23.472A183.249,183.249,0,0,1,321.7,390.82l-6.364,14.533s-44.635-16.269-51.633-22.117c-5.816-4.861-16.423-11.783-16.423-11.783l-26.179.264-19.454,1.716a28.606,28.606,0,0,1-25.225-11.1l-7.554-9.865Z" transform="translate(-168.87 -343.321)" fill="#263238"/>
            </g>
            <g id="Group_699" data-name="Group 699" transform="translate(37.983 3.638)">
              <g id="Group_698" data-name="Group 698">
                <path id="Path_159" data-name="Path 159" d="M263.46,370.97s.109.065.316.2l.914.629,3.522,2.472c3.057,2.184,7.552,5.319,13.057,9.487.346.255.675.558,1.047.784l1.124.7c.806.4,1.616.846,2.471,1.247l2.626,1.22,2.761,1.219c3.766,1.63,7.842,3.336,12.193,5.1,8.7,3.535,18.461,7.379,29,11.427l-.234.1c1.841-4.663,3.781-9.579,5.771-14.619l.041.208-7.919-8.077.01.01c-1.857-1.611-3.852-3.325-5.892-5.017a415.166,415.166,0,0,0-38.038-27.9l-.009-.006-.012-.01a37.106,37.106,0,0,0-5.761-4.051,28.312,28.312,0,0,0-6.158-2.675c-.526-.143-1.057-.257-1.581-.386l-1.586-.243-1.578-.084-1.576,0-6.088-.009-20.494-.041-13.3-.05-3.525-.027-.906-.015c-.2,0-.307-.015-.307-.015s.1-.01.307-.015l.906-.015,3.525-.027,13.3-.05,20.494-.041,6.087-.009h1.576l1.611.081,1.615.244c.531.129,1.071.244,1.606.388a28.607,28.607,0,0,1,6.236,2.692,37.348,37.348,0,0,1,5.827,4.084l-.022-.016a409.747,409.747,0,0,1,38.093,27.9c2.042,1.694,4.04,3.409,5.9,5.024l.006,0,0,.006,7.916,8.08.089.09-.047.119c-1.993,5.038-3.939,9.952-5.783,14.613l-.068.169-.167-.064c-10.535-4.061-20.294-7.923-28.985-11.481-4.347-1.777-8.42-3.5-12.184-5.14l-2.76-1.231-2.627-1.233c-.856-.406-1.671-.855-2.478-1.265l-1.148-.724c-.381-.236-.7-.533-1.045-.791-5.479-4.188-9.956-7.356-12.989-9.57l-3.488-2.522-.9-.655C263.558,371.052,263.46,370.97,263.46,370.97Z" transform="translate(-223.347 -342.397)" fill="#455a64"/>
              </g>
            </g>
            <g id="Group_720" data-name="Group 720" transform="translate(132.052 42.2)">
              <g id="Group_719" data-name="Group 719">
                <g id="Group_708" data-name="Group 708">
                  <g id="Group_707" data-name="Group 707">
                    <g id="Group_706" data-name="Group 706">
                      <g id="Group_705" data-name="Group 705">
                        <g id="Group_704" data-name="Group 704">
                          <g id="Group_703" data-name="Group 703">
                            <g id="Group_700" data-name="Group 700" transform="translate(0 0.204)">
                              <path id="Path_160" data-name="Path 160" d="M358.265,418.21l18.806,7.4,3.132,3.386a5.109,5.109,0,0,0,7.221.281L411.175,407.3a2.5,2.5,0,0,0-.278-3.939,2.177,2.177,0,0,0-1.956-.174c-2.6.932-23.941,6.21-23.941,6.21L370.7,398Z" transform="translate(-358.265 -397.996)" fill="#e0e0e0"/>
                            </g>
                            <g id="Group_702" data-name="Group 702">
                              <g id="Group_701" data-name="Group 701">
                                <path id="Path_161" data-name="Path 161" d="M358.265,418.121s.062-.118.2-.354l.63-1.049,2.447-4.042,9.043-14.841.08-.132.121.1L385.1,409.18l-.144-.031,12.728-3.207,6.731-1.748c1.137-.3,2.285-.609,3.428-.943.289-.079.569-.171.851-.261a3.577,3.577,0,0,1,.92-.217,2.369,2.369,0,0,1,1.783.666,2.689,2.689,0,0,1,.252,3.505,4.291,4.291,0,0,1-.636.664l-.648.6-1.291,1.194-5.063,4.68-9.573,8.842-4.458,4.114-2.136,1.97a7.3,7.3,0,0,1-1.127.9,5.262,5.262,0,0,1-6.4-.687c-1.194-1.249-2.281-2.464-3.35-3.615l.047.032-13.776-5.5-3.713-1.494-.956-.39c-.213-.088-.314-.136-.314-.136s.124.04.349.124l.989.375,3.766,1.448,13.749,5.332.026.01.021.022c1.07,1.139,2.18,2.366,3.356,3.587a4.968,4.968,0,0,0,6.04.629,7.018,7.018,0,0,0,1.077-.873l2.129-1.976,4.448-4.125,9.558-8.857,5.06-4.685,1.289-1.194a13.342,13.342,0,0,0,1.237-1.211,2.328,2.328,0,0,0-.208-3.029,2.006,2.006,0,0,0-1.51-.567,3.17,3.17,0,0,0-.826.2c-.289.093-.578.187-.866.266-1.15.337-2.3.639-3.437.945l-6.737,1.743-12.736,3.187-.08.02-.064-.052-14.278-11.427.2-.035L361.7,412.662l-2.523,4.036-.667,1.058C358.353,417.995,358.265,418.121,358.265,418.121Z" transform="translate(-358.265 -397.704)" fill="#263238"/>
                              </g>
                            </g>
                          </g>
                        </g>
                      </g>
                    </g>
                  </g>
                </g>
                <g id="Group_713" data-name="Group 713" transform="translate(19.904 27.139)">
                  <g id="Group_712" data-name="Group 712">
                    <g id="Group_711" data-name="Group 711">
                      <g id="Group_710" data-name="Group 710">
                        <g id="Group_709" data-name="Group 709">
                          <path id="Path_162" data-name="Path 162" d="M397.758,439.132c-.046.053-.547-.385-1.469-.893a9.278,9.278,0,0,0-7.895-.563c-.985.372-1.543.734-1.581.676a4.01,4.01,0,0,1,1.465-.953,8.55,8.55,0,0,1,8.164.583A4.012,4.012,0,0,1,397.758,439.132Z" transform="translate(-386.812 -436.628)" fill="#263238"/>
                        </g>
                      </g>
                    </g>
                  </g>
                </g>
                <g id="Group_718" data-name="Group 718" transform="translate(44.026 7.232)">
                  <g id="Group_717" data-name="Group 717">
                    <g id="Group_716" data-name="Group 716">
                      <g id="Group_715" data-name="Group 715">
                        <g id="Group_714" data-name="Group 714">
                          <path id="Path_163" data-name="Path 163" d="M424.351,415.851a2.714,2.714,0,0,1-1.091-.706,5.538,5.538,0,0,1-1.63-2.689,7.667,7.667,0,0,1-.11-3.137,3.209,3.209,0,0,1,.356-1.244,5.126,5.126,0,0,1-.058,1.278,9.439,9.439,0,0,0,.222,2.993,6.148,6.148,0,0,0,1.431,2.585C424,415.5,424.392,415.793,424.351,415.851Z" transform="translate(-421.408 -408.076)" fill="#263238"/>
                        </g>
                      </g>
                    </g>
                  </g>
                </g>
              </g>
            </g>
          </g>
          <g id="Group_722" data-name="Group 722" transform="translate(11.085 99.553)">
            <path id="Path_164" data-name="Path 164" d="M204.865,367.809c-1.456-6.907-4.433-13.975-10.323-17.865-4.469-2.951-10-3.681-15.315-4.335l-111.2-13.674c-.995,17.526,6.5,39.337,14.156,55.135,1.188,2.451,2.563,4.959,4.837,6.458,2.772,1.827,6.325,1.811,9.645,1.726,37.406-.952,74.831-2.543,112.025-6.638C206.594,381.876,206.321,374.716,204.865,367.809Z" transform="translate(-67.934 -331.936)" fill="#455a64"/>
          </g>
          <g id="Group_724" data-name="Group 724" transform="translate(19.071 99.862)">
            <g id="Group_723" data-name="Group 723">
              <path id="Path_165" data-name="Path 165" d="M112.395,337.1a8.39,8.39,0,0,1-1.309-.084l-3.554-.383c-3-.345-7.135-.858-11.7-1.488s-8.685-1.261-11.66-1.781c-1.487-.264-2.688-.484-3.513-.664a8.417,8.417,0,0,1-1.275-.313,8.426,8.426,0,0,1,1.3.162l3.53.542c2.982.45,7.108,1.037,11.668,1.666l11.678,1.6,3.538.507A8.439,8.439,0,0,1,112.395,337.1Z" transform="translate(-79.388 -332.379)" fill="#263238"/>
            </g>
          </g>
          <g id="Group_726" data-name="Group 726" transform="translate(40.58 104.577)">
            <g id="Group_725" data-name="Group 725">
              <path id="Path_166" data-name="Path 166" d="M122.309,430.608a1.109,1.109,0,0,1-.116-.213l-.3-.642-1.132-2.487-.81-1.8c-.282-.664-.555-1.4-.866-2.184-.6-1.575-1.355-3.345-1.992-5.371q-.506-1.511-1.06-3.16c-.363-1.1-.658-2.271-1.01-3.469-.731-2.389-1.3-5-1.94-7.731a127.143,127.143,0,0,1-2.516-36.335c.259-2.8.462-5.458.856-7.925.183-1.235.314-2.435.522-3.575l.614-3.276c.351-2.1.854-3.951,1.233-5.594.2-.819.37-1.585.557-2.283l.554-1.9.779-2.619c.088-.282.158-.505.212-.678a1.083,1.083,0,0,1,.085-.227,1.161,1.161,0,0,1-.047.238l-.175.689-.708,2.637q-.235.861-.521,1.9c-.176.7-.335,1.466-.524,2.286-.358,1.645-.841,3.5-1.174,5.595q-.281,1.565-.588,3.273c-.2,1.139-.324,2.336-.5,3.569-.38,2.463-.57,5.119-.818,7.908a129.8,129.8,0,0,0,2.509,36.234c.63,2.728,1.184,5.332,1.9,7.719.343,1.2.631,2.366.986,3.466l1.033,3.161c.618,2.028,1.353,3.8,1.933,5.38.3.786.564,1.525.835,2.193l.778,1.813,1.064,2.515.268.658A1.115,1.115,0,0,1,122.309,430.608Z" transform="translate(-110.237 -339.142)" fill="#263238"/>
            </g>
          </g>
          <g id="Group_728" data-name="Group 728" transform="translate(42.74 160.235)">
            <g id="Group_727" data-name="Group 727">
              <path id="Path_167" data-name="Path 167" d="M122.07,419.453a24.576,24.576,0,0,1-4.377-.008,24.586,24.586,0,0,1-4.359-.4,24.583,24.583,0,0,1,4.377.008A24.583,24.583,0,0,1,122.07,419.453Z" transform="translate(-113.334 -418.968)" fill="#263238"/>
            </g>
          </g>
          <g id="Group_730" data-name="Group 730" transform="translate(41.926 162.337)">
            <g id="Group_729" data-name="Group 729">
              <path id="Path_168" data-name="Path 168" d="M120.7,425.443a18.046,18.046,0,0,1-8.533-3.453c.063-.1,1.834.971,4.19,1.917S120.726,425.328,120.7,425.443Z" transform="translate(-112.167 -421.983)" fill="#263238"/>
            </g>
          </g>
          <g id="Group_732" data-name="Group 732" transform="translate(34.816 130.875)">
            <g id="Group_731" data-name="Group 731">
              <path id="Path_169" data-name="Path 169" d="M107.877,376.876a7.627,7.627,0,0,1-5.906.568c.021-.116,1.348.087,2.974-.077S107.835,376.766,107.877,376.876Z" transform="translate(-101.97 -376.859)" fill="#263238"/>
            </g>
          </g>
          <g id="Group_734" data-name="Group 734" transform="translate(37.237 126.796)">
            <g id="Group_733" data-name="Group 733">
              <path id="Path_170" data-name="Path 170" d="M111.148,373.427a5.919,5.919,0,0,1-5.7-2.415,16.959,16.959,0,0,0,2.662,1.651A16.911,16.911,0,0,0,111.148,373.427Z" transform="translate(-105.443 -371.008)" fill="#263238"/>
            </g>
          </g>
          <g id="Group_735" data-name="Group 735" transform="translate(59.749 6.561)">
            <path id="Path_171" data-name="Path 171" d="M160.076,201.772a4.864,4.864,0,0,0-3.329-2.963,8.343,8.343,0,0,0-4.572.172l-14.446,3.3a24.8,24.8,0,0,0,8.861,2.967c3.605.383,6.144.417,8.294-.821a2.705,2.705,0,0,0,3.8,1.38A3.463,3.463,0,0,0,160.076,201.772Z" transform="translate(-137.729 -198.563)" fill="#263238"/>
          </g>
          <g id="Group_737" data-name="Group 737" transform="translate(218.032 158.156)">
            <g id="Group_736" data-name="Group 736">
              <path id="Path_172" data-name="Path 172" d="M373.14,419.148a28.993,28.993,0,0,1-8.393-3.154c.045-.095,1.888.7,4.2,1.563S373.169,419.048,373.14,419.148Z" transform="translate(-364.746 -415.987)" fill="#263238"/>
            </g>
          </g>
          <g id="Group_739" data-name="Group 739" transform="translate(222.229 151.581)">
            <g id="Group_738" data-name="Group 738">
              <path id="Path_173" data-name="Path 173" d="M378.148,410.115a277.029,277.029,0,0,1-7.382-3.55,25.328,25.328,0,0,1,7.382,3.55Z" transform="translate(-370.765 -406.556)" fill="#263238"/>
            </g>
          </g>
          <g id="Group_748" data-name="Group 748" transform="translate(112.898 67.966)">
            <g id="Group_746" data-name="Group 746">
              <g id="Group_743" data-name="Group 743">
                <g id="Group_740" data-name="Group 740" transform="translate(0.038 0.179)">
                  <path id="Path_174" data-name="Path 174" d="M215.613,330.133l29.128.357,35.165-6.968a2.75,2.75,0,0,0,2.183-2.286l4.78-31.667a2.331,2.331,0,0,0-2.68-2.649l-35.947,5.848a2.331,2.331,0,0,0-1.939,2.013l-4.01,32.2-26.633-.128a1.639,1.639,0,0,0-1.647,1.638h0A1.639,1.639,0,0,0,215.613,330.133Z" transform="translate(-214.013 -286.889)" fill="#e0e0e0"/>
                </g>
                <g id="Group_742" data-name="Group 742">
                  <g id="Group_741" data-name="Group 741">
                    <path id="Path_175" data-name="Path 175" d="M215.6,330.055a1.2,1.2,0,0,1-.553-.091,1.657,1.657,0,0,1-1.05-1.209,1.684,1.684,0,0,1,1.4-2.012c1.07-.041,2.278-.011,3.652-.02l23.23.054-.13.114,4.006-32.41a2.5,2.5,0,0,1,1.535-1.816,6.1,6.1,0,0,1,1.173-.25l1.157-.189,4.692-.766,9.672-1.579L274.4,288.25l5.119-.833L282.1,287l1.3-.211a6.345,6.345,0,0,1,1.352-.146,2.529,2.529,0,0,1,2.193,1.752,2.907,2.907,0,0,1,.041,1.44l-.2,1.355q-.409,2.706-.812,5.372-.806,5.332-1.587,10.492t-1.531,10.11l-.372,2.461q-.093.612-.185,1.219a3.574,3.574,0,0,1-.337,1.229,2.91,2.91,0,0,1-1.975,1.526l-2.358.468-32.874,6.472-.013,0h-.013l-21.349-.318-5.772-.1-1.5-.036c-.337-.01-.509-.024-.509-.024s.173-.01.51-.012h1.5l5.772.037,21.35.2-.026,0,32.858-6.553,2.35-.469a2.573,2.573,0,0,0,1.745-1.351,3.257,3.257,0,0,0,.3-1.126q.091-.608.183-1.22l.37-2.461q.745-4.95,1.521-10.111t1.581-10.493q.4-2.666.809-5.372l.205-1.355a2.53,2.53,0,0,0-.029-1.277,2.164,2.164,0,0,0-1.875-1.5,6.2,6.2,0,0,0-1.265.142l-1.3.211-2.585.42-5.12.833-10.014,1.627-9.673,1.569-4.693.761-1.157.188a5.912,5.912,0,0,0-1.1.229,2.168,2.168,0,0,0-1.33,1.569l-4.077,32.375-.015.115h-.116l-23.23-.171c-1.367,0-2.6-.043-3.636-.015a1.584,1.584,0,0,0-1.142.753,1.606,1.606,0,0,0,.79,2.324A2.121,2.121,0,0,0,215.6,330.055Z" transform="translate(-213.959 -286.633)" fill="#263238"/>
                  </g>
                </g>
              </g>
              <g id="Group_745" data-name="Group 745" transform="translate(30.759 7.066)">
                <g id="Group_744" data-name="Group 744">
                  <path id="Path_176" data-name="Path 176" d="M262.751,296.767c.1.012-.865,8.421-2.154,18.779s-2.416,18.749-2.515,18.736.865-8.42,2.154-18.781S262.652,296.754,262.751,296.767Z" transform="translate(-258.075 -296.767)" fill="#263238"/>
                </g>
              </g>
            </g>
            <g id="Group_747" data-name="Group 747" transform="translate(50.702 18.246)">
              <path id="Path_177" data-name="Path 177" d="M287.043,314.7a2.524,2.524,0,1,0,3.548-1.7A2.815,2.815,0,0,0,287.043,314.7Z" transform="translate(-286.678 -312.801)" fill="#fff"/>
            </g>
          </g>
        </g>
      </g>
    </g>
    <g id="Speech_Bubble" data-name="Speech Bubble" transform="translate(159.491 151.355)">
      <g id="Group_809" data-name="Group 809" transform="translate(0 0)">
        <g id="Group_797" data-name="Group 797">
          <g id="Group_796" data-name="Group 796">
            <g id="Group_793" data-name="Group 793" transform="translate(0.181 0.167)">
              <path id="Path_210" data-name="Path 210" d="M275.543,218.454H208.471a3.488,3.488,0,0,0-3.489,3.488V252.5a3.488,3.488,0,0,0,3.489,3.488h28.138l5.977,7.664,4.981-7.664h27.976a3.488,3.488,0,0,0,3.489-3.488V221.942A3.488,3.488,0,0,0,275.543,218.454Z" transform="translate(-204.982 -218.454)" fill="#fff"/>
            </g>
            <g id="Group_795" data-name="Group 795">
              <g id="Group_794" data-name="Group 794">
                <path id="Path_211" data-name="Path 211" d="M275.464,218.382s.112,0,.332,0a3.366,3.366,0,0,1,.954.215,3.431,3.431,0,0,1,1.323.9,3.522,3.522,0,0,1,.913,1.989c.06,3.326.045,8.166.069,14.3.006,3.064.013,6.447.021,10.118q0,2.755.009,5.72a8.25,8.25,0,0,1-.068,1.516,3.632,3.632,0,0,1-3.39,2.911l-28.139.036.14-.077-4.976,7.667-.132.2-.149-.191-5.979-7.661.139.068-24.181,0h-2.9c-.489-.009-.95.021-1.466-.025a3.676,3.676,0,0,1-3.163-2.838,6.373,6.373,0,0,1-.092-1.459v-1.422q0-5.676,0-11.175t0-10.786q0-2.643,0-5.229,0-.646,0-1.289a3.671,3.671,0,0,1,1.985-3.251,3.544,3.544,0,0,1,1.254-.381c.446-.041.851-.02,1.268-.025l2.477,0,4.853,0,9.279.009,16.655.022,24.117.057,6.557.034,1.7.018c.384.006.581.019.581.019s-.2.013-.581.018l-1.7.018-6.557.034-24.117.058-16.655.022-9.279.01-4.853,0-2.477,0c-.412,0-.842-.013-1.231.024a3.2,3.2,0,0,0-1.139.348,3.332,3.332,0,0,0-1.8,2.953v1.289q0,2.585,0,5.229,0,5.287,0,10.786t0,11.175v1.422a6.078,6.078,0,0,0,.083,1.38,3.324,3.324,0,0,0,1.565,2.129,3.284,3.284,0,0,0,1.286.427c.443.041.949.015,1.425.022h2.9l24.181,0h.087l.053.068,5.973,7.666-.281.013,4.985-7.661.05-.076h.091l28.126.02a3.361,3.361,0,0,0,3.14-2.683,8.052,8.052,0,0,0,.068-1.464q.005-2.964.009-5.72c.008-3.671.015-7.054.021-10.118,0-6.125.052-10.981.026-14.284a3.47,3.47,0,0,0-2.148-2.846A4.012,4.012,0,0,0,275.464,218.382Z" transform="translate(-204.722 -218.215)" fill="#263238"/>
              </g>
            </g>
          </g>
        </g>
        <g id="Group_808" data-name="Group 808" transform="translate(11.356 6.844)">
          <g id="Group_805" data-name="Group 805" transform="translate(0.44)">
            <g id="Group_798" data-name="Group 798" transform="translate(0.042)">
              <rect id="Rectangle_27" data-name="Rectangle 27" width="8.463" height="6.553" rx="1.285" fill="#ff725e"/>
            </g>
            <g id="Group_800" data-name="Group 800" transform="translate(0.156 0.024)">
              <g id="Group_799" data-name="Group 799">
                <path id="Path_212" data-name="Path 212" d="M221.889,228.215l3.221,3.439a1.307,1.307,0,0,0,.692.478,1.014,1.014,0,0,0,.943-.36c.58-.6,1.144-1.219,1.716-1.827l1.622-1.728c.077-.082-.047-.2-.123-.123l-3.076,3.276a2.908,2.908,0,0,1-.489.486c-.459.291-.855,0-1.162-.324l-1.738-1.857-1.482-1.581c-.077-.082-.2.041-.123.123Z" transform="translate(-221.864 -228.065)" fill="#fff"/>
              </g>
            </g>
            <g id="Group_802" data-name="Group 802" transform="translate(0 3.005)">
              <g id="Group_801" data-name="Group 801">
                <path id="Path_213" data-name="Path 213" d="M221.787,235.847l2.585-2.939.366-.416c.074-.084-.049-.208-.123-.123l-2.585,2.939-.366.416c-.074.084.049.208.123.123Z" transform="translate(-221.64 -232.34)" fill="#fff"/>
              </g>
            </g>
            <g id="Group_804" data-name="Group 804" transform="translate(5.459 2.973)">
              <g id="Group_803" data-name="Group 803">
                <path id="Path_214" data-name="Path 214" d="M232.386,235.547l-2.421-2.817-.35-.406c-.073-.085-.2.039-.123.123l2.421,2.816.35.407c.073.085.2-.039.123-.123Z" transform="translate(-229.469 -232.295)" fill="#fff"/>
              </g>
            </g>
          </g>
          <g id="Group_806" data-name="Group 806" transform="translate(11.897 1.827)">
            <path id="Path_215" data-name="Path 215" d="M241.367,234.36l0-2.172-1.065,1.789h-.378l-1.06-1.742v2.125h-.786v-3.62h.693l1.355,2.249,1.334-2.249h.687l.01,3.62Z" transform="translate(-238.073 -230.678)" fill="#263238"/>
            <path id="Path_216" data-name="Path 216" d="M247.69,233.542h-2.1a.742.742,0,0,0,.8.558.944.944,0,0,0,.7-.269l.429.466a1.624,1.624,0,0,1-2.735-.982,1.416,1.416,0,0,1,1.484-1.432,1.377,1.377,0,0,1,1.448,1.443C247.7,233.387,247.694,233.475,247.69,233.542Zm-2.115-.471h1.371a.7.7,0,0,0-1.371,0Z" transform="translate(-240.102 -231.024)" fill="#263238"/>
            <path id="Path_217" data-name="Path 217" d="M249.36,234.447l.269-.579a1.9,1.9,0,0,0,.967.268c.372,0,.512-.1.512-.253,0-.455-1.68.01-1.68-1.1,0-.528.476-.9,1.287-.9a2.29,2.29,0,0,1,1.07.243l-.268.574a1.6,1.6,0,0,0-.8-.206c-.362,0-.517.114-.517.258,0,.476,1.68.016,1.68,1.111,0,.517-.481.885-1.314.885A2.386,2.386,0,0,1,249.36,234.447Z" transform="translate(-241.49 -231.024)" fill="#263238"/>
            <path id="Path_218" data-name="Path 218" d="M253.3,234.447l.268-.579a1.906,1.906,0,0,0,.967.268c.372,0,.512-.1.512-.253,0-.455-1.68.01-1.68-1.1,0-.528.476-.9,1.288-.9a2.29,2.29,0,0,1,1.07.243l-.269.574a1.6,1.6,0,0,0-.8-.206c-.362,0-.517.114-.517.258,0,.476,1.68.016,1.68,1.111,0,.517-.48.885-1.313.885A2.386,2.386,0,0,1,253.3,234.447Z" transform="translate(-242.682 -231.024)" fill="#263238"/>
            <path id="Path_219" data-name="Path 219" d="M260,233.118v1.588h-.755v-.347a.912.912,0,0,1-.848.388c-.651,0-1.039-.362-1.039-.843s.346-.832,1.194-.832h.641c0-.347-.207-.548-.641-.548a1.338,1.338,0,0,0-.8.259l-.289-.563a2.133,2.133,0,0,1,1.2-.336C259.508,231.883,260,232.276,260,233.118Zm-.807.708v-.284h-.554c-.377,0-.5.139-.5.326,0,.2.172.336.455.336A.594.594,0,0,0,259.193,233.827Z" transform="translate(-243.912 -231.024)" fill="#263238"/>
            <path id="Path_220" data-name="Path 220" d="M265.014,231.924v2.316a1.362,1.362,0,0,1-1.562,1.51,2.3,2.3,0,0,1-1.365-.383l.321-.579a1.663,1.663,0,0,0,.983.315c.568,0,.816-.258.816-.76v-.119a1.146,1.146,0,0,1-.879.347,1.345,1.345,0,1,1,0-2.689,1.119,1.119,0,0,1,.921.4v-.356Zm-.8,1.3a.734.734,0,1,0-.729.683A.675.675,0,0,0,264.218,233.227Z" transform="translate(-245.299 -231.024)" fill="#263238"/>
            <path id="Path_221" data-name="Path 221" d="M270.043,233.542h-2.1a.742.742,0,0,0,.8.558.944.944,0,0,0,.7-.269l.429.466a1.624,1.624,0,0,1-2.735-.982,1.416,1.416,0,0,1,1.484-1.432,1.377,1.377,0,0,1,1.448,1.443C270.058,233.387,270.047,233.475,270.043,233.542Zm-2.115-.471H269.3a.7.7,0,0,0-1.371,0Z" transform="translate(-246.869 -231.024)" fill="#263238"/>
            <path id="Path_222" data-name="Path 222" d="M271.713,234.447l.269-.579a1.9,1.9,0,0,0,.967.268c.372,0,.512-.1.512-.253,0-.455-1.68.01-1.68-1.1,0-.528.476-.9,1.287-.9a2.29,2.29,0,0,1,1.07.243l-.268.574a1.6,1.6,0,0,0-.8-.206c-.362,0-.517.114-.517.258,0,.476,1.68.016,1.68,1.111,0,.517-.481.885-1.314.885A2.387,2.387,0,0,1,271.713,234.447Z" transform="translate(-248.258 -231.024)" fill="#263238"/>
            <path id="Path_223" data-name="Path 223" d="M277.887,232.523a1.984,1.984,0,1,1,1.981,1.871A1.873,1.873,0,0,1,277.887,232.523Zm3.113,0a1.133,1.133,0,1,0-1.132,1.158A1.1,1.1,0,0,0,281,232.523Z" transform="translate(-250.127 -230.651)" fill="#263238"/>
            <path id="Path_224" data-name="Path 224" d="M284.967,231.423h-1.158v-.683h3.154v.683H285.8v2.937h-.837Z" transform="translate(-251.92 -230.678)" fill="#263238"/>
            <path id="Path_225" data-name="Path 225" d="M292.113,232.054c0,.807-.605,1.308-1.572,1.308h-.729v1h-.837v-3.62h1.567C291.508,230.74,292.113,231.242,292.113,232.054Zm-.848,0c0-.4-.259-.63-.77-.63h-.683v1.256h.683C291.007,232.679,291.265,232.447,291.265,232.054Z" transform="translate(-253.484 -230.678)" fill="#263238"/>
          </g>
          <g id="Group_807" data-name="Group 807" transform="translate(0 10.739)">
            <path id="Path_226" data-name="Path 226" d="M221.01,248.787c0-3.416,1.893-5.354,4.436-5.354,2.559,0,4.436,1.938,4.436,5.354s-1.878,5.353-4.436,5.353C222.9,254.14,221.01,252.2,221.01,248.787Zm6.463,0c0-2.352-.828-3.328-2.026-3.328s-2.011.976-2.011,3.328.828,3.327,2.011,3.327S227.473,251.139,227.473,248.787Z" transform="translate(-221.01 -243.433)" fill="#263238"/>
            <path id="Path_227" data-name="Path 227" d="M244.055,250.961c0,1.952-1.745,3.179-4.377,3.179s-4.348-1.227-4.348-3.179a2.634,2.634,0,0,1,1.568-2.441,2.39,2.39,0,0,1-1.2-2.129c0-1.819,1.627-2.958,3.978-2.958,2.381,0,4.008,1.139,4.008,2.958a2.4,2.4,0,0,1-1.212,2.129A2.624,2.624,0,0,1,244.055,250.961Zm-2.425-.074c0-.917-.754-1.479-1.952-1.479s-1.922.562-1.922,1.479.739,1.493,1.922,1.493S241.63,251.8,241.63,250.887Zm-3.55-4.393c0,.784.621,1.272,1.6,1.272s1.627-.488,1.627-1.272c0-.813-.651-1.3-1.627-1.3S238.081,245.682,238.081,246.495Z" transform="translate(-225.346 -243.433)" fill="#263238"/>
            <path id="Path_228" data-name="Path 228" d="M258.057,250.961c0,1.952-1.745,3.179-4.377,3.179s-4.348-1.227-4.348-3.179a2.634,2.634,0,0,1,1.568-2.441,2.39,2.39,0,0,1-1.2-2.129c0-1.819,1.627-2.958,3.978-2.958,2.381,0,4.008,1.139,4.008,2.958a2.4,2.4,0,0,1-1.212,2.129A2.624,2.624,0,0,1,258.057,250.961Zm-2.425-.074c0-.917-.754-1.479-1.952-1.479s-1.922.562-1.922,1.479.739,1.493,1.922,1.493S255.632,251.8,255.632,250.887Zm-3.55-4.393c0,.784.621,1.272,1.6,1.272s1.627-.488,1.627-1.272c0-.813-.651-1.3-1.627-1.3S252.083,245.682,252.083,246.495Z" transform="translate(-229.585 -243.433)" fill="#263238"/>
            <path id="Path_229" data-name="Path 229" d="M267.206,243.688V254.04h-2.4v-8.429H262.74v-1.923Z" transform="translate(-233.644 -243.51)" fill="#263238"/>
            <path id="Path_230" data-name="Path 230" d="M279.225,252.011v1.952H271.4v-1.552l3.993-3.772c.917-.872,1.079-1.4,1.079-1.908,0-.813-.561-1.286-1.656-1.286a2.53,2.53,0,0,0-2.144,1.035l-1.745-1.124a4.807,4.807,0,0,1,4.111-1.923c2.307,0,3.845,1.184,3.845,3.062,0,1.005-.281,1.922-1.731,3.269l-2.381,2.248Z" transform="translate(-236.124 -243.433)" fill="#263238"/>
            <path id="Path_231" data-name="Path 231" d="M291.64,250.875c0,1.745-1.346,3.343-4.289,3.343a7.121,7.121,0,0,1-3.948-1.109l.932-1.834a5.035,5.035,0,0,0,2.958.931c1.2,0,1.937-.489,1.937-1.332,0-.784-.577-1.272-1.937-1.272H286.2v-1.582l2.129-2.41h-4.407v-1.923h7.246v1.553l-2.336,2.662A2.94,2.94,0,0,1,291.64,250.875Z" transform="translate(-239.901 -243.51)" fill="#263238"/>
          </g>
        </g>
      </g>
    </g>
  </g>
</svg>
