<svg xmlns="http://www.w3.org/2000/svg" width="38.327" height="38.326" viewBox="0 0 38.327 38.326">
  <g id="Group_1403" data-name="Group 1403" transform="translate(2169.327 -15231.906)">
    <rect id="Rectangle_2881" data-name="Rectangle 2881" width="38.327" height="38.327" rx="19.163" transform="translate(-2169.327 15231.906)" fill="#3a00c2" opacity="0.7"/>
    <path id="file-pdf-o" d="M13.044,3.377a2.064,2.064,0,0,1,.426.675,2.061,2.061,0,0,1,.178.782V15.07a.85.85,0,0,1-.853.853H.853a.822.822,0,0,1-.6-.249A.825.825,0,0,1,0,15.07V.853a.822.822,0,0,1,.249-.6A.825.825,0,0,1,.853,0H8.815A2.05,2.05,0,0,1,9.6.178,2.074,2.074,0,0,1,10.272.6ZM9.1,1.208V4.55H12.44a.971.971,0,0,0-.2-.364L9.463,1.4a.971.971,0,0,0-.364-.2Zm3.412,13.577v-9.1h-3.7a.85.85,0,0,1-.853-.853v-3.7H1.137V14.786ZM7.943,9.516a6.782,6.782,0,0,0,.747.5A8.791,8.791,0,0,1,9.73,9.952q1.306,0,1.573.435a.43.43,0,0,1,.018.462.025.025,0,0,1-.009.018l-.018.018v.009q-.054.337-.631.337a3.664,3.664,0,0,1-1.022-.178,6.487,6.487,0,0,1-1.155-.471A16,16,0,0,0,5,11.319q-1.36,2.328-2.151,2.328a.517.517,0,0,1-.249-.062l-.213-.107q-.009-.009-.054-.044a.367.367,0,0,1-.054-.32,1.929,1.929,0,0,1,.5-.813,4.3,4.3,0,0,1,1.173-.858.13.13,0,0,1,.2.054.051.051,0,0,1,.018.035q.462-.755.951-1.751A13.555,13.555,0,0,0,6.05,7.454a7.193,7.193,0,0,1-.271-1.417A3.417,3.417,0,0,1,5.838,4.9q.1-.356.373-.356h.2a.375.375,0,0,1,.311.133.709.709,0,0,1,.08.6.192.192,0,0,1-.035.071.232.232,0,0,1,.009.071V5.7A11.632,11.632,0,0,1,6.647,7.4a4.494,4.494,0,0,0,1.3,2.115ZM2.825,13.168a3.92,3.92,0,0,0,1.217-1.4,5.063,5.063,0,0,0-.778.747,2.951,2.951,0,0,0-.44.658ZM6.362,4.994a2.645,2.645,0,0,0-.018,1.173q.009-.062.062-.391,0-.027.062-.382A.2.2,0,0,1,6.5,5.322.025.025,0,0,1,6.5,5.3a.068.068,0,0,1-.009-.027.511.511,0,0,0-.115-.32.025.025,0,0,1-.009.018v.018Zm-1.1,5.873a13.021,13.021,0,0,1,2.523-.72,1.342,1.342,0,0,1-.115-.084,1.6,1.6,0,0,1-.142-.12A4.7,4.7,0,0,1,6.4,8.379a11.854,11.854,0,0,1-.737,1.751q-.267.5-.4.737ZM11,10.725a2.127,2.127,0,0,0-1.244-.213,3.359,3.359,0,0,0,1.1.249.869.869,0,0,0,.16-.009q0-.009-.018-.027Z" transform="translate(-2156.988 15243.107)" fill="#fff"/>
  </g>
</svg>
