<svg xmlns="http://www.w3.org/2000/svg" width="17.6" height="64" viewBox="0 0 17.6 64">
  <g id="Group_49" data-name="Group 49" transform="translate(-20 -405.443)">
    <rect id="Rectangle_2812" data-name="Rectangle 2812" width="64" height="17.6" transform="translate(20 469.443) rotate(-90)" fill="#089b17"/>
    <path id="Path_998" data-name="Path 998" d="M4.138,1.127,2.545-1.608H1.489V1.127H.616V-5.562H2.775A2.867,2.867,0,0,1,4.056-5.3a1.8,1.8,0,0,1,.782.7A1.953,1.953,0,0,1,5.1-3.594a1.968,1.968,0,0,1-.4,1.219,1.946,1.946,0,0,1-1.195.7l1.679,2.8ZM1.489-2.308H2.775a1.459,1.459,0,0,0,1.065-.35A1.255,1.255,0,0,0,4.2-3.594a1.2,1.2,0,0,0-.35-.921,1.524,1.524,0,0,0-1.07-.326H1.489ZM7.324-4.852v2.236H9.761v.72H7.324v2.3h2.725v.72h-3.6v-6.7h3.6v.72Zm3.723,2.629a3.519,3.519,0,0,1,.441-1.761,3.207,3.207,0,0,1,1.2-1.224,3.321,3.321,0,0,1,1.694-.441,3.437,3.437,0,0,1,1.91.528,3.025,3.025,0,0,1,1.19,1.5H16.44a2.1,2.1,0,0,0-.8-.931,2.318,2.318,0,0,0-1.252-.326,2.439,2.439,0,0,0-1.257.326,2.282,2.282,0,0,0-.873.926,2.969,2.969,0,0,0-.317,1.406,2.948,2.948,0,0,0,.317,1.4A2.282,2.282,0,0,0,13.13.1a2.439,2.439,0,0,0,1.257.326A2.345,2.345,0,0,0,15.639.1a2.07,2.07,0,0,0,.8-.926h1.046A3,3,0,0,1,16.3.662a3.46,3.46,0,0,1-1.91.523A3.349,3.349,0,0,1,12.693.748a3.181,3.181,0,0,1-1.2-1.214A3.493,3.493,0,0,1,11.047-2.222Zm8.608-3.34V1.127h-.873V-5.562Zm2.361.71v2.236h2.437v.72H22.016v2.3h2.725v.72h-3.6v-6.7h3.6v.72Zm9.577-.71L29.069,1.127H28.061L25.538-5.562h.931L28.57.206l2.1-5.767Zm1.833.71v2.236h2.437v.72H33.426v2.3h2.725v.72h-3.6v-6.7h3.6v.72Zm6.132-.71a4.13,4.13,0,0,1,1.9.408,2.866,2.866,0,0,1,1.228,1.166A3.578,3.578,0,0,1,43.108-2.2a3.551,3.551,0,0,1-.427,1.78A2.816,2.816,0,0,1,41.453.729a4.213,4.213,0,0,1-1.9.4H37.475V-5.562Zm0,5.969a2.666,2.666,0,0,0,1.977-.686A2.612,2.612,0,0,0,42.216-2.2a2.665,2.665,0,0,0-.686-1.948,2.637,2.637,0,0,0-1.972-.7H38.349V.407Z" transform="translate(31.349 458.85) rotate(-90)" fill="#fff"/>
  </g>
</svg>
