<svg xmlns="http://www.w3.org/2000/svg" width="28.515" height="28.515" viewBox="0 0 28.515 28.515">
  <g id="Group_42" data-name="Group 42" transform="translate(-38.262 -351.284)">
    <path id="Path_1691" data-name="Path 1691" d="M22.369,12.685A5.185,5.185,0,1,1,17.185,7.5,5.185,5.185,0,0,1,22.369,12.685Zm-2.592,0a2.592,2.592,0,1,1-2.592-2.592A2.592,2.592,0,0,1,19.777,12.685Z" transform="translate(35.335 348.969)" fill="#5346bd" fill-rule="evenodd"/>
    <path id="Path_1692" data-name="Path 1692" d="M15.758,1.5A14.258,14.258,0,1,0,30.015,15.758,14.257,14.257,0,0,0,15.758,1.5ZM4.092,15.758a11.619,11.619,0,0,0,2.473,7.183,11.668,11.668,0,0,1,18.469-.109A11.665,11.665,0,1,0,4.092,15.758ZM15.758,27.423a11.617,11.617,0,0,1-7.352-2.608,9.076,9.076,0,0,1,14.811-.088A11.619,11.619,0,0,1,15.758,27.423Z" transform="translate(36.762 349.784)" fill="#5346bd" fill-rule="evenodd"/>
  </g>
</svg>
