<svg xmlns="http://www.w3.org/2000/svg" width="28.515" height="28.515" viewBox="0 0 28.515 28.515">
  <path id="Path_1692" data-name="Path 1692" d="M15.758,1.5A14.258,14.258,0,1,0,30.015,15.758,14.257,14.257,0,0,0,15.758,1.5ZM4.092,15.758a11.619,11.619,0,0,0,2.473,7.183,11.668,11.668,0,0,1,18.469-.109A11.665,11.665,0,1,0,4.092,15.758ZM15.758,27.423a11.617,11.617,0,0,1-7.352-2.608,9.076,9.076,0,0,1,14.811-.088A11.619,11.619,0,0,1,15.758,27.423Z" transform="translate(-1.5 -1.5)" fill="#5346bd" fill-rule="evenodd"/>
</svg>
