<svg xmlns="http://www.w3.org/2000/svg" xmlns:xlink="http://www.w3.org/1999/xlink" width="49" height="49" viewBox="0 0 49 49">
  <defs>
    <linearGradient id="linear-gradient" x1="0.156" y1="0.094" x2="1" y2="0.792" gradientUnits="objectBoundingBox">
      <stop offset="0" stop-color="#4cc569"/>
      <stop offset="1" stop-color="#2d8242"/>
    </linearGradient>
  </defs>
  <g id="Group_1358" data-name="Group 1358" transform="translate(-142 -392)">
    <circle id="Ellipse_114" data-name="Ellipse 114" cx="24.5" cy="24.5" r="24.5" transform="translate(142 392)" fill="url(#linear-gradient)"/>
    <g id="cash" transform="translate(154.875 403.5)">
      <path id="Path_1723" data-name="Path 1723" d="M20.884,27.276H4.075a.7.7,0,0,1,0-1.4H20.884a.7.7,0,0,1,0,1.4Z" transform="translate(-0.849 -8.068)" fill="#fff"/>
      <path id="Path_1724" data-name="Path 1724" d="M20.333,30.651H6.325a.7.7,0,0,1,0-1.4H20.333a.7.7,0,0,1,0,1.4Z" transform="translate(-1.699 -9.342)" fill="#fff"/>
      <path id="Path_1725" data-name="Path 1725" d="M1.825,19.125h-.7v2.1a1.4,1.4,0,0,0,1.4,1.4h2.1v-.7a2.8,2.8,0,0,0-2.8-2.8Z" transform="translate(0 -5.52)" fill="#fff"/>
      <path id="Path_1726" data-name="Path 1726" d="M21.435,12.2h.7V9.4h-.7a4.207,4.207,0,0,1-4.2-4.2V4.5H6.028v.7a4.207,4.207,0,0,1-4.2,4.2h-.7v2.8h.7a4.207,4.207,0,0,1,4.2,4.2v.7H17.233v-.7a4.207,4.207,0,0,1,4.2-4.2Zm-9.805,2.8a4.2,4.2,0,1,1,4.2-4.2A4.2,4.2,0,0,1,11.63,15.005Z" fill="#fff"/>
      <path id="Path_1727" data-name="Path 1727" d="M19.1,12.926a2.8,2.8,0,1,1-2.8-2.8A2.8,2.8,0,0,1,19.1,12.926Z" transform="translate(-4.671 -2.123)" fill="#fff"/>
      <path id="Path_1728" data-name="Path 1728" d="M29.25,21.926v.7h2.1a1.4,1.4,0,0,0,1.4-1.4v-2.1h-.7a2.8,2.8,0,0,0-2.8,2.8Z" transform="translate(-10.616 -5.52)" fill="#fff"/>
      <path id="Path_1729" data-name="Path 1729" d="M32.051,8h.7V5.9a1.4,1.4,0,0,0-1.4-1.4h-2.1v.7a2.8,2.8,0,0,0,2.8,2.8Z" transform="translate(-10.616)" fill="#fff"/>
      <path id="Path_1730" data-name="Path 1730" d="M4.627,5.2V4.5h-2.1a1.4,1.4,0,0,0-1.4,1.4V8h.7A2.8,2.8,0,0,0,4.627,5.2Z" transform="translate(0)" fill="#fff"/>
    </g>
  </g>
</svg>
