<svg xmlns="http://www.w3.org/2000/svg" width="18" height="18" viewBox="0 0 18 18">
  <path id="activity" d="M15.214,22.875A1.213,1.213,0,0,1,13.929,24a1.213,1.213,0,0,1-1.286-1.125V10.5a1.213,1.213,0,0,1,1.286-1.125A1.213,1.213,0,0,1,15.214,10.5Zm-5.143,0A1.213,1.213,0,0,1,8.786,24,1.213,1.213,0,0,1,7.5,22.875V15a1.213,1.213,0,0,1,1.286-1.125A1.213,1.213,0,0,1,10.071,15Zm7.714,0V12.75a1.3,1.3,0,0,1,2.571,0V22.875a1.3,1.3,0,0,1-2.571,0Zm5.143-15.75a1.3,1.3,0,0,1,2.571,0v15.75a1.3,1.3,0,0,1-2.571,0Z" transform="translate(-7.5 -6)" fill="#ababab" fill-rule="evenodd"/>
</svg>
