<svg xmlns="http://www.w3.org/2000/svg" width="18" height="18" viewBox="0 0 18 18">
  <path id="settings-outline" d="M9.557,1.828h3.4a1.2,1.2,0,0,1,1.165.953q.005.024.009.049l.253,1.752a6.985,6.985,0,0,1,.831.473l1.715-.671.013-.005a1.206,1.206,0,0,1,1.446.5l0,.008L20.083,7.73a1.185,1.185,0,0,1-.276,1.524l-.015.012-1.444,1.1c.012.17.018.318.018.46q0,.018,0,.036c0,.138-.007.276-.018.415l1.442,1.1.016.013a1.186,1.186,0,0,1,.275,1.525L18.39,16.76l0,.007a1.206,1.206,0,0,1-1.446.5l-.014-.005-1.717-.672a7.354,7.354,0,0,1-.828.47l-.254,1.756,0,.026a1.209,1.209,0,0,1-1.166.988H9.545a1.2,1.2,0,0,1-1.165-.953q-.005-.024-.009-.049l-.253-1.752a6.985,6.985,0,0,1-.831-.473l-1.715.671-.013.005a1.206,1.206,0,0,1-1.446-.5l0-.008L2.416,13.926A1.185,1.185,0,0,1,2.692,12.4l.015-.012,1.442-1.1c-.013-.166-.019-.318-.019-.462s.006-.295.018-.449l-1.443-1.1-.02-.016A1.173,1.173,0,0,1,2.417,7.74L4.108,4.9l0-.007a1.206,1.206,0,0,1,1.446-.5l.014.005,1.717.672a7.355,7.355,0,0,1,.828-.47l.254-1.756,0-.026a1.209,1.209,0,0,1,1.168-.988Zm3.09,1.543H9.853L9.632,4.9a1.382,1.382,0,0,1-.783,1.054,5.805,5.805,0,0,0-.751.425,1.425,1.425,0,0,1-1.309.146L5.283,5.94,3.907,8.253,5.153,9.2a1.373,1.373,0,0,1,.541,1.216v0c-.013.143-.02.274-.02.4s.007.258.02.411a1.375,1.375,0,0,1-.534,1.222l0,0-1.248.952,1.375,2.313,1.5-.588a1.42,1.42,0,0,1,1.311.145,5.44,5.44,0,0,0,.744.424,1.388,1.388,0,0,1,.793,1.055l.22,1.522h2.794l.222-1.533a1.382,1.382,0,0,1,.783-1.054,5.8,5.8,0,0,0,.751-.425,1.425,1.425,0,0,1,1.309-.146l1.506.589L18.59,13.4l-1.525-1.162a.771.771,0,0,1-.3-.725,5.017,5.017,0,0,0,.053-.693q0-.011,0-.022c0-.114-.007-.237-.019-.387a1.375,1.375,0,0,1,.538-1.22l1.25-.953L17.217,5.928l-1.5.588A1.42,1.42,0,0,1,14.4,6.372a5.439,5.439,0,0,0-.743-.423,1.388,1.388,0,0,1-.793-1.056ZM11.248,7.6c.108,0,.216.005.323.016a3.284,3.284,0,0,1,2.964,2.9,3.227,3.227,0,0,1-1.882,3.246,3.36,3.36,0,0,1-3.733-.632,3.185,3.185,0,0,1-.654-3.683A3.325,3.325,0,0,1,11.248,7.6Zm0,4.922a1.806,1.806,0,0,0,.76-.166A1.684,1.684,0,0,0,13,10.664a1.736,1.736,0,0,0-1.578-1.517c-.057-.005-.116-.008-.175-.008a1.773,1.773,0,0,0-1.594.975,1.645,1.645,0,0,0,.342,1.9A1.786,1.786,0,0,0,11.25,12.518Z" transform="translate(-2.248 -1.828)" fill="#ababab"/>
</svg>
