<svg xmlns="http://www.w3.org/2000/svg" width="23.5" height="23.5" viewBox="0 0 23.5 23.5">
  <g id="archive" transform="translate(0.75 0.75)">
    <path id="Path_1731" data-name="Path 1731" d="M9.7,24h6.6c5.5,0,7.7-2.2,7.7-7.7V9.7C24,4.2,21.8,2,16.3,2H9.7C4.2,2,2,4.2,2,9.7v6.6C2,21.8,4.2,24,9.7,24Z" transform="translate(-2 -2)" fill="none" stroke="#fff" stroke-linecap="round" stroke-linejoin="round" stroke-width="1.5"/>
    <path id="Path_1732" data-name="Path 1732" d="M20,7.75V14.5a2.193,2.193,0,0,0-2.333-2H8.333A2.193,2.193,0,0,0,6,14.5V7.75a2.193,2.193,0,0,1,2.333-2h9.333A2.193,2.193,0,0,1,20,7.75Z" transform="translate(-2 -1.333)" fill="none" stroke="#fff" stroke-linecap="round" stroke-linejoin="round" stroke-width="1.5"/>
    <path id="Path_1733" data-name="Path 1733" d="M19,15.75H18" transform="translate(0 -0.625)" fill="none" stroke="#fff" stroke-linecap="round" stroke-linejoin="round" stroke-width="1.5"/>
    <path id="Path_1734" data-name="Path 1734" d="M6,15.75H5" transform="translate(-2 -0.625)" fill="none" stroke="#fff" stroke-linecap="round" stroke-linejoin="round" stroke-width="1.5"/>
    <path id="Path_1735" data-name="Path 1735" d="M20,14V11a2.193,2.193,0,0,0-2.333-2H8.333A2.193,2.193,0,0,0,6,11v3" transform="translate(-2 -1.067)" fill="none" stroke="#fff" stroke-linecap="round" stroke-linejoin="round" stroke-width="1.5"/>
    <path id="Path_1736" data-name="Path 1736" d="M20,14.5v1.25H15.917A2.734,2.734,0,0,1,13,18.25a2.734,2.734,0,0,1-2.917-2.5H6V14.5a2.193,2.193,0,0,1,2.333-2h9.333a2.78,2.78,0,0,1,1.635.576A1.741,1.741,0,0,1,20,14.5Z" transform="translate(-2 -1.526)" fill="none" stroke="#fff" stroke-linecap="round" stroke-linejoin="round" stroke-width="1.5"/>
  </g>
</svg>
