<svg xmlns="http://www.w3.org/2000/svg" width="19.925" height="18.635" viewBox="0 0 19.925 18.635">
  <g id="wallet-add-1" transform="translate(0.75 -1.315)">
    <path id="Path_1751" data-name="Path 1751" d="M13.449,15.439H9.262" transform="translate(-2.142 -1.592)" fill="none" stroke="#fff" stroke-linecap="round" stroke-linejoin="round" stroke-width="1.5"/>
    <path id="Path_1752" data-name="Path 1752" d="M11.409,2.434l-.025.059L8.955,8.129H6.568a4.116,4.116,0,0,0-1.608.327l1.466-3.5.034-.084.059-.134a.725.725,0,0,1,.059-.142C7.673,2.057,8.913,1.479,11.409,2.434Z" transform="translate(-1.961 0)" fill="none" stroke="#fff" stroke-linecap="round" stroke-linejoin="round" stroke-width="1.5"/>
    <path id="Path_1753" data-name="Path 1753" d="M16.7,8.381a3.986,3.986,0,0,0-1.181-.167H9.73l2.429-5.636.025-.059c.126.042.243.1.369.151l1.851.779A5.441,5.441,0,0,1,16.59,4.855a1.772,1.772,0,0,1,.209.3,1.274,1.274,0,0,1,.167.36,1.352,1.352,0,0,1,.075.218A3.96,3.96,0,0,1,16.7,8.381Z" transform="translate(-1.751 -0.084)" fill="none" stroke="#fff" stroke-linecap="round" stroke-linejoin="round" stroke-width="1.5"/>
    <path id="Path_1754" data-name="Path 1754" d="M20.427,13.405v1.633c0,.168-.009.335-.019.5-.179,2.923-2.02,4.4-5.512,4.4H7.533a5.86,5.86,0,0,1-.67-.042q-4.5-.264-4.8-4.263a4.11,4.11,0,0,1-.047-.595V13.405a4.12,4.12,0,0,1,2.794-3.76,5.191,5.191,0,0,1,1.812-.327H15.83a5.285,5.285,0,0,1,1.331.168A4.2,4.2,0,0,1,20.427,13.405Z" transform="translate(-2.002 -0.738)" fill="none" stroke="#fff" stroke-linecap="round" stroke-linejoin="round" stroke-width="1.5"/>
    <path id="Path_1755" data-name="Path 1755" d="M5.945,5.528l-1.466,3.5A4.1,4.1,0,0,0,2,12.789V10.336A4.9,4.9,0,0,1,5.945,5.528Z" transform="translate(-2 0.089)" fill="none" stroke="#fff" stroke-linecap="round" stroke-linejoin="round" stroke-width="1.5"/>
    <path id="Path_1756" data-name="Path 1756" d="M20.956,10.428v2.454a4.086,4.086,0,0,0-2.9-3.911,4.1,4.1,0,0,0,.352-2.655.957.957,0,0,0-.075-.218A4.877,4.877,0,0,1,20.956,10.428Z" transform="translate(-2.534 0.066)" fill="none" stroke="#fff" stroke-linecap="round" stroke-linejoin="round" stroke-width="1.5"/>
  </g>
</svg>
