<svg xmlns="http://www.w3.org/2000/svg" width="25.686" height="19.764" viewBox="0 0 25.686 19.764">
  <path id="ios-backspace" d="M24.8,6.75H14.612c-2.884,0-4.52,2.143-6.3,3.921s-4.452,4.612-4.452,4.612a1.944,1.944,0,0,0-.487,1.291,1.985,1.985,0,0,0,.487,1.3s2.118,2.322,4.452,4.662,3.5,3.982,6.3,3.982H24.8a4.336,4.336,0,0,0,4.261-4.384V11.011A4.23,4.23,0,0,0,24.8,6.75ZM23.706,19.882a.987.987,0,1,1-1.4,1.4l-3.253-3.253L15.8,21.277a.98.98,0,0,1-1.4,0,.954.954,0,0,1,0-1.4l3.253-3.253-3.253-3.253a.953.953,0,0,1,0-1.4.944.944,0,0,1,1.4,0l3.253,3.253,3.253-3.253a.987.987,0,1,1,1.4,1.4l-3.253,3.253Z" transform="translate(-3.375 -6.75)"/>
</svg>
