<svg xmlns="http://www.w3.org/2000/svg" width="25.816" height="25.816" viewBox="0 0 25.816 25.816">
  <g id="note-edit-line" transform="translate(0 -0.001)">
    <path id="Path_1736" data-name="Path 1736" d="M24.651,26.65H5.721V7.721H17.1L18.817,6H5.721A1.721,1.721,0,0,0,4,7.721V26.65a1.721,1.721,0,0,0,1.721,1.721h18.93a1.721,1.721,0,0,0,1.721-1.721V13.744l-1.721,1.721Z" transform="translate(-4 -2.555)" fill="#5f91d4"/>
    <path id="Path_1737" data-name="Path 1737" d="M30.669,5.3l-2.9-2.9a1.385,1.385,0,0,0-1.962,0l-11.8,11.865-.955,4.139a1.385,1.385,0,0,0,1.351,1.661,1.454,1.454,0,0,0,.318,0l4.173-.921L30.669,7.265a1.385,1.385,0,0,0,0-1.962ZM18,17.556l-3.149.7.731-3.123,8.88-8.94,2.426,2.426Zm9.861-9.912L25.437,5.218l1.334-1.359L29.215,6.3Z" transform="translate(-5.26 -1.996)" fill="#5f91d4"/>
  </g>
</svg>
