<svg xmlns="http://www.w3.org/2000/svg" width="23.5" height="21.3" viewBox="0 0 23.5 21.3">
  <g id="personalcard" transform="translate(0.75 0.75)">
    <path id="Path_1745" data-name="Path 1745" d="M18.5,22.8H7.5C3.1,22.8,2,21.7,2,17.3V8.5C2,4.1,3.1,3,7.5,3h11C22.9,3,24,4.1,24,8.5v8.8C24,21.7,22.9,22.8,18.5,22.8Z" transform="translate(-2 -3)" fill="none" stroke="#25ce47" stroke-linecap="round" stroke-linejoin="round" stroke-width="1.5"/>
    <path id="Path_1746" data-name="Path 1746" d="M14,8h5" transform="translate(-0.4 -2.5)" fill="none" stroke="#25ce47" stroke-linecap="round" stroke-linejoin="round" stroke-width="1.5"/>
    <path id="Path_1747" data-name="Path 1747" d="M15,12h4" transform="translate(-0.375 -2.1)" fill="none" stroke="#25ce47" stroke-linecap="round" stroke-linejoin="round" stroke-width="1.5"/>
    <path id="Path_1748" data-name="Path 1748" d="M17,16h2" transform="translate(-0.333 -1.7)" fill="none" stroke="#25ce47" stroke-linecap="round" stroke-linejoin="round" stroke-width="1.5"/>
    <path id="Path_1749" data-name="Path 1749" d="M8.5,11.29A1.81,1.81,0,1,0,6.69,9.48,1.81,1.81,0,0,0,8.5,11.29Z" transform="translate(-1.427 -2.415)" fill="none" stroke="#25ce47" stroke-linecap="round" stroke-linejoin="round" stroke-width="1.5"/>
    <path id="Path_1750" data-name="Path 1750" d="M12,16.33a3.02,3.02,0,0,0-2.74-2.72,7.72,7.72,0,0,0-1.52,0A3.029,3.029,0,0,0,5,16.33" transform="translate(-1.538 -1.752)" fill="none" stroke="#25ce47" stroke-linecap="round" stroke-linejoin="round" stroke-width="1.5"/>
  </g>
</svg>
