<svg xmlns="http://www.w3.org/2000/svg" width="65" height="65" viewBox="0 0 65 65">
  <g id="Group_50" data-name="Group 50" transform="translate(-20 -401.36)">
    <rect id="Rectangle_10" data-name="Rectangle 10" width="65" height="65" rx="10" transform="translate(20 401.36)" fill="#efefef" opacity="0.7"/>
    <path id="bx-transfer-alt" d="M29.612,15.469a1.483,1.483,0,0,0-.322-1.616L21.876,6.439l-2.1,2.1,4.883,4.883H6v2.966H28.242a1.483,1.483,0,0,0,1.37-.914Zm-23.5,4.8a1.483,1.483,0,0,0,.322,1.616l7.414,7.414,2.1-2.1-4.883-4.882H29.725V19.35H7.483A1.481,1.481,0,0,0,6.113,20.264Z" transform="translate(35 415.543)" fill="#3633a8"/>
  </g>
</svg>
