<svg xmlns="http://www.w3.org/2000/svg" width="21.132" height="19.756" viewBox="0 0 21.132 19.756">
  <g id="wallet-add" transform="translate(0.75 -1.32)">
    <path id="Path_1757" data-name="Path 1757" d="M13.723,15.439H9.262" transform="translate(-1.676 -0.817)" fill="none" stroke="#fff" stroke-linecap="round" stroke-linejoin="round" stroke-width="1.5"/>
    <path id="Path_1758" data-name="Path 1758" d="M11.762,13V17.46" transform="translate(-1.945 -0.415)" fill="none" stroke="#fff" stroke-linecap="round" stroke-linejoin="round" stroke-width="1.5"/>
    <path id="Path_1759" data-name="Path 1759" d="M11.831,2.462l-.027.062L9.216,8.53H6.673a4.386,4.386,0,0,0-1.713.348l1.562-3.73.036-.089.062-.143a.772.772,0,0,1,.062-.152C7.851,2.061,9.172,1.445,11.831,2.462Z" transform="translate(-1.765 0)" fill="none" stroke="#fff" stroke-linecap="round" stroke-linejoin="round" stroke-width="1.5"/>
    <path id="Path_1760" data-name="Path 1760" d="M17.155,8.765A4.248,4.248,0,0,0,15.9,8.587H9.73l2.588-6.006.027-.062c.134.045.259.107.393.161l1.972.83a5.8,5.8,0,0,1,2.329,1.5,1.888,1.888,0,0,1,.223.321,1.358,1.358,0,0,1,.178.384,1.441,1.441,0,0,1,.08.232A4.219,4.219,0,0,1,17.155,8.765Z" transform="translate(-1.229 -0.056)" fill="none" stroke="#fff" stroke-linecap="round" stroke-linejoin="round" stroke-width="1.5"/>
    <path id="Path_1761" data-name="Path 1761" d="M21.633,13.673v1.74c0,.178-.01.357-.02.535-.191,3.114-2.152,4.685-5.873,4.685H7.9a6.244,6.244,0,0,1-.714-.045q-4.8-.281-5.119-4.542a4.38,4.38,0,0,1-.05-.634v-1.74A4.39,4.39,0,0,1,4.989,9.666,5.531,5.531,0,0,1,6.92,9.318h9.816a5.631,5.631,0,0,1,1.418.178A4.475,4.475,0,0,1,21.633,13.673Z" transform="translate(-2.001 -0.307)" fill="none" stroke="#fff" stroke-linecap="round" stroke-linejoin="round" stroke-width="1.5"/>
    <path id="Path_1762" data-name="Path 1762" d="M6.2,5.528,4.641,9.258A4.367,4.367,0,0,0,2,13.265V10.65A5.219,5.219,0,0,1,6.2,5.528Z" transform="translate(-2 0.326)" fill="none" stroke="#fff" stroke-linecap="round" stroke-linejoin="round" stroke-width="1.5"/>
    <path id="Path_1763" data-name="Path 1763" d="M21.146,10.711v2.615a4.354,4.354,0,0,0-3.088-4.167,4.37,4.37,0,0,0,.375-2.829,1.019,1.019,0,0,0-.08-.232A5.2,5.2,0,0,1,21.146,10.711Z" transform="translate(-1.517 0.339)" fill="none" stroke="#fff" stroke-linecap="round" stroke-linejoin="round" stroke-width="1.5"/>
  </g>
</svg>
