<svg xmlns="http://www.w3.org/2000/svg" width="23.5" height="21.956" viewBox="0 0 23.5 21.956">
  <g id="wallet-add" transform="translate(0.75 -1.332)">
    <path id="Path_1757" data-name="Path 1757" d="M14.262,15.439h-5" transform="translate(-0.761 0.706)" fill="none" stroke="#13d19d" stroke-linecap="round" stroke-linejoin="round" stroke-width="1.5"/>
    <path id="Path_1758" data-name="Path 1758" d="M11.762,13v5" transform="translate(-0.761 0.862)" fill="none" stroke="#13d19d" stroke-linecap="round" stroke-linejoin="round" stroke-width="1.5"/>
    <path id="Path_1759" data-name="Path 1759" d="M12.66,2.518l-.03.07-2.9,6.73H6.88a4.915,4.915,0,0,0-1.92.39l1.75-4.18.04-.1.07-.16a.865.865,0,0,1,.07-.17C8.2,2.068,9.68,1.378,12.66,2.518Z" transform="translate(-1.379 0)" fill="none" stroke="#13d19d" stroke-linecap="round" stroke-linejoin="round" stroke-width="1.5"/>
    <path id="Path_1760" data-name="Path 1760" d="M18.051,9.519a4.76,4.76,0,0,0-1.41-.2H9.73l2.9-6.73.03-.07c.15.05.29.12.44.18l2.21.93a6.5,6.5,0,0,1,2.61,1.68,2.115,2.115,0,0,1,.25.36,1.522,1.522,0,0,1,.2.43,1.615,1.615,0,0,1,.09.26A4.728,4.728,0,0,1,18.051,9.519Z" transform="translate(-0.203 0)" fill="none" stroke="#13d19d" stroke-linecap="round" stroke-linejoin="round" stroke-width="1.5"/>
    <path id="Path_1761" data-name="Path 1761" d="M24,14.2v1.95c0,.2-.011.4-.023.6C23.763,20.238,21.566,22,17.4,22H8.6a7,7,0,0,1-.8-.05q-5.376-.315-5.737-5.09a4.908,4.908,0,0,1-.056-.71V14.2a4.919,4.919,0,0,1,3.336-4.49,6.2,6.2,0,0,1,2.164-.39h11a6.31,6.31,0,0,1,1.589.2A5.015,5.015,0,0,1,24,14.2Z" transform="translate(-2 0.539)" fill="none" stroke="#13d19d" stroke-linecap="round" stroke-linejoin="round" stroke-width="1.5"/>
    <path id="Path_1762" data-name="Path 1762" d="M6.71,5.528,4.96,9.708A4.894,4.894,0,0,0,2,14.2v-2.93A5.849,5.849,0,0,1,6.71,5.528Z" transform="translate(-2 0.791)" fill="none" stroke="#13d19d" stroke-linecap="round" stroke-linejoin="round" stroke-width="1.5"/>
    <path id="Path_1763" data-name="Path 1763" d="M21.519,11.268V14.2a4.879,4.879,0,0,0-3.46-4.67,4.9,4.9,0,0,0,.42-3.17,1.142,1.142,0,0,0-.09-.26A5.823,5.823,0,0,1,21.519,11.268Z" transform="translate(0.478 0.874)" fill="none" stroke="#13d19d" stroke-linecap="round" stroke-linejoin="round" stroke-width="1.5"/>
  </g>
</svg>
