<svg xmlns="http://www.w3.org/2000/svg" width="19.619" height="19.619" viewBox="0 0 19.619 19.619">
  <g id="Group_42" data-name="Group 42" transform="translate(-38.262 -351.284)">
    <path id="Path_1691" data-name="Path 1691" d="M19.134,11.067A3.567,3.567,0,1,1,15.567,7.5,3.567,3.567,0,0,1,19.134,11.067Zm-1.784,0a1.784,1.784,0,1,1-1.784-1.784A1.784,1.784,0,0,1,17.351,11.067Z" transform="translate(32.504 347.351)" fill="#b8b8b8" fill-rule="evenodd"/>
    <path id="Path_1692" data-name="Path 1692" d="M11.309,1.5a9.809,9.809,0,1,0,9.809,9.809A9.809,9.809,0,0,0,11.309,1.5ZM3.284,11.309a7.994,7.994,0,0,0,1.7,4.942,8.028,8.028,0,0,1,12.707-.075A8.026,8.026,0,1,0,3.284,11.309Zm8.026,8.026a7.993,7.993,0,0,1-5.058-1.794,6.244,6.244,0,0,1,10.19-.061A7.994,7.994,0,0,1,11.309,19.335Z" transform="translate(36.762 349.784)" fill="#b8b8b8" fill-rule="evenodd"/>
  </g>
</svg>
