<svg xmlns="http://www.w3.org/2000/svg" width="19.619" height="14.714" viewBox="0 0 19.619 14.714">
  <path id="email-line" d="M20.393,6H3.226A1.226,1.226,0,0,0,2,7.226V19.488a1.226,1.226,0,0,0,1.226,1.226H20.393a1.226,1.226,0,0,0,1.226-1.226V7.226A1.226,1.226,0,0,0,20.393,6Zm-.944,13.488H4.244l4.292-4.439L7.653,14.2l-4.427,4.58V8.158l7.621,7.584a1.226,1.226,0,0,0,1.729,0l7.817-7.774V18.7l-4.512-4.512-.864.864ZM4.029,7.226H19.4l-7.688,7.645Z" transform="translate(-2 -6)" fill="#b8b8b8"/>
</svg>
