<svg xmlns="http://www.w3.org/2000/svg" xmlns:xlink="http://www.w3.org/1999/xlink" width="387.579" height="258.098" viewBox="0 0 387.579 258.098">
  <defs>
    <linearGradient id="linear-gradient" x1="1.124" y1="1.3" x2="0.239" y2="0.188" gradientUnits="objectBoundingBox">
      <stop offset="0" stop-color="#fff"/>
      <stop offset="1" stop-color="#e9effd"/>
    </linearGradient>
  </defs>
  <g id="Group_1168" data-name="Group 1168" transform="translate(-21.921 -101.348)">
    <path id="Path_1764" data-name="Path 1764" d="M698.779,698.377a94.018,94.018,0,0,1-14.437,11.964c-47.1,33.261-102.823,23.565-114.667,21.2-17.489-3.5-51.3-10.254-75.737-38.545-36.978-42.8-31.22-110.234-2.537-154.747,5.246-8.142,32.96-53.333,89.287-60.58,34.089-4.386,73.825,4.46,102.6,28.189C743.693,555.667,739.393,656.293,698.779,698.377Z" transform="translate(-388.247 -375.236)" fill="url(#linear-gradient)"/>
    <g id="Table" transform="translate(22.421 336.18)">
      <line id="Line_1" data-name="Line 1" x2="386.579" transform="translate(0)" fill="none" stroke="#263238" stroke-linecap="round" stroke-linejoin="round" stroke-width="1"/>
    </g>
    <g id="Plant" transform="translate(39.64 197.688)">
      <g id="Group_25" data-name="Group 25" transform="translate(0 0)">
        <g id="Group_11" data-name="Group 11" transform="translate(22.758)">
          <g id="Group_9" data-name="Group 9">
            <path id="Path_7" data-name="Path 7" d="M70.933,335.621s.827-.008,1.767,3.661c.509,1.992-2.527,18.818-2.229,36.691.224,13.413.875,28.1,1.907,36.473,0,0,.981,1.963,4.2,1.371a209.835,209.835,0,0,1-4.2-38.328c-.133-12.568,2.413-26.923,2.34-36.706a8.624,8.624,0,0,1,.826-3.4Z" transform="translate(-62.633 -312.331)" fill="#455a64"/>
            <g id="Group_8" data-name="Group 8">
              <g id="Group_5" data-name="Group 5" transform="translate(7.664)">
                <path id="Path_8" data-name="Path 8" d="M73.9,328.583s-3.753-2.8-3.616-7.082,1.634-7.594,3.73-9.617,2.817-1.935,2.817-1.935,2.343-.307,3.771,4.615,2.825,9.075,1.129,11.6A6.015,6.015,0,0,1,73.9,328.583Z" transform="translate(-70.281 -309.946)" fill="#ffc727"/>
                <path id="Path_9" data-name="Path 9" d="M73.9,328.583s-3.753-2.8-3.616-7.082,1.634-7.594,3.73-9.617,2.817-1.935,2.817-1.935,2.343-.307,3.771,4.615,2.825,9.075,1.129,11.6A6.015,6.015,0,0,1,73.9,328.583Z" transform="translate(-70.281 -309.946)" opacity="0.3"/>
              </g>
              <g id="Group_6" data-name="Group 6" transform="translate(4.257 1.65)">
                <path id="Path_10" data-name="Path 10" d="M67.288,322.355s-1.615-4.167-.156-7.33,2.527-3.174,2.845-3.252,2.373.513,3.135,3.553.737,5.181.255,6.437-2.482,2.194-2.482,2.194A4.057,4.057,0,0,1,67.288,322.355Z" transform="translate(-66.521 -311.767)" fill="#ffc727"/>
                <path id="Path_11" data-name="Path 11" d="M67.288,322.355s-1.615-4.167-.156-7.33,2.527-3.174,2.845-3.252,2.373.513,3.135,3.553.737,5.181.255,6.437-2.482,2.194-2.482,2.194A4.057,4.057,0,0,1,67.288,322.355Z" transform="translate(-66.521 -311.767)" opacity="0.2"/>
              </g>
              <g id="Group_7" data-name="Group 7" transform="translate(2.821 3.51)">
                <path id="Path_12" data-name="Path 12" d="M67.321,313.905s-1.7.443-2.2,3.357a19.735,19.735,0,0,0,.319,6.95c.174.625.666,6.615,3.8,9s3.728.9,3.728.9a6.447,6.447,0,0,0,2.756-5.041,23.262,23.262,0,0,0-.917-8.973c-.85-2.566-1.189-4.008-2.933-4.93S67.937,313.573,67.321,313.905Z" transform="translate(-64.937 -313.819)" fill="#ffc727"/>
                <path id="Path_13" data-name="Path 13" d="M67.321,313.905s-1.7.443-2.2,3.357a19.735,19.735,0,0,0,.319,6.95c.174.625.666,6.615,3.8,9s3.728.9,3.728.9a6.447,6.447,0,0,0,2.756-5.041,23.262,23.262,0,0,0-.917-8.973c-.85-2.566-1.189-4.008-2.933-4.93S67.937,313.573,67.321,313.905Z" transform="translate(-64.937 -313.819)" opacity="0.1"/>
              </g>
              <path id="Path_14" data-name="Path 14" d="M75.733,334.757s-3.77.6-4.856-4.809.2-7.176.449-7.935-.064-1.6.534-2.53.985-.719,1.737-1.959.987-3.079,1.6-3.6a2.556,2.556,0,0,1,2.06-.751,21.033,21.033,0,0,1,3.206,1.34c.914.343.641,2.075,1.238,2.817a8.062,8.062,0,0,1,1.62,7c-.722,4.11-1.234,6.867-3.057,8.422A6.835,6.835,0,0,1,75.733,334.757Z" transform="translate(-62.633 -310.247)" fill="#ffc727"/>
              <path id="Path_15" data-name="Path 15" d="M69.585,334.769c-.654.1-2.218.16-4.122-2.162-2.332-2.842-2.1-6.911-2.243-7.952a37.075,37.075,0,0,0-.994-5.961c-.564-1.552-.42-2.438-.247-2.547s1.585.416,2.33,2.251,2.363,3.525,2.624,6.212.133,6.555,1.62,8.154,3.1,1.208,2.72,1.951A13.222,13.222,0,0,1,69.585,334.769Z" transform="translate(-61.824 -310.526)" fill="#ffc727"/>
            </g>
          </g>
          <g id="Group_10" data-name="Group 10" transform="translate(8.712 29.247)">
            <path id="Path_16" data-name="Path 16" d="M71.78,379.9s-2.247-7.289,4.773-20.49,13.378-17.194,13.378-17.194-.072,7.369-6.233,19.6S72.725,379.356,71.78,379.9Z" transform="translate(-71.437 -342.219)" fill="#455a64"/>
            <path id="Path_17" data-name="Path 17" d="M86.593,348.429c.2-.379.283-.014.082.365-2.488,4.7-11.087,18.847-13.86,28.61-.118.412-.454-.011-.32-.418C77.934,360.532,84.065,353.206,86.593,348.429Z" transform="translate(-71.534 -342.786)" fill="#37474f"/>
          </g>
        </g>
        <g id="Group_16" data-name="Group 16" transform="translate(38.243 36.473)">
          <g id="Group_15" data-name="Group 15">
            <g id="Group_12" data-name="Group 12" transform="translate(2.75 4.955)">
              <path id="Path_18" data-name="Path 18" d="M90.419,369.18s.472-9.231-2.054-11.57-3.077-1.732-3.815-1.918a7.084,7.084,0,0,0-2.605.5s3.816.863,4.688,3.463Z" transform="translate(-81.945 -355.661)" fill="#ffc727"/>
              <path id="Path_19" data-name="Path 19" d="M90.419,369.18s.472-9.231-2.054-11.57-3.077-1.732-3.815-1.918a7.084,7.084,0,0,0-2.605.5s3.816.863,4.688,3.463Z" transform="translate(-81.945 -355.661)" opacity="0.2"/>
            </g>
            <path id="Path_20" data-name="Path 20" d="M94.168,373.629a6.062,6.062,0,0,1,.822,4.2c-2.059,19.928-7.131,30.536-15.457,43.5,0,0-1.642,4.191.406,3.249,0,0,13.128-13.866,16.543-45.793,0,0,.15-3.647,2.516-5.163C99,373.623,94.56,372.56,94.168,373.629Z" transform="translate(-78.911 -352.346)" fill="#455a64"/>
            <g id="Group_13" data-name="Group 13" transform="translate(8.814 1.376)">
              <path id="Path_21" data-name="Path 21" d="M94.4,351.716a2.224,2.224,0,0,1,2.323,1.947c.486,2.137,4.354,13.737,2.671,17.067s-2.317,1.9-3.742,2.112c-1.609.235-5.078-2.09-5.661-3.982s-1.606-5.784-1.3-8.008S88.374,351.788,94.4,351.716Z" transform="translate(-88.636 -351.711)" fill="#ffc727"/>
              <path id="Path_22" data-name="Path 22" d="M94.4,351.716a2.224,2.224,0,0,1,2.323,1.947c.486,2.137,4.354,13.737,2.671,17.067s-2.317,1.9-3.742,2.112c-1.609.235-5.078-2.09-5.661-3.982s-1.606-5.784-1.3-8.008S88.374,351.788,94.4,351.716Z" transform="translate(-88.636 -351.711)" opacity="0.1"/>
            </g>
            <g id="Group_14" data-name="Group 14" transform="translate(17.916)">
              <path id="Path_23" data-name="Path 23" d="M105.467,350.441s1.915,1.62,1.989,3.443,1.034,9.978-1.063,13.964-3.861,5.1-6.807,5.091,2.239-20.482,2.239-20.482S104.423,349.3,105.467,350.441Z" transform="translate(-98.68 -350.193)" fill="#ffc727"/>
              <path id="Path_24" data-name="Path 24" d="M105.467,350.441s1.915,1.62,1.989,3.443,1.034,9.978-1.063,13.964-3.861,5.1-6.807,5.091,2.239-20.482,2.239-20.482S104.423,349.3,105.467,350.441Z" transform="translate(-98.68 -350.193)" opacity="0.2"/>
            </g>
            <path id="Path_25" data-name="Path 25" d="M100.74,351.75s2.895.135,3.96,2.287a17.445,17.445,0,0,1,1.527,9.2c-.488,3.1-1.15,10.722-7.822,9.812-5.036-.686-6.139-7.48-5.9-13.108.173-4.114,2.694-4.756,4.151-6.229A6.375,6.375,0,0,1,100.74,351.75Z" transform="translate(-80.182 -350.338)" fill="#ffc727"/>
            <path id="Path_26" data-name="Path 26" d="M97.767,373.639s-5.551.8-7.99-2.579-1.628-5.78-2.029-8.154a15.532,15.532,0,0,0-1.319-4.142s1.52.728,2.709,5.3S94.171,373.227,97.767,373.639Z" transform="translate(-79.616 -350.997)" fill="#ffc727"/>
            <path id="Path_27" data-name="Path 27" d="M80.116,426.053s2.418-10.236,12.651-19.886c9.8-9.241,15.961-9.52,17.718-10.432a1.74,1.74,0,0,0,.208-.126c1.425-1.032-6.506,10-13.378,16.2S84.852,423.879,80.116,426.053Z" transform="translate(-79.024 -354.445)" fill="#455a64"/>
          </g>
          <path id="Path_28" data-name="Path 28" d="M103.417,402.343c-8.637,5.543-14.831,12.555-20.163,20.385-.242.355-.5,1.1-.257.749a90.964,90.964,0,0,1,20.214-20.693C103.555,402.526,103.775,402.113,103.417,402.343Z" transform="translate(-79.285 -355.077)" fill="#37474f"/>
        </g>
        <g id="Group_22" data-name="Group 22" transform="translate(0 22.55)">
          <g id="Group_20" data-name="Group 20" transform="translate(11.017)">
            <g id="Group_17" data-name="Group 17" transform="translate(1.159)">
              <path id="Path_29" data-name="Path 29" d="M57.092,353.6s4.41-1.57,5.541-5.7.675-7.738-.733-10.288-2.122-2.679-2.122-2.679-2.149-.983-4.963,3.3-5.371,7.842-4.492,10.749A6.014,6.014,0,0,0,57.092,353.6Z" transform="translate(-50.146 -334.83)" fill="#ffc727"/>
              <path id="Path_30" data-name="Path 30" d="M57.092,353.6s4.41-1.57,5.541-5.7.675-7.738-.733-10.288-2.122-2.679-2.122-2.679-2.149-.983-4.963,3.3-5.371,7.842-4.492,10.749A6.014,6.014,0,0,0,57.092,353.6Z" transform="translate(-50.146 -334.83)" opacity="0.3"/>
            </g>
            <path id="Path_31" data-name="Path 31" d="M58.942,360.282s-.828-.008-1.767,3.66c-.893,3.487-4.918,27.9,4.377,48.348,0,0,.856,3.5-2.362,2.911,0,0-9.9-23.812-4.034-51.756a5.074,5.074,0,0,0-.826-3.4Z" transform="translate(-49.283 -337.194)" fill="#455a64"/>
            <g id="Group_18" data-name="Group 18" transform="translate(10.328 3.527)">
              <path id="Path_32" data-name="Path 32" d="M65.908,349.691s2.769-3.506,2.307-6.96-1.48-3.777-1.761-3.945-2.421-.209-4.043,2.472-2.229,4.735-2.139,6.077S62,350.163,62,350.163A4.054,4.054,0,0,0,65.908,349.691Z" transform="translate(-60.264 -338.721)" fill="#ffc727"/>
              <path id="Path_33" data-name="Path 33" d="M65.908,349.691s2.769-3.506,2.307-6.96-1.48-3.777-1.761-3.945-2.421-.209-4.043,2.472-2.229,4.735-2.139,6.077S62,350.163,62,350.163A4.054,4.054,0,0,0,65.908,349.691Z" transform="translate(-60.264 -338.721)" opacity="0.2"/>
            </g>
            <g id="Group_19" data-name="Group 19" transform="translate(5.646 5.79)">
              <path id="Path_34" data-name="Path 34" d="M67.794,341.611s1.5.925,1.113,3.856a19.715,19.715,0,0,1-2.351,6.547c-.35.546-2.584,6.126-6.28,7.485s-3.827-.238-3.827-.238a6.452,6.452,0,0,1-1.15-5.63,23.259,23.259,0,0,1,3.519-8.3c1.568-2.2,2.315-3.48,4.254-3.848S67.3,341.113,67.794,341.611Z" transform="translate(-55.098 -341.219)" fill="#ffc727"/>
              <path id="Path_35" data-name="Path 35" d="M67.794,341.611s1.5.925,1.113,3.856a19.715,19.715,0,0,1-2.351,6.547c-.35.546-2.584,6.126-6.28,7.485s-3.827-.238-3.827-.238a6.452,6.452,0,0,1-1.15-5.63,23.259,23.259,0,0,1,3.519-8.3c1.568-2.2,2.315-3.48,4.254-3.848S67.3,341.113,67.794,341.611Z" transform="translate(-55.098 -341.219)" opacity="0.1"/>
            </g>
            <path id="Path_36" data-name="Path 36" d="M53.508,358.958s3.426,1.684,6.056-3.165,1.921-6.918,1.908-7.716.533-1.511.235-2.576-.73-.977-1.083-2.384-.036-3.233-.471-3.909a2.553,2.553,0,0,0-1.747-1.325,21.037,21.037,0,0,0-3.459.337c-.974.058-1.223,1.794-2.012,2.327a8.065,8.065,0,0,0-3.61,6.215c-.519,4.141-.843,6.926.441,8.949A6.833,6.833,0,0,0,53.508,358.958Z" transform="translate(-48.867 -335.113)" fill="#ffc727"/>
            <path id="Path_37" data-name="Path 37" d="M59.539,360.98c.6.289,2.072.807,4.577-.853,3.064-2.029,4.036-5.987,4.484-6.939a37.129,37.129,0,0,1,2.705-5.4c1-1.317,1.12-2.206.986-2.361s-1.637-.069-2.89,1.466-3.3,2.672-4.336,5.164-2.058,6.225-3.949,7.316-3.323.24-3.174,1.063C57.967,360.569,59.156,360.794,59.539,360.98Z" transform="translate(-49.717 -335.818)" fill="#ffc727"/>
          </g>
          <g id="Group_21" data-name="Group 21" transform="translate(0 26.994)">
            <path id="Path_38" data-name="Path 38" d="M54.861,402.3s2.247-7.29-4.773-20.49-13.377-17.194-13.377-17.194.071,7.369,6.232,19.6S53.916,401.754,54.861,402.3Z" transform="translate(-36.711 -364.617)" fill="#455a64"/>
            <path id="Path_39" data-name="Path 39" d="M40.479,370.827c-.2-.379-.284-.014-.083.364,2.488,4.7,11.087,18.848,13.86,28.61.118.413.454-.011.32-.418C49.138,382.93,43.007,375.6,40.479,370.827Z" transform="translate(-37.046 -365.184)" fill="#37474f"/>
          </g>
        </g>
        <g id="Group_24" data-name="Group 24" transform="translate(5.114 95.799)">
          <g id="Group_23" data-name="Group 23" transform="translate(0.212 5.688)">
            <path id="Path_40" data-name="Path 40" d="M42.588,458.938h63.635l-2.808-30.317-.616-6.686H46.012l-.616,6.686Z" transform="translate(-42.588 -421.934)" fill="#ff6f35"/>
            <path id="Path_41" data-name="Path 41" d="M45.9,426.484l57.822,2.137-.616-6.686H46.323Z" transform="translate(-42.899 -421.934)" opacity="0.1"/>
          </g>
          <rect id="Rectangle_23" data-name="Rectangle 23" width="64.058" height="8.052" transform="translate(64.058 8.052) rotate(180)" fill="#ff6f35"/>
        </g>
      </g>
    </g>
    <g id="Character" transform="translate(102.363 112.158)">
      <g id="Group_101" data-name="Group 101" transform="translate(0 0)">
        <g id="Group_100" data-name="Group 100">
          <g id="Group_69" data-name="Group 69" transform="translate(0 89.552)">
            <g id="Group_65" data-name="Group 65" transform="translate(0 2.911)">
              <path id="Path_113" data-name="Path 113" d="M348.122,330.388c-2.372,28.569-20.832,90.823-33.744,101.44-8.315,6.838-43.978,14.423-62.661,14.449-7.667.011-13.359-52.519-1.855-53.266,19.841-1.289,33.879-3.1,39.16-5.834,4.116-2.128,14.449-21.935,42.428-59.687C341.855,313.451,349.457,314.3,348.122,330.388Z" transform="translate(-167.746 -317.597)" fill="#d3766a"/>
              <g id="Group_64" data-name="Group 64" transform="translate(0 66.814)">
                <path id="Path_114" data-name="Path 114" d="M254.022,452.079c-.969.246-14.712,3.685-22.845,4.184-6.067.373-23.562.978-24.636-5.662-.738-4.527,9.508-6.093,16.729-7.363,3.8-.669,8.907-3.348,8.384-5.814-.915-4.312-10.752-2.4-17.409-.295-12.873,4.062-30.715,12.567-36.375,5.229-2.137-2.774,1.809-6.065,7.151-8.963-8.268,2.918-16.836,4.911-19.331,1.924-1.435-1.7-1.111-3.529.316-5.375-2.4.225-4.348-.362-5.4-2.128-1.8-3,.161-6.376,3.576-9.529a2.879,2.879,0,0,1-1.823-1.886c-3.282-8.726,26.589-24.962,35.684-25.067,26.764-.338,53.3,7.929,53.3,7.929C259.533,409.479,254.046,452.066,254.022,452.079Z" transform="translate(-159.925 -391.325)" fill="#d3766a"/>
                <g id="Group_63" data-name="Group 63" transform="translate(4.083 6.049)">
                  <path id="Path_115" data-name="Path 115" d="M224.412,423.294A44.206,44.206,0,0,0,206,426.014c-7.4,2.806-12.785,6.823-19.314,10.621a.155.155,0,0,0,.15.27c3.11-1.8,15.79-8.365,19-9.781a42.088,42.088,0,0,1,18.57-3.722C224.481,423.4,224.481,423.3,224.412,423.294Z" transform="translate(-166.51 -400.363)" fill="#263238"/>
                  <path id="Path_116" data-name="Path 116" d="M220.252,410.235c-7.087.326-14.344.637-21.25,2.405-7.559,1.934-14.132,6.378-20.568,10.629q-5.8,3.831-11.421,7.915c-.157.114-.016.382.15.269q9.829-6.62,20.049-12.642a55.665,55.665,0,0,1,20.526-7.3c4.148-.6,8.334-.878,12.513-1.155C220.329,410.353,220.332,410.23,220.252,410.235Z" transform="translate(-164.666 -399.147)" fill="#263238"/>
                  <path id="Path_117" data-name="Path 117" d="M215,398.058c-6.787-.123-12.7-.255-19.228,1.933-8.639,2.9-17.721,9-20.915,11.174-3.527,2.4-6.971,4.913-10.376,7.48-.139.1.04.348.182.246a220.951,220.951,0,0,1,24.191-15.159,43.951,43.951,0,0,1,12.682-4.712A79.166,79.166,0,0,1,215,398.1.023.023,0,0,0,215,398.058Z" transform="translate(-164.43 -398)" fill="#263238"/>
                </g>
              </g>
            </g>
            <g id="Group_68" data-name="Group 68" transform="translate(134.535)">
              <path id="Path_118" data-name="Path 118" d="M344.2,396.268l-35.822-35.094s21.331-30.286,35.723-43.517c8.065-7.415,13.931-1.245,13.883,8.662C357.824,360.991,344.2,396.268,344.2,396.268Z" transform="translate(-308.38 -314.384)" fill="#ffc727"/>
              <path id="Path_119" data-name="Path 119" d="M344.2,396.268l-35.822-35.094s21.331-30.286,35.723-43.517c8.065-7.415,13.931-1.245,13.883,8.662C357.824,360.991,344.2,396.268,344.2,396.268Z" transform="translate(-308.38 -314.384)" fill="#4f52ff"/>
              <path id="Path_120" data-name="Path 120" d="M346.464,349.128a32.612,32.612,0,0,1,3.164-2.774c-.721.592-1.415,1.223-2.113,1.841Q346.989,348.659,346.464,349.128Zm11.305-15.733c-.761-.335-1.559-.634-2.374-.924.009.054.018.118.027.172a.115.115,0,0,1,.009.054,2.006,2.006,0,0,1,.045.227c.1.562.2,1.115.29,1.677a40.472,40.472,0,0,0,1.4,6.5v.018q-.122,1.237-.272,2.474a22.159,22.159,0,0,1-1.976-6.779,73.077,73.077,0,0,1-6.788,27.042.443.443,0,0,1,.091.172c2.791,9.923-.308,18.125-8.419,24.133-.027.1-.045.19-.073.281-.073.254-.444.136-.426-.109.7-8.555-1.477-18.405,7.386-23.009a133.5,133.5,0,0,0,4.731-16.249C347.5,356.73,342.1,361.8,333.12,364.714a.3.3,0,0,1-.544.009.162.162,0,0,1-.036-.154c0-.009-.009-.009-.009-.018a30.439,30.439,0,0,1,8.084-16.747c3.271-3.389,7.3-4.087,11.808-3.743a86.137,86.137,0,0,0,.1-29.262c-11.881,14.871-19.475,32.389-27.4,49.625.009.036.018.063.027.1.2,4.341,1.45,9.189.508,13.575l-1.2-1.169c.652-3.561-.018-7.395-.254-11a72.569,72.569,0,0,1-1.214,9.561l-.227-.227a88.146,88.146,0,0,0,1.187-9.108c-1.2,2.284-2.338,4.585-3.416,6.924l-.082-.073c1.133-2.356,2.311-4.685,3.516-7.005.018-.145.036-.3.054-.453-.263.353-.526.689-.8,1.024q-1.89,2.827-3.453,5.764l-.227-.217c.77-1.4,1.595-2.791,2.465-4.132-1.042,1.169-2.121,2.293-3.127,3.489l-1.042-1.033a51.827,51.827,0,0,1,6.325-6.117.2.2,0,0,0,.009-.073.1.1,0,0,1,.154-.063c.19-.163.372-.326.562-.489q2.257-6.389,4.93-12.669c-3.009,3.2-6.045,6.679-9.869,8.691-2.438,1.278-6.688,2.2-10.222,2.782l-.689-.671a40.919,40.919,0,0,0,9.044-2.628c4.123-1.9,8.029-5.628,11.419-8.917a50.828,50.828,0,0,1-6.47,4.567.026.026,0,1,1-.027-.045c2.329-1.568,4.54-3.253,6.7-5.039-4.513,1.541-9.2,2.6-13.458,4.812a54.4,54.4,0,0,0-5.465,3.244c.091-.118.181-.245.272-.372a50.067,50.067,0,0,1,5.084-3.1,68.15,68.15,0,0,1,13.929-4.9,23.56,23.56,0,0,0-13.766,2.592,24.273,24.273,0,0,0-2.438,1.568l.408-.544c.009-.009.009-.018.018-.018a20.354,20.354,0,0,1,2.8-1.6,22.814,22.814,0,0,1,13.068-2.039c.082-.063.154-.127.227-.19-5.51-1.387-10.222-1.042-14.69,1.948.562-.761,1.169-1.568,1.794-2.392,3.7-2.021,7.957-2.438,13.195.2a.125.125,0,0,0,.036-.027A155.284,155.284,0,0,1,351.2,314.4a5.225,5.225,0,0,1,2.51.825,91.037,91.037,0,0,1,1.4,15.8c.045.2.082.408.127.607a12.893,12.893,0,0,1,2.61.408C357.824,332.5,357.8,332.95,357.77,333.394ZM347.484,365.81c-.009-.045-.018-.082-.027-.127a2.2,2.2,0,0,0-.181.127.191.191,0,0,0-.054.036.048.048,0,0,0-.036.027,3.371,3.371,0,0,0-.426.308.919.919,0,0,0-.163.118c-4.015,3.009-5.827,7.032-6,12.207-.045,1.251-.036,2.492-.072,3.715a24.74,24.74,0,0,1-.526,5.211c.009-.009.018-.018.018-.027,2.691-3.416,5.945-5.936,7.232-10.349A23.841,23.841,0,0,0,347.484,365.81Zm-13.829-2.565c2.411-4.567,3.779-9.579,7.621-13.267A18.82,18.82,0,0,1,350,345.185c-4.876.408-8.075,2.012-11.346,6.933C336.292,355.67,335.032,359.349,333.655,363.246Zm-.009.435a63.64,63.64,0,0,1,8.519-10.494c1.377-1.414,2.827-2.746,4.3-4.06-1.459,1.423-2.818,2.936-4.114,4.259a83.038,83.038,0,0,0-8.129,9.805c3.19-2.646,6.77-4.749,9.679-7.775a69.941,69.941,0,0,0,7.884-10.331c-.091,0-.172.009-.263.009a19.063,19.063,0,0,0-1.894,1.26,16.8,16.8,0,0,1,1.649-1.214,19.275,19.275,0,0,0-10.494,5.7c-3.507,3.725-4.712,8.682-7.286,12.968A1.809,1.809,0,0,1,333.646,363.681Zm18.478-18.6h-.163a74.734,74.734,0,0,1-7.63,10.259,60.517,60.517,0,0,1-10.358,8.21l-.136.19c3.244-1.867,6.833-3.38,9.7-5.736C347.656,354.627,349.713,349.679,352.124,345.076Zm-30.259,10.476c-3.806,2.809-8.5,4.522-13.131,5.972l-.353-.344.018-.018.009-.009c4.64-1.5,9.325-2.655,13.448-5.61Zm25.755,9.95c-.045.1-.091.208-.136.308-.1.208-.2.417-.29.634-.208,3.525-.326,7.005-1.595,10.376a49.911,49.911,0,0,1-5.528,10.331,2.092,2.092,0,0,1-.054.254,1.3,1.3,0,0,1-.036.2c-.018.063-.109.045-.1-.009a1.765,1.765,0,0,0,.018-.218.084.084,0,0,1-.1-.091.05.05,0,0,1-.027-.063c.063-.236.145-.471.208-.716.145-1.432.317-2.864.544-4.286.906-5.709,2.619-11.228,6.072-15.922.19-.281.4-.553.616-.825.009-.19.027-.39.036-.58,0-.027.045-.018.045,0-.018.181-.027.353-.036.526.163-.208.317-.417.489-.625.027-.027.082.009.054.036-.19.227-.372.462-.553.689l-.027.326v.063c.018-.036.036-.063.054-.1.073-.127.145-.263.218-.381C347.547,365.339,347.656,365.421,347.62,365.5Zm-.48,1.051c-2.818,6.307-4.54,13.013-6.851,19.529-.036.181-.063.372-.109.553a59.832,59.832,0,0,0,5.2-9.887A35.045,35.045,0,0,0,347.139,366.553Zm.045-.68c.009-.1.009-.2.018-.3-.154.2-.308.408-.444.607a26.723,26.723,0,0,0-4.613,9.488c-.734,2.927-1.078,5.927-1.577,8.89.933-3.045,1.957-6.072,2.954-9.108a51.916,51.916,0,0,1,3.652-9.47C347.176,365.946,347.185,365.91,347.185,365.874Zm8.247-33.177a.273.273,0,0,0-.072-.036.129.129,0,0,1,.018.054c.036.073.063.136.1.208q.965,2.066,2.066,4.042a2.215,2.215,0,0,0-.018.245c-.68-1.26-1.323-2.528-1.921-3.824.571,1.695,1.151,3.407,1.812,5.093v.027c-.018.217-.036.426-.054.643a43.056,43.056,0,0,1-1.595-4.549c-.208-.671-.39-1.341-.553-2-.2-.082-.4-.172-.6-.254-.018-.009-.009-.036,0-.027.2.082.4.154.589.236-.009-.027-.018-.063-.027-.091-.036-.1-.082-.19-.118-.281-.018-.036.018-.054.045-.045l-.009-.009c-.009-.045.063-.054.073-.009.063.163.118.326.172.489.027.009.054.027.082.036a21.5,21.5,0,0,1,2.329,1.169.443.443,0,0,1-.009.109A18.63,18.63,0,0,0,355.432,332.7Z" transform="translate(-308.38 -314.386)" opacity="0.1"/>
              <path id="Path_121" data-name="Path 121" d="M312.175,364.834l32.388,31.736s13.618-35.278,13.781-69.945a16.266,16.266,0,0,0-2.229-9.028Z" transform="translate(-308.736 -314.686)" opacity="0.1"/>
              <g id="Group_67" data-name="Group 67" transform="translate(6.433 42.361)">
                <g id="Group_66" data-name="Group 66">
                  <path id="Path_122" data-name="Path 122" d="M315.815,361.144c5.958,4.943,21.729,18.817,30.8,29.172.054.063-.158.3-.221.244-8.846-7.476-25.39-23.627-30.9-29.067C315.4,361.391,315.7,361.051,315.815,361.144Z" transform="translate(-315.479 -361.128)" fill="#263238"/>
                </g>
              </g>
            </g>
          </g>
          <g id="Group_71" data-name="Group 71" transform="translate(141.197 85.529)">
            <path id="Path_123" data-name="Path 123" d="M440.419,449.16l-123.239-.317,7.448-46.405s-10.658-12.953-8.642-27c2.211-15.4,29.936-54.416,32.269-56.616,9.38-8.818,19.25-11.18,28.189-6.559C407.2,328.157,440.419,449.16,440.419,449.16Z" transform="translate(-315.732 -309.946)" fill="#4f52ff"/>
            <path id="Path_124" data-name="Path 124" d="M394.691,393.927a32.233,32.233,0,0,1,.31,4.2c-.037-.932-.123-1.867-.2-2.8C394.769,394.862,394.73,394.394,394.691,393.927Zm8.777,55.551-1.5-.009a17.711,17.711,0,0,0-1.93-1.214c-4.468-2.4-8.047-1.686-12.406-1.423a.028.028,0,0,0-.036,0c-.272.018-.544.036-.816.045l.489.517c.018.027.036.036.045.054.634.68,1.214,1.35,1.785,1.985h-1.3a9.883,9.883,0,0,1-1.785-3.208c4.676-.834,8.818-1.368,13.24.643A19.676,19.676,0,0,1,403.468,449.478Zm3.7.009-1.4-.009a63.491,63.491,0,0,1-3.235-9.207c-.027-.009-.054-.009-.082-.018-3.888-1.731-8.265-4.123-10.222-8.129-1.985-4.069-1.214-9.787-.761-14.128a.227.227,0,0,1,.227-.218.211.211,0,0,1,.181.091c6.788,5.7,12.461,12.026,11.029,21.215A67.519,67.519,0,0,0,407.165,449.487Zm-5.2-10.44c.091.045.181.091.272.127a.248.248,0,0,1,.027-.217.31.31,0,0,1,.136-.127c-.118-4.64-.372-8.346-3.471-12.325-1.976-2.519-4.132-4.921-6.316-7.268-.118-.127-.227-.245-.344-.362-.054-.063-.118-.136-.181-.2l-.054-.054c-.027-.027-.054-.063-.082-.091v.109a.686.686,0,0,1,.009.136c.19,3.8-.154,7.694.879,11.364C394.061,434.5,397.958,437.226,401.964,439.047Zm5.7-81.769c-1.513,4.268-3.163,8.428-3.281,13.14h-.009c.045-4.613,1.432-9.271,3.009-13.729C407.473,356.889,407.564,357.079,407.664,357.279Zm26.562,71.429c-.979.308-1.967.571-2.945.807-.027.009-.036,0-.054,0a47.065,47.065,0,0,1-8.174,18.6c-.009.471-.027.933-.054,1.4h-1.586a97.231,97.231,0,0,0-1.541-23.861c-.317-1.649-.689-3.281-1.078-4.9a.571.571,0,0,1-.263-.054,92.009,92.009,0,0,1-14.59-8.981c-.19-.091-.372-.181-.562-.272-7.159,8.41-18.125,2.927-26.036-1.178-.018-.009-.027-.027-.036-.036a.413.413,0,0,1-.018-.779c.018-.009.045-.018.063-.027.045-.018.082-.036.127-.054,4.712-2.021,8.972-4.658,14.291-3.96a21.476,21.476,0,0,1,7.667,2.682,73.189,73.189,0,0,1-17.508-21.7.484.484,0,0,1-.19-.027c-9.606-3.752-14.291-11.165-14.2-21.251-.063-.082-.127-.154-.181-.227-.154-.217.163-.444.344-.281,6.416,5.709,15.587,9.9,13.92,19.756a135.288,135.288,0,0,0,10.132,13.557c-3.752-7.748-4.54-15.107-1.468-24.033a.3.3,0,0,1,.317-.435.213.213,0,0,1,.154.054c0,.009.009,0,.009.009a30.366,30.366,0,0,1,8.51,16.53c.734,4.658-1.142,8.292-4.123,11.69a86.167,86.167,0,0,0,23.308,17.7c-4.721-18.442-14.137-35.053-23.127-51.764-.027-.018-.063-.018-.091-.045-4.2-2.855-9.8-5-12.479-9.6-2.9-4.975-2.456-11.862-2.42-17.4-.018-.018.263-.154.272-.091,4.522,3.471,9.389,7.34,12.243,12.361,2.474,4.35,2.809,9.207,3.126,14.074l.054.054a.1.1,0,0,1-.036.163c.009.245.027.489.045.734q3.752,5.655,7.15,11.573c-.743-4.341-1.695-8.854-1-13.113.5-3.063,2.773-7.712,4.567-11.029l.408.87a41.1,41.1,0,0,0-3.444,8.972c-.961,4.441-.335,9.805.245,14.491a51.319,51.319,0,0,1,.254-7.92c0-.036.054-.027.054.009-.154,2.8-.136,5.582-.018,8.383,1.5-4.531,3.462-8.908,4.268-13.639a53.547,53.547,0,0,0,.671-5.818c.045.1.091.208.136.308a45.438,45.438,0,0,1-.562,5.546,67.9,67.9,0,0,1-4.477,14.083,23.564,23.564,0,0,0,6.226-12.551,23.047,23.047,0,0,0,.19-3.951c.082.19.172.39.254.589a22.006,22.006,0,0,1-.444,4.35,22.864,22.864,0,0,1-6.244,11.663c.009.1.009.19.018.29,4.939-3.978,7.558-8.464,7.313-14.808.335.788.671,1.568,1,2.365-.054,5.165-2.039,9.751-8.292,12.841v.036c11.364,20.318,19.067,42.665,18.768,65.248a82.564,82.564,0,0,0,7.92-28.066c.444,1.341.87,2.655,1.278,3.933q-.272,2.664-.761,5.292c.408-1.387.761-2.755,1.142-4.1.118.363.227.725.335,1.078-.308.952-.634,1.894-1.015,2.836-.009.018-.018.027-.018.045-.109.281-.227.553-.344.825.045-.018.082-.027.127-.045.743-.236,1.468-.471,2.184-.734C434.035,428.1,434.126,428.408,434.225,428.707Zm-52.806-87.188a64.136,64.136,0,0,1,12.941,21.532c-.7-3.507-1.1-7.023-3.018-10.367C388.76,348.2,385.171,344.9,381.419,341.519Zm13.258,24.522c-3.489-3.163-7.3-6.407-9.534-10.53-2.365-4.368-3.362-9.678-4.486-14.509.508,4.939.952,11.953,3.362,16.258C386.313,361.348,390.853,363.532,394.677,366.042Zm-9.506-11.02c2.193,4.232,6.008,7.413,9.479,10.675a231.735,231.735,0,0,0-13.775-24.423C382.171,345.86,382.969,350.772,385.171,355.022Zm9.923,11.092c-.118-.408-.236-.825-.335-1.242a72.714,72.714,0,0,0-13.385-23.018,181.1,181.1,0,0,1,13.394,23.952C394.877,365.906,394.986,366.015,395.094,366.114ZM380.758,384.7c.036.018.082.036.118.054a1.745,1.745,0,0,0,.009-.217.177.177,0,0,0,.009-.063v-.045a4.783,4.783,0,0,0,.009-.507,1.68,1.68,0,0,0,.009-.208c.018-5.039-2.1-8.908-6.135-12.162-.988-.8-1.985-1.541-2.945-2.3A25.791,25.791,0,0,1,368,365.7c0,.009.009.027.009.036,1.115,4.214,1.169,8.319,3.906,12A23.959,23.959,0,0,0,380.758,384.7Zm10.376-9.506c2.193,4.676,5.374,8.79,6,14.083a18.713,18.713,0,0,1-1.423,9.851c2.61-4.141,3.253-7.658,1.3-13.231C395.593,381.864,393.418,378.647,391.134,375.195Zm3.48,25.565a74.575,74.575,0,0,1-3.589-12.27,60.811,60.811,0,0,1-.326-13.222c-.018-.072-.045-.145-.063-.217-.462,3.716-1.414,7.485-1.26,11.192.208,5.329,2.918,9.95,5.147,14.645C394.551,400.841,394.587,400.8,394.614,400.759Zm.363-.589a19.309,19.309,0,0,0,1.767-11.8c-.861-5.048-4.087-9-5.963-13.63,0,.063.009.127.009.19a64.2,64.2,0,0,1,3.253,13.122c.29,1.948.48,3.906.652,5.872-.272-2.012-.652-4.015-.933-5.845a83.838,83.838,0,0,0-2.927-12.4c.181,4.141-.29,8.274.381,12.415a70.138,70.138,0,0,0,3.5,12.515c.054-.072.1-.145.154-.217a18.809,18.809,0,0,0,.136-2.275A17.135,17.135,0,0,1,394.977,400.17Zm7.64,10.92-.163-.082c-.018-.009-.027-.018-.045-.027a1.917,1.917,0,0,1-.19-.1c-.5-.245-.988-.5-1.468-.752-2.918-1.541-5.773-3.09-9.189-3.534-4.015-.517-7.368,1.124-10.9,2.528a.028.028,0,0,1-.018.009c-.652.254-1.3.508-1.976.734.036.018.063.036.1.054l.163.082c.707.381,1.414.77,2.13,1.151,3.154,1.7,6.407,3.353,9.932,3.634C395.511,415.141,399.045,413.456,402.616,411.09Zm-20.988-26.027c.018.009-.009.045-.027.027-.127-.118-.263-.227-.39-.344.063.263.136.517.2.77,0,.036-.054.063-.063.027-.063-.29-.136-.58-.217-.861-.082-.063-.154-.136-.236-.208-.018-.018-.036-.027-.054-.045.018.036.027.072.045.109a3.777,3.777,0,0,1,.172.4c.036.091-.091.136-.136.054-.054-.1-.109-.2-.163-.29-.109-.208-.217-.417-.326-.616-2.7-2.293-5.392-4.477-7.331-7.522a50.318,50.318,0,0,1-4.921-10.63l-.172-.2c-.045-.054-.091-.1-.136-.154s.036-.109.072-.073c.054.054.109.1.163.154a.081.081,0,0,1,.136-.027.039.039,0,0,1,.063.009l.435.6q1.59,1.454,3.09,3.009c4.024,4.169,7.413,8.881,9.08,14.463.109.317.2.643.281.97Zm-1.26-1.087c-3.335-6.045-7.649-11.464-11.464-17.227-.127-.136-.254-.281-.381-.417a59.737,59.737,0,0,0,4.767,10.1A35.205,35.205,0,0,0,380.368,383.976Zm.743.643c-.063-.236-.127-.462-.208-.7a26.747,26.747,0,0,0-4.8-9.416c-1.894-2.356-4.078-4.431-6.144-6.625,1.867,2.583,3.661,5.229,5.492,7.839a52.663,52.663,0,0,1,5.356,8.627c.027.027.063.054.091.082Zm21.949,26.435c.045.018.018.082-.027.072-.163-.054-.335-.109-.5-.163-.027.018-.054.027-.082.045a20.594,20.594,0,0,1-11.319,2.773,23.309,23.309,0,0,1-6.244-1.26c-1.214-.408-2.574-.825-3.833-1.368a11.156,11.156,0,0,1-2.13-1.151.782.782,0,0,1-.145-.091c-.009,0-.009,0-.018.009-.317.1-.652.2-.97.308-.118.036-.181-.145-.063-.181.217-.072.444-.145.662-.217a.064.064,0,0,1,.045-.036c.036,0,.072-.009.109-.009.018-.009.027-.009.045-.018-.045-.036-.091-.063-.136-.1-.018-.018,0-.045.018-.036.073.036.136.073.208.109.643-.208,1.3-.417,1.957-.607a.028.028,0,0,0,.018-.009,29.285,29.285,0,0,1,9.561-1.441,35.293,35.293,0,0,1,10.53,2.447c.634.227,1.26.48,1.867.734q.285-.15.571-.326c.018-.009.027.009.018.018q-.272.177-.544.326c.027.018.063.027.091.045.1.018.2.036.3.063a.033.033,0,0,1,0,.063Zm-23.326-1.432a66.136,66.136,0,0,1,22.021,1.078c-3.743-1.232-7.612-2.565-11.545-2.755A30.791,30.791,0,0,0,379.734,409.622Zm22.746,1.323c-.018-.009-.036-.009-.054-.018-.073-.018-.136-.027-.208-.045a75.2,75.2,0,0,0-23.2-1.042l-.1.027c7.4,4,15.959,5.247,23.49,1.115C402.435,410.973,402.453,410.954,402.48,410.945Zm.3,28.782c-.163-.136-.326-.272-.489-.417.009.181.027.353.036.535a.087.087,0,0,1-.172.018c-.018-.245-.054-.489-.082-.734l-.036-.036a.841.841,0,0,1,.036.118c.009.036-.045.054-.054.018-.018-.054-.036-.127-.054-.181-.009-.009-.009-.009-.009-.018-2.809-2.429-5.564-5.093-7.223-8.455-1.794-3.634-2.311-7.694-2.673-11.681-.036-.036-.063-.082-.1-.118s-.082-.091-.118-.145c-.027-.027.027-.082.063-.054a.276.276,0,0,1,.045.063.9.9,0,0,1,.091.1.518.518,0,0,0-.009-.118V418.6c0-.027.036-.036.036-.009s.009.054.018.082c.009.045.009.082.018.118.1.118.208.236.308.344-.045-.091-.091-.172-.145-.263-.072-.145-.154-.3-.236-.444a.029.029,0,0,1,.045-.036c.181.281.362.562.535.843.082.118.154.245.236.372,4.966,5.474,8.763,11.835,9.416,19.348,0,.045.009.091.009.136l.589.535C402.924,439.682,402.843,439.79,402.779,439.727Zm-.725-.834a32.884,32.884,0,0,0-3.009-10.313,39.812,39.812,0,0,0-5.746-8.21c1.341,2.257,2.5,4.6,3.67,6.969.009.018-.027.036-.036.009-1.323-2.619-2.827-5.147-4.25-7.712-.181-.227-.372-.444-.553-.662.544,3.661,1.051,7.422,2.537,10.838,1.595,3.634,4.323,6.316,7.2,8.917a49.337,49.337,0,0,0-3.607-8.673.009.009,0,0,1,.009-.009,43.87,43.87,0,0,1,3.67,8.754C401.982,438.83,402.018,438.866,402.054,438.893Zm-1.64,10.576-.689-.009a19.261,19.261,0,0,0-1.9-.743,37.217,37.217,0,0,0-8.691-1.486,70.08,70.08,0,0,1,7.721,2.229l-1.3-.009c-2.583-.879-5.22-1.649-7.911-2.347-.172-.009-.344-.027-.526-.036a35.542,35.542,0,0,0,2.972,2.374h-.39c-.834-.634-1.631-1.3-2.383-1.994-.009-.018-.027-.027-.045-.054-.127-.109-.245-.227-.372-.344l-.29-.027c-.127-.009-.127-.145-.045-.208a.07.07,0,0,1-.018-.109c-.045-.054-.1-.109-.154-.163a.048.048,0,1,1,.063-.073l.281.254c.145.027.29.054.426.082.145.009.29.009.435.027a.028.028,0,0,1,.036,0,38.58,38.58,0,0,1,10.322,1.613A18.541,18.541,0,0,1,400.414,449.469Zm33.467-21.849a16.11,16.11,0,0,1-2.039.743,1.364,1.364,0,0,1-.091.154,1.167,1.167,0,0,1-.082.145c-.063.1-.236.027-.172-.082.027-.045.054-.091.082-.145a2.113,2.113,0,0,1-.227.063l-.145.118c-.054.036-.1-.009-.109-.054-.326.082-.652.163-.979.217-.2.036-.227-.272-.036-.308.5-.091,1-.217,1.486-.353.118-.1.236-.2.353-.308a.319.319,0,0,1,.045-.073c0-.018.009-.027.018-.045.417-.752.816-1.513,1.205-2.275l.109.353c-.3.553-.6,1.1-.906,1.631.372-.326.743-.662,1.106-1,.027.082.054.163.073.236-.48.435-.961.843-1.45,1.242-.018.027-.036.063-.054.091a15.233,15.233,0,0,0,1.722-.652C433.818,427.421,433.854,427.52,433.881,427.62ZM348.21,348.181c.7-.617,1.392-1.249,2.113-1.841a32.612,32.612,0,0,0-3.164,2.774Q347.684,348.647,348.21,348.181ZM325.84,364.51c.236,5.075,1.9,10.838-.154,15.741-1.559,3.725-4.848,6.7-8.21,9.271-.1-.29-.19-.6-.281-.9,2.864-2.737,5.764-5.845,7.114-8.917,1.885-4.286.888-9.225.589-13.793-.417,4.685-.716,9.688-2.655,13.947a38.6,38.6,0,0,1-5.274,8.011c-.027-.109-.063-.217-.091-.335a39.163,39.163,0,0,0,4.948-7.395c2.066-4.3,2.3-9.271,2.818-14a201.755,201.755,0,0,0-8.419,18.541c-.027-.145-.054-.3-.082-.444,2.5-6.226,5.41-12.279,8.519-18.251.018-.145.036-.3.054-.453-.263.353-.526.689-.8,1.024a68.425,68.425,0,0,0-7.975,16.267c-.045-.335-.072-.671-.109-1.006a67.3,67.3,0,0,1,6.869-13.847c-2.374,2.664-4.948,5.1-6.461,8.654-.163.381-.308.752-.453,1.133.045-.634.109-1.278.2-1.921a24.89,24.89,0,0,1,.535-2.556c2.075-3.561,5.2-6.262,8.337-8.972a.2.2,0,0,0,.009-.073.1.1,0,0,1,.154-.063c.19-.163.372-.326.562-.489q2.257-6.389,4.93-12.669a56,56,0,0,1-7.567,7.25c.471-.906.97-1.822,1.468-2.746,2.048-1.64,3.987-3.507,5.782-5.247a50.142,50.142,0,0,1-4.83,3.552c.054-.109.118-.218.172-.317,1.668-1.187,3.281-2.447,4.857-3.752-1.1.372-2.2.716-3.308,1.069.082-.154.172-.3.263-.453,1.142-.326,2.284-.634,3.407-.933-.933-.082-1.867-.127-2.791-.118a1.364,1.364,0,0,1,.091-.154,19.216,19.216,0,0,1,2.791.227c.082-.063.154-.127.227-.19a25.754,25.754,0,0,0-2.719-.544c.154-.254.3-.517.462-.77a18.571,18.571,0,0,1,2.556,1.069.125.125,0,0,0,.036-.027,161.748,161.748,0,0,1,16.611-29.461,3.255,3.255,0,0,1,.236-.245,43.039,43.039,0,0,1,4.232-3.516c-11.464,14.663-18.913,31.818-26.679,48.7C325.822,364.447,325.831,364.474,325.84,364.51Zm44.206-10.857a.146.146,0,0,1-.063-.036.3.3,0,0,1-.118-.063c-4.45-2.546-9.126-4.359-11.772-9.026a21.38,21.38,0,0,1-2.474-7.73,73.077,73.077,0,0,1-6.788,27.042.443.443,0,0,1,.091.172c2.791,9.923-.308,18.125-8.419,24.133-.027.1-.045.19-.073.281-.073.254-.444.136-.426-.109.7-8.555-1.477-18.405,7.386-23.009a133.5,133.5,0,0,0,4.731-16.249c-3.924,7.658-9.325,12.723-18.306,15.641a.3.3,0,0,1-.544.009.162.162,0,0,1-.036-.154c0-.009-.009-.009-.009-.018a30.439,30.439,0,0,1,8.084-16.747c3.271-3.389,7.3-4.087,11.808-3.743a86.26,86.26,0,0,0,.163-28.891c.326-.236.662-.453,1-.662a91.23,91.23,0,0,1,1.522,16.521c.045.2.082.408.127.607,11.029.662,13.24,12.714,14.726,21.5v.054A.407.407,0,0,1,370.046,353.654ZM348.179,365.8c-.009-.045-.018-.082-.027-.127a2.2,2.2,0,0,0-.181.127.191.191,0,0,0-.054.036.048.048,0,0,0-.036.027,3.371,3.371,0,0,0-.426.308.919.919,0,0,0-.163.118c-4.015,3.009-5.827,7.032-6,12.207-.045,1.251-.036,2.492-.072,3.715a24.74,24.74,0,0,1-.526,5.211c.009-.009.018-.018.018-.027,2.691-3.416,5.945-5.936,7.232-10.349A23.841,23.841,0,0,0,348.179,365.8Zm-13.829-2.565c2.411-4.567,3.779-9.579,7.621-13.267a18.82,18.82,0,0,1,8.727-4.794c-4.876.408-8.075,2.012-11.346,6.933C336.987,355.656,335.727,359.336,334.35,363.232Zm-.009.435a63.64,63.64,0,0,1,8.519-10.494c1.377-1.414,2.827-2.746,4.3-4.06-1.459,1.423-2.818,2.936-4.114,4.259a83.038,83.038,0,0,0-8.129,9.805c3.19-2.646,6.77-4.749,9.679-7.775a69.941,69.941,0,0,0,7.884-10.331c-.091,0-.172.009-.263.009a19.063,19.063,0,0,0-1.894,1.26,16.8,16.8,0,0,1,1.649-1.214,19.275,19.275,0,0,0-10.494,5.7c-3.507,3.725-4.712,8.682-7.286,12.968A1.809,1.809,0,0,1,334.341,363.667Zm18.478-18.6h-.163a74.734,74.734,0,0,1-7.63,10.259,60.517,60.517,0,0,1-10.358,8.21l-.136.19c3.244-1.867,6.833-3.38,9.7-5.736C348.351,354.614,350.408,349.666,352.819,345.063Zm15.016,6.171c.571.344,1.142.7,1.695,1.078-.009-.036-.009-.072-.018-.109s-.009-.063-.009-.091c-.145-.861-.272-1.731-.4-2.6-.535-3.507-1.187-7.05-3.063-10-2.438-3.833-5.909-5.637-9.95-7.06.009.054.018.118.027.172a.115.115,0,0,1,.009.054,2.006,2.006,0,0,1,.045.227c.1.562.2,1.115.29,1.677.526,3.235,1.006,6.425,2.691,9.4C361.183,347.546,364.563,349.231,367.835,351.234Zm11.31-23.145c-2.057,4.042-7.078,6.86-10.829,9.117a.22.22,0,0,1-.344-.181.2.2,0,0,1,.009-.073c.453-8.854,2.093-17.182,10.295-21.577.263-.372.526-.743.779-1.115.2.127.4.272.6.426-.073.091-.136.181-.208.272a.724.724,0,0,1,.036.082C380.441,319.181,381.166,324.12,379.145,328.089Zm-.335-11.953c-.018-.1-.045-.19-.063-.29a.258.258,0,0,1-.172.109.328.328,0,0,1-.208-.027c-3.634,2.882-6.434,5.32-7.739,10.2-.834,3.09-1.45,6.271-2.012,9.434l-.082.489a2.5,2.5,0,0,0-.045.254c-.009.027-.009.045-.018.073a.529.529,0,0,1-.018.118.635.635,0,0,1,.091-.073.966.966,0,0,1,.1-.082c2.918-2.447,6.226-4.513,8.546-7.54C379.933,325.189,379.761,320.431,378.809,316.136Zm-30.495,49.353c-.045.1-.091.208-.136.308-.1.208-.2.417-.29.634-.208,3.525-.326,7.005-1.595,10.376a49.911,49.911,0,0,1-5.528,10.331,2.092,2.092,0,0,1-.054.254,1.3,1.3,0,0,1-.036.2c-.018.063-.109.045-.1-.009a1.765,1.765,0,0,0,.018-.218.084.084,0,0,1-.1-.091.05.05,0,0,1-.027-.063c.063-.236.145-.471.208-.716.145-1.432.317-2.864.544-4.286.906-5.709,2.619-11.228,6.072-15.922.19-.281.4-.553.616-.825.009-.19.027-.39.036-.58,0-.027.045-.018.045,0-.018.181-.027.353-.036.526.163-.208.317-.417.489-.625.027-.027.082.009.054.036-.19.227-.372.462-.553.689l-.027.326v.063c.018-.036.036-.063.054-.1.073-.127.145-.263.218-.381C348.242,365.326,348.351,365.407,348.315,365.489Zm-.48,1.051c-2.818,6.307-4.54,13.013-6.851,19.529-.036.181-.063.372-.109.553a59.832,59.832,0,0,0,5.2-9.887A35.045,35.045,0,0,0,347.834,366.54Zm.045-.68c.009-.1.009-.2.018-.3-.154.2-.308.408-.444.607a26.723,26.723,0,0,0-4.613,9.488c-.734,2.927-1.078,5.927-1.577,8.89.933-3.045,1.957-6.072,2.954-9.108a51.916,51.916,0,0,1,3.652-9.47C347.871,365.933,347.88,365.9,347.88,365.861Zm22.366-12.914c-.19-.127-.39-.263-.58-.4-.009.009-.027.009-.045-.009l-.082-.082c-.009-.009-.027-.018-.036-.027v.172c0,.018-.036.027-.045,0-.009-.073-.018-.145-.027-.227-.535-.372-1.069-.752-1.595-1.142a29.644,29.644,0,0,1-7-6.833,35.174,35.174,0,0,1-4.377-9.814c-.208-.671-.39-1.341-.553-2-.2-.082-.4-.172-.6-.254-.018-.009-.009-.036,0-.027.2.082.4.154.589.236-.009-.027-.018-.063-.027-.091-.036-.1-.082-.19-.118-.281-.018-.036.018-.054.045-.045l-.009-.009c-.009-.045.063-.054.073-.009.063.163.118.326.172.489.027.009.054.027.082.036A20.731,20.731,0,0,1,365.152,340a23.358,23.358,0,0,1,2.755,5.755c.39,1.178.861,2.465,1.2,3.761a12.575,12.575,0,0,1,.4,2.6v.082a.009.009,0,0,1,.009.009c.281.19.553.39.834.58C370.454,352.856,370.345,353.019,370.245,352.947ZM356.172,332.91A74.718,74.718,0,0,0,369.3,352.05a.5.5,0,0,1,.082.063c-1.278-8.319-5.419-15.9-13.258-19.43a.273.273,0,0,0-.072-.036.129.129,0,0,1,.018.054C356.108,332.774,356.135,332.838,356.172,332.91Zm12.524,18.7a66.289,66.289,0,0,1-12.4-18.242c1.269,3.734,2.537,7.621,4.749,10.875A30.791,30.791,0,0,0,368.7,351.615ZM378.8,316v.054c.018-.036.045-.063.063-.1s.082,0,.054.036-.073.091-.109.145c0,.009-.009.018-.018.027-.245,3.706-.716,7.5-2.4,10.848-1.822,3.634-4.749,6.48-7.712,9.171-.009.054-.027.109-.036.154a1.6,1.6,0,0,0-.036.181c-.018.036-.091.027-.082-.018a.264.264,0,0,1,.018-.082.611.611,0,0,1,.018-.127c-.036.027-.054.054-.091.082l-.009.009a.019.019,0,1,1-.027-.027l.054-.054a.854.854,0,0,1,.091-.091c.027-.154.054-.308.082-.453-.045.1-.082.19-.127.29-.072.145-.136.3-.208.444-.009.027-.063.018-.054-.018.109-.308.227-.607.344-.915l.163-.435c1.377-7.259,4.169-14.119,9.8-19.167l.082-.082c.027-.272.045-.535.072-.8a.068.068,0,0,1,.136,0c-.018.217-.027.435-.045.652.136-.118.263-.245.4-.362.091-.073.208.063.127.136C379.163,315.665,378.982,315.837,378.8,316Zm-.172.163a32.667,32.667,0,0,0-6.425,8.618,39.992,39.992,0,0,0-3.1,9.524c1-2.429,2.184-4.767,3.362-7.123.009-.027.045,0,.036.018-1.3,2.637-2.411,5.356-3.607,8.038-.063.281-.136.562-.2.843,2.6-2.646,5.3-5.31,7.123-8.555,1.948-3.462,2.447-7.259,2.791-11.119a49.037,49.037,0,0,0-4.758,8.1.009.009,0,0,1-.009-.009,44.059,44.059,0,0,1,4.776-8.192C378.619,316.263,378.628,316.208,378.628,316.163ZM327.185,439.339c-.688.628-1.371,1.271-2.083,1.874a32.533,32.533,0,0,0,3.117-2.826Q327.7,438.865,327.185,439.339Zm-7.516,9.921-1.251-.009a24.049,24.049,0,0,0-.8-2.728l.362-2.229A20.711,20.711,0,0,1,319.669,449.261Zm22.221-26.543v.018a30.332,30.332,0,0,1-7.794,16.874c-3.226,3.444-7.241,4.2-11.754,3.942-.29,1.9-.526,3.8-.689,5.709h-1.595A72.268,72.268,0,0,1,326.3,423.7a.519.519,0,0,1-.091-.172c-2.954-9.878.009-18.134,8.011-24.278.027-.091.045-.181.072-.281.063-.245.444-.136.426.1-.553,8.573,1.785,18.387-7.005,23.136a133.46,133.46,0,0,0-4.45,16.321c3.788-7.721,9.108-12.868,18.034-15.941a.3.3,0,0,1,.544-.018A.2.2,0,0,1,341.889,422.717Zm-14.971-.979c.009.036.018.082.027.118.063-.045.118-.082.181-.136.018,0,.036-.018.054-.036a.049.049,0,0,0,.036-.027q.217-.15.435-.326a.563.563,0,0,0,.172-.127c3.951-3.072,5.691-7.123,5.782-12.288.018-1.269-.009-2.519,0-3.752a.033.033,0,0,0,.009-.027,24.779,24.779,0,0,1,.435-5.156c-.009.009-.018.018-.018.027-2.637,3.471-5.845,6.035-7.06,10.467A24.026,24.026,0,0,0,326.919,421.738Zm-4.132,20.789a75.291,75.291,0,0,1,7.467-10.376,60.735,60.735,0,0,1,10.222-8.392,2.186,2.186,0,0,1,.127-.181c-3.208,1.912-6.77,3.489-9.6,5.89-4.069,3.444-6.045,8.419-8.383,13.068C322.686,442.536,322.732,442.527,322.786,442.527ZM340.8,424.058c-2.338,4.613-3.625,9.642-7.413,13.394a18.723,18.723,0,0,1-8.645,4.939c4.876-.489,8.038-2.148,11.228-7.123C338.283,431.68,339.479,427.982,340.8,424.058Zm.136-.562a1.82,1.82,0,0,1-.145.127,63.978,63.978,0,0,1-8.346,10.639c-1.35,1.432-2.782,2.791-4.223,4.123,1.423-1.45,2.764-2.972,4.033-4.332a82.942,82.942,0,0,0,7.966-9.932c-3.145,2.7-6.7,4.866-9.543,7.939a69.16,69.16,0,0,0-7.712,10.458c.082,0,.172-.009.254-.009a19.367,19.367,0,0,0,1.885-1.3,18.124,18.124,0,0,1-1.64,1.242,19.314,19.314,0,0,0,10.4-5.872C337.313,432.8,338.437,427.828,340.938,423.5Zm29.742.127a.009.009,0,0,0-.009.009v.009c-.073.091-.317.444-.353.462-6.842,8.917-13.63,20.3-26.317,14.182a.069.069,0,0,1-.036.018c-1.568,3.725-3.244,7.395-5.057,11h-1.731c4.377-8.673,8.21-17.662,12.134-26.571a.263.263,0,0,1-.027-.1c-.326-5.066-2.084-10.8-.109-15.741,2.139-5.347,7.848-9.234,12.234-12.615,0-.018.281.118.236.163.045,5.7-.018,11.917-2.211,17.255-1.9,4.631-5.528,7.875-9.171,11.128a.177.177,0,0,0-.009.073.1.1,0,0,1-.154.063c-.181.172-.362.335-.553.5q-2.148,6.43-4.721,12.751c2.963-3.253,5.936-6.779,9.724-8.854,4.649-2.537,16.077-3.861,16.113-3.824C370.708,423.542,370.735,423.6,370.68,423.623Zm-19.511-3.063a72.435,72.435,0,0,0,9.905-24.713,179.287,179.287,0,0,1-10.639,25.293c-.018.154-.027.308-.045.453C350.644,421.24,350.906,420.9,351.169,420.56ZM361.228,395.1c-2.818,3.851-6.2,7.5-8.2,11.853-1.985,4.323-2.139,9.3-2.583,14.037A231.693,231.693,0,0,0,361.228,395.1Zm.145.589a64.237,64.237,0,0,1-9.017,23.444c2.329-2.71,4.866-5.184,6.316-8.763C360.621,405.571,361.011,400.714,361.373,395.684ZM350.2,421.222c.344-4.694.553-9.7,2.429-13.992,1.985-4.558,5.564-8.609,8.673-12.47-3.58,3.435-8.827,8.1-10.739,12.66C348.75,411.734,349.819,416.664,350.2,421.222Zm15.007,8.455a27.539,27.539,0,0,1-7.649,5.9,22.814,22.814,0,0,1-13.041,2.266c-.072.063-.145.127-.217.181,6.443,1.513,11.772.7,16.811-3.9A41.372,41.372,0,0,0,365.207,429.677Zm2.909-3.616c-1.178.979-2.465,1.858-3.688,2.746a54.371,54.371,0,0,1-5.963,3.851,68.54,68.54,0,0,1-13.856,5.129,23.489,23.489,0,0,0,13.72-2.818C362.162,432.758,365.152,429.351,368.116,426.061Zm1.785-2.13c-4.495,1.359-9.017,1.767-13.467,3.906-4.105,1.976-7.939,5.764-11.274,9.108a52.088,52.088,0,0,1,6.4-4.676c.027-.018.054.027.018.045-2.3,1.613-4.477,3.335-6.615,5.147,4.495-1.6,9.153-2.746,13.376-5.03a49.163,49.163,0,0,0,10.984-7.911c-5.619,2.311-11.564,3.308-16.6,7.041a.009.009,0,0,1-.009-.009c4.857-3.716,11.246-5.619,17.037-7.467A1.237,1.237,0,0,0,369.9,423.932Zm-35.624-23.752c-.063.245-.136.48-.2.725-.109,1.414-.263,2.827-.462,4.232a.033.033,0,0,1-.009.027c-.8,5.727-2.42,11.283-5.782,16.04-.2.29-.408.571-.625.852-.009.19-.018.39-.027.58,0,.027-.045.018-.036,0,.009-.181.018-.353.027-.526-.163.208-.317.426-.489.634a.033.033,0,0,1-.054-.036c.19-.227.372-.462.544-.7.009-.109.009-.217.018-.326v-.063c-.018.036-.036.063-.054.1-.072.127-.136.263-.208.39-.045.082-.163,0-.127-.082a2.794,2.794,0,0,0,.127-.29c.1-.217.2-.435.29-.652.145-3.534.208-7.005,1.414-10.4a50.363,50.363,0,0,1,5.356-10.422,2.093,2.093,0,0,1,.054-.254,1.3,1.3,0,0,1,.036-.2c.009-.063.1-.045.1.009a1.76,1.76,0,0,0-.018.217.084.084,0,0,1,.1.091A.044.044,0,0,1,334.277,400.179Zm-.743,2.682c-.888,3.063-1.867,6.108-2.809,9.153a51.9,51.9,0,0,1-3.5,9.524c0,.045-.009.082-.009.118,0,.1-.009.2-.009.3.154-.208.308-.417.444-.625a26.784,26.784,0,0,0,4.441-9.552C332.782,408.843,333.081,405.834,333.534,402.862Zm.245-1.522c.036-.19.063-.372.1-.562a59.492,59.492,0,0,0-5.03,9.978,34.854,34.854,0,0,0-1.595,10.222C329.963,414.625,331.586,407.882,333.779,401.339Zm-15.995,47.912h-.326c-.054-.163-.127-.317-.19-.48l.082-.544C317.512,448.572,317.657,448.907,317.784,449.251Z" transform="translate(-315.737 -310.35)" opacity="0.1"/>
            <g id="Group_70" data-name="Group 70" transform="translate(16.422 88.941)">
              <path id="Path_125" data-name="Path 125" d="M349.067,408.091a111.957,111.957,0,0,1,16.368,2.7c2.665.684,5.281,1.487,7.9,2.348,1.3.43,2.611.815,3.929,1.193a17.656,17.656,0,0,0,4.217.8.1.1,0,0,1,0,.2,29.921,29.921,0,0,1-4.061-.075,29.026,29.026,0,0,1-3.871-.73c-2.711-.668-5.388-1.462-8.092-2.158-5.455-1.4-10.906-2.8-16.45-3.811C348.743,408.5,348.807,408.065,349.067,408.091Z" transform="translate(-335.258 -408.09)" fill="#263238"/>
              <path id="Path_126" data-name="Path 126" d="M334.036,413.419a120.905,120.905,0,0,1,13.674-.659c2.286.027,4.552.188,6.828.408,1.086.105,2.169.23,3.252.368,1.191.151,2.363.464,3.554.6.124.013.125.208,0,.2-1.128-.093-2.277,0-3.409-.026s-2.274-.063-3.411-.091c-2.278-.056-4.555-.086-6.832-.163-4.558-.154-9.1-.262-13.659-.258C333.783,413.794,333.8,413.443,334.036,413.419Z" transform="translate(-333.853 -408.527)" fill="#263238"/>
            </g>
          </g>
          <g id="Group_77" data-name="Group 77" transform="translate(195.208 87.891)">
            <g id="Group_76" data-name="Group 76">
              <path id="Path_127" data-name="Path 127" d="M397.153,325.742c30.726,39.158,65.612,111.948,55.775,126.047-10.956,15.7-54.568-33.507-52.786-35.8,1.513-1.95-11.534-49.054-20.732-83.251C370.221,298.57,389.555,316.059,397.153,325.742Z" transform="translate(-375.486 -312.553)" fill="#d3766a"/>
              <g id="Group_75" data-name="Group 75">
                <path id="Path_128" data-name="Path 128" d="M434.739,372.775l-49.921,4.118s-8.9-35.993-9.476-55.557c-.321-10.964,6.08-10.8,13.526-4.268C414.93,339.914,434.739,372.775,434.739,372.775Z" transform="translate(-375.331 -312.552)" fill="#4f52ff"/>
                <path id="Path_129" data-name="Path 129" d="M414.935,351.942c.009-.036-.118-.444-.145-.562,0-.009,0-.009-.009-.009v-.009c.009-.054-.045-.072-.091-.036-.036,0-6.036,9.823-6.887,15.052a28.2,28.2,0,0,0,.254,8.754l1.006-.082a33.908,33.908,0,0,1,.272-9.86c1.051-4.83,3.516-8.636,5.211-13.022l.027.217c-2.112,5.7-4.531,11.908-4.595,18.025h.009c.154-6.28,3.027-11.573,4.667-17.427a49.682,49.682,0,0,1-.517,13.53,48.883,48.883,0,0,1-2.374,8.31l.39-.027a50.5,50.5,0,0,0,2.229-8.247,52.662,52.662,0,0,0,.634-7.069c.063-1.5.154-3.063.109-4.6.77,4.368,1.622,8.827,1.006,13.2a21.191,21.191,0,0,1-2.057,6.552l.172-.009a25.1,25.1,0,0,0,1.885-5.555,27.725,27.725,0,0,0,.054-9.669,41.676,41.676,0,0,1,.988,5.972,16.574,16.574,0,0,1-1.677,9.144l1.6-.127C419.865,367.927,416.91,359.572,414.935,351.942Zm-5.1,19.819c-.118,1.078-.2,2.157-.245,3.244l.2-.018c.009-1.069.045-2.139.1-3.217C409.887,371.734,409.833,371.724,409.833,371.761Zm-8.183-3.842c-.018-.245-.036-.489-.045-.734a.1.1,0,0,0,.036-.163l-.054-.054c-.317-4.866-.652-9.724-3.126-14.074-2.855-5.021-7.721-8.89-12.243-12.361-.009-.063-.29.073-.272.091-.036,5.537-.48,12.424,2.42,17.4,2.682,4.595,8.283,6.742,12.479,9.6.027.027.063.027.091.045q2.08,3.861,4.16,7.712l1.214-.1Q404.051,371.539,401.649,367.918Zm-4.7-15.243c1.921,3.344,2.32,6.86,3.018,10.367a64.136,64.136,0,0,0-12.941-21.532C390.775,344.891,394.363,348.19,396.946,352.676Zm-7.322,4.576c-2.411-4.3-2.855-11.319-3.362-16.258,1.124,4.83,2.121,10.141,4.486,14.509,2.238,4.123,6.045,7.368,9.534,10.53C396.457,363.523,391.917,361.339,389.624,357.252Zm-3.145-15.986a231.735,231.735,0,0,1,13.775,24.423c-3.471-3.262-7.286-6.443-9.479-10.675C388.573,350.763,387.775,345.852,386.479,341.266ZM400.372,365.8a181.1,181.1,0,0,0-13.394-23.952,72.714,72.714,0,0,1,13.385,23.018c.1.417.217.834.335,1.242C400.589,366.006,400.48,365.9,400.372,365.8Zm-1.8,10.113a23.233,23.233,0,0,0-2.2-2.4c0-.009-.009,0-.009-.009a.213.213,0,0,0-.154-.054.3.3,0,0,0-.317.435c-.272.779-.507,1.55-.716,2.311l.924-.072c.054-.362.1-.716.145-1.078.018.073.045.145.063.217-.018.281-.027.562-.045.843l.19-.018c0-.136,0-.272-.009-.408.045.136.082.263.118.4l.245-.018c-.127-.381-.263-.761-.408-1.133,0-.063-.009-.127-.009-.19.181.444.372.879.58,1.314l.19-.018c-.145-.281-.281-.562-.417-.843.181.281.372.553.553.834Zm-14.518-2.166c.29,1.242.517,2.175.652,2.728.109.181.208.362.3.553l1.214-.1A14.845,14.845,0,0,0,384.05,373.745Zm1.033-58.714a.724.724,0,0,0-.036-.082c.1-.127.208-.263.3-.4-.208-.136-.426-.263-.634-.381-.272.4-.553.8-.834,1.2a17.322,17.322,0,0,0-8.328,9.824c.063.879.136,1.776.227,2.7.145-.6.29-1.187.453-1.776,1.3-4.875,4.105-7.313,7.739-10.2a.328.328,0,0,0,.208.027.258.258,0,0,0,.172-.109c.018.1.045.19.063.29.952,4.3,1.124,9.053-1.622,12.66a32.113,32.113,0,0,1-6.262,5.709c.045.344.091.689.145,1.042,3.163-1.967,6.5-4.35,8.075-7.458C386.769,324.111,386.044,319.172,385.084,315.031Zm-.136.462c.082-.073-.036-.208-.127-.136-.136.118-.263.245-.4.362.018-.217.027-.435.045-.652a.068.068,0,0,0-.136,0c-.027.263-.045.526-.072.8l-.082.082a29.761,29.761,0,0,0-8.283,13.213c.018.118.027.236.036.353a28.489,28.489,0,0,1,1.876-4.74,32.667,32.667,0,0,1,6.425-8.618c0,.045-.009.1-.009.145a44.059,44.059,0,0,0-4.776,8.192.009.009,0,0,0,.009.009,49.037,49.037,0,0,1,4.758-8.1c-.344,3.861-.843,7.658-2.791,11.119a32.256,32.256,0,0,1-4.975,6.353,2.269,2.269,0,0,0,.036.245,27.011,27.011,0,0,0,5.51-7.114c1.686-3.344,2.157-7.141,2.4-10.848.009-.009.018-.018.018-.027.036-.054.073-.1.109-.145s-.027-.063-.054-.036-.045.063-.063.1v-.054C384.585,315.828,384.766,315.656,384.948,315.493Zm-6.878,11.681c-.662,1.323-1.323,2.637-1.957,3.969.018.109.027.208.036.317.625-1.432,1.26-2.864,1.957-4.268C378.115,327.174,378.078,327.147,378.069,327.174Z" transform="translate(-375.352 -312.703)" opacity="0.1"/>
                <g id="Group_73" data-name="Group 73" transform="translate(10.499 52.128)">
                  <g id="Group_72" data-name="Group 72">
                    <path id="Path_130" data-name="Path 130" d="M387,374.273c7.628-1.271,28.417-4.117,42.168-4.2.082,0,.121.314.041.327-11.43,1.8-34.443,3.735-42.152,4.339C386.912,374.752,386.857,374.3,387,374.273Z" transform="translate(-386.917 -370.074)" fill="#263238"/>
                  </g>
                </g>
                <g id="Group_74" data-name="Group 74" transform="translate(1.247 31.697)">
                  <path id="Path_131" data-name="Path 131" d="M391.147,379.671c-2.043,0-4.081.047-6.116.127l.4.292c-.944-5.5-2.058-10.95-3.3-16.378s-2.593-10.831-4.21-16.183c.763,5.529,1.8,11.005,2.93,16.461s2.408,10.881,3.844,16.268l.088.33.309-.038C387.113,380.294,389.132,380.005,391.147,379.671Z" transform="translate(-376.821 -347.528)" fill="#263238"/>
                  <path id="Path_132" data-name="Path 132" d="M380.037,358.918a15.262,15.262,0,0,0-1.376-3.262,22.405,22.405,0,0,0-1.955-2.972,6.441,6.441,0,0,0,.42,1.744,11.343,11.343,0,0,0,.74,1.619A11.659,11.659,0,0,0,380.037,358.918Z" transform="translate(-376.707 -348.011)" fill="#263238"/>
                </g>
              </g>
            </g>
          </g>
          <g id="Group_91" data-name="Group 91" transform="translate(132.198)">
            <g id="Group_78" data-name="Group 78" transform="translate(32.029 53.973)">
              <path id="Path_133" data-name="Path 133" d="M373.854,314.117c-.265,2.365-9.466,18.6-20.028,19.347-3.44.237-5.584-18.506-5.584-18.506l-.475-1.348-6.623-18.869,21.007-17.3,3.058-2.322s1.472,5.281,3.239,11.877c.083.305.168.611.252.939.11.371.218.719.3,1.069.277.981.556,1.986.812,2.991.2.764.4,1.506.574,2.317.2.808.378,1.6.578,2.405C372.771,304.735,373.952,313.115,373.854,314.117Z" transform="translate(-341.144 -275.124)" fill="#d3766a"/>
              <path id="Path_134" data-name="Path 134" d="M368.448,287a40.078,40.078,0,0,1-20.681,26.609l-6.623-18.869,21.007-17.3,3.058-2.322S366.681,280.405,368.448,287Z" transform="translate(-341.144 -275.124)" fill="#263238"/>
            </g>
            <g id="Group_80" data-name="Group 80" transform="translate(47.491 52.321)">
              <g id="Group_79" data-name="Group 79" transform="translate(0 5.135)">
                <path id="Path_135" data-name="Path 135" d="M372.233,279a7.4,7.4,0,0,1,1.4,2.514c1.333,4.2-.55,8.519-2.9,11.929-2.532,3.639-6.078,6.95-7.307,11.322a7.362,7.362,0,0,0,.219,5.206,6.759,6.759,0,0,0,4.576,3.261c1.964.563,4.419.795,5.759,2.546a5.74,5.74,0,0,1,.561,5.151c-1.339,4.343-6.017,6.612-8.8,9.923a23.03,23.03,0,0,0-5.3,12.537,22.368,22.368,0,0,0,2.485,12.518,22.071,22.071,0,0,0,3.67,5.134c1.646,1.686,3.627,2.987,5.343,4.6,1.589,1.5,3.086,3.5,3.028,5.792-.042,1.772-3.609,7.243-11.138,9.932-.539.193-.156,1.153.459,1.155a28.25,28.25,0,0,0,3.539-.155,30.814,30.814,0,0,0,23.527-15.294,32.1,32.1,0,0,0,4.1-14.959,51.826,51.826,0,0,1,.472-8.722,16.1,16.1,0,0,1,3.324-6.84c3.06-3.857,7-6.933,9.389-11.318a27,27,0,0,0,3.122-12.816,31.95,31.95,0,0,0-11.331-24.055C393.5,282.43,371.9,278.583,372.233,279Z" transform="translate(-358.405 -278.967)" fill="#263238"/>
                <path id="Path_136" data-name="Path 136" d="M372.226,279.247a12.507,12.507,0,0,1,2.186,5.233,10.374,10.374,0,0,1-.743,5.074c-1.431,3.611-4.187,6.307-6.823,9.054-2.479,2.583-4.967,5.446-5.534,9.1a8.47,8.47,0,0,0,.483,4.67,6.579,6.579,0,0,0,3.747,3.363c2.974,1.207,7.11,1.782,8.258,5.322,1.107,3.417-1.739,6.708-3.779,9.1-4.979,5.846-12.3,12.683-10.322,21.232,1,4.325,3.838,8.378,6.729,11.659,2.087,2.367,4.748,5.346,4.19,8.756-.021.126-.209.07-.191-.054.537-3.617-2.651-6.139-4.884-8.47a30.07,30.07,0,0,1-6.355-9.519,14.663,14.663,0,0,1,.227-11.088A34.181,34.181,0,0,1,366,333.011c1.339-1.5,2.711-2.973,4-4.515a12.46,12.46,0,0,0,2.8-4.69,4.27,4.27,0,0,0-1.841-4.736,22.6,22.6,0,0,0-5.177-2.151,8.646,8.646,0,0,1-4.067-2.759,7.88,7.88,0,0,1-1.443-3.754,12.386,12.386,0,0,1,2.469-8.625c2.521-3.539,6.142-6.134,8.6-9.719a12.44,12.44,0,0,0,2.4-6.19c.133-2.362-.893-4.346-1.924-6.393A.238.238,0,0,1,372.226,279.247Z" transform="translate(-358.206 -278.983)" fill="#263238"/>
                <path id="Path_137" data-name="Path 137" d="M405.892,288.426c7.176,5.933,9.978,15.76,8.335,24.743a32.185,32.185,0,0,1-6.287,13.73c-2.9,3.777-6.372,7.238-8.41,11.6-2.256,4.822-1.467,10.022-1.458,15.158a28.7,28.7,0,0,1-2.6,12.026,30.241,30.241,0,0,1-20.015,16.781.1.1,0,0,1-.049-.191,29.428,29.428,0,0,0,17.98-14.831,28.761,28.761,0,0,0,3.286-11.2c.368-4.837-.7-9.725.318-14.52.95-4.495,3.868-8.2,6.75-11.64,3.147-3.759,6.229-7.486,7.982-12.133,3.252-8.626,2.127-18.744-3.865-25.932-6.683-8.016-17.282-10.409-27.184-11.42q-1.986-.2-3.975-.383c-.15-.014-.152-.246,0-.237C386.828,280.5,397.781,281.719,405.892,288.426Z" transform="translate(-359.813 -279.061)" fill="#263238"/>
              </g>
              <path id="Path_138" data-name="Path 138" d="M374.956,273.3c1.537.34,3.227,1.934,3.252,2.991s-4.961,7.594-7,7.752-2.879-3.517-2.879-3.517Z" transform="translate(-359.155 -273.301)" fill="#ffc727"/>
            </g>
            <g id="Group_90" data-name="Group 90">
              <path id="Path_139" data-name="Path 139" d="M306.471,264.157c3.689,34.9,24.987,36.647,32.5,35.849,6.824-.724,29.966-4.058,29.9-39.148s-17.443-44.421-33.138-43.59S302.782,229.258,306.471,264.157Z" transform="translate(-305.817 -215.721)" fill="#d3766a"/>
              <g id="Group_86" data-name="Group 86" transform="translate(2.772 37.578)">
                <path id="Path_140" data-name="Path 140" d="M310.586,264.425a22.774,22.774,0,0,0,2.255-.846,3.893,3.893,0,0,0,2.135-1.3,1.241,1.241,0,0,0-.231-1.5,3.077,3.077,0,0,0-3.107-.254,4.522,4.522,0,0,0-2.563,2.008A1.323,1.323,0,0,0,310.586,264.425Z" transform="translate(-308.864 -257.332)" fill="#263238"/>
                <path id="Path_141" data-name="Path 141" d="M336.3,260.443a22.892,22.892,0,0,1-2.405-.137,3.883,3.883,0,0,1-2.426-.606,1.239,1.239,0,0,1-.227-1.5,3.075,3.075,0,0,1,2.889-1.168,4.522,4.522,0,0,1,3.046,1.152A1.324,1.324,0,0,1,336.3,260.443Z" transform="translate(-310.944 -257.032)" fill="#263238"/>
                <g id="Group_82" data-name="Group 82" transform="translate(21.161 9.15)">
                  <g id="Group_81" data-name="Group 81" transform="translate(0 0.77)">
                    <path id="Path_142" data-name="Path 142" d="M332.23,271.05c.006-.092.2.088.208.185.228,2.364.888,5.034,3.119,5.542.069.016.078.135,0,.134C332.908,276.879,332.068,273.327,332.23,271.05Z" transform="translate(-332.211 -268.264)" fill="#263238"/>
                    <path id="Path_143" data-name="Path 143" d="M334.017,268.034c3.751-.776,5.026,6.783,1.551,7.5C332.148,276.243,330.873,268.684,334.017,268.034Z" transform="translate(-332.212 -267.978)" fill="#263238"/>
                  </g>
                  <path id="Path_144" data-name="Path 144" d="M335.875,268.1c.732.316,1.506.962,2.315.906.937-.063,1.5-.972,1.972-1.835.049-.09.125-.034.144.065.266,1.445-.041,3.024-1.557,3.5-1.383.437-2.616-.674-3.223-2.069C335.413,268.414,335.581,267.975,335.875,268.1Z" transform="translate(-332.518 -267.129)" fill="#263238"/>
                </g>
                <g id="Group_84" data-name="Group 84" transform="translate(0 12.326)">
                  <g id="Group_83" data-name="Group 83" transform="translate(3.146)">
                    <path id="Path_145" data-name="Path 145" d="M317.623,272.929c-.034-.086-.163.143-.144.238.488,2.325.654,5.07-1.323,6.22-.062.035-.034.152.042.127C318.715,278.7,318.456,275.054,317.623,272.929Z" transform="translate(-312.687 -270.847)" fill="#263238"/>
                    <path id="Path_146" data-name="Path 146" d="M314.748,270.643c-3.812.378-2.774,7.973.757,7.622C318.98,277.92,317.942,270.325,314.748,270.643Z" transform="translate(-312.332 -270.633)" fill="#263238"/>
                  </g>
                  <path id="Path_147" data-name="Path 147" d="M312.906,271.428c-.545.484-1.039,1.3-1.749,1.442-.824.169-1.55-.569-2.189-1.284-.066-.074-.118,0-.107.1.159,1.458.846,2.9,2.278,2.992,1.307.08,2.071-1.293,2.219-2.787C313.387,271.613,313.126,271.233,312.906,271.428Z" transform="translate(-308.86 -270.703)" fill="#263238"/>
                </g>
                <path id="Path_148" data-name="Path 148" d="M337.652,290.013c-.378.7-.691,1.6-1.493,1.925a6.273,6.273,0,0,1-2.614.189.083.083,0,0,0-.063.147,3.2,3.2,0,0,0,3.262.335,2.528,2.528,0,0,0,1.159-2.56C337.9,289.905,337.708,289.912,337.652,290.013Z" transform="translate(-311.166 -260.118)" fill="#263238"/>
                <g id="Group_85" data-name="Group 85" transform="translate(9.785 1.957)">
                  <path id="Path_149" data-name="Path 149" d="M324.723,281.881s.384,3.559.789,5.183c.038.151.449.126,1.008.021.028,0,.045.008.063-.014a7.953,7.953,0,0,0,6.775-4.752.173.173,0,0,0-.3-.165,11.986,11.986,0,0,1-6.542,3.778c-.227-.421-.453-6.118-.716-6.074a14.56,14.56,0,0,0-3.477,1.754c-1.013-7.392-.835-14.886-1.955-22.231a.228.228,0,0,0-.449,0c-.744,7.842.237,16.373,1.087,24.033C321.105,284.372,324.143,282.32,324.723,281.881Z" transform="translate(-319.658 -259.191)" fill="#263238"/>
                </g>
              </g>
              <g id="Group_87" data-name="Group 87">
                <path id="Path_150" data-name="Path 150" d="M320.058,229.874s.106,5.519,2.918,8.73c5.781,6.6,14.36,2,18.339,4.13,3.73,2,4.361,8.147,7.814,10.224,4.78,2.875,9.349-.06,10.7,2.406s5.369,8,9.015,8.12,4.685-58.407-40.266-46.257a30.705,30.705,0,0,0-14.531,7.338c-8.658,8.26-8.243,28.3-8.243,28.3s.153-.294,1.274-2.042c1.581-2.467,1.908-4.428,3.111-6.077,1.891-2.591,3.427-2.248,5.429-4.817C318.669,236.017,320.058,229.874,320.058,229.874Z" transform="translate(-305.802 -215.566)" fill="#263238"/>
                <path id="Path_151" data-name="Path 151" d="M321.492,228.467a30.818,30.818,0,0,0,.622,7.079,12.859,12.859,0,0,0,2.777,6.267,9.42,9.42,0,0,0,6.123,2.5c2.3.18,4.651-.25,7.142.015a7.1,7.1,0,0,1,3.554,1.382,9.549,9.549,0,0,1,2.239,3.011c1.1,2.121,2.2,4.209,4.141,5.395a7.835,7.835,0,0,0,6.557.812c2.2-.62,4.462-1.931,6.886-1.568-2.446-.165-4.469,1.262-6.718,2.092a8.508,8.508,0,0,1-7.162-.592c-2.279-1.225-3.49-3.619-4.6-5.645a8.573,8.573,0,0,0-2.015-2.666,6.044,6.044,0,0,0-3.023-1.1c-2.241-.283-4.64.105-7.082-.11a12.241,12.241,0,0,1-3.6-.832,7.42,7.42,0,0,1-3.089-2.108,13.472,13.472,0,0,1-2.678-6.755A31.1,31.1,0,0,1,321.492,228.467Z" transform="translate(-307.257 -216.776)" fill="#263238"/>
                <path id="Path_152" data-name="Path 152" d="M320.02,230.935a25,25,0,0,1-.406,6.656,11.7,11.7,0,0,1-3.018,6.084,16.866,16.866,0,0,1-2.689,2.036A5.393,5.393,0,0,0,312,247.971a16.764,16.764,0,0,1-1.168,3.131,7.377,7.377,0,0,1-2.315,2.412,8.229,8.229,0,0,0,1.822-2.661,16.882,16.882,0,0,0,.837-3.149,5.737,5.737,0,0,1,2.107-2.841,18.05,18.05,0,0,0,2.523-1.974,12.442,12.442,0,0,0,2.934-5.517A49.162,49.162,0,0,0,320.02,230.935Z" transform="translate(-306.056 -217.007)" fill="#263238"/>
              </g>
              <g id="Group_89" data-name="Group 89" transform="translate(56.958 37.759)">
                <g id="Group_88" data-name="Group 88">
                  <path id="Path_153" data-name="Path 153" d="M368.776,267.873s5.423-12.209,10.818-10.471,2.774,18.42-2.535,21.661a5.93,5.93,0,0,1-8.406-1.622Z" transform="translate(-368.653 -257.232)" fill="#d3766a"/>
                  <path id="Path_154" data-name="Path 154" d="M379.028,262.675a.081.081,0,0,1,.06.148c-3.7,2.4-5.086,6.538-5.815,10.685.905-1.716,2.372-2.846,4.636-1.81.119.054.051.237-.067.236a3.643,3.643,0,0,0-3.7,2.014,17.611,17.611,0,0,0-1.268,3.556c-.118.4-.8.328-.747-.111,0-.033.011-.066.015-.1C371.051,272.19,373.635,264.254,379.028,262.675Z" transform="translate(-368.957 -257.742)" fill="#263238"/>
                </g>
              </g>
            </g>
          </g>
          <g id="Group_99" data-name="Group 99" transform="translate(103.956 155.808)">
            <g id="Group_98" data-name="Group 98">
              <path id="Path_155" data-name="Path 155" d="M449.066,461.31c-11.745,7.109-51.424,2.481-104.465-9.579-7.34-1.669,10.162-52.529,18.092-51.15,9.988,1.736,48.37,10.643,51.094,11.649C436.767,420.717,457.032,456.488,449.066,461.31Z" transform="translate(-281.033 -388.721)" fill="#d3766a"/>
              <g id="Group_97" data-name="Group 97" transform="translate(0.141)">
                <g id="Group_93" data-name="Group 93">
                  <g id="Group_92" data-name="Group 92">
                    <path id="Path_156" data-name="Path 156" d="M369.867,404.322s-3.192-1.179-19.026-10.142c-10.95-6.2-41.583-14.295-69.02,8.014-10.513,8.548-9.107,19.655,3.392,12.715,8.8-4.888,14.482-9.031,17.8-9.822,0,0-5.883,14.247-1.126,21.8a164.475,164.475,0,0,0,13.838,18.865,34.731,34.731,0,0,0,3.763-2.273,18.768,18.768,0,0,0,18.732,7.023Z" transform="translate(-274.793 -387.496)" fill="#d3766a"/>
                  </g>
                </g>
                <g id="Group_96" data-name="Group 96" transform="translate(7.131 2.437)">
                  <path id="Path_157" data-name="Path 157" d="M340.183,390.186c-6.46,1.328-20.1,4.369-30.4,10.74C298.348,408,278.226,424.714,283.536,433.1c3.894,6.15,12.137.444,12.137.444s-6.861,8.662-2.128,13.448c4.313,4.362,10.425-.433,10.425-.433s-3.259,5.968,1.7,9.369c5.97,4.092,11.819-9.09,21.447-10.171C329.284,445.517,340.183,390.186,340.183,390.186Z" transform="translate(-282.661 -390.186)" fill="#d3766a"/>
                  <g id="Group_94" data-name="Group 94" transform="translate(12.942 21.571)">
                    <path id="Path_158" data-name="Path 158" d="M320.615,413.994c-5.871,2.244-17.9,10.761-23.616,21.506-.13.244-.015.472.15.275A131.96,131.96,0,0,1,320.682,414.1C320.742,414.059,320.681,413.968,320.615,413.994Z" transform="translate(-296.942 -413.989)" fill="#263238"/>
                  </g>
                  <g id="Group_95" data-name="Group 95" transform="translate(21.083 33.32)">
                    <path id="Path_159" data-name="Path 159" d="M328.265,426.961c-4.866,2.456-16.869,11.789-22.291,22.876-.121.248.009.469.166.266a141.46,141.46,0,0,1,22.2-23.038C328.4,427.018,328.327,426.929,328.265,426.961Z" transform="translate(-305.925 -426.954)" fill="#263238"/>
                  </g>
                </g>
              </g>
              <path id="Path_160" data-name="Path 160" d="M303.205,446.493s-6.164,4.4-10.412.339.771-11.712,2.264-13.451c0,0-7.379,5.156-11.4.673s.23-11.167,3.117-14.447a139.013,139.013,0,0,1,15.111-13.947,76.533,76.533,0,0,0-12.692,7.057c-5.019,3.736-10.79,5.722-13.267,3.615s-1.384-6.71,3.349-11.71,18.431-14.242,32.605-16.161" transform="translate(-274.637 -387.587)" fill="none" stroke="#263238" stroke-width="1"/>
            </g>
            <path id="Path_161" data-name="Path 161" d="M437.587,426.9c-1.788-2.034-7.06-8.489-15.425-12.666-7.3-3.645-17.7-5.589-23.12-6.246-.137-.016-.191.14-.058.186,4.676,1.59,14.194,3.609,22.021,7.392a68.543,68.543,0,0,1,16.435,11.454C437.534,427.112,437.671,427,437.587,426.9Z" transform="translate(-286.29 -389.418)" fill="#263238"/>
          </g>
        </g>
      </g>
    </g>
    <g id="Speech_Bubble" data-name="Speech Bubble" transform="translate(160.948 104.479)">
      <g id="Group_105" data-name="Group 105" transform="translate(0 0)">
        <g id="Group_102" data-name="Group 102">
          <path id="Path_162" data-name="Path 162" d="M224.571,239.989a32.886,32.886,0,0,0,52.5,26.411l16.116,4.114-6.709-15.007a32.9,32.9,0,1,0-61.9-15.518Z" transform="translate(-224.571 -207.091)" fill="#fff" stroke="#263238" stroke-width="1"/>
        </g>
        <g id="Group_104" data-name="Group 104" transform="translate(13.092 13.309)">
          <path id="Path_163" data-name="Path 163" d="M243.789,226.547a10.814,10.814,0,1,0,15.293,0A10.8,10.8,0,0,0,243.789,226.547Zm2.2,2.2a2.022,2.022,0,1,1,0,2.868A2.021,2.021,0,0,1,245.986,228.743Z" transform="translate(-239.168 -221.927)" fill="#ff6f35"/>
          <rect id="Rectangle_32" data-name="Rectangle 32" width="3.268" height="9.924" transform="translate(16.681 23.704) rotate(-135)" fill="#ff6f35"/>
          <g id="Group_103" data-name="Group 103" transform="translate(17.827 17.8)">
            <path id="Path_164" data-name="Path 164" d="M263.447,241.419l-4.758,4.758,1.169,1.169,1.968-.607-.607,1.968,1.931,1.931,2.612-.54-.54,2.612.437.437,1.968-.607-.607,1.968,1.968-.607-.607,1.968,1.532,1.532,2.612-.54-.54,2.612,1.339,1.339,5.3.533-.54-5.291Z" transform="translate(-258.689 -241.419)" fill="#ebebeb"/>
            <rect id="Rectangle_33" data-name="Rectangle 33" width="19.285" height="0.464" transform="translate(16.646 16.693) rotate(-135)" fill="#dbdbdb"/>
          </g>
          <ellipse id="Ellipse_4" data-name="Ellipse 4" cx="9.398" cy="9.398" rx="9.398" ry="9.398" transform="translate(0 17.384) rotate(-67.649)" fill="none" stroke="#000" stroke-width="0.5" opacity="0.1"/>
        </g>
      </g>
    </g>
    <g id="Device" transform="translate(88.224 257.893)">
      <g id="Group_108" data-name="Group 108" transform="translate(0 0)">
        <g id="Group_106" data-name="Group 106" transform="translate(81.385 75.086)">
          <rect id="Rectangle_34" data-name="Rectangle 34" width="121.678" height="5.457" fill="#455a64"/>
          <rect id="Rectangle_35" data-name="Rectangle 35" width="61.242" height="5.457" fill="#37474f"/>
        </g>
        <g id="Group_107" data-name="Group 107">
          <path id="Path_165" data-name="Path 165" d="M283.734,456.918H165.15l-15.5-80.538H268.229Z" transform="translate(-144.822 -376.38)" fill="#37474f"/>
          <path id="Path_166" data-name="Path 166" d="M278.411,456.918H159.827l-15.5-80.538H262.906Z" transform="translate(-144.323 -376.38)" fill="#455a64"/>
          <path id="Path_167" data-name="Path 167" d="M224.772,420.069a6.509,6.509,0,0,1-6.586,7.218,8.036,8.036,0,0,1-7.85-7.218,6.508,6.508,0,0,1,6.586-7.218A8.036,8.036,0,0,1,224.772,420.069Z" transform="translate(-150.51 -379.8)" fill="#fff"/>
        </g>
      </g>
    </g>
  </g>
</svg>
