<svg xmlns="http://www.w3.org/2000/svg" xmlns:xlink="http://www.w3.org/1999/xlink" width="261" height="299.225" viewBox="0 0 261 299.225">
  <defs>
    <linearGradient id="linear-gradient" x1="1.124" y1="1.3" x2="0.239" y2="0.188" gradientUnits="objectBoundingBox">
      <stop offset="0" stop-color="#fff"/>
      <stop offset="1" stop-color="#e9effd"/>
    </linearGradient>
  </defs>
  <g id="Group_1166" data-name="Group 1166" transform="translate(-79.785 -56.22)">
    <path id="Path_1764" data-name="Path 1764" d="M698.779,698.377a94.018,94.018,0,0,1-14.437,11.964c-47.1,33.261-102.823,23.565-114.667,21.2-17.489-3.5-51.3-10.254-75.737-38.545-36.978-42.8-31.22-110.234-2.537-154.747,5.246-8.142,32.96-53.333,89.287-60.58,34.089-4.386,73.825,4.46,102.6,28.189C743.693,555.667,739.393,656.293,698.779,698.377Z" transform="translate(-388.247 -379.236)" fill="url(#linear-gradient)"/>
    <g id="Plant" transform="translate(229.083 206.619)">
      <g id="Group_18" data-name="Group 18" transform="translate(0 0)">
        <g id="Group_9" data-name="Group 9" transform="translate(5.844)">
          <path id="Path_9" data-name="Path 9" d="M401.818,295.042a34.657,34.657,0,0,1-.675,13.331,36.608,36.608,0,0,1-2.042,5.894c-1.061,2.439-2.169,4.82-1.9,7.49.258.171-.626.143-.654-.116-7.133-4.06-16.278-4.8-21.767-11.444a22.743,22.743,0,0,1-4.533-11.114,33.786,33.786,0,0,1,.257-13.422c.944-3.618,3.058-7.107,6.457-8.88,3.509-1.824,8.1-1.673,11.8-.525C396.727,278.731,400.691,287.331,401.818,295.042Z" transform="translate(-369.699 -275.399)" fill="#69d55a"/>
          <g id="Group_8" data-name="Group 8" transform="translate(4.761 7.861)">
            <path id="Path_10" data-name="Path 10" d="M406.305,348.914c-.974-3.243-1.945-6.488-2.944-9.724-1.958-6.338-3.992-12.654-6.243-18.895q-2.024-5.608-4.269-11.107a67.257,67.257,0,0,1,.851-6.894c.6-2.765,1.463-5.436,2.269-8.141.049-.167-.22-.254-.288-.1-1.6,3.728-3.691,8.5-3.743,12.913q-2.613-6.223-5.606-12.27a52.535,52.535,0,0,1,.314-10.219.122.122,0,0,0-.24-.047,36.146,36.146,0,0,0-.7,9.02q-2.3-4.539-4.867-8.96c-.155-.266-.522.005-.385.266,2.68,5.161,5.166,10.431,7.5,15.769a34.309,34.309,0,0,0-11.182-6.476c-.178-.063-.311.193-.13.269a40.721,40.721,0,0,1,12.094,8.008q2.516,5.864,4.795,11.822c-4.463-4.375-10.57-7.252-16.477-8.8-.2-.053-.254.255-.061.313,6.835,2.059,12.146,5.935,17.345,10.591q.906,2.408,1.778,4.826,3.3,9.169,6.292,18.446,1.439,4.444,2.831,8.9c1,3.2,1.777,6.576,3.076,9.664.124.3.653.228.586-.126A92.391,92.391,0,0,0,406.305,348.914Z" transform="translate(-375.286 -284.338)" fill="#263238"/>
            <path id="Path_11" data-name="Path 11" d="M396.579,290.623a17.715,17.715,0,0,0-2.569,6.4c-.011.059.08.094.1.034a55.292,55.292,0,0,1,2.785-6.282C397,290.568,396.7,290.438,396.579,290.623Z" transform="translate(-377.39 -285.085)" fill="#263238"/>
            <path id="Path_12" data-name="Path 12" d="M381.578,307.236a18.789,18.789,0,0,0-6.4-2.156c-.058-.007-.094.077-.033.1,1.029.427,2.11.725,3.151,1.125s2.066.89,3.123,1.258A.183.183,0,0,0,381.578,307.236Z" transform="translate(-375.112 -286.837)" fill="#263238"/>
            <path id="Path_13" data-name="Path 13" d="M378.085,287.03a12.631,12.631,0,0,0-2.06-1.271.109.109,0,0,0-.118.18,12.55,12.55,0,0,0,2.029,1.317C378.068,287.335,378.214,287.115,378.085,287.03Z" transform="translate(-375.204 -284.508)" fill="#263238"/>
          </g>
        </g>
        <g id="Group_11" data-name="Group 11" transform="translate(39.03 4.914)">
          <path id="Path_14" data-name="Path 14" d="M430.528,319.938c-5.137,1.525-10.3,2.934-15.436,4.441-.446.134-9.129-16.506-5.991-25.078a27.977,27.977,0,0,1,17.458-16.567c3.668-1.246,8.177-2.292,12.052-1.438a10.009,10.009,0,0,1,7,6.822c1.525,4.4,1.017,9.656.187,14.152a24.737,24.737,0,0,1-5.054,11.55C438.014,317.063,434.533,318.751,430.528,319.938Z" transform="translate(-407.552 -280.986)" fill="#69d55a"/>
          <g id="Group_10" data-name="Group 10" transform="translate(0 4.75)">
            <path id="Path_15" data-name="Path 15" d="M437.856,305.525a68.441,68.441,0,0,1-10.071,3.965,42.278,42.278,0,0,0-6.723,2.434c2.169-4.836,4.549-9.571,7.075-14.264a23.072,23.072,0,0,0,9.311-4.806.143.143,0,0,0-.187-.216,46.7,46.7,0,0,1-8.783,4.4c.684-1.262,1.372-2.523,2.076-3.782.2-.349-.286-.7-.522-.357a108.583,108.583,0,0,0-7.3,12.257,56.074,56.074,0,0,1-.528-11.231.075.075,0,0,0-.15-.011,37.406,37.406,0,0,0,.127,12.341c-1.8,3.6-3.443,7.279-4.917,11.009-.586-2.241-1.347-4.447-1.856-6.705a30.83,30.83,0,0,1-.738-9.889c.01-.1-.134-.1-.15-.011a34.867,34.867,0,0,0,2.156,18.152c-.859,2.245-1.678,4.5-2.427,6.756a134.665,134.665,0,0,0-6.818,35.64.218.218,0,0,0,.435.031,176.748,176.748,0,0,1,7.655-35.22c1.49-4.478,3.2-8.827,5.085-13.094,3.033-.9,6.056-2.113,9.036-3.145a28.392,28.392,0,0,0,8.329-4.083C438.067,305.625,437.962,305.471,437.856,305.525Z" transform="translate(-407.433 -287.137)" fill="#263238"/>
            <path id="Path_16" data-name="Path 16" d="M446.192,301.8c-3.142,1.117-6.119,2.682-9.257,3.814-.147.053-.061.286.087.255a21.1,21.1,0,0,0,9.29-3.889C446.414,301.894,446.3,301.759,446.192,301.8Z" transform="translate(-410.979 -288.244)" fill="#263238"/>
            <path id="Path_17" data-name="Path 17" d="M418.13,294.067c.038-.166-.206-.262-.257-.091-.861,2.9-1.457,5.968-.617,8.928a.113.113,0,0,0,.222-.014C417.628,299.909,417.461,297.007,418.13,294.067Z" transform="translate(-408.568 -287.291)" fill="#263238"/>
            <path id="Path_18" data-name="Path 18" d="M432.876,286.474a7.667,7.667,0,0,0-1.363,4.924c0,.111.181.175.211.045.383-1.657,1.023-3.167,1.531-4.776A.216.216,0,0,0,432.876,286.474Z" transform="translate(-410.334 -286.387)" fill="#263238"/>
          </g>
        </g>
        <g id="Group_13" data-name="Group 13" transform="translate(0 40.904)">
          <path id="Path_19" data-name="Path 19" d="M363.962,332.209c1.506,4.779,5.084,11.386,10.751,11.439,3.674.034,7.374-.4,11.056-.453,3.943-.061,7.9-.052,11.83.183.322.018-.472-11.808-9.95-17.567-2.655-1.613-5.9-2.124-8.914-2.777a41.251,41.251,0,0,0-10.534-1.1c-2.176.087-3.987.549-4.762,2.777C362.63,327.047,363.24,329.938,363.962,332.209Z" transform="translate(-363.055 -321.909)" fill="#69d55a"/>
          <g id="Group_12" data-name="Group 12" transform="translate(2.999 2.062)">
            <path id="Path_20" data-name="Path 20" d="M368.682,326.511c2.3.593,4.627,1.273,6.938,2.007a24.024,24.024,0,0,0-1.91-1.863c-.992-.826-2.084-1.485-3.149-2.207-.089-.061-.036-.231.079-.186a13,13,0,0,1,5.589,4.445c2.88.931,5.733,1.958,8.48,3.084a32.01,32.01,0,0,1,5.429,2.859,21.829,21.829,0,0,0-1.965-3.418c-1.257-1.631-2.959-2.539-4.606-3.7a.146.146,0,0,1,.148-.252,13.48,13.48,0,0,1,7.391,8.015,31.586,31.586,0,0,1,5.376,4.882c6.27,7.122,11.209,16.6,11.227,26.268,0,.23-.369.3-.414.056a53.589,53.589,0,0,0-11.958-25.686c-.448-.523-.908-1.023-1.378-1.5a43.128,43.128,0,0,0-5.181-.384c-2.018.03-4.019.3-6.028.459-3.309.269-6.967.308-9.951-1.356-.131-.073-.042-.3.1-.249,6.653,2.419,13.631-.649,20.3.793a31.171,31.171,0,0,0-9.835-6.343c-.2-.084-.408-.163-.611-.244-4.27.513-8.778,1.625-12.936.237a.1.1,0,0,1,.055-.2c4.018,1,7.871-.259,11.836-.459-4.317-1.681-8.717-3.018-13.049-4.688C368.3,326.743,368.289,326.41,368.682,326.511Z" transform="translate(-366.696 -324.254)" fill="#263238"/>
            <path id="Path_21" data-name="Path 21" d="M366.567,331.6a57.254,57.254,0,0,0,6.214.471c.048,0,.062.076.011.087a12.888,12.888,0,0,1-6.27-.4A.082.082,0,0,1,366.567,331.6Z" transform="translate(-366.465 -325.139)" fill="#263238"/>
            <path id="Path_22" data-name="Path 22" d="M382.508,326.938a10.186,10.186,0,0,1,3.076,2.139c.108.1-.037.29-.157.2-.522-.38-1.058-.738-1.6-1.088a15.061,15.061,0,0,1-1.5-.947A.185.185,0,0,1,382.508,326.938Z" transform="translate(-368.37 -324.576)" fill="#263238"/>
          </g>
        </g>
        <g id="Group_15" data-name="Group 15" transform="translate(36.269 45.513)">
          <path id="Path_23" data-name="Path 23" d="M420.589,342.353c-.07.157.157.3.244.139.009,0,.009,0,.009-.008a.223.223,0,0,0,.148.1,95.192,95.192,0,0,0,11.578,2.02c3.134.278,6.747.452,9.489-1.367,3.717-2.463,6.163-9.053,4.152-13.241-2.376-4.971-9.541-2.273-13.136-.5A26.37,26.37,0,0,0,420.589,342.353Z" transform="translate(-406.256 -327.149)" fill="#69d55a"/>
          <g id="Group_14" data-name="Group 14" transform="translate(0 2.908)">
            <path id="Path_24" data-name="Path 24" d="M415.847,345.049a36.969,36.969,0,0,1,6.914-5.263,23.667,23.667,0,0,1,7.01-7.145c.136-.093.252.121.127.218a31.646,31.646,0,0,0-5.907,6.214,65.037,65.037,0,0,1,8.673-3.944,11.557,11.557,0,0,1,4.66-4.669c.039-.019.088.034.049.064a19.167,19.167,0,0,0-4.208,4.416c1.762-.657,3.543-1.27,5.321-1.86.161-.053.221.19.069.25-3.167,1.237-6.4,2.542-9.542,4.047a36.722,36.722,0,0,0,11.556-.034.085.085,0,0,1,.045.164,22.781,22.781,0,0,1-12.26.183,57.289,57.289,0,0,0-5.816,3.257,14.575,14.575,0,0,1,4.7.384,35.713,35.713,0,0,0,8.259.936c.106,0,.133.168.026.186-4.792.825-9.323-1.353-14.072-.786a36.8,36.8,0,0,0-4.946,4.039,37.181,37.181,0,0,0-7.214,10.178c-2,4.068-3.083,8.381-4.7,12.585a.153.153,0,0,1-.295-.082C405.681,360.1,409.807,350.958,415.847,345.049Z" transform="translate(-404.294 -330.455)" fill="#263238"/>
            <path id="Path_25" data-name="Path 25" d="M433.861,333.774a5.456,5.456,0,0,1,1.227-1.489,4.836,4.836,0,0,1,1.415-1.059c.047-.018.075.047.046.079-.392.447-.939.773-1.363,1.2s-.78.933-1.213,1.355A.071.071,0,0,1,433.861,333.774Z" transform="translate(-407.856 -330.548)" fill="#263238"/>
            <path id="Path_26" data-name="Path 26" d="M442.837,336.919c.71-.178,1.463-.165,2.185-.313a20.623,20.623,0,0,0,2.119-.634.085.085,0,0,1,.065.156,7.039,7.039,0,0,1-4.368,1.015A.117.117,0,0,1,442.837,336.919Z" transform="translate(-408.929 -331.12)" fill="#263238"/>
          </g>
        </g>
        <g id="Group_17" data-name="Group 17" transform="translate(26.208 74.192)">
          <g id="Group_16" data-name="Group 16" transform="translate(1.87 1.948)">
            <path id="Path_27" data-name="Path 27" d="M394.981,361.973l.629,7.143,2.134,24.116H416.63l2.666-24.116.788-7.143Z" transform="translate(-394.981 -361.973)" fill="#455a64"/>
            <path id="Path_28" data-name="Path 28" d="M394.981,361.973l.629,7.143H419.3l.788-7.143Z" transform="translate(-394.981 -361.973)" fill="#263238"/>
          </g>
          <rect id="Rectangle_10" data-name="Rectangle 10" width="28.844" height="5.795" transform="translate(28.844 5.795) rotate(180)" fill="#455a64"/>
        </g>
      </g>
    </g>
    <g id="Floor" transform="translate(89.57 313.957)">
      <line id="Line_3" data-name="Line 3" x2="241.43" transform="translate(0 0)" fill="none" stroke="#263238" stroke-linecap="round" stroke-linejoin="round" stroke-width="1"/>
    </g>
    <g id="Character" transform="translate(92.9 117.207)">
      <g id="Group_111" data-name="Group 111" transform="translate(0 -0.001)">
        <g id="Group_53" data-name="Group 53" transform="translate(0 75.11)">
          <g id="Group_46" data-name="Group 46" transform="translate(86.809 61.891)">
            <g id="Group_45" data-name="Group 45">
              <g id="Group_44" data-name="Group 44">
                <path id="Path_111" data-name="Path 111" d="M149.477,329.508l2.087,12.516L165.7,418.38h2.279L157.7,342.024l-1.519-12.516Z" transform="translate(-149.477 -329.508)" fill="#dbdbdb"/>
              </g>
            </g>
            <path id="Path_112" data-name="Path 112" d="M156.181,329.508h-6.7l2.087,12.516H157.7Z" transform="translate(-149.477 -329.508)" fill="#a6a6a6"/>
          </g>
          <g id="Group_49" data-name="Group 49" transform="translate(42.409 61.891)">
            <g id="Group_48" data-name="Group 48">
              <g id="Group_47" data-name="Group 47">
                <path id="Path_113" data-name="Path 113" d="M98.992,418.38h2.279l14.139-76.356,2.087-12.516h-6.7l-1.519,12.516Z" transform="translate(-98.992 -329.508)" fill="#dbdbdb"/>
              </g>
            </g>
            <path id="Path_114" data-name="Path 114" d="M112.2,329.508l-1.519,12.516h6.136l2.087-12.516Z" transform="translate(-100.401 -329.508)" fill="#a6a6a6"/>
          </g>
          <g id="Group_52" data-name="Group 52" transform="translate(0 61.891)">
            <g id="Group_51" data-name="Group 51">
              <g id="Group_50" data-name="Group 50">
                <path id="Path_115" data-name="Path 115" d="M50.772,418.38h2.279l14.139-76.356,2.087-12.516h-6.7l-1.519,12.516Z" transform="translate(-50.772 -329.508)" fill="#dbdbdb"/>
              </g>
            </g>
            <path id="Path_116" data-name="Path 116" d="M62.462,342.024H68.6l2.087-12.516h-6.7Z" transform="translate(-52.18 -329.508)" fill="#a6a6a6"/>
          </g>
          <path id="Path_117" data-name="Path 117" d="M54.881,326.908h103.6V315.991H119.7l-13.035-56.855H58.831Z" transform="translate(-51.267 -259.136)" fill="#dbdbdb"/>
          <path id="Path_118" data-name="Path 118" d="M54.881,326.908h5.648l3.681-67.772H58.831Z" transform="translate(-51.267 -259.136)" fill="#a6a6a6"/>
        </g>
        <g id="Group_110" data-name="Group 110" transform="translate(18.475)">
          <g id="Group_73" data-name="Group 73" transform="translate(1.505 84.94)">
            <g id="Group_62" data-name="Group 62" transform="translate(5.433 0.599)">
              <g id="Group_59" data-name="Group 59" transform="translate(23.435 87.074)">
                <g id="Group_54" data-name="Group 54" transform="translate(0.527)">
                  <path id="Path_119" data-name="Path 119" d="M163.962,432.926c-1.954.245-55.3-12.2-57.029-13.879-.211-.186,1.668-10.5,1.668-10.5.837-4.215,15.373-38.542,15.373-38.542l34.872,8.6-14.778,31.887s6.649,4.5,12.363,8.79c.006.01.014.011.012.018a76.356,76.356,0,0,1,7.227,5.782C165.365,427.111,165.912,432.7,163.962,432.926Z" transform="translate(-106.913 -370.001)" fill="#c95f50"/>
                  <path id="Path_120" data-name="Path 120" d="M106.929,422.492c1.733,1.68,55.082,14.124,57.034,13.878,1.952-.229,1.4-5.813-.29-7.845a77.568,77.568,0,0,0-7.229-5.778c0-.009-.009-.009-.018-.018-5.708-4.292-12.357-8.795-12.357-8.795l3.289-7.106-33.79-8.232c-2.559,6.376-4.661,11.864-4.969,13.395C108.6,411.991,106.718,422.307,106.929,422.492Z" transform="translate(-106.912 -373.447)" fill="#ebebeb"/>
                </g>
                <g id="Group_58" data-name="Group 58" transform="translate(0 29.23)">
                  <path id="Path_121" data-name="Path 121" d="M164.041,437.334c-2.02.212-55.792-11.841-57.545-13.6-.679-.656.624-8.583,2.471-18.116.021-.1.041-.2.062-.3l34.778,7.388-.146.586S162.178,427.1,163.9,429.238,166.061,437.132,164.041,437.334Z" transform="translate(-106.314 -403.488)" fill="#ff6f35"/>
                  <g id="Group_57" data-name="Group 57" transform="translate(2.858)">
                    <g id="Group_56" data-name="Group 56">
                      <path id="Path_122" data-name="Path 122" d="M164.293,437.549c-9.015-2.254-45.586-10.5-54.668-12.039-.074-.012-.085.037-.012.057C118.5,428,155.135,435.94,164.26,437.7,164.452,437.735,164.483,437.6,164.293,437.549Z" transform="translate(-109.563 -405.921)" fill="#263238"/>
                      <path id="Path_123" data-name="Path 123" d="M151.767,414.646c-3.418-1.464-7.9-1.9-11.2.032-.128.075-.02.254.1.245a51.441,51.441,0,0,1,10.979.171A.233.233,0,0,0,151.767,414.646Z" transform="translate(-113.293 -404.46)" fill="#263238"/>
                      <path id="Path_124" data-name="Path 124" d="M154.3,417.064c-3.418-1.464-7.9-1.9-11.2.032-.128.074-.019.254.1.244a51.507,51.507,0,0,1,10.979.172A.233.233,0,0,0,154.3,417.064Z" transform="translate(-113.598 -404.751)" fill="#263238"/>
                      <path id="Path_125" data-name="Path 125" d="M156.831,419.482c-3.418-1.464-7.9-1.9-11.2.032-.128.075-.02.254.1.244a51.5,51.5,0,0,1,10.979.171A.233.233,0,0,0,156.831,419.482Z" transform="translate(-113.903 -405.043)" fill="#263238"/>
                      <g id="Group_55" data-name="Group 55" transform="translate(20.825)">
                        <path id="Path_126" data-name="Path 126" d="M158.8,406.931c-.968-2.242-3.773-1.96-5.543-1.044a19.5,19.5,0,0,0-7.327,6.929.1.1,0,0,0,.055.147.453.453,0,0,0,.46.57c3.19-.429,6.654-.492,9.617-1.887C157.8,410.832,159.72,409.051,158.8,406.931Zm-7.652,4.964c-1.565.249-3.131.42-4.685.726a58.315,58.315,0,0,1,4.368-3.952,21.025,21.025,0,0,1,2.349-1.616c1.277-.726,5.94-1.837,4.433,1.93C156.786,411.06,153.015,411.6,151.152,411.895Z" transform="translate(-134.769 -403.474)" fill="#263238"/>
                        <path id="Path_127" data-name="Path 127" d="M135.549,409.615c2.659,1.911,6.053,2.605,9.111,3.609.317.1.556-.2.556-.478a.1.1,0,0,0,.082-.135,19.489,19.489,0,0,0-5.938-8.148c-1.573-1.222-4.28-2.01-5.641.017C132.429,406.4,134,408.5,135.549,409.615Zm-1.04-2.9c-.793-3.979,3.588-2.037,4.711-1.09a20.962,20.962,0,0,1,2.014,2.017,58.211,58.211,0,0,1,3.573,4.682c-1.472-.585-2.981-1.038-4.473-1.568C138.557,410.123,134.946,408.908,134.509,406.715Z" transform="translate(-133.241 -403.237)" fill="#263238"/>
                      </g>
                    </g>
                  </g>
                  <path id="Path_128" data-name="Path 128" d="M154.121,436.713c8.452,1.847,15,3.166,15.681,3.1,2.023-.2,1.574-5.972-.141-8.1a76.977,76.977,0,0,0-7.036-5.892Z" transform="translate(-112.075 -405.958)" opacity="0.2"/>
                </g>
              </g>
              <g id="Group_61" data-name="Group 61">
                <path id="Path_129" data-name="Path 129" d="M143.111,397.381l-37.016-8.728s30.894-70.8,28.179-74.405c-1.357-1.8-35.823-2.329-46.784-11.615-14.238-12.064-4.686-30.5-4.686-30.5l38.49-1.142s-.464,8.04,1.037,9.252c.99.807,46.853,4.662,51.89,20.117C180.4,319.317,143.111,397.381,143.111,397.381Z" transform="translate(-79.667 -270.995)" fill="#37474f"/>
                <g id="Group_60" data-name="Group 60" transform="translate(30.126 112.054)">
                  <path id="Path_130" data-name="Path 130" d="M147.227,407.012c-.97-.461-10.555-3.269-12.706-3.82-4.332-1.109-8.672-2.194-13.032-3.188-2.273-.518-7.144-1.651-7.443-1.6-.144.026-.171.268-.04.311,4.224,1.394,8.508,2.572,12.792,3.762s19.033,4.744,20.327,4.828C147.249,407.316,147.364,407.076,147.227,407.012Z" transform="translate(-113.921 -398.404)" fill="#263238"/>
                </g>
                <path id="Path_131" data-name="Path 131" d="M141.5,311.572a5.866,5.866,0,0,0-2.9-.9q-8.335-1.393-16.667-2.794c-5.2-.869-10.426-1.647-15.6-2.645-4.286-.826-8.643-1.941-12.35-4.263a17.894,17.894,0,0,1-7.569-9.9,31.928,31.928,0,0,1-.979-12.685c.1-1.033.288-2.064.483-3.084.014-.077-.11-.1-.124-.026-1.409,7.883-1.536,17.032,4.377,23.314,2.881,3.062,6.841,4.862,10.88,6.027a124.08,124.08,0,0,0,14,2.719q8.335,1.393,16.671,2.781c2.673.444,5.389.792,8.039,1.346a2.74,2.74,0,0,1,1.448.64,2.072,2.072,0,0,1,.235,1.926c-.268,1.309-.621,2.6-1,3.886-3.034,10.347-25.422,63.148-26.023,64.284-.063.12.124.213.191.095,5.1-9.077,21.85-50.635,25.216-60.424a61.759,61.759,0,0,0,2.186-7.618A2.592,2.592,0,0,0,141.5,311.572Z" transform="translate(-80.308 -271.505)" fill="#263238"/>
              </g>
            </g>
            <g id="Group_72" data-name="Group 72">
              <g id="Group_68" data-name="Group 68" transform="translate(81.047 98.735)">
                <g id="Group_63" data-name="Group 63">
                  <path id="Path_132" data-name="Path 132" d="M226.1,436.773c-1.866.628-55.254-.124-57.287-1.425-2.224-2.117-3.168-52.485-3.168-52.485l34.345-.285,2.142,36.164s7.412,3.087,13.867,6.156c.008.008.016.008.016.015a76.609,76.609,0,0,1,8.235,4.229C226.313,430.795,227.964,436.16,226.1,436.773Z" transform="translate(-165.643 -382.578)" fill="#c95f50"/>
                  <path id="Path_133" data-name="Path 133" d="M166.7,416.776c.51,11.319,1.24,21.758,2.234,22.691,2.032,1.3,55.425,2.058,57.289,1.425,1.864-.607.22-5.972-1.847-7.625a77.154,77.154,0,0,0-8.241-4.23c0-.009,0-.009-.009-.018-6.455-3.069-13.869-6.156-13.869-6.156l-.361-6.086Z" transform="translate(-165.771 -386.699)" fill="#ebebeb"/>
                </g>
                <g id="Group_67" data-name="Group 67" transform="translate(0.944 25.523)">
                  <path id="Path_134" data-name="Path 134" d="M227.321,441.539c-1.928.639-57.037.374-59.127-.968-.8-.5-1.232-8.517-1.472-18.224,0-.1,0-.2-.005-.3l35.557-.226-.017.6s21.049,9.523,23.193,11.241C227.575,435.372,229.251,440.91,227.321,441.539Z" transform="translate(-166.716 -412.83)" fill="#ff6f35"/>
                  <g id="Group_66" data-name="Group 66" transform="translate(3.954)">
                    <g id="Group_65" data-name="Group 65">
                      <path id="Path_135" data-name="Path 135" d="M227.25,441.771c-9.289-.273-46.779-.5-55.982-.061-.075,0-.075.055,0,.058,9.2.471,46.692.391,55.982.154C227.445,441.918,227.446,441.776,227.25,441.771Z" transform="translate(-171.212 -415.198)" fill="#263238"/>
                      <path id="Path_136" data-name="Path 136" d="M210.141,421.916c-3.652-.7-8.126-.16-10.932,2.427-.109.1.035.253.154.216a51.49,51.49,0,0,1,10.761-2.183A.233.233,0,0,0,210.141,421.916Z" transform="translate(-174.582 -412.808)" fill="#263238"/>
                      <path id="Path_137" data-name="Path 137" d="M213.133,423.736c-3.652-.7-8.126-.16-10.932,2.427-.109.1.035.253.154.216a51.489,51.489,0,0,1,10.761-2.183A.233.233,0,0,0,213.133,423.736Z" transform="translate(-174.942 -413.028)" fill="#263238"/>
                      <path id="Path_138" data-name="Path 138" d="M216.124,425.556c-3.652-.7-8.126-.16-10.932,2.427-.109.1.035.253.154.216a51.446,51.446,0,0,1,10.761-2.182A.234.234,0,0,0,216.124,425.556Z" transform="translate(-175.303 -413.247)" fill="#263238"/>
                      <g id="Group_64" data-name="Group 64" transform="translate(16.663)">
                        <path id="Path_139" data-name="Path 139" d="M215.542,412.767c-1.427-1.983-4.106-1.107-5.638.166a19.48,19.48,0,0,0-5.671,8.335.1.1,0,0,0,.086.132.453.453,0,0,0,.571.459c3.024-1.1,6.394-1.905,8.989-3.9C215.394,416.793,216.892,414.642,215.542,412.767Zm-6.41,6.485c-1.474.578-2.967,1.08-4.42,1.712a58.3,58.3,0,0,1,3.419-4.795,20.862,20.862,0,0,1,1.947-2.081c1.092-.983,5.408-3.066,4.745.937C214.458,417.232,210.89,418.564,209.133,419.252Z" transform="translate(-191.854 -411.599)" fill="#263238"/>
                        <path id="Path_140" data-name="Path 140" d="M193.251,420.576c3.007,1.3,6.471,1.248,9.673,1.574a.454.454,0,0,0,.441-.586.1.1,0,0,0,.05-.149,19.5,19.5,0,0,0-7.549-6.687c-1.8-.858-4.611-1.049-5.506,1.223C189.514,418.1,191.5,419.819,193.251,420.576Zm-1.638-2.611c-1.629-3.717,3.068-2.758,4.368-2.073a21.065,21.065,0,0,1,2.4,1.539,58.576,58.576,0,0,1,4.494,3.808c-1.564-.256-3.134-.376-4.706-.574C196.3,420.428,192.512,420.014,191.614,417.965Z" transform="translate(-190.159 -411.904)" fill="#263238"/>
                      </g>
                    </g>
                  </g>
                </g>
              </g>
              <g id="Group_71" data-name="Group 71">
                <path id="Path_141" data-name="Path 141" d="M192.933,404l-38.737.011s.491-69.893-2.545-73.769c-4.047-5.169-60.681-5.051-72.829-21.908-10.91-15.14-1.7-36.566-1.7-36.566l42.889-1.273a88.213,88.213,0,0,1-3.975,13.488s51.665,9.522,66.139,25.349C191.942,320.011,192.933,404,192.933,404Z" transform="translate(-73.489 -270.335)" fill="#37474f"/>
                <g id="Group_70" data-name="Group 70" transform="translate(4.673)">
                  <path id="Path_142" data-name="Path 142" d="M128.512,282.491a20.521,20.521,0,0,0-3.634,1.164c-1.231.469-2.444,1-3.629,1.579a71.811,71.811,0,0,0-6.785,3.833c-.068.043,0,.138.068.1,2.319-1.2,4.717-2.287,7.118-3.321q1.732-.745,3.464-1.491a37.044,37.044,0,0,0,3.5-1.546C128.764,282.729,128.684,282.46,128.512,282.491Z" transform="translate(-83.097 -271.781)" fill="#263238"/>
                  <path id="Path_143" data-name="Path 143" d="M126.7,270.452c-.491,1.954-.921,3.925-1.481,5.863-.257.888-.51,1.792-.847,2.655-.284.728-.714,1.559-1.558,1.721-.972.188-1.25-.644-1.171-1.445.088-.9.318-1.792.494-2.672.2-1.016.41-2.03.595-3.049.092-.509.189-1.018.275-1.529.022-.128.117-1.1.187-1.384.008.024.023.047.054.042l.033-.005a.066.066,0,0,0,.06-.05.125.125,0,0,0-.048-.147.078.078,0,0,0-.09-.006c-.186.1-.2.356-.259.544-.158.5-.319.989-.464,1.488-.271.933-.535,1.869-.772,2.811s-.469,1.885-.7,2.827a4.408,4.408,0,0,0-.189,2.172,1.659,1.659,0,0,0,1.537,1.251c-.033.063-.074.124-.1.19-.085.193-.148.4-.221.6s-.142.4-.2.611a1.951,1.951,0,0,0-.056.3c-.012.113.011.223,0,.337a.164.164,0,0,0,.3.109c.051-.1.126-.177.183-.274a1.761,1.761,0,0,0,.14-.327c.067-.2.123-.391.172-.591s.111-.4.148-.6a3.524,3.524,0,0,0,.036-.361,2.246,2.246,0,0,0,1.129-.429,3.765,3.765,0,0,0,1.169-1.786c.3-.814.525-1.656.754-2.491a36.616,36.616,0,0,0,1.248-6.3A.181.181,0,0,0,126.7,270.452Z" transform="translate(-83.857 -270.313)" fill="#263238"/>
                  <path id="Path_144" data-name="Path 144" d="M96.584,275.9c-.178.97-.29,1.951-.514,2.912-.219.942-.475,1.882-.785,2.8a9.984,9.984,0,0,1-1.193,2.52,9.426,9.426,0,0,1-1.9,1.933,16.234,16.234,0,0,1-4.6,2.557,21.668,21.668,0,0,1-2.554.748c-.451.1-.908.179-1.366.238a2.9,2.9,0,0,0-1.1.255.222.222,0,0,0,.021.38,3.965,3.965,0,0,0,2.033.064,14.9,14.9,0,0,0,2.172-.381,15.738,15.738,0,0,0,4.106-1.729,12.936,12.936,0,0,0,3.433-2.8,9.734,9.734,0,0,0,1.835-4.018,19.842,19.842,0,0,0,.6-5.458A.1.1,0,0,0,96.584,275.9Z" transform="translate(-79.245 -270.978)" fill="#263238"/>
                  <path id="Path_145" data-name="Path 145" d="M160.411,356q-.573-9.121-1.517-18.215c-.156-1.494-.306-2.991-.491-4.483a14.048,14.048,0,0,0-.754-3.406c-.892-2.28-2.791-3.43-5.087-4.01-2.709-.685-5.513-1.093-8.269-1.54-2.819-.456-5.645-.865-8.473-1.258-5.726-.8-11.462-1.533-17.165-2.492a136.726,136.726,0,0,1-16.842-3.787c-5.066-1.528-10.263-3.417-14.318-6.928-8.728-7.556-9.047-20.218-7.98-30.813.15-1.5.334-2.988.514-4.48.01-.078-.111-.1-.12-.026-.691,5.965-1.494,11.968-.9,17.978a29.328,29.328,0,0,0,4.772,13.926c2.954,4.234,7.332,6.97,12.056,8.875a94.64,94.64,0,0,0,16.065,4.624c11.32,2.368,22.866,3.37,34.257,5.318q2.107.36,4.206.768a17.34,17.34,0,0,1,3.794,1.015c2.587,1.156,3.3,3.67,3.62,6.27.743,6.033,1.248,12.107,1.685,18.169.881,12.22,1.35,24.506,1.326,36.759,0,1.513-.013,6.6-.026,8.112,0,.135.2.121.208-.011C161.343,384.094,161.18,368.255,160.411,356Z" transform="translate(-78.803 -270.82)" fill="#263238"/>
                  <g id="Group_69" data-name="Group 69" transform="translate(78.595 127.197)">
                    <path id="Path_146" data-name="Path 146" d="M202.534,415.328c-8.836-.6-34.005-.357-34.282-.231-.133.06-.1.3.038.31,4.437.319,32.941.468,34.216.233C202.629,415.618,202.684,415.338,202.534,415.328Z" transform="translate(-168.167 -414.94)" fill="#263238"/>
                  </g>
                </g>
                <path id="Path_147" data-name="Path 147" d="M122.134,285.951a144.4,144.4,0,0,1,23.4,4.8,163.6,163.6,0,0,1,22.577,8.163c4.1,1.842,8.074,3.9,12.015,6.066.077.042.005.157-.072.116a183.1,183.1,0,0,0-21.956-9.573,176.9,176.9,0,0,0-22.863-6.63c-4.369-.95-8.77-1.689-13.18-2.421C121.759,286.42,121.838,285.919,122.134,285.951Z" transform="translate(-79.32 -272.198)" fill="#263238"/>
                <path id="Path_148" data-name="Path 148" d="M161.893,353.389c-.279-4.211-.715-8.411-1.4-12.577-.278-1.682-.356-3.856-2.117-4.692-.823-.391-17.235-3.242-19.589-3.2a.109.109,0,0,0-.05.2c.214.1,15.814,3.048,17.794,3.516a3.111,3.111,0,0,1,2.192,1.137,8.06,8.06,0,0,1,.666,2.7,173.315,173.315,0,0,1,2.175,24.713q.094,3.434.117,6.87c.02,2.351-.081,4.733.1,7.079a.192.192,0,0,0,.384-.01c.181-2.133.114-4.3.128-6.44s.02-4.3.009-6.443C162.274,361.959,162.176,357.668,161.893,353.389Z" transform="translate(-81.346 -277.859)" fill="#263238"/>
              </g>
            </g>
          </g>
          <g id="Group_109" data-name="Group 109">
            <g id="Group_81" data-name="Group 81" transform="translate(41.682 8.648)">
              <path id="Path_149" data-name="Path 149" d="M123.742,225.262c11.093,14.745,37.433,35.481,43.613,30.658,7.6-5.929,6.186-27.741,6.345-30.544.171-3.005-24.744-2.245-23.746.818.591,1.812.869,3.753.4,3.569-1.47-.577-4.728-3.506-18.882-11.439C123.585,213.9,116.4,215.5,123.742,225.262Z" transform="translate(-119.354 -187.474)" fill="#c95f50"/>
              <g id="Group_76" data-name="Group 76" transform="translate(0 26.659)">
                <path id="Path_150" data-name="Path 150" d="M146.264,225.854l-5.814,5.7-7.315,7.18S124.805,230.66,121.2,224c-2.644-4.9-2.726-9.03-.1-9.934a5.852,5.852,0,0,1,3.9.374C134.435,217.983,146.264,225.854,146.264,225.854Z" transform="translate(-119.172 -213.879)" fill="#4f52ff"/>
                <g id="Group_75" data-name="Group 75" transform="translate(12.263 10.471)">
                  <g id="Group_74" data-name="Group 74">
                    <path id="Path_151" data-name="Path 151" d="M144.562,225.792c-2.334,2.125-10.772,10.017-11.445,11.387-.014.03.064.11.095.1,1.374-.662,9.344-9.026,11.485-11.345C144.738,225.885,144.606,225.752,144.562,225.792Z" transform="translate(-133.116 -225.785)" fill="#263238"/>
                  </g>
                </g>
                <path id="Path_152" data-name="Path 152" d="M140.45,231.585l-7.315,7.18s-8.33-8.078-11.936-14.735c-2.644-4.9-2.726-9.03-.1-9.934Z" transform="translate(-119.172 -213.905)" fill="#263238"/>
              </g>
              <g id="Group_80" data-name="Group 80" transform="translate(23.429)">
                <path id="Path_153" data-name="Path 153" d="M177.415,210.406c1.409,4.779.468,15.68-.771,18.223s-19.824,1.558-21.476-.828-5.149-18.845-3.223-23.549S175.955,205.454,177.415,210.406Z" transform="translate(-146.484 -185.852)" fill="#c95f50"/>
                <g id="Group_78" data-name="Group 78" transform="translate(2.174)">
                  <path id="Path_154" data-name="Path 154" d="M155.734,191.266c-.807-2.168-4.708-8.364-6.587-7.641s-.21,5.624.534,7.593c1.534,4.057,1.489,10.051,1.415,12.951s6.706.037,6.706.037S157.825,196.882,155.734,191.266Z" transform="translate(-148.285 -183.567)" fill="#c95f50"/>
                  <path id="Path_155" data-name="Path 155" d="M153.639,209.554s-.264,5.114,2.456,6.172c2.623,1.013,3.669-3.034,3.747-3.324-.011.271-.131,4.977,2.711,5.759,2.954.81,3.306-3.433,3.328-3.707.069.259,1.043,3.667,3.338,3.771,3.943.175,1.692-8.61,3.434-11.289,0,0,4.877,2.434,5.033,2.475,0,0-1.97-8.4-5.714-10.55a2.755,2.755,0,0,0-3.419.484s-.336-2.78-2.554-3.466c-1.14-.349-2.712,1.163-2.712,1.163a3.453,3.453,0,0,0-2.373-2.7c-1.6-.394-3.154,1.153-3.549,1.838C154.327,201.447,153.639,209.554,153.639,209.554Z" transform="translate(-148.929 -184.857)" fill="#c95f50"/>
                  <g id="Group_77" data-name="Group 77" transform="translate(4.62 10.827)">
                    <path id="Path_156" data-name="Path 156" d="M157.723,195.933a.037.037,0,0,0-.064-.038,24.561,24.561,0,0,0-4.1,14.024c.007.158.266.215.292.04A50.3,50.3,0,0,1,157.723,195.933Z" transform="translate(-153.538 -195.878)" fill="#263238"/>
                    <path id="Path_157" data-name="Path 157" d="M164.078,197.325c.023-.05-.06-.089-.092-.04a23.011,23.011,0,0,0-3.526,15.577c.031.189.248.329.23.108C160.372,209.252,162.173,201.487,164.078,197.325Z" transform="translate(-154.343 -196.045)" fill="#263238"/>
                    <path id="Path_158" data-name="Path 158" d="M167.654,215.525c-.654-5.331.465-10.335,2.354-15.309.025-.065-.069-.092-.1-.044-1.587,2.181-2.461,5.477-2.923,8.1a14.162,14.162,0,0,0,.487,7.276C167.5,215.642,167.668,215.639,167.654,215.525Z" transform="translate(-155.127 -196.392)" fill="#263238"/>
                  </g>
                  <path id="Path_159" data-name="Path 159" d="M153.636,211.288a16.084,16.084,0,0,0,.389,2.925,5.4,5.4,0,0,0,1.221,2.544,1.776,1.776,0,0,0,1.154.542,2.582,2.582,0,0,0,1.284-.258,3.155,3.155,0,0,0,1.487-2.1l.514-2.1.249,2.154a8.871,8.871,0,0,0,.762,2.765,3.17,3.17,0,0,0,1.852,1.811,1.809,1.809,0,0,0,2.149-.755,5.468,5.468,0,0,0,.755-2.637l.152-2.56.69,2.458a8.364,8.364,0,0,0,.828,1.956,3.428,3.428,0,0,0,1.394,1.4,1.628,1.628,0,0,0,1.709-.176,3.6,3.6,0,0,0,.935-1.786,28.29,28.29,0,0,0,.6-4.405c.069-.748.137-1.5.243-2.246a5.356,5.356,0,0,1,.651-2.154,5.76,5.76,0,0,0-.444,2.176c-.047.746-.058,1.494-.07,2.244a24.173,24.173,0,0,1-.376,4.533,4.21,4.21,0,0,1-1.054,2.178,2.312,2.312,0,0,1-2.511.357,4.192,4.192,0,0,1-1.777-1.7,9.094,9.094,0,0,1-.954-2.164l.843-.1a6.276,6.276,0,0,1-.86,3.124,2.619,2.619,0,0,1-1.394,1.1,2.96,2.96,0,0,1-1.753-.015,3.992,3.992,0,0,1-2.346-2.291,9.61,9.61,0,0,1-.791-3.055l.762.051a3.768,3.768,0,0,1-1.975,2.494,3.169,3.169,0,0,1-1.6.236,2.291,2.291,0,0,1-1.442-.753,5.547,5.547,0,0,1-1.135-2.821A13.254,13.254,0,0,1,153.636,211.288Z" transform="translate(-148.926 -186.592)" fill="#263238"/>
                </g>
                <g id="Group_79" data-name="Group 79" transform="translate(0 20.288)">
                  <path id="Path_160" data-name="Path 160" d="M153.408,225.635s-13.475-16.286-4.529-18.434c2.659-.639,14.337-.086,14.272,2.261-.084,3.032-5,3.711-8.158,3.648,0,0,5.364,4.894,3.07,9.644A5.239,5.239,0,0,1,153.408,225.635Z" transform="translate(-145.812 -206.673)" fill="#c95f50"/>
                  <path id="Path_161" data-name="Path 161" d="M148.466,207.388a11.057,11.057,0,0,1,3.153-.662,23.915,23.915,0,0,1,3.234-.067,37.059,37.059,0,0,1,6.437.768,6.1,6.1,0,0,1,1.615.589,2.275,2.275,0,0,1,.741.646,1.613,1.613,0,0,1,.246.483,1.683,1.683,0,0,1,.066.532,2.717,2.717,0,0,1-.734,1.738,5.085,5.085,0,0,1-1.428,1.035,9.78,9.78,0,0,1-3.223.871,22.191,22.191,0,0,1-3.265.126l.252-.655a13.094,13.094,0,0,1,1.6,1.9,12.063,12.063,0,0,1,1.2,2.146,8.364,8.364,0,0,1,.616,2.376,6.35,6.35,0,0,1-.2,2.414,7.152,7.152,0,0,0-.059-2.376,8.658,8.658,0,0,0-.787-2.216,11.534,11.534,0,0,0-1.266-1.981,12.392,12.392,0,0,0-1.6-1.7l-.726-.629.979-.026a23.7,23.7,0,0,0,3.14-.22,9.531,9.531,0,0,0,2.936-.828c.861-.434,1.655-1.162,1.669-1.989.076-.725-1.017-1.159-1.986-1.412a30.779,30.779,0,0,0-3.1-.61c-1.051-.166-2.1-.32-3.161-.419A20.53,20.53,0,0,0,148.466,207.388Z" transform="translate(-146.132 -206.634)" fill="#263238"/>
                </g>
              </g>
              <path id="Path_162" data-name="Path 162" d="M154.421,231.651l.732,2.085.7,2.089,1.419,4.165q.712,2.079,1.47,4.141c.254.686.508,1.375.8,2.048.252.691.565,1.354.842,2.04a27.014,27.014,0,0,1-2.116-3.892c-.624-1.341-1.135-2.728-1.627-4.119-.475-1.4-.909-2.806-1.276-4.236S154.652,233.111,154.421,231.651Z" transform="translate(-123.42 -189.362)" fill="#263238"/>
            </g>
            <g id="Group_82" data-name="Group 82" transform="translate(0 33.337)">
              <path id="Path_163" data-name="Path 163" d="M125.571,275.118c-1.318,1.061-53.552,1.647-53.775,1.276-.6-1,13.571-48.651,35.841-63.457,3.924-2.609,9.9-.806,12.49,1.222,1.3,1.013,5.068,8.733,5.586,15.036S126.4,274.44,125.571,275.118Z" transform="translate(-71.778 -211.639)" fill="#4f52ff"/>
              <path id="Path_164" data-name="Path 164" d="M127.327,258.063v.413c-.246-.15-.5-.317-.739-.493a21.725,21.725,0,0,1-4.837-5.233c-1.372-1.944-2.6-3.975-3.852-5.981a54.58,54.58,0,0,0-5.822-8.074c-.1-.1-.185-.193-.273-.29a22.253,22.253,0,0,0-2.814-2.489A15.2,15.2,0,0,0,95.683,233.6a14.462,14.462,0,0,0-5.268,3.1c.211-.361.431-.712.642-1.073a14.373,14.373,0,0,1,4.494-2.427,15.629,15.629,0,0,1,7.124-.44,15.36,15.36,0,0,1,6.561,2.823,22.319,22.319,0,0,1,3.061,2.762c.1.106.193.2.281.308a55.342,55.342,0,0,1,5.646,7.915c1.249,2.014,2.471,4.037,3.826,5.972a21.576,21.576,0,0,0,4.74,5.163C126.966,257.826,127.142,257.949,127.327,258.063Zm-4.934,2.251a17.972,17.972,0,0,1-7.168-1.768c-4.529-2.155-8.17-5.717-11.8-9.155-1.319-1.249-2.63-2.5-4.019-3.676a2.312,2.312,0,0,0-.22-.193c-.457-.387-.923-.765-1.407-1.135a17.431,17.431,0,0,0-6.719-3.43,10.92,10.92,0,0,0-2.929-.264c-.07.114-.132.229-.2.352a10.576,10.576,0,0,1,3.061.246,17.167,17.167,0,0,1,6.57,3.386c.457.352.9.712,1.337,1.082a2.409,2.409,0,0,1,.229.193c1.39,1.178,2.718,2.454,4.046,3.711,3.615,3.448,7.273,7.054,11.873,9.252a18.172,18.172,0,0,0,7.344,1.829,19.021,19.021,0,0,0,4.934-.519c0-.15.009-.29,0-.44A18.961,18.961,0,0,1,122.393,260.315Zm4.89-12.348c-.536-.88-1.091-1.75-1.68-2.594a19.779,19.779,0,0,0-4.943-5.145,11.671,11.671,0,0,0-6.816-1.97c-.519.009-1.029.035-1.548.088-.158.018-.325.035-.493.062a14.923,14.923,0,0,0-1.521.281,17.7,17.7,0,0,0-3.351,1.258,40.782,40.782,0,0,0-7.748,5.576c-.1.079-.193.167-.29.237-1.091.941-2.19,1.864-3.316,2.735a29.184,29.184,0,0,1-6.007,3.711,19.5,19.5,0,0,1-6.834,1.636c-.369.018-.73.035-1.091.035-.035.079-.07.158-.1.237.4-.009.809-.026,1.2-.044a19.773,19.773,0,0,0,6.913-1.636,30.017,30.017,0,0,0,6.077-3.72c1.152-.879,2.269-1.821,3.377-2.762.1-.079.185-.158.281-.237a39.644,39.644,0,0,1,7.669-5.488A17.008,17.008,0,0,1,110.362,239a14,14,0,0,1,1.715-.308c.167-.018.334-.035.5-.044.422-.044.844-.062,1.266-.07a11.407,11.407,0,0,1,6.622,1.935,19.369,19.369,0,0,1,4.837,5.066c.7,1.011,1.354,2.049,1.988,3.113C127.292,248.45,127.292,248.2,127.283,247.967Z" transform="translate(-72.956 -214.158)" fill="#fff"/>
            </g>
            <g id="Group_96" data-name="Group 96" transform="translate(40.3)">
              <g id="Group_95" data-name="Group 95">
                <g id="Group_84" data-name="Group 84" transform="translate(0 23.183)">
                  <g id="Group_83" data-name="Group 83">
                    <path id="Path_165" data-name="Path 165" d="M125.288,221.815c-3.064-.137-6.749-5.917-7.688-10.021-.062-.281,3.714-9.732,4.267-11.683.112-.4,11.407,6.448,11.407,6.448a32.316,32.316,0,0,0-3.309,7.154C129.891,214,128.25,221.945,125.288,221.815Z" transform="translate(-117.6 -200.094)" fill="#c95f50"/>
                  </g>
                  <path id="Path_166" data-name="Path 166" d="M122.881,200.225c-.274,3.322-.349,12.129,6.267,14.18a8.077,8.077,0,0,0,1.221.27c.134-.537.209-.891.225-.951a32.276,32.276,0,0,1,3.3-7.148c-.006-.011-.015-.013-.032-.018a1.794,1.794,0,0,0-.188-.114c-.006-.011-.023-.015-.032-.018-.084-.059-.188-.113-.313-.192-.038-.029-.078-.048-.125-.079-.078-.048-.164-.1-.252-.149s-.2-.127-.313-.193c-.164-.1-.338-.2-.526-.313a1.762,1.762,0,0,0-.2-.116c-.133-.081-.267-.162-.408-.245-.494-.3-1.027-.619-1.594-.952-.2-.119-.408-.245-.613-.363-.26-.151-.52-.3-.778-.463l-.78-.453c-.032-.018-.063-.035-.1-.055-.449-.265-.9-.522-1.324-.77-.15-.086-.3-.172-.442-.254-.292-.169-.577-.327-.846-.48q-.3-.161-.572-.316c-.438-.235-.821-.437-1.123-.6-.09-.042-.17-.082-.251-.121S122.947,200.252,122.881,200.225Z" transform="translate(-118.226 -200.11)" fill="#263238"/>
                </g>
                <g id="Group_94" data-name="Group 94" transform="translate(1.893)">
                  <g id="Group_85" data-name="Group 85" transform="translate(2.289 4.708)">
                    <path id="Path_167" data-name="Path 167" d="M126.382,182.878c-2.887,3.728-5.278,16.752-3.305,20.605,2.861,5.587,9.846,8.665,15.177,4.709,5.168-3.835,7.982-20.863,5.564-24.6C140.256,178.084,130.648,177.372,126.382,182.878Z" transform="translate(-122.355 -179.087)" fill="#c95f50"/>
                  </g>
                  <g id="Group_91" data-name="Group 91" transform="translate(12.468 16.95)">
                    <g id="Group_87" data-name="Group 87" transform="translate(0.39 2.854)">
                      <g id="Group_86" data-name="Group 86">
                        <path id="Path_168" data-name="Path 168" d="M136.583,197.582c0-.035-.079.025-.088.062-.191.892-.559,1.881-1.434,1.976-.026,0-.035.048,0,.051C136.068,199.775,136.545,198.458,136.583,197.582Z" transform="translate(-134.453 -196.411)" fill="#263238"/>
                        <path id="Path_169" data-name="Path 169" d="M135.942,196.3c-1.4-.461-2.215,2.366-.922,2.792C136.294,199.516,137.113,196.689,135.942,196.3Z" transform="translate(-134.372 -196.252)" fill="#263238"/>
                      </g>
                    </g>
                    <g id="Group_89" data-name="Group 89" transform="translate(7.159 4.378)">
                      <g id="Group_88" data-name="Group 88">
                        <path id="Path_170" data-name="Path 170" d="M142.442,198.776c.017-.032.056.062.045.1-.288.865-.472,1.9.231,2.43.022.017.006.06-.022.047C141.773,200.927,142.03,199.55,142.442,198.776Z" transform="translate(-142.068 -198.079)" fill="#263238"/>
                        <path id="Path_171" data-name="Path 171" d="M143.509,198c1.437.312.707,3.163-.624,2.874C141.574,200.591,142.3,197.74,143.509,198Z" transform="translate(-142.083 -197.985)" fill="#263238"/>
                      </g>
                    </g>
                    <path id="Path_172" data-name="Path 172" d="M134.03,205.752c.137.272.25.62.554.753a2.4,2.4,0,0,0,1,.1.031.031,0,0,1,.022.056,1.228,1.228,0,0,1-1.255.1.97.97,0,0,1-.42-.994C133.937,205.708,134.01,205.712,134.03,205.752Z" transform="translate(-133.929 -194.539)" fill="#263238"/>
                    <g id="Group_90" data-name="Group 90" transform="translate(0.814 0.127)">
                      <path id="Path_173" data-name="Path 173" d="M139.115,201.815s-.182,1.361-.353,1.981a13.454,13.454,0,0,0-3.72-.469c-.3.017-.232-.212.125-.311a5.472,5.472,0,0,1,3.212.1c.091-.159.242-2.1.341-2.083a5.6,5.6,0,0,1,1.317.708c.462-2.827.466-5.7.968-8.513a.087.087,0,0,1,.172.005,46.365,46.365,0,0,1-.653,9.213C140.479,202.806,139.334,201.988,139.115,201.815Z" transform="translate(-134.854 -193.151)" fill="#263238"/>
                    </g>
                    <path id="Path_174" data-name="Path 174" d="M134.875,193.625a11.422,11.422,0,0,1,1.187-.084,1.925,1.925,0,0,1,1.228.144.612.612,0,0,1,.2.719,1.523,1.523,0,0,1-1.344.754,2.23,2.23,0,0,1-1.565-.373A.654.654,0,0,1,134.875,193.625Z" transform="translate(-133.977 -193.068)" fill="#263238"/>
                    <path id="Path_175" data-name="Path 175" d="M146.138,194.318a11.412,11.412,0,0,0-.934-.739,1.928,1.928,0,0,0-1.1-.572.611.611,0,0,0-.574.479,1.522,1.522,0,0,0,.686,1.38,2.241,2.241,0,0,0,1.5.573A.653.653,0,0,0,146.138,194.318Z" transform="translate(-135.085 -193.007)" fill="#263238"/>
                  </g>
                  <path id="Path_176" data-name="Path 176" d="M130.308,195.3c1.079.415,1.285-1.845,1.332-2.641a13.706,13.706,0,0,1,.608-2.392,13.2,13.2,0,0,1-1.164,2.178C130.586,193.064,129.221,194.879,130.308,195.3Z" transform="translate(-120.975 -175.726)" fill="#fff"/>
                  <g id="Group_92" data-name="Group 92" transform="translate(1.066)">
                    <path id="Path_177" data-name="Path 177" d="M121.934,194.753s-2.068-9.165-.165-13.427c.86-1.927,4.023-2.361,4.023-2.361a4.745,4.745,0,0,1,2.936-4.051c3.095-1.431,8.633.973,8.633.973s5.483-4.107,10.006-.24-.867,8.658-.867,8.658,1.01,3.366-4.39,3.929c-5.258.547-13.91-4.611-13.91-4.611a34.288,34.288,0,0,1-3.375,9.617A3.119,3.119,0,0,1,121.934,194.753Z" transform="translate(-120.964 -173.764)" fill="#263238"/>
                    <path id="Path_178" data-name="Path 178" d="M138.874,176.227a9.681,9.681,0,0,0-3.455-1.9,10.456,10.456,0,0,0-3.488-.589,5.793,5.793,0,0,0-5.251,2.835,4.042,4.042,0,0,0-.237,3.14c.014.042.08.012.064-.03-.711-1.9.7-4.018,2.374-4.855a8.744,8.744,0,0,1,6.2-.193,17.021,17.021,0,0,1,3.721,1.7A.062.062,0,0,0,138.874,176.227Z" transform="translate(-121.599 -173.734)" fill="#263238"/>
                    <path id="Path_179" data-name="Path 179" d="M152.6,179.429a4.717,4.717,0,0,0-2.145-3.892,8.045,8.045,0,0,0-5.01-1.482,10.151,10.151,0,0,0-5.054,1.648c-.033.021,0,.08.038.06a8.913,8.913,0,0,1,9.092-.306,4.36,4.36,0,0,1,1.17,7.253,9.093,9.093,0,0,1-4.49,2.247.03.03,0,0,0,.011.06,9.348,9.348,0,0,0,4.308-1.74A5.278,5.278,0,0,0,152.6,179.429Z" transform="translate(-123.304 -173.772)" fill="#263238"/>
                    <path id="Path_180" data-name="Path 180" d="M143.842,189.975a16.618,16.618,0,0,1-6.958-1.059,33.933,33.933,0,0,1-6.607-3.263c-1.215-.76-2.4-1.566-3.572-2.393-.038-.027-.075.028-.041.057a37.1,37.1,0,0,0,6.354,4.556,18.639,18.639,0,0,0,6.856,2.222,15.847,15.847,0,0,0,3.978-.067C143.886,190.022,143.876,189.972,143.842,189.975Z" transform="translate(-121.649 -174.881)" fill="#263238"/>
                  </g>
                  <g id="Group_93" data-name="Group 93" transform="translate(0 14.785)">
                    <path id="Path_181" data-name="Path 181" d="M124.91,195.174s-1.364-4.958-3.52-4.611-2.116,6.843-.281,8.384a2.286,2.286,0,0,0,3.3-.128Z" transform="translate(-119.752 -190.545)" fill="#c95f50"/>
                    <path id="Path_182" data-name="Path 182" d="M121.664,192.682a.031.031,0,0,0-.032.053,5.768,5.768,0,0,1,1.6,4.4,1.262,1.262,0,0,0-1.662-.959c-.048.014-.033.088.012.094a1.406,1.406,0,0,1,1.293.981,6.782,6.782,0,0,1,.278,1.426c.022.157.287.171.291,0v-.039C124.156,196.764,123.628,193.6,121.664,192.682Z" transform="translate(-119.968 -190.802)" fill="#263238"/>
                  </g>
                </g>
              </g>
            </g>
            <g id="Group_108" data-name="Group 108" transform="translate(28.142 35.331)">
              <g id="Group_101" data-name="Group 101" transform="translate(2.11 0.768)">
                <path id="Path_183" data-name="Path 183" d="M107.355,222.6c-2.571,14.387-1.025,44.558,5.53,49.614,7.588,5.852,40.814,7.053,48.2,4.876,2.941-.866-4.061-20.343-7.339-20.32-13.74.1-25.32-1.485-26.5-3.109-1.813-2.494-6.553-20.041-9.783-31.031C113.406,208.817,108.508,216.141,107.355,222.6Z" transform="translate(-106.176 -214.78)" fill="#c95f50"/>
                <g id="Group_97" data-name="Group 97" transform="translate(61.928 20.855)">
                  <path id="Path_184" data-name="Path 184" d="M199.276,239.494,178.13,253.288a.85.85,0,0,0-.134,1.481l9.817,7.366a1.986,1.986,0,0,0,2.12.011l21.147-13.795a.85.85,0,0,0,.134-1.481L201.4,239.5A1.987,1.987,0,0,0,199.276,239.494Z" transform="translate(-176.715 -238.577)" fill="#263238"/>
                  <path id="Path_185" data-name="Path 185" d="M198.246,238.795,177.1,252.589a.85.85,0,0,0-.134,1.481l9.817,7.367a1.989,1.989,0,0,0,2.121.01l21.146-13.794a.85.85,0,0,0,.135-1.481l-9.817-7.366A1.984,1.984,0,0,0,198.246,238.795Z" transform="translate(-176.591 -238.493)" fill="#37474f"/>
                  <path id="Path_186" data-name="Path 186" d="M197.987,240.076,178.6,252.724c-.593.386-.675,1-.183,1.367l8.783,6.59a1.84,1.84,0,0,0,1.962-.032L208.549,248c1.208-.787,1.076-1.26.583-1.63l-1.759-1.32a.464.464,0,0,0-.475.05l-.069.045a.567.567,0,0,1-.79-.062l-4.068-3.054c-.228-.171-.411-.31-.034-.555l.069-.045c.16-.1.207-.251.1-.328l-1.76-1.321C199.859,239.413,199.092,239.355,197.987,240.076Z" transform="translate(-176.772 -238.616)" fill="#fff"/>
                  <path id="Path_187" data-name="Path 187" d="M207.456,243.272l1.11.833a.135.135,0,0,0,.145,0h0a.058.058,0,0,0,.008-.1l-1.11-.833a.137.137,0,0,0-.145,0h0A.058.058,0,0,0,207.456,243.272Z" transform="translate(-180.308 -239.054)" fill="#fff"/>
                  <path id="Path_188" data-name="Path 188" d="M189.489,249.2l7.462,5.6,8.315-5.424-7.462-5.6Z" transform="translate(-178.145 -239.13)" fill="#ffc727"/>
                  <path id="Path_189" data-name="Path 189" d="M191.47,253.567l4.354,3.267.489-.318-4.354-3.267Z" transform="translate(-178.384 -240.271)" fill="#a6a6a6"/>
                  <path id="Path_190" data-name="Path 190" d="M189.646,253.5l5.156,3.869.244-.159-5.156-3.869Z" transform="translate(-178.164 -240.282)" fill="#a6a6a6"/>
                  <path id="Path_191" data-name="Path 191" d="M189.138,253.832l5.156,3.869.244-.159-5.156-3.869Z" transform="translate(-178.103 -240.322)" fill="#a6a6a6"/>
                  <path id="Path_192" data-name="Path 192" d="M188.629,254.164l5.156,3.869.244-.159L188.873,254Z" transform="translate(-178.042 -240.362)" fill="#a6a6a6"/>
                  <path id="Path_193" data-name="Path 193" d="M209.248,247.458l.93.7.2-.131-.93-.7Z" transform="translate(-180.527 -239.557)" fill="#a6a6a6"/>
                  <path id="Path_194" data-name="Path 194" d="M208.828,247.731l.93.7.2-.131-.93-.7Z" transform="translate(-180.476 -239.59)" fill="#a6a6a6"/>
                  <path id="Path_195" data-name="Path 195" d="M208.409,248l.93.7.2-.131-.93-.7Z" transform="translate(-180.426 -239.623)" fill="#a6a6a6"/>
                  <path id="Path_196" data-name="Path 196" d="M188.188,250.892a.607.607,0,0,0-.006.34,1.673,1.673,0,0,0,.5.027c.327-.025.576-.214.393-.351-.144-.108-.407.01-.407.01s.2-.169.052-.277C188.533,250.5,188.246,250.665,188.188,250.892Z" transform="translate(-177.985 -239.951)" fill="#ffc727"/>
                  <path id="Path_197" data-name="Path 197" d="M182.227,255.662l6.02,4.518,1.921-1.253-6.02-4.517Z" transform="translate(-177.27 -240.411)" fill="#ffc727"/>
                </g>
                <g id="Group_100" data-name="Group 100" transform="translate(43.989 32.99)">
                  <g id="Group_99" data-name="Group 99">
                    <g id="Group_98" data-name="Group 98">
                      <path id="Path_198" data-name="Path 198" d="M166.059,281.665c1.619,0,15.228-3.374,19.351-5.691a45.964,45.964,0,0,0,11.832-9.04c5.386-5.77,8.563-10.269,8.663-12.761.116-2.894.034-3.4-10.873,5.469-6.17,5.017-10.114,4.412-13.288,3.2a45.659,45.659,0,0,0-25.551-1.571S159.835,281.645,166.059,281.665Z" transform="translate(-156.193 -252.29)" fill="#c95f50"/>
                    </g>
                  </g>
                  <path id="Path_199" data-name="Path 199" d="M183.542,263.372c-3.317-1.139,9.819-3.972,11.333-7.668s-2.57-3.834-6.219-2.752c-12.665,3.755-20.093.674-27.7,5.879-.8.549-3.192,1.724-3.234,2.149C157.361,264.6,183.542,263.372,183.542,263.372Z" transform="translate(-156.376 -252.299)" fill="#c95f50"/>
                  <path id="Path_200" data-name="Path 200" d="M175.823,255.575a27.784,27.784,0,0,0-7.04.2,16.982,16.982,0,0,0-5.964,2.569c-.08.05-.016.183.067.133,3.9-2.35,8.509-2.574,12.932-2.794A.052.052,0,0,0,175.823,255.575Z" transform="translate(-156.987 -252.67)" fill="#263238"/>
                </g>
              </g>
              <g id="Group_107" data-name="Group 107">
                <path id="Path_201" data-name="Path 201" d="M104.526,241.778l8.005-1.5,10.074-1.891s-2.365-11.221-5.252-18.22c-2.969-7.2-7.9-9.549-10.63.345C104.041,230.226,104.526,241.778,104.526,241.778Z" transform="translate(-103.863 -213.906)" fill="#4f52ff"/>
                <g id="Group_106" data-name="Group 106" transform="translate(0 11.812)">
                  <g id="Group_103" data-name="Group 103" transform="translate(1.342 9.545)">
                    <g id="Group_102" data-name="Group 102">
                      <path id="Path_202" data-name="Path 202" d="M105.332,241.075c3.078-.7,14.379-3.1,15.887-2.869.033.005.054.115.025.132-1.33.748-12.75,2.5-15.877,2.926C105.308,241.272,105.275,241.088,105.332,241.075Z" transform="translate(-105.302 -238.19)" fill="#263238"/>
                    </g>
                  </g>
                  <g id="Group_104" data-name="Group 104" transform="translate(0 1.005)">
                    <path id="Path_203" data-name="Path 203" d="M105.977,243.262l-1.448.272a110.231,110.231,0,0,1,.9-15.054" transform="translate(-103.866 -228.48)" fill="none" stroke="#263238" stroke-width="0.75"/>
                    <path id="Path_204" data-name="Path 204" d="M103.777,231.651s.3,2.468.785,4.739" transform="translate(-103.777 -228.862)" fill="none" stroke="#263238" stroke-width="0.5"/>
                  </g>
                  <g id="Group_105" data-name="Group 105" transform="translate(15.453)">
                    <path id="Path_205" data-name="Path 205" d="M123.973,240.128l.664-.125s-1.776-8.243-3.289-12.666" transform="translate(-121.348 -227.337)" fill="none" stroke="#263238" stroke-width="0.75"/>
                    <path id="Path_206" data-name="Path 206" d="M123.218,229.752a22.785,22.785,0,0,1,0,3.667" transform="translate(-121.573 -227.628)" fill="none" stroke="#263238" stroke-width="0.5"/>
                  </g>
                </g>
              </g>
            </g>
          </g>
        </g>
      </g>
    </g>
    <g id="Speech_Bubble" data-name="Speech Bubble" transform="translate(185.528 56.727)">
      <g id="Group_116" data-name="Group 116" transform="translate(0 0.001)">
        <path id="Path_207" data-name="Path 207" d="M174.82,164.768a5.426,5.426,0,1,1-5.873-4.937A5.426,5.426,0,0,1,174.82,164.768Z" transform="translate(-157.045 -111.577)" fill="#fff" stroke="#263238" stroke-width="1"/>
        <path id="Path_208" data-name="Path 208" d="M162.121,176.437a3.02,3.02,0,1,1-3.269-2.747A3.02,3.02,0,0,1,162.121,176.437Z" transform="translate(-156.093 -113.248)" fill="#fff" stroke="#263238" stroke-width="1"/>
        <g id="Group_112" data-name="Group 112" transform="translate(0.022)">
          <path id="Path_209" data-name="Path 209" d="M214.446,132.929a15.845,15.845,0,0,1-21.884,16.511,13.29,13.29,0,0,1-21.142-.047,10.46,10.46,0,0,1-1.778.372,10.777,10.777,0,0,1-10.123-16.89,15.841,15.841,0,0,1,21.327-22.92,13.295,13.295,0,0,1,22.82,3.622,8.519,8.519,0,0,1,1.705-.384,8.7,8.7,0,0,1,7.476,14.489A15.441,15.441,0,0,1,214.446,132.929Z" transform="translate(-156.118 -104.968)" fill="#fff" stroke="#263238" stroke-width="1"/>
        </g>
        <g id="Group_115" data-name="Group 115" transform="translate(13.459 11.689)">
          <g id="Group_113" data-name="Group 113" transform="translate(17.802)">
            <path id="Path_210" data-name="Path 210" d="M198.238,134.1l-.5,2.4a1.805,1.805,0,0,1-2.187,1.433,1.852,1.852,0,0,1-1.434-2.187l.8-3.842c.007-.037.044-.029.052-.066-.029-.045-.029-.045-.021-.082a1.9,1.9,0,0,1,2.187-1.434,4.227,4.227,0,1,0,1.724-8.276,4.168,4.168,0,0,0-3.97,1.294,1.862,1.862,0,0,1-2.651.142,1.839,1.839,0,0,1-.113-2.606,7.932,7.932,0,1,1,6.112,13.223Zm-1.686,8.092-.138.665a1.805,1.805,0,0,1-2.187,1.433,1.852,1.852,0,0,1-1.434-2.187l.138-.665A1.878,1.878,0,0,1,195.119,140,1.828,1.828,0,0,1,196.552,142.191Z" transform="translate(-191.638 -118.259)" fill="#ff6f35"/>
          </g>
          <g id="Group_114" data-name="Group 114" transform="translate(0 0.011)">
            <path id="Path_211" data-name="Path 211" d="M176.58,129.224l-.3-2.434a1.806,1.806,0,0,1,1.609-2.062,1.852,1.852,0,0,1,2.062,1.608l.482,3.9c0,.038-.033.042-.028.08.042.033.042.033.047.07a1.9,1.9,0,0,1-1.609,2.062,4.227,4.227,0,1,0,1.039,8.389,4.17,4.17,0,0,0,3.34-2.5,1.862,1.862,0,0,1,2.463-.989,1.839,1.839,0,0,1,.947,2.431,7.932,7.932,0,1,1-10.051-10.545Zm-1.015-8.2-.084-.674a1.806,1.806,0,0,1,1.609-2.062,1.852,1.852,0,0,1,2.062,1.608l.084.675a1.878,1.878,0,0,1-1.609,2.062A1.829,1.829,0,0,1,175.565,121.021Z" transform="translate(-171.397 -118.271)" fill="#ff6f35"/>
          </g>
        </g>
      </g>
    </g>
  </g>
</svg>
