<svg xmlns="http://www.w3.org/2000/svg" xmlns:xlink="http://www.w3.org/1999/xlink" width="294.712" height="224.357" viewBox="0 0 294.712 224.357">
  <defs>
    <linearGradient id="linear-gradient" x1="1.124" y1="1.3" x2="0.239" y2="0.188" gradientUnits="objectBoundingBox">
      <stop offset="0" stop-color="#fff"/>
      <stop offset="1" stop-color="#e9effd"/>
    </linearGradient>
  </defs>
  <g id="Group_1165" data-name="Group 1165" transform="translate(-50.198 -79.43)">
    <path id="Path_1764" data-name="Path 1764" d="M668.614,669.383a81.729,81.729,0,0,1-12.55,10.4c-40.939,28.913-89.381,20.485-99.677,18.427-15.2-3.039-44.59-8.914-65.836-33.506-32.144-37.206-27.138-95.823-2.206-134.517,4.561-7.078,28.651-46.361,77.615-52.661,29.632-3.813,64.174,3.877,89.188,24.5C707.657,545.329,703.919,632.8,668.614,669.383Z" transform="translate(-388.886 -397.154)" fill="url(#linear-gradient)"/>
    <g id="Plant" transform="translate(226.1 172.345)">
      <g id="Group_18" data-name="Group 18" transform="translate(0 0)">
        <g id="Group_9" data-name="Group 9" transform="translate(5.343)">
          <path id="Path_14" data-name="Path 14" d="M390.576,347.851a31.694,31.694,0,0,1-.617,12.188,33.564,33.564,0,0,1-1.867,5.388c-.969,2.23-1.983,4.407-1.739,6.847.236.158-.573.132-.6-.106-6.52-3.712-14.882-4.392-19.9-10.462a20.791,20.791,0,0,1-4.144-10.161,30.889,30.889,0,0,1,.235-12.27,12.485,12.485,0,0,1,5.9-8.117c3.207-1.668,7.408-1.529,10.786-.481C385.923,332.941,389.546,340.8,390.576,347.851Z" transform="translate(-361.214 -329.895)" fill="#69d55a"/>
          <g id="Group_8" data-name="Group 8" transform="translate(4.352 7.187)">
            <path id="Path_15" data-name="Path 15" d="M396.037,398.872c-.89-2.966-1.779-5.932-2.692-8.89-1.79-5.8-3.649-11.568-5.708-17.274q-1.85-5.126-3.9-10.154a61.629,61.629,0,0,1,.778-6.3c.546-2.528,1.337-4.969,2.075-7.443.046-.152-.2-.233-.263-.088-1.464,3.408-3.374,7.769-3.422,11.805q-2.388-5.689-5.124-11.216a48.038,48.038,0,0,1,.287-9.343.112.112,0,0,0-.22-.043,33.08,33.08,0,0,0-.638,8.247q-2.1-4.15-4.449-8.192c-.142-.243-.477.005-.353.244,2.45,4.718,4.723,9.535,6.855,14.415a31.365,31.365,0,0,0-10.222-5.92c-.162-.058-.285.177-.119.247a37.191,37.191,0,0,1,11.057,7.32q2.3,5.361,4.383,10.807a33.991,33.991,0,0,0-15.062-8.041c-.184-.048-.233.233-.056.286,6.25,1.882,11.1,5.425,15.857,9.682q.828,2.2,1.626,4.412,3.021,8.381,5.752,16.863,1.315,4.063,2.588,8.139c.912,2.924,1.625,6.011,2.812,8.834.113.27.6.208.536-.115A84.346,84.346,0,0,0,396.037,398.872Z" transform="translate(-367.68 -339.837)" fill="#263238"/>
            <path id="Path_16" data-name="Path 16" d="M390.6,346.81a16.211,16.211,0,0,0-2.348,5.853c-.01.053.074.085.094.031a50.486,50.486,0,0,1,2.546-5.743C390.992,346.761,390.712,346.641,390.6,346.81Z" transform="translate(-373.06 -341.747)" fill="#263238"/>
            <path id="Path_17" data-name="Path 17" d="M373.146,364.879a17.174,17.174,0,0,0-5.851-1.97c-.053-.007-.086.071-.031.093.94.39,1.929.663,2.881,1.029s1.888.813,2.854,1.149A.168.168,0,0,0,373.146,364.879Z" transform="translate(-367.235 -346.232)" fill="#263238"/>
            <path id="Path_18" data-name="Path 18" d="M370.1,342.578a11.5,11.5,0,0,0-1.882-1.162.1.1,0,0,0-.108.165,11.473,11.473,0,0,0,1.855,1.2C370.087,342.856,370.22,342.656,370.1,342.578Z" transform="translate(-367.469 -340.272)" fill="#263238"/>
          </g>
        </g>
        <g id="Group_11" data-name="Group 11" transform="translate(35.681 4.492)">
          <path id="Path_19" data-name="Path 19" d="M424.493,371.718c-4.7,1.394-9.416,2.682-14.111,4.06-.408.122-8.346-15.089-5.477-22.925a25.579,25.579,0,0,1,15.96-15.145c3.353-1.139,7.476-2.1,11.018-1.314a9.148,9.148,0,0,1,6.4,6.236c1.394,4.026.93,8.827.171,12.938a22.6,22.6,0,0,1-4.62,10.558C431.336,369.091,428.155,370.633,424.493,371.718Z" transform="translate(-403.489 -336.109)" fill="#69d55a"/>
          <g id="Group_10" data-name="Group 10" transform="translate(0 4.342)">
            <path id="Path_20" data-name="Path 20" d="M431,360.844a62.674,62.674,0,0,1-9.207,3.625,38.592,38.592,0,0,0-6.146,2.225c1.983-4.421,4.159-8.75,6.469-13.039a21.089,21.089,0,0,0,8.511-4.394.131.131,0,0,0-.171-.2,42.719,42.719,0,0,1-8.03,4.025c.625-1.154,1.254-2.307,1.9-3.457.179-.32-.262-.638-.477-.327a99.33,99.33,0,0,0-6.672,11.206,51.258,51.258,0,0,1-.482-10.267.069.069,0,0,0-.137-.01,34.182,34.182,0,0,0,.116,11.281c-1.647,3.287-3.147,6.655-4.5,10.064-.536-2.049-1.232-4.065-1.7-6.13a28.167,28.167,0,0,1-.675-9.04c.009-.089-.122-.095-.136-.009a31.868,31.868,0,0,0,1.97,16.593c-.785,2.052-1.534,4.113-2.218,6.177a123.1,123.1,0,0,0-6.233,32.581.2.2,0,0,0,.4.028,161.59,161.59,0,0,1,7-32.2c1.362-4.094,2.93-8.069,4.649-11.969,2.773-.82,5.536-1.932,8.261-2.875A25.964,25.964,0,0,0,431.1,361,.1.1,0,0,0,431,360.844Z" transform="translate(-403.185 -344.034)" fill="#263238"/>
            <path id="Path_21" data-name="Path 21" d="M444.447,359.257c-2.872,1.021-5.594,2.451-8.463,3.487-.134.048-.056.262.08.234a19.294,19.294,0,0,0,8.493-3.556C444.65,359.345,444.547,359.221,444.447,359.257Z" transform="translate(-412.256 -346.865)" fill="#263238"/>
            <path id="Path_22" data-name="Path 22" d="M414.829,350.623c.035-.152-.188-.24-.234-.083-.787,2.647-1.332,5.457-.565,8.162.03.106.2.11.2-.012C414.371,355.964,414.218,353.311,414.829,350.623Z" transform="translate(-406.088 -344.428)" fill="#263238"/>
            <path id="Path_23" data-name="Path 23" d="M431.214,342.2a7.013,7.013,0,0,0-1.246,4.5c0,.1.166.16.193.04.35-1.514.935-2.894,1.4-4.365A.2.2,0,0,0,431.214,342.2Z" transform="translate(-410.606 -342.117)" fill="#263238"/>
          </g>
        </g>
        <g id="Group_13" data-name="Group 13" transform="translate(0 37.394)">
          <path id="Path_24" data-name="Path 24" d="M354.652,391.043c1.377,4.37,4.648,10.41,9.828,10.457,3.358.032,6.74-.366,10.107-.414,3.6-.056,7.218-.048,10.815.168.294.015-.432-10.8-9.1-16.06-2.427-1.475-5.4-1.942-8.149-2.539a37.729,37.729,0,0,0-9.629-1c-1.989.08-3.645.5-4.353,2.539C353.435,386.325,353.991,388.967,354.652,391.043Z" transform="translate(-353.823 -381.627)" fill="#69d55a"/>
          <g id="Group_12" data-name="Group 12" transform="translate(2.742 1.885)">
            <path id="Path_25" data-name="Path 25" d="M360.024,386.3c2.106.541,4.23,1.164,6.343,1.835a21.957,21.957,0,0,0-1.746-1.7c-.907-.755-1.905-1.357-2.879-2.018-.082-.055-.033-.212.072-.171a11.887,11.887,0,0,1,5.11,4.064c2.633.851,5.241,1.79,7.752,2.82a29.252,29.252,0,0,1,4.964,2.614,20.042,20.042,0,0,0-1.8-3.125,17.462,17.462,0,0,0-4.211-3.379.134.134,0,0,1,.135-.231,12.322,12.322,0,0,1,6.757,7.327,28.866,28.866,0,0,1,4.915,4.463c5.732,6.511,10.247,15.174,10.264,24.014,0,.211-.338.27-.379.051a48.994,48.994,0,0,0-10.932-23.482c-.41-.479-.831-.935-1.26-1.376a39.657,39.657,0,0,0-4.736-.351c-1.845.028-3.675.271-5.511.421-3.024.246-6.369.281-9.1-1.24-.12-.067-.039-.276.1-.228,6.082,2.212,12.462-.593,18.558.726a28.493,28.493,0,0,0-8.991-5.8c-.186-.077-.373-.148-.559-.223-3.9.469-8.024,1.486-11.826.218a.093.093,0,0,1,.05-.18c3.673.917,7.2-.236,10.82-.42-3.947-1.537-7.969-2.76-11.929-4.285C359.672,386.51,359.664,386.206,360.024,386.3Z" transform="translate(-358.209 -384.235)" fill="#263238"/>
            <path id="Path_26" data-name="Path 26" d="M357.709,392.406a52.337,52.337,0,0,0,5.681.431c.043,0,.057.069.011.079a11.768,11.768,0,0,1-5.732-.366A.075.075,0,0,1,357.709,392.406Z" transform="translate(-357.616 -386.499)" fill="#263238"/>
            <path id="Path_27" data-name="Path 27" d="M375.415,387.219a9.315,9.315,0,0,1,2.812,1.955c.1.087-.034.265-.143.186-.476-.348-.967-.674-1.462-.994a13.727,13.727,0,0,1-1.37-.867C375.123,387.393,375.261,387.165,375.415,387.219Z" transform="translate(-362.49 -385.06)" fill="#263238"/>
          </g>
        </g>
        <g id="Group_15" data-name="Group 15" transform="translate(33.156 41.608)">
          <path id="Path_28" data-name="Path 28" d="M417.815,401.355c-.064.143.143.278.223.127.008,0,.008,0,.008-.008a.2.2,0,0,0,.135.087,87.08,87.08,0,0,0,10.585,1.846c2.865.255,6.167.414,8.674-1.249,3.4-2.252,5.635-8.276,3.8-12.1-2.173-4.544-8.722-2.077-12.009-.462A24.114,24.114,0,0,0,417.815,401.355Z" transform="translate(-404.712 -387.456)" fill="#69d55a"/>
          <g id="Group_14" data-name="Group 14" transform="translate(0 2.658)">
            <path id="Path_29" data-name="Path 29" d="M410.255,404.475a33.781,33.781,0,0,1,6.32-4.81,21.624,21.624,0,0,1,6.409-6.532c.124-.086.231.111.116.2a28.937,28.937,0,0,0-5.4,5.681,59.617,59.617,0,0,1,7.929-3.607,10.563,10.563,0,0,1,4.259-4.268c.035-.018.081.031.046.059a17.483,17.483,0,0,0-3.847,4.037c1.611-.6,3.238-1.162,4.864-1.7.147-.048.2.174.063.228-2.895,1.131-5.854,2.324-8.723,3.7a33.6,33.6,0,0,0,10.563-.031c.1-.017.139.122.042.15a20.829,20.829,0,0,1-11.208.168,52.48,52.48,0,0,0-5.316,2.977,13.318,13.318,0,0,1,4.3.351,32.7,32.7,0,0,0,7.551.855c.1,0,.121.154.024.171-4.38.754-8.522-1.237-12.864-.719a33.62,33.62,0,0,0-4.521,3.693,33.975,33.975,0,0,0-6.594,9.3c-1.828,3.72-2.819,7.664-4.3,11.506a.14.14,0,0,1-.27-.074C400.961,418.234,404.734,409.876,410.255,404.475Z" transform="translate(-399.692 -391.134)" fill="#263238"/>
            <path id="Path_30" data-name="Path 30" d="M432.579,394.319a4.972,4.972,0,0,1,1.122-1.36,4.415,4.415,0,0,1,1.293-.968c.044-.017.068.043.042.072-.359.408-.859.706-1.246,1.1s-.713.853-1.109,1.239A.065.065,0,0,1,432.579,394.319Z" transform="translate(-408.805 -391.37)" fill="#263238"/>
            <path id="Path_31" data-name="Path 31" d="M442.548,398.134c.649-.163,1.337-.152,2-.286a19.164,19.164,0,0,0,1.936-.58.078.078,0,0,1,.06.142,6.433,6.433,0,0,1-3.994.928A.107.107,0,0,1,442.548,398.134Z" transform="translate(-411.549 -392.833)" fill="#263238"/>
          </g>
        </g>
        <g id="Group_17" data-name="Group 17" transform="translate(23.959 67.825)">
          <g id="Group_16" data-name="Group 16" transform="translate(1.71 1.781)">
            <path id="Path_32" data-name="Path 32" d="M389.334,426.19l.575,6.53,1.951,22.046h17.266l2.438-22.046.72-6.53Z" transform="translate(-389.334 -426.19)" fill="#37474f"/>
            <path id="Path_33" data-name="Path 33" d="M389.334,426.19l.575,6.53h21.655l.72-6.53Z" transform="translate(-389.334 -426.19)" fill="#263238"/>
          </g>
          <rect id="Rectangle_12" data-name="Rectangle 12" width="26.369" height="5.297" transform="translate(26.369 5.297) rotate(180)" fill="#37474f"/>
        </g>
      </g>
    </g>
    <g id="Floor" transform="translate(51.578 270.527)">
      <line id="Line_2" data-name="Line 2" x2="292.832" transform="translate(0)" fill="none" stroke="#c1c1c1" stroke-linecap="round" stroke-linejoin="round" stroke-width="1"/>
    </g>
    <g id="Character" transform="translate(50.198 92.637)">
      <g id="Group_52" data-name="Group 52" transform="translate(0 38.858)">
        <g id="Group_51" data-name="Group 51" transform="translate(27.924 105.377)">
          <path id="Path_127" data-name="Path 127" d="M125.9,419.162,84.164,452.818h2.352l48.206-33.656Z" transform="translate(-84.164 -419.162)" fill="#c7c7c7"/>
          <path id="Path_128" data-name="Path 128" d="M139.425,419.162,118.8,452.818h2.352l25.279-33.656Z" transform="translate(-93.764 -419.162)" fill="#c7c7c7"/>
          <path id="Path_129" data-name="Path 129" d="M158.636,419.162l20.625,33.656h-2.351l-25.279-33.656Z" transform="translate(-102.863 -419.162)" fill="#c7c7c7"/>
          <path id="Path_130" data-name="Path 130" d="M162.925,419.162l41.739,33.656h-2.351l-48.206-33.656Z" transform="translate(-103.55 -419.162)" fill="#c7c7c7"/>
        </g>
        <path id="Path_131" data-name="Path 131" d="M202.5,366.411v-9.847l-57.318-2.352L114.9,273.38H45.533l24.544,93.031,58.641,16.46h3.674Z" transform="translate(-45.533 -273.38)" fill="#455a64"/>
        <path id="Path_132" data-name="Path 132" d="M45.533,273.38h7.936l25.573,84.8,51.88,14.7L202.5,356.565v9.847l-70.1,16.46h-3.674l-58.641-16.46Z" transform="translate(-45.533 -273.38)" opacity="0.1"/>
      </g>
      <g id="Group_118" data-name="Group 118" transform="translate(27.107 0)">
        <g id="Group_59" data-name="Group 59" transform="translate(22.921 74.896)">
          <g id="Group_56" data-name="Group 56" transform="translate(33.899 43.41)">
            <path id="Path_133" data-name="Path 133" d="M203.472,458.18c-1.751-.666-41.1-32.9-41.819-35.079-.279-.825,4.082-6.829,9.557-13.933,1.182-1.535,2.412-3.112,3.671-4.706,8.156-10.364,17.053-21.17,17.053-21.17l26.381,21.487-17.779,20.579-3.9,4.52s9.543,19.08,10.081,21.554S205.223,458.846,203.472,458.18Z" transform="translate(-161.64 -383.291)" fill="#ad6359"/>
            <path id="Path_134" data-name="Path 134" d="M203.472,466.3c-1.751-.666-41.1-32.9-41.819-35.079-.335-1.005,6.171-9.66,13.227-18.64l25.655,20.9-3.9,4.52s9.543,19.08,10.081,21.554S205.223,466.964,203.472,466.3Z" transform="translate(-161.641 -391.409)" fill="#ebebeb"/>
            <g id="Group_55" data-name="Group 55" transform="translate(0 25.877)">
              <path id="Path_135" data-name="Path 135" d="M203.472,468.1c-1.751-.666-41.1-32.9-41.819-35.079-.279-.825,4.082-6.829,9.557-13.933L196.636,439.8s9.543,19.08,10.081,21.553S205.223,468.768,203.472,468.1Z" transform="translate(-161.64 -419.09)" fill="#ff6f35"/>
              <g id="Group_54" data-name="Group 54" transform="translate(2.632 8.993)">
                <g id="Group_53" data-name="Group 53">
                  <path id="Path_136" data-name="Path 136" d="M205.206,471.643c-6.463-5.566-33.054-27.4-39.865-32.414-.055-.04-.085,0-.033.042,6.285,5.656,33.052,27.278,39.81,32.481C205.26,471.862,205.343,471.761,205.206,471.643Z" transform="translate(-165.281 -433.66)" fill="#263238"/>
                  <path id="Path_137" data-name="Path 137" d="M218.411,472.088a6.849,6.849,0,0,0-5.265-1.622,6.636,6.636,0,0,0-4.359,2.314c-.031.04.04.1.08.065a7.914,7.914,0,0,1,9.476-.674A.054.054,0,0,0,218.411,472.088Z" transform="translate(-177.337 -442.308)" fill="#263238"/>
                  <path id="Path_138" data-name="Path 138" d="M209.045,450.329c-2.609-2.2-6.433-3.775-9.843-2.961-.132.032-.085.219.027.243a47.172,47.172,0,0,1,9.6,3.08A.215.215,0,0,0,209.045,450.329Z" transform="translate(-174.661 -435.861)" fill="#263238"/>
                  <path id="Path_139" data-name="Path 139" d="M210.964,453.738c-2.609-2.2-6.433-3.775-9.843-2.961-.132.032-.085.219.026.243a47.165,47.165,0,0,1,9.6,3.08A.215.215,0,0,0,210.964,453.738Z" transform="translate(-175.192 -436.805)" fill="#263238"/>
                  <path id="Path_140" data-name="Path 140" d="M212.883,457.146c-2.61-2.2-6.434-3.775-9.843-2.96-.132.032-.085.219.026.243a47.143,47.143,0,0,1,9.6,3.08A.215.215,0,0,0,212.883,457.146Z" transform="translate(-175.724 -437.75)" fill="#263238"/>
                  <path id="Path_141" data-name="Path 141" d="M214.8,460.555c-2.609-2.2-6.433-3.775-9.843-2.96-.132.031-.085.219.027.242a47.25,47.25,0,0,1,9.6,3.08A.214.214,0,0,0,214.8,460.555Z" transform="translate(-176.256 -438.695)" fill="#263238"/>
                  <path id="Path_142" data-name="Path 142" d="M172.932,432.213c-2.969-2.418-6.731,2.192-3.758,4.614S175.906,434.635,172.932,432.213Z" transform="translate(-166.059 -431.531)" fill="#fff"/>
                </g>
                <path id="Path_143" data-name="Path 143" d="M219.9,444.186c-.428-2.2-3-2.5-4.765-2.023a17.906,17.906,0,0,0-7.93,4.784.09.09,0,0,0,.02.143.417.417,0,0,0,.3.6c2.944.24,6.062.861,8.993.19C218.233,447.491,220.308,446.269,219.9,444.186Zm-7.836,2.957c-1.451-.083-2.889-.236-4.343-.265a53.694,53.694,0,0,1,4.693-2.693,19.425,19.425,0,0,1,2.423-.99c1.288-.4,5.687-.485,3.6,2.6C217.284,447.5,213.8,447.241,212.067,447.143Z" transform="translate(-176.894 -434.424)" fill="#263238"/>
                <path id="Path_144" data-name="Path 144" d="M196.493,440.594c2.009,2.236,4.917,3.525,7.462,5.024a.417.417,0,0,0,.592-.32.09.09,0,0,0,.1-.1,17.9,17.9,0,0,0-3.726-8.479c-1.17-1.406-3.442-2.644-5.061-1.091C194.327,437.1,195.32,439.289,196.493,440.594Zm-.362-2.808c.069-3.728,3.616-1.126,4.438-.056a19.365,19.365,0,0,1,1.41,2.205,53.81,53.81,0,0,1,2.285,4.9c-1.206-.814-2.469-1.517-3.7-2.285C199.09,441.64,196.092,439.841,196.131,437.786Z" transform="translate(-173.539 -432.466)" fill="#263238"/>
              </g>
            </g>
          </g>
          <g id="Group_58" data-name="Group 58">
            <path id="Path_145" data-name="Path 145" d="M232.717,347.766c-1.994,13.818-36.587,53.355-40.584,57.89l-.91,1.032-27.949-22.024.33-.415,25.24-32.228-74.1-1.337,28.4-21.535s2.267,1.344,7.02.709c16.384-2.195,53.322-7.046,62.012-6.59C223.388,323.864,234.546,335.088,232.717,347.766Z" transform="translate(-114.743 -323.236)" fill="#263238"/>
            <g id="Group_57" data-name="Group 57" transform="translate(54.24 16.786)">
              <path id="Path_146" data-name="Path 146" d="M225.847,346.473a33.163,33.163,0,0,0-2.6,3.253c-.892,1.141-1.8,2.27-2.69,3.412l-.026.034c.16-.335.317-.672.482-1,.567-1.14,1.025-2.319,1.692-3.407a.06.06,0,0,0-.1-.064c-.686,1.08-1.48,2.1-2.069,3.243q-.417.8-.787,1.629c-.134.3-.273.6-.394.911a4.632,4.632,0,0,0-.166.441c-.4.53-.794,1.063-1.178,1.6-.851,1.2-1.6,2.473-2.466,3.665-.046.064.055.125.1.064.871-1.12,1.846-2.162,2.73-3.273.9-1.131,1.756-2.3,2.6-3.467.825-1.144,1.633-2.3,2.456-3.446a34.507,34.507,0,0,0,2.487-3.539C225.94,346.487,225.885,346.435,225.847,346.473Z" transform="translate(-196.917 -346.46)" fill="#37474f"/>
              <path id="Path_147" data-name="Path 147" d="M215.878,422.248c-1.592-1.389-3.3-2.666-4.973-3.954s-3.369-2.577-5.064-3.852c-3.392-2.55-6.77-5.124-10.2-7.628-1.882-1.376-3.778-2.732-5.732-4-.087-.057-.179.082-.1.148,3.222,2.757,6.647,5.262,10.036,7.807s6.8,5.09,10.232,7.588c1.879,1.367,3.749,2.779,5.708,4.028C215.865,422.432,215.947,422.308,215.878,422.248Z" transform="translate(-189.781 -362.074)" fill="#37474f"/>
            </g>
          </g>
        </g>
        <g id="Group_109" data-name="Group 109">
          <g id="Group_68" data-name="Group 68" transform="translate(39.855 15.84)">
            <g id="Group_65" data-name="Group 65" transform="translate(0.397)">
              <path id="Path_148" data-name="Path 148" d="M141.57,276.763c7.687,14.638,16.808,30.171,25.454,32.422,8.224,2.141,27.79-18.35,31.108-25.152,1.144-2.346-14.346-12.619-16.539-10.893-4.132,3.254-13.18,13.566-14.468,13.308-1.34-.275-12.267-10.039-22.168-18.256C138.955,263.211,136.245,266.624,141.57,276.763Z" transform="translate(-138.719 -248.297)" fill="#ad6359"/>
              <g id="Group_64" data-name="Group 64" transform="translate(38.152)">
                <g id="Group_60" data-name="Group 60" transform="translate(1.513)">
                  <path id="Path_149" data-name="Path 149" d="M199.6,242.6l-5.92,20.724c-.242.606.049,1.114.652,1.133l10.78.339a1.748,1.748,0,0,0,1.53-1.064l5.92-20.724c.243-.607-.05-1.114-.651-1.133l-10.78-.339A1.745,1.745,0,0,0,199.6,242.6Z" transform="translate(-193.592 -241.536)" fill="#a6a6a6"/>
                  <path id="Path_150" data-name="Path 150" d="M201.368,242.641l-5.92,20.724c-.243.606.049,1.114.652,1.133l10.779.339a1.746,1.746,0,0,0,1.53-1.064l5.921-20.724c.243-.607-.05-1.114-.651-1.133l-10.78-.339A1.745,1.745,0,0,0,201.368,242.641Z" transform="translate(-194.083 -241.547)" fill="#dbdbdb"/>
                  <path id="Path_151" data-name="Path 151" d="M207.016,244.128a.916.916,0,1,1-.866-.964A.915.915,0,0,1,207.016,244.128Z" transform="translate(-196.805 -241.987)" fill="#455a64"/>
                </g>
                <path id="Path_152" data-name="Path 152" d="M224.944,268.212c.909-6.024.218-7.71,3.686-12.387,2.275-3.068,1.292-5.838-2.288-4.114-5.854,2.821-8.66,10.346-8.881,13.236Z" transform="translate(-198.695 -244.209)" fill="#ad6359"/>
                <g id="Group_61" data-name="Group 61" transform="translate(4.202 1.12)">
                  <path id="Path_153" data-name="Path 153" d="M211.588,281.755s5.622-6.563,7.225-12.887c1.11-4.373,2.462-14.155-7.1-23.64-2.268-2.249-7.094-3.847-4.725,1.172,1.683,3.565,3.827,5.317,4.428,7.57,0,0-6.38-1.3-8.545,1.056a58.992,58.992,0,0,0-5.218,6.568,12.382,12.382,0,0,0,1.142,1.086s-1.814,2.4-1.433,6.947Z" transform="translate(-197.312 -243.086)" fill="#ad6359"/>
                </g>
                <path id="Path_154" data-name="Path 154" d="M217.6,266.519c-1.069-2.109-3.41-6.541-6.586-9.5-3.527-3.287-11.209-8.669-13.609-6.039-1.759,1.928.992,4.24.992,4.24s-3.644-1.555-4.852.534c-1.1,1.9,1.135,3.565,1.135,3.565s-2.372-.563-3.08,1.475c-.852,2.452,4.261,3.23,5.544,6.458C197.426,267.976,217.6,266.519,217.6,266.519Z" transform="translate(-191.499 -243.959)" fill="#ad6359"/>
                <g id="Group_62" data-name="Group 62" transform="translate(6.869 11.224)">
                  <path id="Path_155" data-name="Path 155" d="M210.791,263.206a19.21,19.21,0,0,0-9.669-6.138c-.1-.022-.165.04-.081.078a47.349,47.349,0,0,1,9.719,6.093C210.781,263.256,210.806,263.227,210.791,263.206Z" transform="translate(-201.003 -257.064)" fill="#263238"/>
                </g>
                <g id="Group_63" data-name="Group 63" transform="translate(3.101 15.278)">
                  <path id="Path_156" data-name="Path 156" d="M205.924,268.225a21.558,21.558,0,0,0-10.019-5.549c-.1-.019-.161.048-.076.082a50.71,50.71,0,0,1,10.066,5.5C205.917,268.276,205.942,268.244,205.924,268.225Z" transform="translate(-195.79 -262.672)" fill="#263238"/>
                </g>
              </g>
            </g>
            <g id="Group_67" data-name="Group 67" transform="translate(0 17.32)">
              <g id="Group_66" data-name="Group 66">
                <path id="Path_157" data-name="Path 157" d="M176.105,275.685l16.137,17.11S175.2,311.9,167.2,309.9s-23.13-23.656-27.981-37.406c-3.355-9.514,1.939-7.987,7.5-3.322s20.1,16.242,20.731,16.069S176.105,275.685,176.105,275.685Z" transform="translate(-138.17 -265.497)" fill="#4f52ff"/>
              </g>
              <path id="Path_158" data-name="Path 158" d="M170.64,309.728a6.867,6.867,0,0,1-3.441.178c-8-2-23.129-23.656-27.979-37.406-2.211-6.271-.668-7.743,2.24-6.677C150.177,278.757,161.781,296.091,170.64,309.728Z" transform="translate(-138.17 -265.5)" opacity="0.1"/>
              <path id="Path_159" data-name="Path 159" d="M200.572,301.5c-2.337-2.359-11.547-12.363-13.391-14.66-.128-.159-.059-.279.1-.13a179.971,179.971,0,0,1,13.386,14.694C200.716,301.467,200.631,301.561,200.572,301.5Z" transform="translate(-151.735 -271.358)" fill="#263238"/>
            </g>
          </g>
          <g id="Group_88" data-name="Group 88" transform="translate(7.791)">
            <g id="Group_72" data-name="Group 72" transform="translate(0 31.291)">
              <g id="Group_70" data-name="Group 70">
                <g id="Group_69" data-name="Group 69">
                  <path id="Path_160" data-name="Path 160" d="M147.067,322.248s-52.976,9.688-53.248,9.364c-.244-.283,5.83-57.592,23.811-67.278,2.851-1.535,9.732-2.44,12.668.558C138.673,273.439,147.762,321.471,147.067,322.248Z" transform="translate(-93.812 -262.911)" fill="#4f52ff"/>
                </g>
              </g>
              <g id="Group_71" data-name="Group 71" transform="translate(0.531 43.802)">
                <path id="Path_161" data-name="Path 161" d="M146.719,336.406l-52.172,8.95c.2-1.575.459-3.456.785-5.57l50.425-8.652C146.143,333.133,146.465,334.917,146.719,336.406Z" transform="translate(-94.547 -325.622)" fill="#ebebeb"/>
                <path id="Path_162" data-name="Path 162" d="M145.675,326.224l-49.4,8.476q.229-1.406.5-2.9l48.331-8.292C145.31,324.435,145.5,325.347,145.675,326.224Z" transform="translate(-95.027 -323.508)" fill="#ebebeb"/>
              </g>
            </g>
            <g id="Group_87" data-name="Group 87" transform="translate(24.641)">
              <g id="Group_86" data-name="Group 86" transform="translate(0.539)">
                <g id="Group_74" data-name="Group 74" transform="translate(1.182 21.196)">
                  <g id="Group_73" data-name="Group 73">
                    <path id="Path_163" data-name="Path 163" d="M138.067,269.749c-2.956-.014-6.724-5.449-7.783-9.371-.071-.27.9-2.685,1.936-5.675.624-1.817,1.274-3.855,1.735-5.757l11.231,5.783a31.205,31.205,0,0,0-2.918,7.027,4.331,4.331,0,0,0-.107.8c0,.037,0,.083-.014.134C142.031,264.232,140.925,269.762,138.067,269.749Z" transform="translate(-130.281 -248.946)" fill="#ad6359"/>
                  </g>
                  <path id="Path_164" data-name="Path 164" d="M146.708,254.793a31.073,31.073,0,0,0-2.921,7.031,4.025,4.025,0,0,0-.106.8.623.623,0,0,1-.016.129,6.489,6.489,0,0,1-1.243-.231c-6.9-1.835-6.785-10.9-6.621-13.342Z" transform="translate(-131.798 -249.01)" fill="#263238"/>
                </g>
                <g id="Group_85" data-name="Group 85">
                  <g id="Group_75" data-name="Group 75" transform="translate(3.442 2.165)">
                    <path id="Path_165" data-name="Path 165" d="M134.338,228.552c-1.8,4.181-.891,16.932,1.879,20.058,4.015,4.532,11.277,5.724,15.3.74,3.9-4.831,2.426-21.428-.732-24.339C146.134,220.722,136.994,222.376,134.338,228.552Z" transform="translate(-133.409 -222.618)" fill="#ad6359"/>
                  </g>
                  <g id="Group_80" data-name="Group 80" transform="translate(13.198 12.846)">
                    <g id="Group_76" data-name="Group 76" transform="translate(0.994 3.609)">
                      <path id="Path_166" data-name="Path 166" d="M150.513,243.516c-.009-.032-.063.046-.059.081.106.849.083,1.839-.661,2.192-.024.011-.017.053.011.047C150.732,245.617,150.748,244.3,150.513,243.516Z" transform="translate(-148.695 -242.697)" fill="#263238"/>
                      <path id="Path_167" data-name="Path 167" d="M149.255,242.386c-1.379.022-1.234,2.778.044,2.758C150.556,245.123,150.411,242.367,149.255,242.386Z" transform="translate(-148.279 -242.386)" fill="#263238"/>
                    </g>
                    <g id="Group_77" data-name="Group 77" transform="translate(7.796 3.213)">
                      <path id="Path_168" data-name="Path 168" d="M157.72,243.137c.005-.033.069.036.069.072.018.855.183,1.832.97,2.075.025.007.025.051,0,.048C157.805,245.248,157.6,243.949,157.72,243.137Z" transform="translate(-157.689 -242.196)" fill="#263238"/>
                      <path id="Path_169" data-name="Path 169" d="M158.44,241.847c1.368-.176,1.621,2.572.353,2.736C157.546,244.744,157.294,242,158.44,241.847Z" transform="translate(-157.693 -241.839)" fill="#263238"/>
                    </g>
                    <path id="Path_170" data-name="Path 170" d="M147.719,239.95a10.676,10.676,0,0,0,1.048-.432,1.828,1.828,0,0,0,.984-.645.584.584,0,0,0-.131-.7,1.446,1.446,0,0,0-1.464-.072,2.125,2.125,0,0,0-1.175.982A.623.623,0,0,0,147.719,239.95Z" transform="translate(-146.904 -237.544)" fill="#263238"/>
                    <path id="Path_171" data-name="Path 171" d="M159.2,239.171a10.717,10.717,0,0,1-1.11-.226,1.824,1.824,0,0,1-1.089-.447.583.583,0,0,1,0-.713,1.447,1.447,0,0,1,1.425-.348,2.126,2.126,0,0,1,1.34.743A.623.623,0,0,1,159.2,239.171Z" transform="translate(-149.67 -237.393)" fill="#263238"/>
                    <path id="Path_172" data-name="Path 172" d="M150.062,254.014c.174.228.338.529.64.6a2.257,2.257,0,0,0,.94-.083.03.03,0,0,1,.03.049,1.153,1.153,0,0,1-1.14.306.912.912,0,0,1-.559-.844C149.969,253.99,150.036,253.981,150.062,254.014Z" transform="translate(-147.755 -241.995)" fill="#263238"/>
                    <g id="Group_79" data-name="Group 79" transform="translate(3.232 0.046)">
                      <g id="Group_78" data-name="Group 78">
                        <path id="Path_173" data-name="Path 173" d="M151.4,246.918a2.908,2.908,0,0,0,2.009,1.191,3.639,3.639,0,0,0,1.048-.008c.069,0,.317-.054.385-.072a.213.213,0,0,0,.161-.2v-.006c0-.032-.152-1.823-.152-1.823.246.108,1.5.593,1.462.251a43.741,43.741,0,0,0-1.592-8.738.079.079,0,0,0-.155.03c.2,2.736.879,5.418,1.123,8.164a5.079,5.079,0,0,0-1.394-.344c-.05.014.244,2.23.239,2.249a4.035,4.035,0,0,1-3.058-.776C151.405,246.792,151.341,246.853,151.4,246.918Z" transform="translate(-151.375 -237.457)" fill="#263238"/>
                      </g>
                    </g>
                  </g>
                  <g id="Group_81" data-name="Group 81" transform="translate(16.12 22.335)">
                    <path id="Path_174" data-name="Path 174" d="M154.057,251.6a3.627,3.627,0,0,1-1.449,1.131,1.637,1.637,0,0,1-.992.065c-.718-.186-.738-.844-.609-1.407a3.88,3.88,0,0,1,.319-.864A4.7,4.7,0,0,0,154.057,251.6Z" transform="translate(-150.947 -250.521)" fill="#263238"/>
                    <path id="Path_175" data-name="Path 175" d="M152.609,253.058a1.636,1.636,0,0,1-.992.065c-.718-.186-.738-.844-.609-1.407A1.686,1.686,0,0,1,152.609,253.058Z" transform="translate(-150.947 -250.852)" fill="#ff9cbd"/>
                  </g>
                  <g id="Group_82" data-name="Group 82">
                    <path id="Path_176" data-name="Path 176" d="M131.844,239.238c3.324.258,5.088-3.694,4.333-6.889,0,0,8.832,1.238,9.308-5.856a8.063,8.063,0,0,0,6.109,3.359l.583,2.493c.909-.256,1.893-2.826-.311-4.864a8.466,8.466,0,0,0-2.719-5.681,4.832,4.832,0,0,0-5.194-.765,7.311,7.311,0,0,0-5.322-1.353,6.235,6.235,0,0,0-4.623,3.353s-4.385.8-5.155,3.91a6.451,6.451,0,0,0,.824,5.2s-1.108,1.214-.57,3.873C129.456,237.728,130.846,239.16,131.844,239.238Z" transform="translate(-128.646 -219.622)" fill="#263238"/>
                    <path id="Path_177" data-name="Path 177" d="M148.182,228.252a8.32,8.32,0,0,1,.007,1.733,6.994,6.994,0,0,1-.333,1.675,4.469,4.469,0,0,1-2.065,2.532,7.231,7.231,0,0,1-3.266.794c-.572-.022-1.151,0-1.726-.057s-1.15-.138-1.733-.189c.564.142,1.136.258,1.709.389.577.1,1.167.113,1.754.172a7.156,7.156,0,0,0,3.465-.753,4.681,4.681,0,0,0,2.163-2.795A7.067,7.067,0,0,0,148.182,228.252Z" transform="translate(-131.534 -222.014)" fill="#263238"/>
                    <path id="Path_178" data-name="Path 178" d="M156.242,232.479a9.192,9.192,0,0,1-2.671-1.464,5.551,5.551,0,0,1-1.027-1.087,6.826,6.826,0,0,1-.733-1.349,3.778,3.778,0,0,0,.466,1.517,4.119,4.119,0,0,0,1.034,1.235,5.119,5.119,0,0,0,1.386.8A4.766,4.766,0,0,0,156.242,232.479Z" transform="translate(-135.067 -222.105)" fill="#263238"/>
                  </g>
                  <g id="Group_83" data-name="Group 83" transform="translate(1.884 13.528)">
                    <path id="Path_179" data-name="Path 179" d="M147.114,246.629a3.718,3.718,0,1,1,3.822-4.455h0a3.723,3.723,0,0,1-2.9,4.384A3.662,3.662,0,0,1,147.114,246.629Zm.336-6.93a3.22,3.22,0,1,0,3,2.574A3.22,3.22,0,0,0,147.45,239.7Z" transform="translate(-134.668 -238.576)" fill="#ffc727"/>
                    <path id="Path_180" data-name="Path 180" d="M159.174,245.763c-1.421-.069-2.639-1.587-2.772-3.522a4.445,4.445,0,0,1,.606-2.647,2.316,2.316,0,0,1,3.955-.27,4.436,4.436,0,0,1,.961,2.539c.139,2.045-.984,3.793-2.507,3.9A2.282,2.282,0,0,1,159.174,245.763Zm-.042-6.925a1.641,1.641,0,0,0-.189,0,1.985,1.985,0,0,0-1.514,1.019,3.951,3.951,0,0,0-.531,2.349c.121,1.772,1.232,3.145,2.486,3.058s2.166-1.6,2.045-3.368a3.939,3.939,0,0,0-.846-2.255A2.048,2.048,0,0,0,159.132,238.837Z" transform="translate(-138.219 -238.338)" fill="#ffc727"/>
                    <path id="Path_181" data-name="Path 181" d="M153.5,243.492l-.345-.358c.53-.511,1.788-1.235,2.759-.328l-.339.363C154.7,242.355,153.545,243.446,153.5,243.492Z" transform="translate(-137.322 -239.456)" fill="#ffc727"/>
                    <path id="Path_182" data-name="Path 182" d="M131.709,245.888l-.457-.2c.093-.213.932-2.085,2.027-2.341,1.024-.236,6.971-.154,7.255-.147l-.013.5a65.5,65.5,0,0,0-7.129.134C132.669,244,131.932,245.374,131.709,245.888Z" transform="translate(-131.252 -239.681)" fill="#ffc727"/>
                  </g>
                  <g id="Group_84" data-name="Group 84" transform="translate(1.072 15.82)">
                    <path id="Path_183" data-name="Path 183" d="M135.392,245.079s-2.468-4.305-4.4-3.461-.327,6.907,1.758,7.9a2.2,2.2,0,0,0,3.046-.915Z" transform="translate(-130.129 -241.508)" fill="#ad6359"/>
                    <path id="Path_184" data-name="Path 184" d="M132.01,244.049a.03.03,0,0,0-.017.056,5.566,5.566,0,0,1,2.555,3.728,1.216,1.216,0,0,0-1.783-.494c-.042.025-.009.09.033.085a1.356,1.356,0,0,1,1.443.6,6.513,6.513,0,0,1,.6,1.265c.059.142.309.092.272-.069l-.009-.036C135.32,247.263,134.064,244.429,132.01,244.049Z" transform="translate(-130.641 -242.212)" fill="#263238"/>
                  </g>
                </g>
              </g>
              <path id="Path_185" data-name="Path 185" d="M141.665,268.791a.021.021,0,0,0-.041,0c-.119,2.409-.559,7.979-4.44,7.215a8.487,8.487,0,0,1-3.992-2.463,30.345,30.345,0,0,1-5.184-7.44c-.032-.066-.124-.017-.1.054a18.9,18.9,0,0,0,1.889,4.028,18.673,18.673,0,0,0,3.179,3.965,8.5,8.5,0,0,0,4.268,2.449,3.187,3.187,0,0,0,3.475-1.932A12.918,12.918,0,0,0,141.665,268.791Z" transform="translate(-127.901 -232.496)" fill="#263238"/>
            </g>
          </g>
          <g id="Group_100" data-name="Group 100" transform="translate(0 33.795)">
            <g id="Group_99" data-name="Group 99">
              <g id="Group_96" data-name="Group 96" transform="translate(0.589 0.38)">
                <path id="Path_186" data-name="Path 186" d="M108.927,270.02c-8.272,7.251-29.472,35.78-24.266,41.894,5.243,6.157,37.924,1.87,47.333-1.507,2.8-1-5.681-18.678-8.782-19.382-2.581-.586-16.559,4.187-16.868,3.379-.35-.912,2.416-7.113,6.8-18.4C118.19,262.988,112.581,266.818,108.927,270.02Z" transform="translate(-83.848 -266.902)" fill="#ad6359"/>
                <g id="Group_95" data-name="Group 95" transform="translate(35.302 16.64)">
                  <g id="Group_94" data-name="Group 94">
                    <path id="Path_187" data-name="Path 187" d="M157.412,293.362c6.583-.253,8.312.692,13.755-2.471,3.572-2.076,6.43-.687,4.146,2.953-3.736,5.952-12.161,8.062-15.292,7.953Z" transform="translate(-139.539 -289.922)" fill="#ad6359"/>
                    <g id="Group_89" data-name="Group 89" transform="translate(0 3.413)">
                      <path id="Path_188" data-name="Path 188" d="M132.686,299.191a67.094,67.094,0,0,1,14.69-4.283c4.834-.666,15.51-.943,24.553,10.47,2.145,2.707,3.282,8.086-1.827,4.937-3.629-2.237-5.255-4.753-7.6-5.669,0,0,.633,7.014-2.163,9.056a63.692,63.692,0,0,1-7.687,4.818,13.313,13.313,0,0,1-1.031-1.357s-2.792,1.662-7.638.7Z" transform="translate(-132.686 -294.644)" fill="#ad6359"/>
                    </g>
                    <g id="Group_93" data-name="Group 93" transform="translate(16.065 3.777)">
                      <path id="Path_189" data-name="Path 189" d="M158.251,295.148c2.138,1.4,6.62,4.452,9.419,8.221,3.108,4.187,7.968,13.089,4.853,15.352-2.283,1.659-4.437-1.577-4.437-1.577s1.233,4.1-1.158,5.151c-2.178.955-3.694-1.649-3.694-1.649s.32,2.618-1.955,3.133c-2.737.62-2.959-4.967-6.273-6.735C154.26,316.647,158.251,295.148,158.251,295.148Z" transform="translate(-154.911 -295.148)" fill="#ad6359"/>
                      <g id="Group_92" data-name="Group 92" transform="translate(3.606 10.761)">
                        <g id="Group_90" data-name="Group 90" transform="translate(4.136)">
                          <path id="Path_190" data-name="Path 190" d="M165.666,310.042a20.776,20.776,0,0,1,5.433,11.13c.012.106-.062.173-.094.077a51.157,51.157,0,0,0-5.379-11.178C165.611,310.047,165.646,310.023,165.666,310.042Z" transform="translate(-165.622 -310.035)" fill="#263238"/>
                        </g>
                        <g id="Group_91" data-name="Group 91" transform="translate(0 3.259)">
                          <path id="Path_191" data-name="Path 191" d="M159.945,314.552a23.315,23.315,0,0,1,4.759,11.435c.008.107-.07.168-.1.072a54.851,54.851,0,0,0-4.7-11.479C159.889,314.554,159.927,314.532,159.945,314.552Z" transform="translate(-159.901 -314.544)" fill="#263238"/>
                        </g>
                      </g>
                    </g>
                  </g>
                  <path id="Path_192" data-name="Path 192" d="M173.917,308.421a17.5,17.5,0,0,1,4.986,3.431,29.343,29.343,0,0,0,2.553,2c.815.553,2.015,1.385,3.006.747a1.744,1.744,0,0,0,.564-1.689,8.52,8.52,0,0,0-.922-2.524c-.017-.03.034-.06.051-.03a12.154,12.154,0,0,1,1.057,2.271,2.826,2.826,0,0,1,.025,1.67c-.428,1.136-1.819,1.151-2.761.732a9.265,9.265,0,0,1-1.584-.973c-.484-.346-.95-.714-1.407-1.094-.938-.781-1.83-1.614-2.758-2.406a27.907,27.907,0,0,0-2.85-2.067C173.84,308.463,173.877,308.4,173.917,308.421Z" transform="translate(-144.098 -295.049)" fill="#263238"/>
                  <path id="Path_193" data-name="Path 193" d="M177.389,316.31a66.262,66.262,0,0,0-3.732-7.843.03.03,0,0,1,.048-.038,34.683,34.683,0,0,1,4.211,7.539,11.656,11.656,0,0,1,.866,4.592A2.457,2.457,0,0,1,176.5,323.1a2.879,2.879,0,0,1-1.85-.5,5.793,5.793,0,0,1-1.545-1.774c-.02-.033.025-.069.048-.037a4.1,4.1,0,0,0,3.082,1.9,2.018,2.018,0,0,0,1.441-.6,2.616,2.616,0,0,0,.532-1.745A12.133,12.133,0,0,0,177.389,316.31Z" transform="translate(-143.887 -295.049)" fill="#263238"/>
                </g>
              </g>
              <g id="Group_98" data-name="Group 98">
                <path id="Path_194" data-name="Path 194" d="M118.924,291.356,127,313.909s-40.929,4.974-43.683-2.34,15.527-33.024,23.328-40.262c9.041-8.389,9.764-5.155,7.157,2.823-2.73,8.352-7.585,20.341-7.585,20.341Z" transform="translate(-83.033 -266.376)" fill="#4f52ff"/>
                <g id="Group_97" data-name="Group 97" transform="translate(3.639 15.617)">
                  <path id="Path_195" data-name="Path 195" d="M97.466,309.4a46.941,46.941,0,0,1,6.181-2.844,45.734,45.734,0,0,1,6.458-1.868c1.251-.278,2.51-.5,3.771-.722a.03.03,0,0,1,.009.06,58.831,58.831,0,0,0-6.516,1.811q-3.192,1.055-6.339,2.224c-1.188.442-2.355.94-3.527,1.42A.045.045,0,0,1,97.466,309.4Z" transform="translate(-90.666 -292.412)" fill="#263238"/>
                  <path id="Path_196" data-name="Path 196" d="M127.678,297.27c-.207.033-11.515,2.549-11.891,2.68.063-.16,2.61-5.784,2.99-6.607.038-.082.072-.165.108-.247.238-.36.478-.719.7-1.088.286-.473.569-.95.853-1.425.008-.015-.012-.03-.022-.016q-.456.692-.911,1.385c-.14.214-.272.432-.4.651.253-.583.5-1.167.745-1.755.391-.937.752-1.884,1.111-2.834.012-.03-.034-.046-.048-.017-.751,1.639-1.553,3.254-2.309,4.891s-3.635,7.658-3.617,7.655c.019.018,12.483-3.045,12.726-3.118A.079.079,0,0,0,127.678,297.27Z" transform="translate(-95.528 -287.981)" fill="#263238"/>
                  <path id="Path_197" data-name="Path 197" d="M129.892,315.845c-.885-2.516-1.751-5.04-2.73-7.523-.556-1.411-1.105-2.825-1.675-4.231-.021-.053-.115-.024-.1.032.789,2.56,1.585,5.126,2.491,7.65s1.781,5.029,2.716,7.529q.8,2.133,1.72,4.21c.012.027.059.012.051-.017C131.663,320.906,130.783,318.377,129.892,315.845Z" transform="translate(-98.412 -292.439)" fill="#263238"/>
                  <path id="Path_198" data-name="Path 198" d="M128.875,331.706c-.335-.7-.745-1.709-1.108-2.4-.1-.182-.231-.16-.158.028.244.632.429,1.334.669,1.982-.573.056-1.148.1-1.72.16-.663.071-1.325.145-1.988.214q-1.946.2-3.9.364-3.95.327-7.911.487a153.368,153.368,0,0,1-15.893-.1c-1.479-.094-2.958-.217-4.43-.385a42.743,42.743,0,0,1-4.333-.645c-.039-.009-.053.057-.014.069a24.348,24.348,0,0,0,3.738.872q1.992.3,4,.481c2.664.236,5.34.331,8.013.353q7.953.067,15.894-.537,2.222-.167,4.44-.385c.746-.074,1.492-.147,2.236-.235A14.382,14.382,0,0,0,128.875,331.706Z" transform="translate(-88.068 -299.401)" fill="#263238"/>
                </g>
              </g>
            </g>
          </g>
          <g id="Group_108" data-name="Group 108" transform="translate(45.646 51.706)">
            <g id="Group_107" data-name="Group 107">
              <g id="Group_103" data-name="Group 103" transform="translate(0 29.51)">
                <g id="Group_101" data-name="Group 101">
                  <rect id="Rectangle_23" data-name="Rectangle 23" width="51.529" height="2.308" fill="#c7c7c7"/>
                </g>
                <g id="Group_102" data-name="Group 102" transform="translate(16.502)">
                  <path id="Path_199" data-name="Path 199" d="M204.038,331.98v2.308H169.011l1.766-2.308Z" transform="translate(-169.011 -331.98)" fill="#a6a6a6"/>
                </g>
              </g>
              <g id="Group_106" data-name="Group 106" transform="translate(23.587)">
                <g id="Group_104" data-name="Group 104">
                  <path id="Path_200" data-name="Path 200" d="M178.813,322.973h45.1l6.526-31.819h-45.1Z" transform="translate(-178.813 -291.155)" fill="#a6a6a6"/>
                </g>
                <g id="Group_105" data-name="Group 105" transform="translate(2.108)">
                  <path id="Path_201" data-name="Path 201" d="M181.728,322.973h45.1l6.526-31.819h-45.1Z" transform="translate(-181.728 -291.155)" fill="#c7c7c7"/>
                </g>
                <path id="Path_202" data-name="Path 202" d="M221.274,310.651a3.172,3.172,0,0,1-2.247,3.209,2.083,2.083,0,0,1-2.417-2.235,3.171,3.171,0,0,1,2.247-3.209A2.082,2.082,0,0,1,221.274,310.651Z" transform="translate(-189.288 -295.927)" fill="#fff"/>
              </g>
            </g>
          </g>
        </g>
        <g id="Group_117" data-name="Group 117" transform="translate(7.912 74.805)">
          <g id="Group_116" data-name="Group 116">
            <g id="Group_113" data-name="Group 113" transform="translate(119.356 59.754)">
              <path id="Path_203" data-name="Path 203" d="M334.027,420.791c-.672,1.749-33.034,40.989-35.214,41.706-.825.276-6.816-4.1-13.9-9.6-1.531-1.187-3.1-2.422-4.695-3.686-10.338-8.19-21.116-17.12-21.116-17.12l21.572-26.312,20.521,17.845,4.508,3.913s19.11-9.481,21.585-10.011S334.7,419.042,334.027,420.791Z" transform="translate(-259.101 -405.777)" fill="#ad6359"/>
              <path id="Path_204" data-name="Path 204" d="M342.124,425.264c-.672,1.749-33.034,40.989-35.214,41.706-1.007.331-9.64-6.2-18.6-13.288L309.291,428.1l4.508,3.913s19.11-9.481,21.585-10.011S342.8,423.515,342.124,425.264Z" transform="translate(-267.197 -410.25)" fill="#ebebeb"/>
              <g id="Group_112" data-name="Group 112" transform="translate(25.81 11.058)">
                <path id="Path_205" data-name="Path 205" d="M343.924,425.264c-.672,1.749-33.034,40.989-35.214,41.706-.825.276-6.816-4.1-13.9-9.6L315.6,432.009s19.11-9.481,21.585-10.011S344.6,423.515,343.924,425.264Z" transform="translate(-294.808 -421.308)" fill="#ff6f35"/>
                <g id="Group_111" data-name="Group 111" transform="translate(8.987)">
                  <g id="Group_110" data-name="Group 110" transform="translate(0 2.03)">
                    <path id="Path_206" data-name="Path 206" d="M347.458,425.509c-5.586,6.445-27.51,32.965-32.542,39.76-.041.055-.005.085.041.034,5.676-6.267,27.385-32.964,32.609-39.705C347.677,425.456,347.576,425.374,347.458,425.509Z" transform="translate(-309.363 -424.316)" fill="#263238"/>
                    <path id="Path_207" data-name="Path 207" d="M347.952,423.9a6.846,6.846,0,0,0-1.639,5.259,6.639,6.639,0,0,0,2.3,4.367c.04.031.1-.04.066-.079a7.915,7.915,0,0,1-.643-9.479A.053.053,0,0,0,347.952,423.9Z" transform="translate(-318.056 -423.884)" fill="#263238"/>
                    <path id="Path_208" data-name="Path 208" d="M326.159,433.067c-2.208,2.6-3.8,6.422-2.992,9.833.031.132.218.085.243-.025a47.194,47.194,0,0,1,3.11-9.586A.215.215,0,0,0,326.159,433.067Z" transform="translate(-311.596 -426.408)" fill="#263238"/>
                    <path id="Path_209" data-name="Path 209" d="M329.574,431.159c-2.208,2.6-3.8,6.422-2.993,9.833.031.132.219.086.243-.025a47.2,47.2,0,0,1,3.11-9.586A.214.214,0,0,0,329.574,431.159Z" transform="translate(-312.543 -425.879)" fill="#263238"/>
                    <path id="Path_210" data-name="Path 210" d="M332.989,429.251c-2.208,2.6-3.8,6.422-2.993,9.833.031.132.219.086.243-.025a47.18,47.18,0,0,1,3.111-9.586A.215.215,0,0,0,332.989,429.251Z" transform="translate(-313.489 -425.35)" fill="#263238"/>
                    <path id="Path_211" data-name="Path 211" d="M336.4,427.344c-2.208,2.6-3.8,6.421-2.993,9.833.031.132.219.086.243-.025a47.155,47.155,0,0,1,3.111-9.586A.215.215,0,0,0,336.4,427.344Z" transform="translate(-314.436 -424.822)" fill="#263238"/>
                    <path id="Path_212" data-name="Path 212" d="M307.928,470.682c-2.427,2.961,2.17,6.738,4.6,3.772S310.359,467.716,307.928,470.682Z" transform="translate(-307.241 -436.556)" fill="#fff"/>
                  </g>
                  <path id="Path_213" data-name="Path 213" d="M320.06,421.125c-2.2.421-2.508,2.991-2.038,4.759a17.9,17.9,0,0,0,4.759,7.945.09.09,0,0,0,.143-.02.417.417,0,0,0,.6-.3c.249-2.943.881-6.06.219-8.992C323.359,422.806,322.144,420.727,320.06,421.125Zm2.932,7.845c-.087,1.451-.245,2.888-.279,4.342a53.614,53.614,0,0,1-2.678-4.7,19.359,19.359,0,0,1-.982-2.427c-.4-1.29-.468-5.688,2.613-3.587C323.364,423.755,323.1,427.241,322.991,428.97Z" transform="translate(-310.176 -421.075)" fill="#263238"/>
                  <path id="Path_214" data-name="Path 214" d="M316.385,445.761c2.243-2,3.54-4.905,5.048-7.445a.417.417,0,0,0-.317-.594.09.09,0,0,0-.1-.1,17.909,17.909,0,0,0-8.49,3.7c-1.41,1.166-2.656,3.434-1.107,5.058C312.878,447.915,315.076,446.929,316.385,445.761Zm-2.81.353c-3.728-.082-1.114-3.621-.041-4.438a19.247,19.247,0,0,1,2.21-1.4A53.891,53.891,0,0,1,320.655,438c-.818,1.2-1.524,2.464-2.3,3.7C317.439,443.167,315.63,446.159,313.575,446.114Z" transform="translate(-308.199 -425.661)" fill="#263238"/>
                </g>
              </g>
            </g>
            <g id="Group_115" data-name="Group 115">
              <path id="Path_215" data-name="Path 215" d="M254.368,396.688l-24.017,28.468L157.9,373.568l-7.134-5.084s-2.054,1.347-5.142,3.006c-4.289,2.3-10.568,5.209-16.1,5.955-9.281,1.258-23.248.941-30.928-9.595-6.469-8.871-4.256-20.315-4.256-20.315l10.224-4.244s24.314-19.762,39.913-20.176c6.626-.183,16.207,4.953,25.074,10.305S254.368,396.688,254.368,396.688Z" transform="translate(-93.979 -323.11)" fill="#263238"/>
              <g id="Group_114" data-name="Group 114" transform="translate(3.453 3.558)">
                <path id="Path_216" data-name="Path 216" d="M164.047,379.786s-2.054,1.347-5.142,3.006c-5.343-6.557-16.678-18.485-17.021-18.907Z" transform="translate(-110.709 -337.969)" fill="#37474f"/>
                <path id="Path_217" data-name="Path 217" d="M114.793,341.888c-1.451.982-2.855,2.026-4.287,3.034-1.409.992-2.862,1.922-4.2,3.007-1.363,1.1-2.657,2.285-3.944,3.476-.62.575-1.236,1.154-1.837,1.75a16.588,16.588,0,0,0-1.755,1.86c-.046.064.044.14.1.1a19.773,19.773,0,0,0,1.947-1.546c.68-.558,1.353-1.125,2.03-1.687,1.308-1.084,2.639-2.137,3.944-3.225s2.5-2.265,3.781-3.359c1.374-1.171,2.821-2.26,4.246-3.366C114.848,341.914,114.823,341.869,114.793,341.888Z" transform="translate(-98.755 -331.871)" fill="#37474f"/>
                <path id="Path_218" data-name="Path 218" d="M297.731,421.1c-1.455,1.532-2.8,3.182-4.161,4.8s-2.718,3.257-4.064,4.9c-2.692,3.281-5.407,6.546-8.054,9.863-1.454,1.823-2.89,3.659-4.245,5.557-.061.085.074.183.144.108,2.891-3.1,5.54-6.417,8.227-9.7s5.374-6.576,8.016-9.9c1.446-1.819,2.935-3.628,4.267-5.532C297.914,421.119,297.794,421.032,297.731,421.1Z" transform="translate(-148.211 -353.821)" fill="#37474f"/>
                <path id="Path_219" data-name="Path 219" d="M217.206,417.53c-3.676-2.971-12.048-8.787-15.864-11.578-3.8-2.777-7.591-5.561-11.445-8.257-1.107-.774-2.224-1.532-3.34-2.294s-2.273-1.463-3.363-2.251c-.063-.046-.121.059-.059.1,1,.737,1.944,1.56,2.927,2.323.939.729,1.871,1.467,2.817,2.185,1.848,1.4,3.714,2.78,5.577,4.162q5.667,4.2,11.433,8.278c2.184,1.537,8.913,6.088,11.148,7.551C217.169,417.843,217.332,417.632,217.206,417.53Z" transform="translate(-122.135 -346.078)" fill="#37474f"/>
                <path id="Path_220" data-name="Path 220" d="M240.326,368.943c-3.4-2.886-11.151-8.446-14.715-11.118-3.6-2.7-7.191-5.431-10.81-8.115l-10.772-7.988c-3.481-2.581-6.944-5.2-10.626-7.5-2.015-1.255-4.083-2.42-6.21-3.473a40.949,40.949,0,0,0-6.429-2.717.061.061,0,0,0-.046.111c1.816,1.043,3.726,1.926,5.564,2.934q2.725,1.494,5.365,3.139c3.655,2.277,7.1,4.855,10.563,7.409,7.19,5.3,14.365,10.632,21.608,15.864,4.053,2.928,12.129,8.975,16.342,11.672C240.291,369.248,240.447,369.046,240.326,368.943Z" transform="translate(-121.464 -328.032)" fill="#37474f"/>
              </g>
            </g>
          </g>
        </g>
      </g>
    </g>
  </g>
</svg>
