<svg xmlns="http://www.w3.org/2000/svg" xmlns:xlink="http://www.w3.org/1999/xlink" width="280.262" height="280.353" viewBox="0 0 280.262 280.353">
  <defs>
    <linearGradient id="linear-gradient" x1="1.124" y1="1.3" x2="0.239" y2="0.188" gradientUnits="objectBoundingBox">
      <stop offset="0" stop-color="#fff"/>
      <stop offset="1" stop-color="#e9effd"/>
    </linearGradient>
    <linearGradient id="linear-gradient-2" x1="0.795" y1="-0.783" x2="0.434" y2="0.786" gradientUnits="objectBoundingBox">
      <stop offset="0" stop-color="#4042e2"/>
      <stop offset="1" stop-color="#4f52ff"/>
    </linearGradient>
    <linearGradient id="linear-gradient-3" x1="1.348" y1="-1.458" x2="4.594" y2="-8.947" gradientUnits="objectBoundingBox">
      <stop offset="0" stop-color="#09005d"/>
      <stop offset="1" stop-color="#1a0f91"/>
    </linearGradient>
    <linearGradient id="linear-gradient-4" x1="1.189" y1="-0.291" x2="7.612" y2="-7.225" gradientUnits="objectBoundingBox">
      <stop offset="0" stop-color="#fff"/>
      <stop offset="1" stop-color="#ff928e"/>
    </linearGradient>
    <linearGradient id="linear-gradient-5" x1="-20.41" y1="0.5" x2="-19.41" y2="0.5" xlink:href="#linear-gradient-3"/>
    <linearGradient id="linear-gradient-6" x1="-53.421" y1="-0.843" x2="-53.928" y2="2.39" gradientUnits="objectBoundingBox">
      <stop offset="0" stop-color="#febbba"/>
      <stop offset="1" stop-color="#ff928e"/>
    </linearGradient>
    <linearGradient id="linear-gradient-7" x1="-14.178" y1="0.5" x2="-13.178" y2="0.5" xlink:href="#linear-gradient-3"/>
    <linearGradient id="linear-gradient-8" x1="-48.352" y1="-2.028" x2="-48.832" y2="0.687" xlink:href="#linear-gradient-6"/>
    <linearGradient id="linear-gradient-9" x1="-7.309" y1="1.152" x2="-6.517" y2="-0.284" xlink:href="#linear-gradient-3"/>
    <linearGradient id="linear-gradient-10" x1="2.252" y1="-0.791" x2="-2.568" y2="2.342" xlink:href="#linear-gradient-2"/>
    <linearGradient id="linear-gradient-11" x1="1.219" y1="-0.107" x2="-1.203" y2="2.12" xlink:href="#linear-gradient-2"/>
    <linearGradient id="linear-gradient-12" x1="-17.788" y1="1.219" x2="-17.397" y2="0.33" xlink:href="#linear-gradient-6"/>
    <linearGradient id="linear-gradient-13" x1="1.312" y1="-4.691" x2="1.05" y2="-3.017" xlink:href="#linear-gradient-2"/>
    <linearGradient id="linear-gradient-14" x1="0.886" y1="-2.918" x2="0.734" y2="-1.558" xlink:href="#linear-gradient-2"/>
    <linearGradient id="linear-gradient-15" x1="-16.536" y1="0.277" x2="-18.795" y2="1.877" xlink:href="#linear-gradient-6"/>
    <linearGradient id="linear-gradient-16" x1="-12.351" y1="0.152" x2="-11.601" y2="1.129" xlink:href="#linear-gradient-3"/>
    <linearGradient id="linear-gradient-17" x1="-68.654" y1="-0.685" x2="-73.204" y2="1.784" xlink:href="#linear-gradient-6"/>
    <linearGradient id="linear-gradient-18" x1="-114.487" y1="-0.443" x2="-102.497" y2="3.609" xlink:href="#linear-gradient-6"/>
    <linearGradient id="linear-gradient-19" x1="-8.415" y1="-0.123" x2="-7.482" y2="1.014" xlink:href="#linear-gradient-6"/>
    <linearGradient id="linear-gradient-20" x1="-69.985" y1="0.261" x2="-62.787" y2="2.696" xlink:href="#linear-gradient-6"/>
    <linearGradient id="linear-gradient-21" x1="-0.776" y1="0.529" x2="-1.413" y2="2.466" gradientUnits="objectBoundingBox">
      <stop offset="0" stop-color="#e1473d"/>
      <stop offset="1" stop-color="#e9605a"/>
    </linearGradient>
    <linearGradient id="linear-gradient-22" x1="4.281" y1="-4.156" x2="3.693" y2="-2.497" gradientUnits="objectBoundingBox">
      <stop offset="0" stop-color="#fe7062"/>
      <stop offset="1" stop-color="#ff928e"/>
    </linearGradient>
    <linearGradient id="linear-gradient-23" x1="-2.365" y1="1.376" x2="-1.337" y2="3.786" gradientUnits="objectBoundingBox">
      <stop offset="0" stop-color="#ff9085"/>
      <stop offset="1" stop-color="#fb6fbb"/>
    </linearGradient>
    <linearGradient id="linear-gradient-24" x1="0.594" y1="0.278" x2="0.933" y2="-0.972" xlink:href="#linear-gradient-22"/>
    <linearGradient id="linear-gradient-25" x1="1.69" y1="-1.805" x2="1.556" y2="-1.546" xlink:href="#linear-gradient-22"/>
    <linearGradient id="linear-gradient-26" x1="-3.867" y1="15.588" x2="-4.672" y2="20.694" xlink:href="#linear-gradient-6"/>
  </defs>
  <g id="Illustration" transform="translate(-468.032 -456.817)">
    <g id="Group_1164" data-name="Group 1164" transform="translate(468.032 456.817)">
      <path id="Path_1764" data-name="Path 1764" d="M714.823,713.8a100.559,100.559,0,0,1-15.441,12.8c-50.371,35.573-109.973,25.2-122.64,22.672-18.705-3.739-54.862-10.967-81-41.225-39.549-45.777-33.391-117.9-2.714-165.507,5.611-8.708,35.252-57.042,95.5-64.793,36.459-4.691,78.958,4.77,109.735,30.15C762.86,561.166,758.261,668.788,714.823,713.8Z" transform="translate(-468.032 -474.587)" fill="url(#linear-gradient)"/>
      <g id="Group_1145" data-name="Group 1145" transform="translate(2.012 0)">
        <g id="Group_1143" data-name="Group 1143" transform="translate(0 59.146)">
          <path id="Path_1850" data-name="Path 1850" d="M610.781,1156.887c-6.044-18.977-17.738-34.1-31.591-42.991a56.362,56.362,0,0,1-24.608-34.624q-.521-2.254-1.24-4.517c-7.269-22.823-27.207-36.851-44.532-31.333s-25.478,28.493-18.208,51.316a55.856,55.856,0,0,0,5.918,12.8,56.564,56.564,0,0,1,7.889,41.148,83.02,83.02,0,0,0,2.684,41.223c6.758,21.219,20.581,37.622,36.586,45.88a55.632,55.632,0,0,1,16.033,12.4c7.512,8.434,18.1,12.4,27.826,9.3,10.493-3.342,17.049-13.968,17.52-26.365a59.31,59.31,0,0,1,4.605-20.392C616.011,1195.386,616.892,1176.073,610.781,1156.887Z" transform="translate(-487.943 -1042.222)" fill="#11ab6d"/>
          <path id="Path_1851" data-name="Path 1851" d="M825.484,1275.286c7.068,14.363,13.666,28.942,20.111,43.589,1.613,3.661,3.166,7.348,4.732,11.03l2.347,5.523,2.3,5.543c1.52,3.7,3.091,7.381,4.568,11.1l4.433,11.154c2.86,7.474,5.784,14.923,8.5,22.451,1.365,3.761,2.8,7.5,4.093,11.285l3.918,11.348c5.07,15.183,9.76,30.5,13.661,46.026l-.67.176-3.364-11.5-.834-2.877-.906-2.856-1.824-5.708-1.813-5.71c-.6-1.9-1.272-3.787-1.9-5.681-1.291-3.78-2.552-7.571-3.867-11.342-5.36-15.054-10.921-30.036-16.791-44.9-2.992-7.41-5.921-14.845-8.965-22.235l-2.268-5.548-2.315-5.53c-1.541-3.687-3.082-7.374-4.66-11.046q-4.64-11.055-9.447-22.041-4.753-11.009-9.667-21.948Z" transform="translate(-790.818 -1251.739)" fill="#fff" opacity="0.57"/>
        </g>
        <g id="Group_1144" data-name="Group 1144" transform="translate(59.789)">
          <path id="Path_1852" data-name="Path 1852" d="M1193.324,592.907c-2.825-20.725-12.161-38.488-24.839-50.2a59.362,59.362,0,0,1-19.145-40.274q-.133-2.426-.468-4.9c-3.4-24.925-21.423-43.05-40.262-40.482s-31.357,24.855-27.96,49.78a58.924,58.924,0,0,0,3.8,14.316,59.634,59.634,0,0,1,.75,43.992,87.493,87.493,0,0,0-4.625,43.127c3.158,23.174,14.459,42.646,29.467,54.088a58.438,58.438,0,0,1,14.3,15.731c6.228,10.086,16.424,16.105,27,14.664,11.41-1.555,20.069-11.358,22.778-24.1a62.355,62.355,0,0,1,8.4-20.259C1191.81,633.678,1196.18,613.861,1193.324,592.907Z" transform="translate(-1079.712 -456.817)" fill="#69d55a"/>
          <path id="Path_1853" data-name="Path 1853" d="M1460.586,712.759c4.706,16.138,8.89,32.413,12.9,48.733,1.005,4.079,1.945,8.175,2.9,12.267l1.428,6.138,1.377,6.15c.9,4.1,1.861,8.195,2.716,12.309l2.567,12.341c1.607,8.249,3.283,16.485,4.736,24.764.732,4.138,1.545,8.261,2.193,12.415l2,12.448c2.5,16.624,4.586,33.318,5.823,50.085l-.722.06-1.4-12.51-.344-3.127-.422-3.119-.855-6.235-.844-6.235c-.277-2.079-.632-4.148-.944-6.222-.652-4.144-1.271-8.293-1.951-12.433-2.823-16.543-5.866-33.048-9.249-49.488-1.755-8.207-3.438-16.429-5.25-24.624l-1.341-6.15-1.393-6.139c-.927-4.093-1.853-8.187-2.821-12.27q-2.8-12.276-5.781-24.511c-1.948-8.166-3.974-16.315-6.024-24.454Z" transform="translate(-1421.477 -686.9)" fill="#fff" opacity="0.57"/>
        </g>
      </g>
      <g id="Group_1146" data-name="Group 1146" transform="translate(95.224 51.657)">
        <rect id="Rectangle_3099" data-name="Rectangle 3099" width="169.103" height="226.878" rx="23.034" fill="url(#linear-gradient-2)"/>
        <rect id="Rectangle_3100" data-name="Rectangle 3100" width="127.247" height="162.907" rx="63.623" transform="translate(20.748 34.085)" fill="#7d97f4"/>
        <circle id="Ellipse_146" data-name="Ellipse 146" cx="5.059" cy="5.059" r="5.059" transform="translate(77.089 17.397) rotate(-45)" fill="url(#linear-gradient-3)"/>
        <path id="Path_1854" data-name="Path 1854" d="M1908.8,1948.589l-65.083,1.082a8.913,8.913,0,0,0-8.984,8.6v40.987c0,4.669,4.03,8.292,8.984,8.093l65.083-2.613a8.725,8.725,0,0,0,8.452-8.509v-39.613A8.145,8.145,0,0,0,1908.8,1948.589Z" transform="translate(-1791.874 -1849.526)" fill="#ff6f35"/>
        <path id="Path_1855" data-name="Path 1855" d="M2005.071,1558.545a3.452,3.452,0,0,1-3.572-3.4v-8.971c0-9-7.612-16.3-17.036-16.272l-21.2.061c-9.666.028-17.587,7.543-17.587,16.753v9.18a3.713,3.713,0,0,1-3.752,3.588,3.594,3.594,0,0,1-3.763-3.487v-9.208c0-13.145,11.324-23.839,25.1-23.839h21.2c13.387,0,24.168,10.387,24.168,23.154v8.944A3.566,3.566,0,0,1,2005.071,1558.545Z" transform="translate(-1889.277 -1457.616)" fill="#ffbb51"/>
        <path id="Path_1856" data-name="Path 1856" d="M2199.911,2103.817a8.013,8.013,0,0,0-8.81-7.8,8.588,8.588,0,0,0-8.041,7.8,7.712,7.712,0,0,0,4.214,7.3,2.859,2.859,0,0,1,1.468,3.062l-1.859,10.428a2.11,2.11,0,0,0,2.236,2.444l4.776-.171a2.277,2.277,0,0,0,2.223-2.594l-1.857-10.331a3.063,3.063,0,0,1,1.549-3.132A8.219,8.219,0,0,0,2199.911,2103.817Z" transform="translate(-2104.997 -1982.038)" fill="url(#linear-gradient-4)"/>
      </g>
      <g id="Group_1150" data-name="Group 1150" transform="translate(41.547 105.048)">
        <g id="Group_1147" data-name="Group 1147" transform="translate(0.5 84.215)">
          <path id="Path_1857" data-name="Path 1857" d="M949.564,3137.917a1.035,1.035,0,0,0-.028-.271c-1.35-5.35-8.048-8.683-8.048-8.683l-2.655.208c-1.526,4.716-1.33,7.608-1.085,8.9.007.036.018.071.027.105A62.923,62.923,0,0,0,949.564,3137.917Z" transform="translate(-932.188 -3048.248)" fill="url(#linear-gradient-5)"/>
          <path id="Path_1858" data-name="Path 1858" d="M939.512,3217.843a1.15,1.15,0,0,0,.842.85c3.115.656,8.065.128,10.144-.143a.967.967,0,0,0,.8-.963A63.009,63.009,0,0,1,939.512,3217.843Z" transform="translate(-933.923 -3127.918)" fill="#91b3fa"/>
          <path id="Path_1859" data-name="Path 1859" d="M939.416,3091.891l1.124,5.412a.885.885,0,0,0,.756.729,7.5,7.5,0,0,0,1.742-.028,1.112,1.112,0,0,0,.881-1.307l-.781-4.806Z" transform="translate(-933.837 -3014.922)" fill="url(#linear-gradient-6)"/>
          <path id="Path_1860" data-name="Path 1860" d="M1123.406,3212.791a15.848,15.848,0,0,1-5.232-.748c0,.292,0,.588.009.9a.578.578,0,0,0,.552.588l16.1-.1a.735.735,0,0,0,.591-1.07C1133.313,3212.527,1127.938,3212.917,1123.406,3212.791Z" transform="translate(-1094.534 -3122.934)" fill="#91b3fa"/>
          <path id="Path_1861" data-name="Path 1861" d="M1135.429,3144.94a.784.784,0,0,0-.064-.122c-1.422-1.986-5.042-5.941-12.2-7.656l-3.432-.108a16.467,16.467,0,0,0-1.557,7.576,15.859,15.859,0,0,0,5.232.748C1127.944,3145.5,1133.319,3145.115,1135.429,3144.94Z" transform="translate(-1094.539 -3055.521)" fill="url(#linear-gradient-7)"/>
          <path id="Path_1862" data-name="Path 1862" d="M1125.78,3077.271c.054.253.768,4.1,1.045,5.6a.747.747,0,0,0,.671.634,7.855,7.855,0,0,0,2.351-.184,1.016,1.016,0,0,0,.7-1.066l-.384-6.091Z" transform="translate(-1101.372 -3000.781)" fill="url(#linear-gradient-8)"/>
          <path id="Path_1863" data-name="Path 1863" d="M906,2335.463s4.721,32.442,8.128,71.047a1.471,1.471,0,0,1-1.216,1.493,17.9,17.9,0,0,1-3.837.444,1.422,1.422,0,0,1-1.355-1.187c-1.161-6.807-9.443-43.337-11.617-51.377,0,0-2.5,34.152-1.7,51.871a.84.84,0,0,1-.741.873,14.1,14.1,0,0,1-3.081-.009,1.124,1.124,0,0,1-1-.954c-.827-5.76-5.585-40.051-5.383-64.751.011-1.394,1.634-12.838,1.634-12.838Z" transform="translate(-884.195 -2330.075)" fill="url(#linear-gradient-9)"/>
        </g>
        <path id="Path_1864" data-name="Path 1864" d="M1118.147,1843.429l.632,16.976a46.689,46.689,0,0,0,5.132,1.457,51.256,51.256,0,0,1,5.1-10.292A25.163,25.163,0,0,1,1118.147,1843.429Z" transform="translate(-1094.01 -1808.382)" fill="url(#linear-gradient-10)"/>
        <path id="Path_1865" data-name="Path 1865" d="M880.681,1858.284a1.336,1.336,0,0,1-.877-1.125c-.628-6.091-3.667-43.858,15.524-59.393,0,0,1.1-2.88,10.147,4.2s4.2,14.5,2.037,24.73c-2.621,12.383-7.219,22.505-5.185,30.125a1.056,1.056,0,0,1-.647,1.266A29.964,29.964,0,0,1,880.681,1858.284Z" transform="translate(-879.25 -1766.811)" fill="url(#linear-gradient-11)"/>
        <path id="Path_1866" data-name="Path 1866" d="M1044.236,1690.922c-.006.537-7.669,11.422-7.669,11.422s1.376,2.709,7.942,4.909l5.668-11.654Z" transform="translate(-1020.672 -1671.283)" fill="url(#linear-gradient-12)"/>
        <path id="Path_1867" data-name="Path 1867" d="M993.14,1959.3a.244.244,0,0,1-.139-.043,27.976,27.976,0,0,1-9.03-10.879.249.249,0,0,1,.458-.195,27.439,27.439,0,0,0,8.85,10.662.249.249,0,0,1-.14.455Z" transform="translate(-973.373 -1902.415)" fill="url(#linear-gradient-13)"/>
        <path id="Path_1868" data-name="Path 1868" d="M1022.707,1844.651a.249.249,0,0,1-.21-.114c-.018-.028-1.889-2.94-5.451-9.318a7.179,7.179,0,0,0-4.279-3.692,8.358,8.358,0,0,0-5.7.757.249.249,0,1,1-.246-.432,8.685,8.685,0,0,1,6.074-.8,7.653,7.653,0,0,1,4.584,3.929c3.553,6.362,5.416,9.263,5.435,9.292a.249.249,0,0,1-.209.384Z" transform="translate(-993.82 -1797.021)" fill="url(#linear-gradient-14)"/>
        <g id="Group_1148" data-name="Group 1148" transform="translate(13.769 6.564)">
          <path id="Path_1869" data-name="Path 1869" d="M1074.886,1629.189s2.727,6.264,2.91,9.552.891,5.421-2.91,6.083a8.081,8.081,0,0,1-8.739-4.507s-2.718-5.046-2.108-7.113S1074.886,1629.189,1074.886,1629.189Z" transform="translate(-1059.058 -1622.351)" fill="url(#linear-gradient-15)"/>
          <path id="Path_1870" data-name="Path 1870" d="M1023.918,1577.125l.216-.1a.522.522,0,0,0,.255-.717c-.536-1.036-1.581-3.409-.231-3.963,1.74-.714,8.631-2.119,10.118-4.564a4.55,4.55,0,0,0-1.74-6.247.262.262,0,0,0-.343.112l-.159.3a.258.258,0,0,1-.477-.049h0a.257.257,0,0,0-.465-.067c-.457.732-1.691,1.918-4.991,2.527-4.69.865-7.79,2.763-7.867,6a.259.259,0,0,1-.4.213c-.346-.211-.9-.31-1.641.312-1.288,1.083-.761,3.892,2.063,6.2a.257.257,0,0,1-.012.414c-.512.333-1.275,1.126.7,2.183a6.662,6.662,0,0,0,4.16.906.257.257,0,0,0,.209-.311l-.628-2.848a.258.258,0,0,1,.252-.314Z" transform="translate(-1015.529 -1561.514)" fill="url(#linear-gradient-16)"/>
          <path id="Path_1871" data-name="Path 1871" d="M1069.248,1694.587s-1.04-4-2.834-2.879.931,4.483,2.373,4.633Z" transform="translate(-1060.741 -1678.375)" fill="url(#linear-gradient-17)"/>
        </g>
        <path id="Path_1872" data-name="Path 1872" d="M1435.765,1773.976s-1.367-2.423-1.28-3.6-.647-2.906.134-2.779.942.024,1.154,1.437S1438.449,1776.617,1435.765,1773.976Z" transform="translate(-1378.182 -1740.205)" fill="url(#linear-gradient-18)"/>
        <path id="Path_1873" data-name="Path 1873" d="M1203.14,1792.658l-.031,4.841c-9.252,9.989-16.74,10.577-22.813,8.431a51.29,51.29,0,0,0-5.1,10.292c24.707,5.447,30.525-17.266,30.525-17.266,3.346-1.386,4.021-2.2,3.877-3.106Z" transform="translate(-1145.299 -1762.74)" fill="url(#linear-gradient-19)"/>
        <path id="Path_1874" data-name="Path 1874" d="M1483.471,1722.952c-.789-.32-2.335-3.266-2.631-2.3s.125,2.3,0,2.709-2.051,5.154-1.667,6.207c.277.76,1.807.648,2.041,1.891a.795.795,0,0,0,1.58,0C1482.826,1731.3,1484.261,1723.272,1483.471,1722.952Z" transform="translate(-1418.516 -1697.837)" fill="url(#linear-gradient-20)"/>
        <g id="Group_1149" data-name="Group 1149" transform="translate(37.039)">
          <path id="Path_1875" data-name="Path 1875" d="M1248.551,1523.043a25.039,25.039,0,0,0,40.328,28.72l42.872,21.676a2.331,2.331,0,0,0,2.244-.078l4.193-2.5a2.26,2.26,0,0,0,.206-.14c.019-.014.036-.029.054-.043.049-.039.1-.079.141-.121l.045-.044a2.337,2.337,0,0,0,.158-.172l0,0a2.33,2.33,0,0,0,.365-2.343l-3.407-8.541a2.332,2.332,0,0,0-1.113-1.217l-4.294-2.171-1.136,2.248-3.689-1.865,1.136-2.248-3.451-1.745-1.045,2.068-4.483-2.267,1.045-2.068-1.671-.844-.538,1.064-3.758-1.9.538-1.064-2.923-1.478-1.136,2.247-2.088-1.056,1.136-2.248-1.81-.915-1.136,2.248-3.619-1.83,1.136-2.248-5.087-2.572h0l-2.178-1.1a25.039,25.039,0,0,0-47.036-15.452Zm14.607,1.7a5.069,5.069,0,1,1-6.812,2.237A5.07,5.07,0,0,1,1263.157,1524.747Z" transform="translate(-1245.852 -1508.01)" fill="url(#linear-gradient-21)"/>
          <path id="Path_1876" data-name="Path 1876" d="M1593.98,1720.178l20.323,10.276-1.136,2.248,3.619,1.83,1.136-2.248,1.81.915-1.136,2.248,2.088,1.056,1.136-2.248,2.923,1.478-.538,1.064,3.758,1.9.538-1.064,1.67.845-1.045,2.067,4.483,2.267,1.045-2.068,3.451,1.745-1.136,2.248,3.689,1.865,1.136-2.248,4.294,2.171a2.33,2.33,0,0,1,1.113,1.217l3.407,8.541a2.331,2.331,0,0,1-.972,2.866l-4.193,2.5a2.33,2.33,0,0,1-2.244.078l-51.753-26.167Z" transform="translate(-1556.531 -1697.583)" fill="url(#linear-gradient-22)"/>
          <path id="Path_1877" data-name="Path 1877" d="M1267.234,1543.928a25.035,25.035,0,1,0-11.046-33.638A25.036,25.036,0,0,0,1267.234,1543.928Zm-1.014-22.886a5.069,5.069,0,1,1,6.812-2.237A5.069,5.069,0,0,1,1266.221,1521.042Z" transform="translate(-1252.718 -1496.545)" fill="url(#linear-gradient-23)"/>
          <path id="Path_1878" data-name="Path 1878" d="M1296.517,1539.009l42.871,21.676a2.331,2.331,0,0,0,2.244-.078l4.193-2.5a2.325,2.325,0,0,0,1.114-1.7c-3.907-4.233-41.049-20.452-42.438-23.79-.494-1.187-.579-2.986.9-5.775l-2.178-1.1a25.035,25.035,0,1,0-6.708,13.268Zm-25.721-27.015a5.069,5.069,0,1,1-6.812,2.237A5.07,5.07,0,0,1,1270.8,1511.994Z" transform="translate(-1252.718 -1496.545)" fill="url(#linear-gradient-24)"/>
          <path id="Path_1879" data-name="Path 1879" d="M1313.179,1583.27a20.122,20.122,0,1,0-8.878-27.036A20.122,20.122,0,0,0,1313.179,1583.27Zm-3.23-18.5a5.069,5.069,0,1,1,6.812-2.237A5.069,5.069,0,0,1,1309.948,1564.77Z" transform="translate(-1296.446 -1540.273)" fill="url(#linear-gradient-25)"/>
        </g>
        <path id="Path_1880" data-name="Path 1880" d="M1074.9,1965.2s23.576,7.893,36.764-2.148a3.739,3.739,0,0,1,2.865-.729l5.038.821a4.029,4.029,0,0,0,4.585-3.119,8.483,8.483,0,0,0,.12-3.622l-9.511-.573.272-1.234s-4.2,1.028-4.288,4.317c0,0-9.86,6.459-27.845-3.566C1082.9,1955.343,1075.9,1960.824,1074.9,1965.2Z" transform="translate(-1055.133 -1908.314)" fill="url(#linear-gradient-26)"/>
      </g>
      <g id="Group_1163" data-name="Group 1163" transform="translate(165.044 1.37)">
        <g id="Group_1156" data-name="Group 1156">
          <g id="Group_1151" data-name="Group 1151" transform="translate(14.644)" opacity="0.3">
            <path id="Path_1881" data-name="Path 1881" d="M2362.218,512.739a1,1,0,0,1-.953-1.035c.044-1.066.042-2.151-.005-3.223a.994.994,0,0,1,.93-1.037h.02a1,1,0,0,1,1.038.95c.05,1.128.052,2.27.005,3.392a.993.993,0,0,1-.929.952A.952.952,0,0,1,2362.218,512.739Zm-1.548-9.459c-.193-1.055-.433-2.112-.713-3.141a.994.994,0,1,1,1.919-.523c.3,1.083.548,2.2.752,3.306a1,1,0,0,1-1.958.359Zm-2.437-8.081c-.422-.983-.892-1.959-1.4-2.9a.995.995,0,1,1,1.753-.939c.532.993,1.027,2.022,1.471,3.056a.995.995,0,1,1-1.828.785Zm-4.184-7.333c-.632-.865-1.309-1.712-2.011-2.518a.995.995,0,1,1,1.5-1.307c.74.849,1.452,1.741,2.118,2.651a.995.995,0,0,1-1.606,1.174Zm-5.713-6.218c-.806-.7-1.654-1.378-2.519-2.01a.995.995,0,1,1,1.174-1.606c.911.666,1.8,1.378,2.651,2.115a.995.995,0,1,1-1.306,1.5Zm-6.947-4.8c-.942-.506-1.918-.978-2.9-1.4a.995.995,0,0,1,.789-1.826c1.034.447,2.062.944,3.053,1.476a.995.995,0,0,1-.942,1.753Zm-36.936-.463a1,1,0,0,1,.41-1.346c.993-.53,2.023-1.023,3.061-1.466a.995.995,0,1,1,.781,1.829c-.985.421-1.962.889-2.906,1.392a.994.994,0,0,1-1.346-.41Zm29.1-2.675c-1.031-.284-2.087-.526-3.138-.72a.995.995,0,0,1,.361-1.956c1.107.2,2.219.46,3.3.759a.995.995,0,1,1-.528,1.918Zm-21.127-.723a1,1,0,0,1,.7-1.22c1.086-.294,2.2-.544,3.309-.745a.995.995,0,0,1,.355,1.958c-1.054.191-2.112.429-3.145.708a1,1,0,0,1-1.22-.7Zm12.791-.586c-1.068-.046-2.152-.047-3.222,0a.995.995,0,0,1-.1-1.986h.021c1.126-.048,2.267-.048,3.391,0a.995.995,0,0,1,.022,1.987C2325.291,472.4,2325.255,472.4,2325.219,472.4Z" transform="translate(-2298.495 -470.377)" fill="#91b3fa"/>
            <path id="Path_1882" data-name="Path 1882" d="M2247.583,546.695a.99.99,0,0,0,.555-.214c.4-.319.817-.635,1.234-.939a.995.995,0,1,0-1.173-1.607c-.438.32-.875.652-1.3.988a.995.995,0,0,0,.682,1.772Z" transform="translate(-2246.524 -536.331)" fill="#91b3fa"/>
          </g>
          <g id="Group_1152" data-name="Group 1152" transform="translate(0 33.431)" opacity="0.3">
            <path id="Path_1883" data-name="Path 1883" d="M2104.047,804.831a1,1,0,0,0,.926-.9c.049-.51.109-1.029.179-1.54a.995.995,0,1,0-1.971-.271c-.074.538-.137,1.084-.189,1.621a1,1,0,0,0,1.055,1.087Z" transform="translate(-2102.845 -801.263)" fill="#91b3fa"/>
            <path id="Path_1884" data-name="Path 1884" d="M2141.8,908.378a.995.995,0,0,1-.029-1.989c1.046-.015,2.107-.075,3.167-.178a.995.995,0,1,1,.193,1.98q-.688.067-1.374.111C2143.108,908.343,2142.449,908.369,2141.8,908.378Zm7.481-1.815a1,1,0,0,1,.739-1.2c1.026-.244,2.053-.533,3.052-.86a.995.995,0,1,1,.62,1.89c-1.052.345-2.133.649-3.213.905a1.022,1.022,0,0,1-.167.025A1,1,0,0,1,2149.283,906.563Zm-12.894,1.522c-1.1-.136-2.206-.32-3.292-.548a.995.995,0,0,1,.409-1.947c1.032.217,2.083.392,3.126.521a.995.995,0,0,1-.057,1.98A1.01,1.01,0,0,1,2136.389,908.084Zm21-4.184a.994.994,0,0,1,.457-1.33c.947-.462,1.884-.97,2.788-1.51a.995.995,0,1,1,1.02,1.707c-.95.569-1.938,1.1-2.935,1.59a.993.993,0,0,1-1.33-.457Zm-29.5,2.159c-1.041-.374-2.08-.8-3.09-1.258a.995.995,0,1,1,.827-1.809c.959.438,1.946.841,2.935,1.2a.995.995,0,1,1-.672,1.873Zm-7.853-3.841c-.937-.593-1.859-1.233-2.741-1.9a.995.995,0,1,1,1.2-1.586c.839.635,1.715,1.243,2.6,1.807a.995.995,0,1,1-1.064,1.68Zm-6.831-5.461c-.785-.784-1.546-1.61-2.262-2.454a.995.995,0,0,1,1.518-1.286c.68.8,1.4,1.587,2.149,2.332a.995.995,0,0,1-1.405,1.408Zm-5.476-6.821c-.6-.936-1.157-1.909-1.67-2.891a.994.994,0,1,1,1.763-.921c.488.932,1.021,1.856,1.586,2.745a.995.995,0,1,1-1.679,1.067Zm-3.846-7.862c-.373-1.042-.706-2.114-.991-3.186a.995.995,0,1,1,1.923-.511c.271,1.018.587,2.036.941,3.026a.995.995,0,1,1-1.873.67Zm-2.023-8.505c-.1-.809-.179-1.632-.231-2.444q-.028-.442-.046-.881a.984.984,0,0,1,.952-1.035.994.994,0,0,1,1.036.952q.017.418.044.837c.049.773.122,1.554.219,2.323a.994.994,0,0,1-.863,1.11l-.062.006A.994.994,0,0,1,2101.858,873.57Z" transform="translate(-2101.58 -862.344)" fill="#91b3fa"/>
            <path id="Path_1885" data-name="Path 1885" d="M2725.492,1145.961a.991.991,0,0,0,.559-.217c.42-.337.841-.689,1.251-1.047a.995.995,0,0,0-1.308-1.5c-.39.34-.789.674-1.188.994a.995.995,0,0,0,.687,1.768Z" transform="translate(-2661.504 -1108.431)" fill="#91b3fa"/>
          </g>
          <g id="Group_1155" data-name="Group 1155" transform="translate(9.695 9.47)">
            <path id="Path_1886" data-name="Path 1886" d="M2253.712,608.647a.464.464,0,0,0,0-.54l-3.277-4.613a24.635,24.635,0,0,0,1.811-7.778l4.972-2.693a.465.465,0,0,0,.238-.485l-1.111-6.7a.464.464,0,0,0-.381-.382l-5.575-.944a24.66,24.66,0,0,0-4.224-6.777l1.613-5.424a.465.465,0,0,0-.175-.51l-5.52-3.95a.465.465,0,0,0-.54,0l-4.613,3.277a24.645,24.645,0,0,0-7.778-1.81l-2.693-4.972a.464.464,0,0,0-.485-.237l-6.7,1.11a.465.465,0,0,0-.382.381l-.944,5.576a24.64,24.64,0,0,0-6.777,4.224l-5.424-1.613a.465.465,0,0,0-.511.175l-3.949,5.52a.465.465,0,0,0,0,.54l3.277,4.613a24.655,24.655,0,0,0-1.81,7.778l-4.973,2.693a.464.464,0,0,0-.237.485l1.11,6.7a.465.465,0,0,0,.381.382l5.575.944a24.66,24.66,0,0,0,4.224,6.777l-1.613,5.424a.465.465,0,0,0,.175.511l5.52,3.949a.465.465,0,0,0,.54,0l4.613-3.277a24.645,24.645,0,0,0,7.778,1.81l2.693,4.972a.465.465,0,0,0,.485.237l6.7-1.111a.465.465,0,0,0,.383-.381l.944-5.576a24.645,24.645,0,0,0,6.777-4.224l5.424,1.613a.465.465,0,0,0,.511-.175Z" transform="translate(-2197.541 -564.106)" fill="#91b3fa"/>
            <g id="Group_1153" data-name="Group 1153" transform="translate(23.138 23.138)">
              <path id="Path_1887" data-name="Path 1887" d="M2432.813,806.737a6.819,6.819,0,1,1,1,.01A6.83,6.83,0,0,1,2432.813,806.737ZM2430,795.946a5.231,5.231,0,1,0,3.813-1.22,5.32,5.32,0,0,0-.776-.008A5.192,5.192,0,0,0,2430,795.946Z" transform="translate(-2426.555 -793.115)" fill="#bdd0fb"/>
            </g>
            <g id="Group_1154" data-name="Group 1154" transform="translate(13.071 13.09)">
              <path id="Path_1888" data-name="Path 1888" d="M2344.728,727.193a17.117,17.117,0,0,0,1.713-.2h0q.27-.045.538-.1a16.928,16.928,0,0,0,2.585-.732l.034-.013.1-.037.188-.073a.4.4,0,0,0,.251-.395.387.387,0,0,0-.027-.122.4.4,0,0,0-.516-.223,16,16,0,0,1-17.8-4.2,15.88,15.88,0,0,1-3.863-8.042,16.132,16.132,0,0,1-.187-1.634,15.981,15.981,0,0,1,31.716-3.595,16.1,16.1,0,0,1,.184,1.613,15.925,15.925,0,0,1-1.075,6.852.4.4,0,0,0-.027.171.4.4,0,0,0,.768.121,16.731,16.731,0,0,0,1.13-7.194,16.781,16.781,0,0,0-19.487-15.5,16.78,16.78,0,0,0-14,17.579,16.893,16.893,0,0,0,.2,1.715,16.779,16.779,0,0,0,17.581,14Z" transform="translate(-2326.917 -693.671)" fill="#bdd0fb"/>
            </g>
          </g>
        </g>
        <g id="Group_1162" data-name="Group 1162" transform="translate(65.677 33.511)">
          <g id="Group_1157" data-name="Group 1157" transform="translate(16.235)" opacity="0.3">
            <path id="Path_1889" data-name="Path 1889" d="M3224.2,1102.967a.614.614,0,0,0,.56-.478c.115-.509.216-1.028.3-1.543a.615.615,0,0,0-1.213-.2c-.08.491-.177.986-.286,1.471a.614.614,0,0,0,.638.748Z" transform="translate(-3192.102 -1070.106)" fill="#91b3fa"/>
            <path id="Path_1890" data-name="Path 1890" d="M2944.97,830.233a.615.615,0,0,1-.59-.638,25.424,25.424,0,0,0-.032-2.577c-.012-.18-.025-.361-.041-.542a.615.615,0,0,1,.561-.664.636.636,0,0,1,.665.561q.024.284.042.567a26.825,26.825,0,0,1,.033,2.7.615.615,0,0,1-.574.59Zm-1.115-6.845a25.442,25.442,0,0,0-.825-3.008.614.614,0,0,1,1.163-.4,26.593,26.593,0,0,1,.865,3.154.615.615,0,0,1-.476.728.623.623,0,0,1-.088.012A.614.614,0,0,1,2943.855,823.388Zm-2.016-5.892a25.27,25.27,0,0,0-1.539-2.714.614.614,0,1,1,1.029-.671,26.635,26.635,0,0,1,1.614,2.846.615.615,0,0,1-.282.822.623.623,0,0,1-.23.061A.615.615,0,0,1,2941.839,817.5Zm-3.4-5.217a25.283,25.283,0,0,0-2.156-2.254.615.615,0,0,1,.834-.9,26.753,26.753,0,0,1,2.261,2.364.614.614,0,0,1-.939.793Zm-4.573-4.228a25.589,25.589,0,0,0-2.639-1.663.614.614,0,0,1,.591-1.077,26.927,26.927,0,0,1,2.766,1.743.615.615,0,0,1-.718,1Zm-5.461-2.99a25.216,25.216,0,0,0-2.962-.968.614.614,0,0,1,.309-1.189,26.442,26.442,0,0,1,3.106,1.015.614.614,0,1,1-.453,1.142Zm-6.024-1.563a25.248,25.248,0,0,0-3.112-.211.615.615,0,1,1,.008-1.229,26.68,26.68,0,0,1,3.263.222.614.614,0,0,1-.04,1.222A.629.629,0,0,1,2922.379,803.5Zm-10.041.063a.614.614,0,0,1,.451-.742,26.743,26.743,0,0,1,2.793-.524c.143-.02.285-.037.428-.054a.615.615,0,0,1,.141,1.221c-.134.015-.268.032-.4.051a25.423,25.423,0,0,0-2.667.5.613.613,0,0,1-.743-.451Z" transform="translate(-2912.321 -802.057)" fill="#91b3fa"/>
          </g>
          <g id="Group_1158" data-name="Group 1158" transform="translate(0 38.997)" opacity="0.3">
            <path id="Path_1891" data-name="Path 1891" d="M2775.945,1202.083a26.806,26.806,0,0,1-3.216-.032.615.615,0,0,1,.087-1.226,25.425,25.425,0,0,0,3.067.031.614.614,0,0,1,.07,1.227Zm2.489-.857a.614.614,0,0,1,.5-.709,25.694,25.694,0,0,0,2.988-.7.614.614,0,0,1,.352,1.177,26.878,26.878,0,0,1-3.132.734.6.6,0,0,1-.066.008A.615.615,0,0,1,2778.434,1201.227Zm-8.9.4a26.693,26.693,0,0,1-3.114-.809.615.615,0,0,1,.38-1.169,25.414,25.414,0,0,0,2.971.772.614.614,0,0,1-.079,1.216A.623.623,0,0,1,2769.538,1201.628Zm14.95-2.06a.615.615,0,0,1,.316-.809,25.313,25.313,0,0,0,2.73-1.4.614.614,0,1,1,.627,1.057,26.389,26.389,0,0,1-2.864,1.47.615.615,0,0,1-.809-.316Zm-21.054.071a26.686,26.686,0,0,1-2.827-1.534.615.615,0,1,1,.65-1.043,25.241,25.241,0,0,0,2.7,1.463.615.615,0,0,1-.52,1.114Zm-5.45-3.4a26.846,26.846,0,0,1-2.378-2.166.614.614,0,0,1,.88-.857,25.608,25.608,0,0,0,2.27,2.066.615.615,0,0,1-.772.957Zm-4.48-4.6a26.642,26.642,0,0,1-1.791-2.675.614.614,0,0,1,1.061-.62,25.036,25.036,0,0,0,1.708,2.55.615.615,0,0,1-.978.745Z" transform="translate(-2751.629 -1188.039)" fill="#91b3fa"/>
            <path id="Path_1892" data-name="Path 1892" d="M3130.652,1254.339a.611.611,0,0,0,.336-.127c.417-.322.825-.657,1.214-1a.614.614,0,0,0-.808-.926c-.372.324-.761.644-1.158.951a.614.614,0,0,0,.416,1.1Z" transform="translate(-3091.77 -1245.662)" fill="#91b3fa"/>
          </g>
          <g id="Group_1161" data-name="Group 1161" transform="translate(2.925 6.287)">
            <path id="Path_1893" data-name="Path 1893" d="M2818.167,894.089a.31.31,0,0,0,0-.361l-2.193-3.087a16.5,16.5,0,0,0,1.212-5.2l3.327-1.8a.31.31,0,0,0,.159-.325l-.743-4.48a.31.31,0,0,0-.255-.256l-3.731-.632a16.487,16.487,0,0,0-2.826-4.535l1.079-3.629a.311.311,0,0,0-.117-.342l-3.693-2.643a.312.312,0,0,0-.362,0l-3.087,2.193a16.487,16.487,0,0,0-5.2-1.211l-1.8-3.327a.31.31,0,0,0-.324-.159l-4.481.743a.311.311,0,0,0-.255.255l-.632,3.731a16.485,16.485,0,0,0-4.535,2.827l-3.629-1.079a.311.311,0,0,0-.342.117l-2.643,3.694a.311.311,0,0,0,0,.361l2.193,3.087a16.49,16.49,0,0,0-1.212,5.2l-3.327,1.8a.311.311,0,0,0-.158.325l.743,4.481a.31.31,0,0,0,.255.256l3.73.632a16.492,16.492,0,0,0,2.827,4.535l-1.079,3.629a.31.31,0,0,0,.117.342l3.694,2.643a.311.311,0,0,0,.361,0l3.087-2.193a16.492,16.492,0,0,0,5.2,1.212l1.8,3.327a.311.311,0,0,0,.324.159l4.481-.743a.31.31,0,0,0,.256-.255l.632-3.731a16.5,16.5,0,0,0,4.535-2.827l3.63,1.079a.311.311,0,0,0,.341-.117Z" transform="translate(-2780.58 -864.283)" fill="#91b3fa"/>
            <g id="Group_1159" data-name="Group 1159" transform="translate(15.401 15.401)">
              <path id="Path_1894" data-name="Path 1894" d="M2937.275,1026a4.631,4.631,0,1,1,.689.007A4.743,4.743,0,0,1,2937.275,1026Zm-3.022-4.915a3.419,3.419,0,0,0,3.124,3.69h0a3.419,3.419,0,0,0,.567-6.814,3.46,3.46,0,0,0-.5,0A3.424,3.424,0,0,0,2934.252,1021.085Z" transform="translate(-2933.012 -1016.722)" fill="#bdd0fb"/>
            </g>
            <g id="Group_1160" data-name="Group 1160" transform="translate(8.399 8.409)">
              <path id="Path_1895" data-name="Path 1895" d="M2876.007,970.64a11.669,11.669,0,0,0,3.445-.752l.1-.039a.614.614,0,0,0-.452-1.142,10.389,10.389,0,0,1-2.123.587h0l-.12.019a10.244,10.244,0,0,1-5.044-.474,10.394,10.394,0,0,1-2.472-1.283l-.02-.013-.057-.041a10.343,10.343,0,1,1,15.648-4.626.6.6,0,0,0-.042.264.614.614,0,0,0,1.185.186,11.575,11.575,0,1,0-22.325-3.528,11.708,11.708,0,0,0,.135,1.183A11.59,11.59,0,0,0,2876.007,970.64Z" transform="translate(-2863.706 -947.512)" fill="#bdd0fb"/>
            </g>
          </g>
        </g>
      </g>
    </g>
  </g>
</svg>
