<svg xmlns="http://www.w3.org/2000/svg" width="18.586" height="23.232" viewBox="0 0 18.586 23.232">
  <path id="lock" d="M9.485,12.293V8.808a5.808,5.808,0,1,1,11.616,0v3.485h1.162a2.323,2.323,0,0,1,2.323,2.323v9.293a2.323,2.323,0,0,1-2.323,2.323H8.323A2.323,2.323,0,0,1,6,23.909V14.616a2.323,2.323,0,0,1,2.323-2.323ZM8.323,14.616v9.293H22.262V14.616Zm3.485-2.323h6.97V8.808a3.485,3.485,0,1,0-6.97,0Zm5.808,4.646h2.323v4.646H17.616Z" transform="translate(-6 -3)" fill="#b8b8b8" fill-rule="evenodd"/>
</svg>
